<svg xmlns="http://www.w3.org/2000/svg" width="512" height="512" viewBox="0 0 512 512"><path d="M48.87,25.507c-0.178,-0.313 -0.51,-0.507 -0.87,-0.507h-13v-16.227c0,-0.912 0,-1.773 -1,-1.773c-0.352,0 -0.677,0.184 -0.857,0.485l-18,30c-0.186,0.309 -0.19,0.693 -0.013,1.008c0.177,0.314 0.51,0.507 0.87,0.507h13v17c0,0.449 0.3,0.844 0.733,0.964c0.089,0.024 0.178,0.036 0.267,0.036c0.345,0 0.673,-0.179 0.857,-0.485l18,-30c0.186,-0.309 0.191,-0.694 0.013,-1.008Zm-17.87,26.883v-14.39c0,-0.553 -0.448,-1 -1,-1h-12.234l15.234,-25.391c0.001,5.253 0,14.391 0,14.391c0,0.265 0.105,0.52 0.293,0.707c0.188,0.187 0.441,0.293 0.707,0.293h12.233l-15.233,25.39Z" transform="scale(8)"/></svg>