<svg xmlns="http://www.w3.org/2000/svg" width="512" height="512" viewBox="0 0 512 512"><path d="M46,29c-0.428,0 -0.859,0.033 -1.292,0.097c-1.365,-6.968 -7.507,-12.097 -14.708,-12.097c-8.271,0 -15,6.729 -15,15c0,0.354 0.014,0.713 0.043,1.078c-0.344,-0.052 -0.692,-0.078 -1.043,-0.078c-3.86,0 -7,3.141 -7,7c0,3.859 3.14,7 7,7h32c4.963,0 9,-4.037 9,-9c0,-4.963 -4.037,-9 -9,-9Zm0,16h-32c-2.757,0 -5,-2.243 -5,-5c0,-2.757 2.243,-5 5,-5c0.634,0 1.257,0.121 1.853,0.359c0.336,0.134 0.72,0.077 1.002,-0.152c0.282,-0.229 0.417,-0.592 0.354,-0.949c-0.141,-0.805 -0.209,-1.543 -0.209,-2.258c0,-7.168 5.832,-13 13,-13c6.557,0 12.1,4.906 12.894,11.413c0.035,0.289 0.193,0.547 0.435,0.709c0.241,0.162 0.54,0.211 0.821,0.134c0.621,-0.17 1.244,-0.256 1.85,-0.256c3.859,0 7,3.141 7,7c0,3.859 -3.141,7 -7,7Z" transform="scale(8)"/></svg>