<svg xmlns="http://www.w3.org/2000/svg" width="512" height="512" viewBox="0 0 512 512"><path d="M55.645,40.104c-0.294,-0.294 -0.739,-0.374 -1.119,-0.204c-2.992,1.352 -6.176,2.037 -9.463,2.037c-12.682,0 -23,-10.318 -23,-23c0,-3.288 0.686,-6.471 2.038,-9.461c0.171,-0.379 0.09,-0.825 -0.204,-1.119c-0.293,-0.294 -0.739,-0.376 -1.119,-0.204c-8.939,4.04 -14.715,12.983 -14.715,22.784c0,13.785 11.215,25 25,25c9.801,0 18.744,-5.775 22.786,-14.714c0.172,-0.379 0.089,-0.826 -0.204,-1.119Zm-22.583,13.833c-12.682,0 -23,-10.317 -23,-23c0,-8.143 4.334,-15.643 11.232,-19.758c-0.818,2.497 -1.232,5.096 -1.232,7.758c0,13.785 11.215,25 25,25c2.662,0 5.262,-0.414 7.76,-1.232c-4.116,6.898 -11.616,11.232 -19.76,11.232Z" transform="scale(8)"/></svg>