<svg xmlns="http://www.w3.org/2000/svg" width="512" height="512" viewBox="0 0 512 512"><g transform="scale(8)"><path d="M54.525,39.899c-2.992,1.352 -6.176,2.037 -9.463,2.037c-12.682,0 -23,-10.318 -23,-23c0,-3.288 0.686,-6.471 2.038,-9.461c0.171,-0.379 0.09,-0.825 -0.204,-1.119c-0.293,-0.294 -0.739,-0.376 -1.119,-0.204c-8.938,4.041 -14.714,12.984 -14.714,22.785c0,13.785 11.215,25 25,25c9.801,0 18.744,-5.775 22.786,-14.714c0.172,-0.379 0.09,-0.825 -0.204,-1.119c-0.294,-0.294 -0.74,-0.375 -1.12,-0.205Zm-21.463,14.038c-12.682,0 -23,-10.317 -23,-23c0,-8.143 4.334,-15.643 11.232,-19.758c-0.818,2.497 -1.232,5.096 -1.232,7.758c0,13.785 11.215,25 25,25c2.662,0 5.262,-0.414 7.76,-1.232c-4.116,6.898 -11.616,11.232 -19.76,11.232Z"/><path d="M56.462,14.601c-0.134,-0.412 -0.518,-0.691 -0.951,-0.691h-6.539l-2.021,-6.219c-0.134,-0.412 -0.517,-0.691 -0.951,-0.691c-0.434,0 -0.817,0.279 -0.951,0.691l-2.021,6.219h-6.539c-0.434,0 -0.817,0.279 -0.951,0.691c-0.134,0.412 0.013,0.863 0.363,1.118l5.29,3.843l-2.021,6.219c-0.134,0.412 0.013,0.863 0.363,1.118c0.352,0.255 0.824,0.255 1.176,0l5.291,-3.843l5.29,3.844c0.176,0.127 0.382,0.191 0.588,0.191c0.206,0 0.412,-0.063 0.588,-0.191c0.351,-0.255 0.497,-0.706 0.363,-1.118l-2.021,-6.219l5.29,-3.843c0.351,-0.256 0.498,-0.707 0.364,-1.119Zm-7.417,3.77c-0.351,0.255 -0.497,0.706 -0.363,1.118l1.294,3.983l-3.388,-2.461c-0.176,-0.128 -0.382,-0.191 -0.588,-0.191c-0.206,0 -0.412,0.063 -0.588,0.191l-3.388,2.461l1.294,-3.983c0.134,-0.412 -0.013,-0.863 -0.363,-1.118l-3.388,-2.461h4.188c0.434,0 0.817,-0.279 0.951,-0.691l1.294,-3.983l1.294,3.983c0.134,0.412 0.518,0.691 0.951,0.691h4.188l-3.388,2.461Z"/></g></svg>