<svg xmlns="http://www.w3.org/2000/svg" width="512" height="512" viewBox="0 0 512 512"><g transform="scale(8)"><path d="M32.744,7.332c-0.379,-0.423 -1.109,-0.423 -1.488,0c-0.746,0.831 -18.256,20.461 -18.256,30.668c0,10.477 8.523,19 19,19c10.477,0 19,-8.523 19,-19c0,-10.207 -17.511,-29.837 -18.256,-30.668Zm-0.744,47.668c-9.374,0 -17,-7.626 -17,-17c0,-8.32 13.632,-24.59 17,-28.482c3.368,3.891 17,20.158 17,28.482c0,9.374 -7.626,17 -17,17Z"/><path d="M32,47c-4.962,0 -9,-4.037 -9,-9c0,-0.553 -0.448,-1 -1,-1c-0.552,0 -1,0.447 -1,1c0,6.065 4.935,11 11,11c0.552,0 1,-0.447 1,-1c0,-0.553 -0.448,-1 -1,-1Z"/></g></svg>