<svg xmlns="http://www.w3.org/2000/svg" width="512" height="512" viewBox="0 0 512 512"><path d="M32,19c-13.785,0 -25,11.215 -25,25c0,0.553 0.448,1 1,1h48c0.553,0 1,-0.447 1,-1c0,-13.785 -11.215,-25 -25,-25Zm0,16c-4.624,0 -8.441,3.507 -8.941,8h-6.008c0.518,-7.805 7.015,-14 14.949,-14c7.934,0 14.431,6.195 14.949,14h-6.008c-0.5,-4.493 -4.316,-8 -8.941,-8Zm6.92,8h-13.84c0.488,-3.387 3.4,-6 6.92,-6c3.519,0 6.432,2.613 6.92,6Zm10.029,0c-0.521,-8.908 -7.913,-16 -16.949,-16c-9.037,0 -16.427,7.092 -16.949,16h-6.03c0.526,-12.22 10.632,-22 22.979,-22c12.347,0 22.453,9.78 22.979,22h-6.03Z" transform="scale(8)"/></svg>