<svg xmlns="http://www.w3.org/2000/svg" width="512" height="512" viewBox="0 0 512 512"><g transform="scale(8)"><path d="M48.626,12.761c0.025,-0.021 0.058,-0.03 0.081,-0.054l2,-2c0.391,-0.391 0.391,-1.023 0,-1.414c-0.391,-0.391 -1.023,-0.391 -1.414,0l-2,2c-0.121,0.121 -0.19,0.267 -0.237,0.419c-0.638,-0.311 -1.328,-0.527 -2.056,-0.632v-3.08c0,-0.552 -0.447,-1 -1,-1c-0.553,0 -1,0.448 -1,1v3.08c-3.387,0.488 -6,3.4 -6,6.92v8c0,2.757 -2.243,5 -5,5c-2.757,0 -5,-2.243 -5,-5v0v0c0,-10.477 -8.523,-19 -19,-19c-0.552,0 -1,0.447 -1,1c0,0.553 0.448,1 1,1c9.037,0 16.428,7.092 16.949,16h-4c-0.513,-6.702 -6.118,-12 -12.949,-12c-0.552,0 -1,0.448 -1,1c0,0.552 0.448,1 1,1c5.728,0 10.442,4.402 10.949,10h-4.05c-0.464,-2.279 -2.484,-4 -4.899,-4c-0.552,0 -1,0.448 -1,1c0,0.552 0.448,1 1,1c1.654,0 3,1.346 3,3v0v0c0,10.139 7.989,18.425 18,18.949v6.051h-12.586l-1.707,-1.707c-0.391,-0.391 -1.023,-0.391 -1.414,0c-0.391,0.391 -0.391,1.023 0,1.414l1.293,1.293l-1.293,1.293c-0.391,0.391 -0.391,1.023 0,1.414c0.195,0.195 0.451,0.293 0.707,0.293c0.256,0 0.512,-0.098 0.707,-0.293l1.707,-1.707h12.586v3c0,0.553 0.448,1 1,1c0.552,0 1,-0.447 1,-1v-3h10.586l-0.293,0.293c-0.391,0.391 -0.391,1.023 0,1.414c0.195,0.195 0.451,0.293 0.707,0.293c0.256,0 0.512,-0.098 0.707,-0.293l1.999,-1.999c0.093,-0.092 0.166,-0.203 0.217,-0.326c0.102,-0.244 0.102,-0.52 0,-0.764c-0.051,-0.123 -0.124,-0.234 -0.217,-0.326l-1.999,-1.999c-0.391,-0.391 -1.023,-0.391 -1.414,0c-0.391,0.391 -0.391,1.023 0,1.414l0.293,0.293h-10.586v-6.051c10.011,-0.524 18,-8.81 18,-18.949v-6v-2c0,-2.085 -0.922,-3.956 -2.374,-5.239Zm0.374,13.239c0,9.374 -7.626,17 -17,17c-9.038,0 -16.451,-7.09 -16.971,-16h10.042c0.487,3.388 3.408,6 6.929,6c3.859,0 7,-3.14 7,-7v-8c0,-2.757 2.243,-5 5,-5c2.757,0 5,2.243 5,5v8Z"/><path d="M45.4142 16.5858c.781049.781049.781049 2.04738 0 2.82843-.781049.781049-2.04738.781049-2.82843 0-.781049-.781049-.781049-2.04738 0-2.82843.781049-.781049 2.04738-.781049 2.82843 0M54 19h-2c-.553 0-1 .448-1 1 0 .552.447 1 1 1h2c.553 0 1-.448 1-1 0-.552-.447-1-1-1z"/></g></svg>