<svg xmlns="http://www.w3.org/2000/svg" width="512" height="512" viewBox="0 0 512 512"><path d="M51.414,32l5.293,-5.293c0.391,-0.391 0.391,-1.023 0,-1.414c-0.391,-0.391 -1.023,-0.391 -1.414,0l-5.707,5.707h-10.666c-0.17,-1.183 -0.636,-2.269 -1.321,-3.184l7.543,-7.543h8.071c0.553,0 1,-0.448 1,-1c0,-0.552 -0.447,-1 -1,-1h-7.485v-7.485c0,-0.552 -0.447,-1 -1,-1c-0.553,0 -1,0.448 -1,1v8.071l-7.543,7.543c-0.916,-0.686 -2.002,-1.152 -3.185,-1.322v-10.666l5.707,-5.707c0.391,-0.391 0.391,-1.023 0,-1.414c-0.391,-0.391 -1.023,-0.391 -1.414,0l-5.293,5.293l-5.293,-5.293c-0.391,-0.391 -1.023,-0.391 -1.414,0c-0.391,0.391 -0.391,1.023 0,1.414l5.707,5.707v10.666c-1.183,0.17 -2.269,0.636 -3.185,1.321l-7.543,-7.543v-8.071c0,-0.552 -0.448,-1 -1,-1c-0.552,0 -1,0.448 -1,1v7.485h-7.485c-0.552,0 -1,0.448 -1,1c0,0.552 0.448,1 1,1h8.071l7.543,7.543c-0.685,0.916 -1.151,2.002 -1.321,3.185h-10.666l-5.707,-5.707c-0.391,-0.391 -1.023,-0.391 -1.414,0c-0.391,0.391 -0.391,1.023 0,1.414l5.293,5.293l-5.293,5.293c-0.391,0.391 -0.391,1.023 0,1.414c0.195,0.195 0.451,0.293 0.707,0.293c0.256,0 0.512,-0.098 0.707,-0.293l5.707,-5.707h10.666c0.17,1.183 0.636,2.269 1.322,3.185l-7.543,7.543h-8.071c-0.552,0 -1,0.447 -1,1c0,0.553 0.448,1 1,1h7.485v7.485c0,0.553 0.448,1 1,1c0.552,0 1,-0.447 1,-1v-8.071l7.543,-7.543c0.915,0.686 2.001,1.151 3.184,1.321v10.666l-5.707,5.707c-0.391,0.391 -0.391,1.023 0,1.414c0.391,0.391 1.023,0.391 1.414,0l5.293,-5.293l5.293,5.293c0.195,0.195 0.451,0.293 0.707,0.293c0.256,0 0.512,-0.098 0.707,-0.293c0.391,-0.391 0.391,-1.023 0,-1.414l-5.707,-5.707v-10.666c1.183,-0.17 2.269,-0.636 3.185,-1.321l7.543,7.543v8.071c0,0.553 0.447,1 1,1c0.553,0 1,-0.447 1,-1v-7.485h7.485c0.553,0 1,-0.447 1,-1c0,-0.553 -0.447,-1 -1,-1h-8.071l-7.543,-7.543c0.686,-0.916 1.151,-2.002 1.321,-3.185h10.666l5.707,5.707c0.195,0.195 0.451,0.293 0.707,0.293c0.256,0 0.512,-0.098 0.707,-0.293c0.391,-0.391 0.391,-1.023 0,-1.414l-5.293,-5.293Zm-19.414,5c-2.757,0 -5,-2.243 -5,-5c0,-2.757 2.243,-5 5,-5c2.757,0 5,2.243 5,5c0,2.757 -2.243,5 -5,5Z" transform="scale(8)"/></svg>