<svg xmlns="http://www.w3.org/2000/svg" width="512" height="512" viewBox="0 0 512 512"><g transform="scale(8)"><path d="M52.119 25.419c1.843-2.016 2.881-4.662 2.881-7.419 0-6.065-4.935-11-11-11-3.493 0-6.7 1.604-8.801 4.399-.107.143-.155.307-.177.472-1.575-.561-3.266-.871-5.022-.871-8.271 0-15 6.729-15 15 0 .354.014.713.043 1.079-.344-.053-.692-.079-1.043-.079-3.86 0-7 3.14-7 7 0 3.859 3.14 7 7 7h32c4.963 0 9-4.037 9-9 0-2.598-1.113-4.936-2.881-6.581zm-15.32-12.818c1.719-2.289 4.344-3.601 7.201-3.601 4.963 0 9 4.038 9 9 0 2.325-.909 4.548-2.504 6.215-1.324-.768-2.857-1.215-4.496-1.215-.428 0-.859.033-1.292.097-.905-4.622-3.919-8.423-7.942-10.467.009-.012.023-.017.033-.029zm9.201 26.399h-32c-2.757 0-5-2.243-5-5 0-2.757 2.243-5 5-5 .634 0 1.257.121 1.853.359.336.134.72.076 1.002-.152.282-.228.417-.592.354-.949-.141-.804-.209-1.543-.209-2.258 0-7.168 5.832-13 13-13 6.557 0 12.1 4.906 12.894 11.413.035.289.193.547.435.709.242.162.54.212.821.134.621-.17 1.244-.256 1.85-.256 3.859 0 7 3.14 7 7 0 3.859-3.141 7-7 7zM26.707 45.293c-.391-.391-1.023-.391-1.414 0l-2 2c-.391.391-.391 1.023 0 1.414.195.195.451.293.707.293.256 0 .512-.098.707-.293l2-2c.391-.391.391-1.023 0-1.414zM19.293 51.293l-2 2c-.391.391-.391 1.023 0 1.414.195.195.451.293.707.293.256 0 .512-.098.707-.293l2-2c.391-.391.391-1.023 0-1.414-.391-.391-1.023-.391-1.414 0zM36.707 45.293c-.391-.391-1.023-.391-1.414 0l-2 2c-.391.391-.391 1.023 0 1.414.195.195.451.293.707.293.256 0 .512-.098.707-.293l2-2c.391-.391.391-1.023 0-1.414zM29.293 51.293l-2 2c-.391.391-.391 1.023 0 1.414.195.195.451.293.707.293.256 0 .512-.098.707-.293l2-2c.391-.391.391-1.023 0-1.414-.391-.391-1.023-.391-1.414 0zM45.293 45.293l-2 2c-.391.391-.391 1.023 0 1.414.195.195.451.293.707.293.256 0 .512-.098.707-.293l2-2c.391-.391.391-1.023 0-1.414-.391-.391-1.023-.391-1.414 0zM39.293 51.293l-2 2c-.391.391-.391 1.023 0 1.414.195.195.451.293.707.293.256 0 .512-.098.707-.293l2-2c.391-.391.391-1.023 0-1.414-.391-.391-1.023-.391-1.414 0z"/></g></svg>