<svg xmlns="http://www.w3.org/2000/svg" width="512" height="512" viewBox="0 0 512 512"><g transform="scale(8)"><path d="M52.119 24.419c1.843-2.016 2.881-4.662 2.881-7.419 0-6.065-4.935-11-11-11-3.493 0-6.7 1.604-8.801 4.399-.107.143-.155.307-.177.472-1.575-.561-3.266-.871-5.022-.871-8.271 0-15 6.729-15 15 0 .354.014.713.043 1.079-.344-.053-.692-.079-1.043-.079-3.86 0-7 3.14-7 7 0 3.859 3.14 7 7 7h32c4.963 0 9-4.037 9-9 0-2.598-1.113-4.936-2.881-6.581zm-15.32-12.818c1.719-2.289 4.344-3.601 7.201-3.601 4.963 0 9 4.038 9 9 0 2.325-.909 4.548-2.504 6.215-1.324-.768-2.857-1.215-4.496-1.215-.428 0-.859.033-1.292.097-.905-4.622-3.919-8.423-7.942-10.467.009-.012.023-.017.033-.029zm9.201 26.399h-32c-2.757 0-5-2.243-5-5 0-2.757 2.243-5 5-5 .634 0 1.257.121 1.853.359.336.134.72.076 1.002-.152.282-.229.417-.592.354-.949-.141-.804-.209-1.543-.209-2.258 0-7.168 5.832-13 13-13 6.557 0 12.1 4.906 12.894 11.413.035.289.193.547.435.709.241.162.54.211.821.134.621-.17 1.244-.256 1.85-.256 3.859 0 7 3.14 7 7 0 3.859-3.141 7-7 7zM24 44c-.552 0-1 .447-1 1v2c0 .553.448 1 1 1 .552 0 1-.447 1-1v-2c0-.553-.448-1-1-1zM20 50c-.552 0-1 .447-1 1v2c0 .553.448 1 1 1 .552 0 1-.447 1-1v-2c0-.553-.448-1-1-1zM34 44c-.553 0-1 .447-1 1v2c0 .553.447 1 1 1 .553 0 1-.447 1-1v-2c0-.553-.447-1-1-1zM30 50c-.552 0-1 .447-1 1v2c0 .553.448 1 1 1 .552 0 1-.447 1-1v-2c0-.553-.448-1-1-1zM44 44c-.553 0-1 .447-1 1v2c0 .553.447 1 1 1 .553 0 1-.447 1-1v-2c0-.553-.447-1-1-1zM40 50c-.553 0-1 .447-1 1v2c0 .553.447 1 1 1 .553 0 1-.447 1-1v-2c0-.553-.447-1-1-1z"/></g></svg>