<svg xmlns="http://www.w3.org/2000/svg" width="512" height="512" viewBox="0 0 512 512"><g transform="scale(8)"><path d="M32 15c.552 0 1-.448 1-1v-6c0-.552-.448-1-1-1-.552 0-1 .448-1 1v6c0 .552.448 1 1 1zM56 31h-6c-.553 0-1 .448-1 1 0 .552.447 1 1 1h6c.553 0 1-.448 1-1 0-.552-.447-1-1-1zM15 32c0-.552-.448-1-1-1h-6c-.552 0-1 .448-1 1 0 .552.448 1 1 1h6c.552 0 1-.448 1-1zM44.728 20.272c.256 0 .512-.098.707-.293l4.243-4.243c.391-.391.391-1.023 0-1.414-.391-.391-1.023-.391-1.414 0l-4.243 4.243c-.391.391-.391 1.023 0 1.414.195.195.451.293.707.293zM18.565 19.979c.195.195.451.293.707.293.256 0 .512-.098.707-.293.391-.391.391-1.023 0-1.414l-4.243-4.243c-.391-.391-1.023-.391-1.414 0-.391.391-.391 1.023 0 1.414l4.243 4.243zM54 39h-13.522c1.623-1.948 2.522-4.396 2.522-7 0-6.065-4.935-11-11-11-6.065 0-11 4.935-11 11 0 2.604.899 5.051 2.522 7h-13.522c-.552 0-1 .447-1 1 0 .553.448 1 1 1h44c.553 0 1-.447 1-1 0-.553-.447-1-1-1zm-30.999-7c0-4.962 4.037-9 9-9 4.963 0 9 4.037 9 9 0 2.75-1.233 5.277-3.38 7h-11.239c-2.147-1.722-3.381-4.25-3.381-7zM32.707 49.293c-.391-.391-1.023-.391-1.414 0l-6 6c-.391.391-.391 1.023 0 1.414.391.391 1.023.391 1.414 0l5.293-5.293 5.293 5.293c.195.195.451.293.707.293.256 0 .512-.098.707-.293.391-.391.391-1.023 0-1.414l-6-6z"/></g></svg>