<svg xmlns="http://www.w3.org/2000/svg" width="512" height="512" viewBox="0 0 512 512"><g transform="scale(8)"><path d="M33 40.525v-32.525c0-.552-.448-1-1-1h-8c-.552 0-1 .448-1 1v32.525c-2.481 1.663-4 4.476-4 7.475 0 4.963 4.038 9 9 9 4.962 0 9-4.037 9-9 0-2.999-1.519-5.812-4-7.475zm-5 14.475c-3.86 0-7-3.141-7-7 0-2.484 1.342-4.805 3.501-6.056.309-.178.499-.508.499-.865v-32.079h6v32.079c0 .356.19.687.499.865 2.159 1.251 3.501 3.572 3.501 6.056 0 3.859-3.14 7-7 7zM40 17h4c.553 0 1-.448 1-1 0-.552-.447-1-1-1h-4c-.553 0-1 .448-1 1 0 .552.447 1 1 1zM44 23h-4c-.553 0-1 .448-1 1 0 .552.447 1 1 1h4c.553 0 1-.448 1-1 0-.552-.447-1-1-1zM44 31h-4c-.553 0-1 .448-1 1 0 .552.447 1 1 1h4c.553 0 1-.448 1-1 0-.552-.447-1-1-1z"/></g></svg>