<svg xmlns="http://www.w3.org/2000/svg" width="512" height="512" viewBox="0 0 512 512"><g transform="scale(8)"><path d="M46 19c-.428 0-.859.033-1.292.097-1.365-6.968-7.507-12.097-14.708-12.097-8.271 0-15 6.729-15 15 0 .354.014.713.043 1.079-.344-.053-.692-.079-1.043-.079-3.86 0-7 3.14-7 7 0 3.859 3.14 7 7 7h32c4.963 0 9-4.038 9-9 0-4.962-4.037-9-9-9zm0 16h-32c-2.757 0-5-2.243-5-5 0-2.757 2.243-5 5-5 .634 0 1.257.121 1.853.359.336.134.72.077 1.002-.152.282-.229.417-.592.354-.949-.141-.804-.209-1.543-.209-2.258 0-7.168 5.832-13 13-13 6.557 0 12.1 4.906 12.894 11.413.035.289.193.547.435.709.241.162.54.211.821.134.621-.17 1.244-.256 1.85-.256 3.859 0 7 3.14 7 7 0 3.86-3.141 7-7 7zM34 49h-2.613l1.562-4.684c.174-.524-.108-1.091-.632-1.265-.525-.175-1.09.108-1.265.632l-2 6c-.102.305-.05.641.138.901.188.26.489.416.81.416h2.613l-1.562 4.684c-.175.524.108 1.091.632 1.265.106.034.213.051.317.051.419 0 .809-.265.949-.684l2-6c.103-.305.051-.641-.137-.901-.189-.261-.491-.415-.812-.415z"/></g></svg>