<svg xmlns="http://www.w3.org/2000/svg" width="512" height="512" viewBox="0 0 512 512"><path d="M33,13.051v-3.051c0,-0.552 -0.448,-1 -1,-1c-0.552,0 -1,0.448 -1,1v3.051c-10.011,0.525 -18,8.81 -18,18.949c0,0.552 0.448,1 1,1c0.552,0 1,-0.448 1,-1c0,-2.757 2.243,-5 5,-5c2.757,0 5,2.243 5,5c0,0.552 0.448,1 1,1c0.552,0 1,-0.448 1,-1c0,-2.415 1.721,-4.434 4,-4.899v22.899c0,2.757 2.243,5 5,5c2.757,0 5,-2.243 5,-5c0,-0.553 -0.447,-1 -1,-1c-0.553,0 -1,0.447 -1,1c0,1.654 -1.346,3 -3,3c-1.654,0 -3,-1.346 -3,-3v-22.899c2.279,0.465 4,2.484 4,4.899c0,0.552 0.447,1 1,1c0.553,0 1,-0.448 1,-1c0,-2.757 2.243,-5 5,-5c2.757,0 5,2.243 5,5c0,0.552 0.447,1 1,1c0.553,0 1,-0.448 1,-1c0,-10.139 -7.989,-18.424 -18,-18.949Zm11,11.949c-2.543,0 -4.774,1.363 -6,3.397c-1.226,-2.034 -3.457,-3.397 -6,-3.397c-2.543,0 -4.774,1.363 -6,3.397c-1.226,-2.034 -3.457,-3.397 -6,-3.397c-1.487,0 -2.868,0.466 -4.003,1.26c2.359,-6.558 8.643,-11.26 16.003,-11.26c7.36,0 13.644,4.702 16.003,11.26c-1.135,-0.794 -2.516,-1.26 -4.003,-1.26Z" transform="scale(8)"/></svg>