<svg xmlns="http://www.w3.org/2000/svg" width="512" height="512" viewBox="0 0 512 512"><path d="M52.059,11.002l-34,-2c-0.272,-0.016 -0.544,0.082 -0.745,0.271c-0.2,0.189 -0.314,0.452 -0.314,0.727v3h-4v-5c0,-0.552 -0.448,-1 -1,-1c-0.552,0 -1,0.448 -1,1v48c0,0.553 0.448,1 1,1c0.552,0 1,-0.447 1,-1v-29h4v3c0,0.275 0.114,0.539 0.314,0.728c0.186,0.175 0.432,0.272 0.686,0.272c0.02,0 0.039,0 0.059,-0.002l34,-2c0.528,-0.031 0.941,-0.469 0.941,-0.998v-16c0,-0.529 -0.413,-0.967 -0.941,-0.998Zm-19.036,17.113l-6.023,0.354v-16.938l6.023,0.354c-0.004,0.04 -0.023,0.075 -0.023,0.115v16c0,0.041 0.019,0.076 0.023,0.115Zm1.977,-16.113l6,0.353v15.291l-6,0.353v-15.997Zm-22,12.998v-10h4v10h-4Zm6,-13.939l6,0.353v17.173l-6,0.353v-17.879Zm32,15.996l-8,0.471v-15.055l8,0.47v14.114Z" transform="scale(8)"/></svg>