<svg viewBox="0 0 120 160" fill="none" xmlns="http://www.w3.org/2000/svg">
<defs>
<linearGradient id="brandGrad" x1="0%" y1="0%" x2="100%" y2="100%">
<stop offset="0%" style="stop-color:#3b82f6" />
<stop offset="100%" style="stop-color:#a855f7" />
</linearGradient>
</defs>
<rect x="5" y="5" width="110" height="150" rx="22" fill="url(#brandGrad)" />
<rect x="14" y="14" width="92" height="132" rx="14" fill="#0f172a" />
<path d="M14 110 L38 90 L60 105 L80 85 L92 95 V146 H14 Z" fill="url(#brandGrad)" fill-opacity="0.4" />
<rect x="25" y="28" width="45" height="16" rx="5" fill="white" />
<rect x="75" y="28" width="20" height="16" rx="5" fill="white" fill-opacity="0.3" />
<rect x="25" y="50" width="60" height="6" rx="3" fill="white" fill-opacity="0.2" />
<path d="M100 20C100 20 98 17 95 17C98 17 100 14 100 14C100 14 102 17 105 17C102 17 100 20 100 20Z" fill="#fbbf24" stroke="#0f172a" stroke-width="1.5" />
</svg>
