<svg xmlns="http://www.w3.org/2000/svg" id="Layer_1" version="1.1" viewBox="0 0 5000 5000">
  <path d="M2227.96 2433.09h-1178.25c-35.04 0-63.44-28.43-63.44-63.46s28.41-63.46 63.44-63.46h1178.25c272.06 0 493.39-221.31 493.39-493.37 0-210.66-171.38-382.02-382.02-382.02-161.52 0-292.94 131.4-292.94 292.92 0 122.22 99.43 221.64 221.66 221.64 90.79 0 164.64-73.82 164.64-164.6 0-65.63-53.4-119.03-119.03-119.03-35.04 0-63.44-28.43-63.44-63.46s28.41-63.46 63.44-63.46c135.59 0 245.91 110.36 245.91 245.95 0 160.75-130.78 291.53-291.53 291.53-192.18 0-348.54-156.38-348.54-348.56 0-231.48 188.33-419.85 419.83-419.85 280.62 0 508.92 228.32 508.92 508.94 0 342.03-278.27 620.29-620.29 620.29ZM4853.83 3051.25h-1178.23c-342.03 0-620.29-278.27-620.29-620.29 0-280.62 228.29-508.94 508.91-508.94 231.48 0 419.85 188.37 419.85 419.85 0 192.18-156.38 348.56-348.56 348.56-160.75 0-291.53-130.82-291.53-291.56 0-135.59 110.32-245.91 245.91-245.91 35.04 0 63.46 28.43 63.46 63.46s-28.43 63.46-63.46 63.46c-65.63 0-118.99 53.36-118.99 118.99 0 90.79 73.82 164.64 164.6 164.64 122.22 0 221.64-99.42 221.64-221.64 0-161.52-131.4-292.92-292.92-292.92-210.62 0-381.98 171.36-381.98 382.02 0 272.06 221.31 493.37 493.37 493.37h1178.23c35.04 0 63.46 28.43 63.46 63.46s-28.43 63.46-63.46 63.46Z" style="fill:#4f91ff"/>
  <path d="M2442.36,3696.15c-231.5,0-419.83-188.33-419.83-419.81,0-192.22,156.36-348.6,348.56-348.6,160.75,0,291.51,130.82,291.51,291.56,0,135.59-110.31,245.91-245.9,245.91-35.04,0-63.44-28.43-63.44-63.46s28.41-63.46,63.44-63.46c65.63,0,119.01-53.36,119.01-118.99,0-90.79-73.85-164.64-164.62-164.64-122.22,0-221.68,99.42-221.68,221.68,0,161.52,131.42,292.89,292.94,292.89,210.66,0,382.02-171.36,382.02-381.98,0-272.06-221.33-493.41-493.39-493.41H146.15c-35.04,0-63.44-28.43-63.44-63.46s28.41-63.46,63.44-63.46h2184.84c342.03,0,620.31,278.31,620.31,620.33,0,280.62-228.32,508.91-508.94,508.91Z" style="fill:#3e76ef"/>
</svg>
