<svg xmlns="http://www.w3.org/2000/svg" xml:space="preserve" id="Layer_1" x="0" y="0" style="enable-background:new 0 0 5000 5000" version="1.1" viewBox="0 0 5000 5000">
  <g>
    <g>
      <g>
        <path d="M2034.51,3260.22c0,116.04-94.07,210.16-210.11,210.16c-74.84,0-140.47-39.06-177.73-97.96
				c36.27,29.64,82.56,47.45,133.08,47.45c116.09,0,210.16-94.07,210.16-210.16c0-41.25-11.89-79.77-32.43-112.2
				C2004.48,3136.07,2034.51,3194.64,2034.51,3260.22z" style="fill:#ccdbf2"/>
        <path d="M1989.91,3209.71c0,116.09-94.07,210.16-210.16,210.16c-50.51,0-96.81-17.81-133.08-47.45
				c-14.3-22.57-24.44-48.1-29.2-75.44c15.78,12.93,33.8,23.78,53.69,31.89c107.49,43.83,230.11-7.72,273.94-115.22
				c15.61-38.19,19.18-78.35,12.38-116.15C1978.02,3129.94,1989.91,3168.45,1989.91,3209.71z" style="fill:#dde6f5"/>
        <path d="M1945.1,3213.65c-43.83,107.49-166.44,159.05-273.94,115.22c-19.89-8.11-37.91-18.96-53.69-31.89
				c-2.14-11.94-3.23-24.22-3.23-36.76c0-116.09,94.07-210.16,210.16-210.16c50.51,0,96.81,17.81,133.08,47.45
				C1964.27,3135.31,1960.71,3175.46,1945.1,3213.65z" style="fill:#ecf3fb"/>
        <ellipse cx="1721.45" cy="3118.77" rx="44.1" ry="21.57" style="fill:#f9f9f9" transform="rotate(-35.197 1721.555 3118.827)"/>
      </g>
      <g>
        <path d="M3177.62,3260.22c0,116.04-94.07,210.16-210.11,210.16c-74.84,0-140.47-39.06-177.73-97.96
				c36.27,29.64,82.56,47.45,133.08,47.45c116.09,0,210.16-94.07,210.16-210.16c0-41.25-11.89-79.77-32.43-112.2
				C3147.59,3136.07,3177.62,3194.64,3177.62,3260.22z" style="fill:#ccdbf2"/>
        <path d="M3133.02,3209.71c0,116.09-94.07,210.16-210.16,210.16c-50.51,0-96.81-17.81-133.08-47.45
				c-14.3-22.57-24.44-48.1-29.2-75.44c15.78,12.93,33.8,23.78,53.69,31.89c107.49,43.83,230.11-7.72,273.94-115.22
				c15.61-38.19,19.18-78.35,12.38-116.15C3121.13,3129.94,3133.02,3168.45,3133.02,3209.71z" style="fill:#dde6f5"/>
        <path d="M3088.21,3213.65c-43.83,107.49-166.44,159.05-273.94,115.22c-19.89-8.11-37.91-18.96-53.69-31.89
				c-2.14-11.94-3.23-24.22-3.23-36.76c0-116.09,94.07-210.16,210.16-210.16c50.51,0,96.81,17.81,133.08,47.45
				C3107.38,3135.31,3103.82,3175.46,3088.21,3213.65z" style="fill:#ecf3fb"/>
        <ellipse cx="2864.56" cy="3118.77" rx="44.1" ry="21.57" style="fill:#f9f9f9" transform="rotate(-35.197 2864.696 3118.808)"/>
      </g>
    </g>
    <g>
      <g>
        <path d="M2034.51,4594.42c0,116.04-94.07,210.16-210.11,210.16c-74.84,0-140.47-39.06-177.73-97.96
				c36.27,29.64,82.56,47.45,133.08,47.45c116.09,0,210.16-94.07,210.16-210.16c0-41.25-11.89-79.77-32.43-112.2
				C2004.48,4470.27,2034.51,4528.83,2034.51,4594.42z" style="fill:#ccdbf2"/>
        <path d="M1989.91,4543.9c0,116.09-94.07,210.16-210.16,210.16c-50.51,0-96.81-17.81-133.08-47.45
				c-14.3-22.57-24.44-48.1-29.2-75.44c15.78,12.93,33.8,23.78,53.69,31.89c107.49,43.83,230.11-7.72,273.94-115.22
				c15.61-38.19,19.18-78.35,12.38-116.15C1978.02,4464.13,1989.91,4502.65,1989.91,4543.9z" style="fill:#dde6f5"/>
        <path d="M1945.1,4547.85c-43.83,107.49-166.44,159.05-273.94,115.22c-19.89-8.11-37.91-18.96-53.69-31.89
				c-2.14-11.94-3.23-24.22-3.23-36.76c0-116.09,94.07-210.16,210.16-210.16c50.51,0,96.81,17.81,133.08,47.45
				C1964.27,4469.5,1960.71,4509.66,1945.1,4547.85z" style="fill:#ecf3fb"/>
        <ellipse cx="1721.45" cy="4452.97" rx="44.1" ry="21.57" style="fill:#f9f9f9" transform="rotate(-35.197 1721.578 4453.058)"/>
      </g>
      <g>
        <path d="M3177.62,4594.42c0,116.04-94.07,210.16-210.11,210.16c-74.84,0-140.47-39.06-177.73-97.96
				c36.27,29.64,82.56,47.45,133.08,47.45c116.09,0,210.16-94.07,210.16-210.16c0-41.25-11.89-79.77-32.43-112.2
				C3147.59,4470.27,3177.62,4528.83,3177.62,4594.42z" style="fill:#ccdbf2"/>
        <path d="M3133.02,4543.9c0,116.09-94.07,210.16-210.16,210.16c-50.51,0-96.81-17.81-133.08-47.45
				c-14.3-22.57-24.44-48.1-29.2-75.44c15.78,12.93,33.8,23.78,53.69,31.89c107.49,43.83,230.11-7.72,273.94-115.22
				c15.61-38.19,19.18-78.35,12.38-116.15C3121.13,4464.13,3133.02,4502.65,3133.02,4543.9z" style="fill:#dde6f5"/>
        <path d="M3088.21,4547.85c-43.83,107.49-166.44,159.05-273.94,115.22c-19.89-8.11-37.91-18.96-53.69-31.89
				c-2.14-11.94-3.23-24.22-3.23-36.76c0-116.09,94.07-210.16,210.16-210.16c50.51,0,96.81,17.81,133.08,47.45
				C3107.38,4469.5,3103.82,4509.66,3088.21,4547.85z" style="fill:#ecf3fb"/>
        <ellipse cx="2864.56" cy="4452.97" rx="44.1" ry="21.57" style="fill:#f9f9f9" transform="rotate(-35.197 2864.719 4453.039)"/>
      </g>
    </g>
    <g>
      <g>
        <path d="M1465.6,3936.45c0,116.04-94.07,210.16-210.11,210.16c-74.84,0-140.47-39.06-177.73-97.96
				c36.27,29.64,82.56,47.45,133.08,47.45c116.09,0,210.16-94.07,210.16-210.16c0-41.25-11.89-79.77-32.43-112.2
				C1435.58,3812.3,1465.6,3870.87,1465.6,3936.45z" style="fill:#ccdbf2"/>
        <path d="M1421,3885.94c0,116.09-94.07,210.16-210.16,210.16c-50.51,0-96.81-17.81-133.08-47.45
				c-14.3-22.57-24.44-48.1-29.2-75.44c15.78,12.93,33.8,23.78,53.69,31.89c107.49,43.83,230.11-7.72,273.94-115.22
				c15.61-38.19,19.18-78.35,12.38-116.15C1409.11,3806.17,1421,3844.68,1421,3885.94z" style="fill:#dde6f5"/>
        <path d="M1376.19,3889.88c-43.83,107.49-166.44,159.05-273.94,115.22c-19.89-8.11-37.91-18.96-53.69-31.89
				c-2.14-11.94-3.23-24.22-3.23-36.76c0-116.09,94.07-210.16,210.16-210.16c50.51,0,96.81,17.81,133.08,47.45
				C1395.36,3811.54,1391.8,3851.69,1376.19,3889.88z" style="fill:#ecf3fb"/>
        <ellipse cx="1152.55" cy="3795" rx="44.1" ry="21.57" style="fill:#f9f9f9" transform="rotate(-35.197 1152.643 3795.085)"/>
      </g>
      <g>
        <path d="M2608.71,3936.45c0,116.04-94.07,210.16-210.11,210.16c-74.84,0-140.47-39.06-177.73-97.96
				c36.27,29.64,82.56,47.45,133.08,47.45c116.09,0,210.16-94.07,210.16-210.16c0-41.25-11.89-79.77-32.43-112.2
				C2578.69,3812.3,2608.71,3870.87,2608.71,3936.45z" style="fill:#ccdbf2"/>
        <path d="M2564.11,3885.94c0,116.09-94.07,210.16-210.16,210.16c-50.51,0-96.81-17.81-133.08-47.45
				c-14.3-22.57-24.44-48.1-29.2-75.44c15.78,12.93,33.8,23.78,53.69,31.89c107.49,43.83,230.11-7.72,273.94-115.22
				c15.61-38.19,19.18-78.35,12.38-116.15C2552.22,3806.17,2564.11,3844.68,2564.11,3885.94z" style="fill:#dde6f5"/>
        <path d="M2519.3,3889.88c-43.83,107.49-166.44,159.05-273.94,115.22c-19.89-8.11-37.91-18.96-53.69-31.89
				c-2.14-11.94-3.23-24.22-3.23-36.76c0-116.09,94.07-210.16,210.16-210.16c50.51,0,96.81,17.81,133.08,47.45
				C2538.47,3811.54,2534.91,3851.69,2519.3,3889.88z" style="fill:#ecf3fb"/>
        <ellipse cx="2295.66" cy="3795" rx="44.1" ry="21.57" style="fill:#f9f9f9" transform="rotate(-35.197 2295.784 3795.066)"/>
      </g>
      <g>
        <path d="M3824.24,3936.45c0,116.04-94.07,210.16-210.11,210.16c-74.84,0-140.47-39.06-177.73-97.96
				c36.27,29.64,82.56,47.45,133.08,47.45c116.09,0,210.16-94.07,210.16-210.16c0-41.25-11.89-79.77-32.43-112.2
				C3794.22,3812.3,3824.24,3870.87,3824.24,3936.45z" style="fill:#ccdbf2"/>
        <path d="M3779.65,3885.94c0,116.09-94.07,210.16-210.16,210.16c-50.51,0-96.81-17.81-133.08-47.45
				c-14.3-22.57-24.44-48.1-29.2-75.44c15.78,12.93,33.8,23.78,53.69,31.89c107.49,43.83,230.11-7.72,273.94-115.22
				c15.61-38.19,19.18-78.35,12.38-116.15C3767.76,3806.17,3779.65,3844.68,3779.65,3885.94z" style="fill:#dde6f5"/>
        <path d="M3734.83,3889.88c-43.83,107.49-166.44,159.05-273.94,115.22c-19.89-8.11-37.91-18.96-53.69-31.89
				c-2.14-11.94-3.23-24.22-3.23-36.76c0-116.09,94.07-210.16,210.16-210.16c50.51,0,96.81,17.81,133.08,47.45
				C3754.01,3811.54,3750.45,3851.69,3734.83,3889.88z" style="fill:#ecf3fb"/>
        <ellipse cx="3511.19" cy="3795" rx="44.1" ry="21.57" style="fill:#f9f9f9" transform="rotate(-35.197 3511.351 3795.045)"/>
      </g>
    </g>
    <g>
      <g>
        <path d="M4034.1,3264.47c-30.31,18.7-63.86,23.34-91.59,9.26c-49.89-25.33-62.02-101.61-27.1-170.38
				c34.92-68.77,210.24-190.3,210.24-190.3s0.09,3.95,0.18,10.94c-53.28,39.56-149.25,115.24-174.1,164.19
				c-34.92,68.77-22.78,145.05,27.08,170.37C3995.75,3267.16,4014.87,3268.79,4034.1,3264.47z" style="fill:#51c9eb"/>
        <path d="M4096.04,3195.07c-15.5,30.53-37.68,54.46-61.94,69.4c-19.23,4.31-38.35,2.69-55.29-5.92
				c-49.87-25.32-62-101.6-27.08-170.37c24.85-48.95,120.82-124.64,174.1-164.19C4126.36,2968.38,4126.21,3135.66,4096.04,3195.07z" style="fill:#71d8f8"/>
      </g>
      <g>
        <path d="M4280.92,3569.81c-18.34,11.32-38.65,14.12-55.43,5.6c-30.19-15.33-37.53-61.49-16.4-103.11
				c21.13-41.62,127.23-115.17,127.23-115.17s0.05,2.39,0.11,6.62c-32.24,23.94-90.32,69.74-105.36,99.37
				c-21.13,41.61-13.79,87.78,16.39,103.1C4257.71,3571.44,4269.28,3572.42,4280.92,3569.81z" style="fill:#51c9eb"/>
        <path d="M4318.4,3527.81c-9.38,18.48-22.8,32.96-37.48,42c-11.64,2.61-23.21,1.63-33.46-3.58
				c-30.18-15.32-37.52-61.49-16.39-103.1c15.04-29.62,73.12-75.43,105.36-99.37C4336.75,3390.62,4336.66,3491.85,4318.4,3527.81z" style="fill:#71d8f8"/>
      </g>
    </g>
    <g>
      <g>
        <path d="M685.6,3264.47c-30.31,18.7-63.86,23.34-91.59,9.26c-49.89-25.33-62.02-101.61-27.1-170.38
				c34.92-68.77,210.24-190.3,210.24-190.3s0.09,3.95,0.18,10.94c-53.28,39.56-149.25,115.24-174.1,164.19
				c-34.92,68.77-22.78,145.05,27.08,170.37C647.25,3267.16,666.37,3268.79,685.6,3264.47z" style="fill:#51c9eb"/>
        <path d="M747.54,3195.07c-15.5,30.53-37.68,54.46-61.94,69.4c-19.23,4.31-38.35,2.69-55.29-5.92
				c-49.87-25.32-62-101.6-27.08-170.37c24.85-48.95,120.82-124.64,174.1-164.19C777.85,2968.38,777.71,3135.66,747.54,3195.07z" style="fill:#71d8f8"/>
      </g>
      <g>
        <path d="M932.41,3569.81c-18.34,11.32-38.65,14.12-55.43,5.6c-30.19-15.33-37.53-61.49-16.4-103.11
				c21.13-41.62,127.23-115.17,127.23-115.17s0.05,2.39,0.11,6.62c-32.24,23.94-90.32,69.74-105.36,99.37
				c-21.13,41.61-13.79,87.78,16.39,103.1C909.2,3571.44,920.77,3572.42,932.41,3569.81z" style="fill:#51c9eb"/>
        <path d="M969.9,3527.81c-9.38,18.48-22.8,32.96-37.48,42c-11.64,2.61-23.21,1.63-33.46-3.58
				c-30.18-15.32-37.52-61.49-16.39-103.1c15.04-29.62,73.12-75.43,105.36-99.37C988.24,3390.62,988.15,3491.85,969.9,3527.81z" style="fill:#71d8f8"/>
      </g>
    </g>
    <g>
      <g>
        <path d="M3620.36,2600.54c0,50.9-5.43,100.46-15.69,148.28h-159.48c-9.33-381.38-321.4-687.66-704.94-687.66
				c-63.5,0-124.92,8.51-183.41,24.28c-91.62-557.89-558.55-989.28-1133.05-1025.91c-26.28-1.75-52.82-2.59-79.52-2.59
				c-284.07,0-545.64,96.43-753.76,258.3c225.3-259.79,557.83-424.16,928.71-424.16c26.7,0,53.24,0.83,79.52,2.58
				c574.49,36.64,1041.43,468.03,1133.05,1025.92c58.49-15.77,119.9-24.29,183.4-24.29
				C3304.61,1895.29,3620.36,2211.04,3620.36,2600.54z" style="fill:#6ea0db"/>
        <path d="M3445.19,2748.82H705.93c-354.5,0-648.68-281.37-656.12-635.79c-0.1-5.12-0.16-10.25-0.16-15.39
				c0-162,53.54-311.42,143.9-431.62c63.48-84.46,145.15-154.49,239.19-204.3c22.61-11.99,45.94-22.8,69.91-32.36
				c27.07-39.77,56.42-77.87,87.86-114.12c208.12-161.87,469.69-258.3,753.76-258.3c26.7,0,53.24,0.84,79.52,2.59
				c574.5,36.63,1041.43,468.02,1133.05,1025.91c58.49-15.77,119.91-24.28,183.41-24.28
				C3123.79,2061.16,3435.86,2367.44,3445.19,2748.82z" style="fill:#86aeea"/>
      </g>
      <g>
        <path d="M3797.23,2460.25c0,50.9-5.38,240.76-15.65,288.58h-176.9c10.27-47.82,15.7-97.4,15.7-148.3
				c0-389.49-315.76-705.25-705.2-705.25c-63.47,0-124.91,8.51-183.38,24.32c-91.64-557.89-558.55-989.33-1133.07-1025.95
				c16.91-49.19,37.45-96.74,61.33-142.31c11.97-0.38,23.99-0.55,36.07-0.55c26.68,0,53.2,0.88,79.5,2.58
				c574.47,36.68,1041.43,468.06,1133.07,1025.95c58.48-15.76,119.86-24.32,183.38-24.32
				C3481.53,1755,3797.23,2070.76,3797.23,2460.25z" style="fill:#dde6f5"/>
      </g>
      <g>
        <path d="M4937.06,2266.22h0.11c-82.96,466.25-540.15,482.61-540.15,482.61h-615.43
				c10.27-47.82,15.65-237.68,15.65-288.58c0-389.5-315.7-705.25-705.14-705.25c-63.53,0-124.91,8.57-183.38,24.32
				c-91.64-557.89-558.6-989.28-1133.07-1025.95c-26.3-1.7-52.82-2.58-79.5-2.58c-12.08,0-24.1,0.16-36.07,0.55
				c173.39-332.01,520.99-558.66,921.47-558.66c525.66,0,960.23,390.48,1029.25,897.26c15.16-1.26,30.53-1.92,46.07-1.92
				c299.94,0,544.27,238.78,553.06,536.7c58.47-21.03,121.45-32.45,187.12-32.45c305.6,0,553.33,247.73,553.33,553.28
				C4950.35,2186.99,4945.73,2227.4,4937.06,2266.22z" style="fill:#ecf3fb"/>
      </g>
    </g>
  </g>
</svg>
