<svg xmlns="http://www.w3.org/2000/svg" xml:space="preserve" id="Layer_1" x="0" y="0" style="enable-background:new 0 0 5000 5000" version="1.1" viewBox="0 0 5000 5000">
  <g>
    <g>
      <path d="M4954.18,2791.47c0,250.67-164.78,462.84-391.95,534.21c16.71-52.96,25.67-109.39,25.67-167.92
			c0-309.29-250.75-559.96-559.96-559.96c-112.3,0-216.93,33.1-304.6,90.02c-76.46-218.22-284.18-374.6-528.39-374.6
			c-13.64,0-27.12,0.48-40.53,1.45c5.49-37.95,8.4-76.7,8.4-116.17c0-443.54-359.58-803.12-803.2-803.12
			c-127.31,0-247.69,29.63-354.66,82.35c130.95-265.77,404.55-448.71,720.94-448.71c443.62,0,803.2,359.66,803.2,803.2
			c0,39.48-2.91,78.23-8.4,116.17c13.4-0.97,26.88-1.45,40.53-1.45c244.21,0,451.94,156.38,528.39,374.6
			c87.67-56.92,192.3-90.02,304.6-90.02C4703.43,2231.51,4954.18,2482.19,4954.18,2791.47z" style="fill:#dde6f5"/>
      <path d="M4587.9,3157.75c0,58.53-8.96,114.96-25.67,167.92c-53.04,16.71-109.47,25.67-168,25.67H931.38
			c-308.64,0-558.91-249.62-559.96-557.94v-1.94c0-58.53,8.96-114.96,25.67-168c71.37-227.18,283.53-391.95,534.29-391.95
			c17.92,0,35.6,0.81,53.04,2.5c50.78,4.76,99.63,16.31,145.48,33.75c6.54-48.76,18.65-95.75,35.77-140.31
			c85.9-225.32,296.77-388.97,547.93-406.24c14.53-0.97,29.14-1.45,43.92-1.45c58.93,0,116.01,8.07,170.1,23.17h0.08
			c9.61-86.71,32.94-169.29,67.89-245.43c2.99-6.62,6.14-13.24,9.37-19.78c106.97-52.72,227.34-82.35,354.66-82.35
			c443.62,0,803.2,359.58,803.2,803.12c0,39.48-2.91,78.23-8.4,116.17c13.4-0.97,26.88-1.45,40.53-1.45
			c244.21,0,451.94,156.38,528.39,374.6c87.67-56.91,192.3-90.02,304.6-90.02C4337.15,2597.79,4587.9,2848.47,4587.9,3157.75z" style="fill:#ccdbf2"/>
      <path d="M3001.27,2702.66c0,0-254.57-615.88-787.38-375.32c-46.73-150-747.37-309.76-923.83,245.56
			c-186.84-199.55-778.49,114.14-550.13,487.85c0,0,62.28,186.84,428.64,290.59c2.64,0.75,4.84,2.58,7.35,3.88H931.38
			c-309.29,0-559.96-250.67-559.96-559.88v-3.88c2.1-307.51,251.96-556.08,559.96-556.08c69.92,0,136.84,12.84,198.52,36.25
			c41.66-309.37,306.78-548.01,627.61-548.01c58.93,0,116.01,8.07,170.1,23.17c156.06,43.35,287.89,145.08,370.48,280.06
			c72.5-39.32,155.57-61.6,243.89-61.6c79.44,0,154.68,18.09,221.85,50.46C3026.09,2177.34,3088.37,2406.83,3001.27,2702.66z" style="fill:#dde6f5"/>
      <ellipse cx="1810" cy="1901.63" rx="76.12" ry="197.22" style="fill:#ecf3fb" transform="rotate(-81.773 1809.957 1901.639)"/>
      <ellipse cx="2558.72" cy="1151.54" rx="156.37" ry="60.35" style="fill:#ecf3fb" transform="rotate(-13.233 2559.217 1151.718)"/>
      <ellipse cx="2864.95" cy="1157.23" rx="40.63" ry="78.36" style="fill:#ecf3fb" transform="rotate(-77.807 2865.148 1157.253)"/>
      <ellipse cx="4594.63" cy="2349.91" rx="40.63" ry="78.36" style="fill:#ecf3fb" transform="rotate(-66.466 4594.65 2349.996)"/>
      <ellipse cx="2662.8" cy="2127.12" rx="53.53" ry="138.68" style="fill:#ecf3fb" transform="rotate(-73.508 2662.796 2127.033)"/>
      <path d="M3050.4,2549.52c-6.71,53.49-22.25,106.3-49.13,153.14c12.76-23.71,22.64-48.86,30-74.66
			c26.7-96.93,21-201.03-3.87-297.67c-0.28-1.06-1.09-3.5-1.49-4.64c-0.85-2.42-2.34-7.03-3.17-9.43
			c-65.17-187.43-240.26-322.56-438.39-335.6c-83.01-5.78-167.54,9.09-243.07,44.1c-8.48,3.87-17.97,8.57-26.18,13.02
			c-5.92,3.12-17.29,9.41-23.14,12.51l-8.96-14.2c-61.65-97.81-150.91-177.25-255.04-226.83c-41.62-20.19-144.82-71.4-255.39-85.63
			l160.84-0.36c152.56,43.88,287.33,146.09,371.33,280.44c1.37-0.66,2.66-1.28,3.62-1.71c37.54-17.94,77.51-31.28,118.22-39.87
			c57.62-11.94,117.15-14.25,175.49-6.88c200.46,24.57,373.64,169.34,432.52,362.43l1.5,4.9l0.75,2.44
			c0.12,0.42,0.25,0.79,0.38,1.29c1.81,7.06,3.36,14.15,4.8,21.23C3054.99,2413.89,3058.83,2482.37,3050.4,2549.52z" style="fill:#bdceec"/>
    </g>
    <g>
      <g>
        <path d="M4762.88,4345.93c0,75.13-35.28,142.02-90.18,185c25.59-37.6,40.55-83.03,40.55-131.94
				c0-50.72-16.08-97.7-43.44-136.09c-27.35-38.39-65.96-68.19-111.02-84.59c0.31-4.68,0.55-9.38,0.55-14.11
				c0-34.03-8.57-66.04-23.68-94.02c-33.48-62.12-99.14-104.32-174.67-104.32c-34.82,0-67.51,8.98-95.94,24.72
				c3.26-20.65,4.94-41.81,4.94-63.35c0-224.17-181.73-405.91-405.88-405.91c-26.09,0-51.61,2.47-76.34,7.15
				c-73.7,14.04-140.34,48.01-194.1,96.08c59.37-76.04,145.25-130.38,243.73-149.14c24.73-4.68,50.24-7.15,76.34-7.15
				c224.15,0,405.88,181.73,405.88,405.91c0,21.55-1.68,42.7-4.94,63.35c28.43-15.74,61.12-24.72,95.94-24.72
				c75.52,0,141.19,42.2,174.67,104.32c15.11,27.99,23.68,59.99,23.68,94.02c0,4.73-0.24,9.43-0.55,14.11
				c45.07,16.4,83.67,46.19,111.02,84.59C4746.8,4248.23,4762.88,4295.21,4762.88,4345.93z" style="fill:#bdceec"/>
        <path d="M4713.24,4398.99c0,48.91-14.96,94.33-40.55,131.94c-39.86,31.21-90.08,49.82-144.63,49.82H3416.53
				c-0.48,0-0.92,0-1.4-0.03c-0.47,0.03-0.94,0.03-1.42,0.03c-48.03,0-93.87-9.36-135.8-26.34c-9.84-3.98-19.47-8.39-28.85-13.19
				c-117.14-59.93-197.32-181.82-197.32-322.45c0-82.52,27.61-158.58,74.09-219.46c66.13-86.62,170.48-142.5,287.88-142.5
				c16.97,0,33.68,1.18,50.04,3.44c15.04,2.08,29.78,5.09,44.17,8.96c1.1-92.21,32.94-177.02,85.76-244.65
				c53.76-48.07,120.4-82.04,194.1-96.08c24.73-4.68,50.24-7.15,76.34-7.15c224.15,0,405.88,181.73,405.88,405.91
				c0,21.55-1.68,42.7-4.94,63.35c28.43-15.74,61.12-24.72,95.94-24.72c63.12,0,119.36,29.48,155.67,75.43
				c2.13,2.69,4.18,5.44,6.17,8.23c4.68,6.6,8.97,13.49,12.83,20.65c15.11,27.99,23.68,59.99,23.68,94.02
				c0,4.73-0.24,9.43-0.55,14.11c45.07,16.4,83.67,46.19,111.02,84.59C4697.16,4301.29,4713.24,4348.27,4713.24,4398.99z" style="fill:#dde6f5"/>
      </g>
      <path d="M3415.52,3856.81c181.7-17.28,349.21,128.19,363.38,309.08c0.44,5.77,0.84,12.22,0.94,18.02
			c0.28,12.01-0.11,24-1.34,35.88c-1.42-13.37-3.15-26.54-5.61-39.64c-0.72-4.08-1.72-8.96-2.59-13
			C3733.46,3994.23,3590.85,3872.22,3415.52,3856.81L3415.52,3856.81z" style="fill:#bdceec"/>
    </g>
    <g>
      <g>
        <path d="M1756.95,1296.92c0,75.13-35.28,142.02-90.18,185c25.59-37.61,40.55-83.03,40.55-131.94
				c0-50.72-16.08-97.7-43.44-136.09c-27.35-38.39-65.96-68.19-111.02-84.59c0.31-4.68,0.55-9.38,0.55-14.11
				c0-34.03-8.57-66.04-23.68-94.02c-33.48-62.12-99.14-104.32-174.67-104.32c-34.82,0-67.51,8.98-95.94,24.72
				c3.26-20.65,4.94-41.81,4.94-63.35c0-224.17-181.73-405.91-405.88-405.91c-26.09,0-51.61,2.47-76.34,7.15
				c-73.7,14.04-140.34,48.01-194.1,96.08C647.13,499.5,733,445.16,831.49,426.4c24.73-4.68,50.24-7.15,76.34-7.15
				c224.15,0,405.88,181.73,405.88,405.91c0,21.55-1.68,42.7-4.94,63.35c28.43-15.74,61.12-24.72,95.94-24.72
				c75.52,0,141.19,42.2,174.67,104.32c15.11,27.99,23.68,59.99,23.68,94.02c0,4.73-0.24,9.43-0.55,14.11
				c45.07,16.4,83.67,46.19,111.02,84.59C1740.87,1199.22,1756.95,1246.2,1756.95,1296.92z" style="fill:#bdceec"/>
        <path d="M1707.31,1349.98c0,48.91-14.96,94.33-40.55,131.94c-39.86,31.21-90.07,49.82-144.63,49.82H410.6
				c-0.48,0-0.92,0-1.4-0.03c-0.47,0.03-0.94,0.03-1.42,0.03c-48.03,0-93.87-9.36-135.8-26.34c-9.84-3.98-19.47-8.39-28.85-13.19
				C126,1432.28,45.82,1310.39,45.82,1169.76c0-82.52,27.61-158.58,74.09-219.46c66.13-86.62,170.48-142.5,287.88-142.5
				c16.97,0,33.68,1.18,50.04,3.44c15.04,2.08,29.78,5.09,44.17,8.96c1.1-92.21,32.94-177.02,85.76-244.65
				c53.76-48.07,120.4-82.04,194.1-96.08c24.73-4.68,50.24-7.15,76.34-7.15c224.15,0,405.88,181.73,405.88,405.91
				c0,21.55-1.68,42.7-4.94,63.35c28.43-15.74,61.12-24.72,95.94-24.72c63.12,0,119.36,29.48,155.67,75.43
				c2.13,2.69,4.18,5.44,6.17,8.23c4.68,6.6,8.97,13.49,12.83,20.65c15.11,27.99,23.68,59.99,23.68,94.02
				c0,4.73-0.24,9.43-0.55,14.11c45.07,16.4,83.67,46.19,111.02,84.59C1691.23,1252.28,1707.31,1299.26,1707.31,1349.98z" style="fill:#dde6f5"/>
      </g>
      <path d="M409.59,807.8c181.7-17.28,349.21,128.19,363.38,309.08c0.44,5.77,0.84,12.22,0.94,18.02
			c0.29,12.01-0.11,24-1.34,35.88c-1.42-13.37-3.15-26.54-5.61-39.64c-0.72-4.08-1.72-8.96-2.59-13
			C727.53,945.22,584.92,823.2,409.59,807.8L409.59,807.8z" style="fill:#bdceec"/>
    </g>
  </g>
</svg>
