<svg xmlns="http://www.w3.org/2000/svg" xml:space="preserve" id="Layer_1" x="0" y="0" style="enable-background:new 0 0 5000 5000" version="1.1" viewBox="0 0 5000 5000">
  <g>
    <path d="m4237.58 1936.71 403.67 105.88c7.38 1.94 14.79 2.86 22.08 2.86 38.5 0 73.68-25.81 83.91-64.8 12.16-46.37-15.57-93.82-61.94-105.99l-238.25-62.49 258.9-153.92c41.21-24.5 54.75-77.77 30.25-118.97s-77.77-54.75-118.97-30.25l-258.9 153.92 58.9-239.16c11.46-46.55-16.98-93.58-63.53-105.04-46.55-11.47-93.58 16.98-105.04 63.53l-99.8 405.21-351.79 209.15v-391.88l297.3-292.87c34.15-33.64 34.57-88.6.92-122.76-33.64-34.15-88.6-34.57-122.76-.92l-175.47 172.85v-301.19c0-47.94-38.86-86.8-86.8-86.8s-86.8 38.86-86.8 86.8v301.2l-175.47-172.85c-34.15-33.64-89.11-33.23-122.76.92-33.64 34.15-33.23 89.11.92 122.76l297.3 292.87v390.27l-349.08-207.54-99.8-405.22c-11.46-46.55-58.5-74.99-105.04-63.53-46.55 11.46-74.99 58.5-63.53 105.04l58.9 239.16-258.9-153.92c-41.21-24.5-94.47-10.96-118.97 30.25-24.5 41.21-10.96 94.47 30.25 118.97l258.9 153.92-238.25 62.49c-46.37 12.16-74.1 59.62-61.94 105.99 10.23 38.99 45.4 64.8 83.91 64.8 7.29 0 14.7-.93 22.08-2.86l403.67-105.88L3551 2153.92l-352.16 237.99-409.12-82.35c-47-9.46-92.77 20.97-102.23 67.97-9.46 47 20.97 92.77 67.97 102.23l241.46 48.6-249.56 168.65c-39.72 26.84-50.16 80.8-23.32 120.52 16.78 24.82 44.14 38.21 72 38.21 16.72 0 33.63-4.82 48.52-14.89l249.55-168.64-44.97 242.17c-8.75 47.14 22.36 92.44 69.5 101.19 5.36.99 10.69 1.47 15.95 1.47 41.01 0 77.49-29.19 85.25-70.97l76.19-410.31 327.42-221.26v414l-297.3 292.87c-34.15 33.64-34.57 88.6-.92 122.76 16.99 17.25 39.41 25.89 61.84 25.89 22 0 44-8.31 60.91-24.96l175.47-172.85v301.2c0 47.94 38.86 86.8 86.8 86.8s86.8-38.86 86.8-86.8v-301.19l175.47 172.85c16.91 16.66 38.92 24.96 60.91 24.96 22.43 0 44.86-8.64 61.84-25.89 33.64-34.15 33.23-89.11-.92-122.76l-297.3-292.87v-415.83l330.12 223.09 76.19 410.31c7.76 41.78 44.23 70.97 85.25 70.97 5.26 0 10.59-.48 15.95-1.47 47.13-8.75 78.25-54.06 69.5-101.19l-44.97-242.17 249.55 168.65c14.9 10.07 31.8 14.89 48.52 14.89 27.86 0 55.23-13.39 72-38.21 26.84-39.72 16.4-93.68-23.32-120.52l-249.56-168.65 241.47-48.6c47-9.46 77.43-55.23 67.97-102.23-9.46-47-55.23-77.43-102.23-67.97l-409.12 82.35-352.16-237.99L4237.58 1936.71zM834.89 867.83l136.09 35.7c2.49.65 4.99.96 7.44.96 12.98 0 24.84-8.7 28.29-21.85 4.1-15.63-5.25-31.63-20.88-35.73l-80.32-21.07 87.28-51.89c13.89-8.26 18.46-26.22 10.2-40.11-8.26-13.89-26.22-18.46-40.11-10.2l-87.28 51.89 19.86-80.63c3.87-15.69-5.72-31.55-21.42-35.41-15.69-3.86-31.55 5.72-35.41 21.42l-33.65 136.61-118.6 70.51V755.91l100.23-98.74c11.51-11.34 11.65-29.87.31-41.39-11.34-11.51-29.87-11.65-41.39-.31l-59.16 58.27V572.21c0-16.16-13.1-29.27-29.27-29.27s-29.27 13.1-29.27 29.27v101.55l-59.16-58.27c-11.52-11.34-30.04-11.2-41.39.31-11.34 11.51-11.2 30.04.31 41.39l100.23 98.74v131.57l-117.69-69.97L476.51 680.9c-3.87-15.69-19.72-25.28-35.41-21.42-15.69 3.87-25.28 19.72-21.42 35.41l19.86 80.63-87.28-51.89c-13.89-8.26-31.85-3.69-40.11 10.2-8.26 13.89-3.69 31.85 10.2 40.11l87.28 51.89-80.32 21.07c-15.63 4.1-24.98 20.1-20.88 35.73 3.45 13.15 15.31 21.85 28.29 21.85 2.46 0 4.96-.31 7.44-.96l136.09-35.7 123.17 73.23-118.73 80.23-137.93-27.76c-15.84-3.19-31.28 7.07-34.46 22.92-3.19 15.85 7.07 31.28 22.92 34.46l81.41 16.39-84.13 56.86c-13.39 9.05-16.91 27.24-7.86 40.63 5.66 8.37 14.88 12.88 24.27 12.88 5.64 0 11.34-1.63 16.36-5.02l84.13-56.86-15.16 81.64c-2.95 15.89 7.54 31.17 23.43 34.12 1.81.34 3.6.5 5.38.5 13.83 0 26.12-9.84 28.74-23.93l25.69-138.33 110.38-74.6v139.57l-100.23 98.74c-11.51 11.34-11.65 29.87-.31 41.39 5.73 5.81 13.29 8.73 20.85 8.73 7.42 0 14.84-2.8 20.54-8.42l59.16-58.27v101.54c0 16.16 13.1 29.27 29.27 29.27s29.27-13.1 29.27-29.27v-101.54l59.16 58.27c5.7 5.62 13.12 8.42 20.54 8.42 7.56 0 15.12-2.91 20.85-8.73 11.34-11.51 11.2-30.04-.31-41.39l-100.23-98.74V994.57l111.3 75.21 25.69 138.33c2.62 14.09 14.91 23.93 28.74 23.93 1.77 0 3.57-.16 5.38-.5 15.89-2.95 26.38-18.23 23.43-34.12l-15.16-81.64 84.14 56.86c5.02 3.4 10.72 5.02 16.36 5.02 9.39 0 18.62-4.51 24.27-12.88 9.05-13.39 5.53-31.58-7.86-40.63l-84.13-56.86 81.41-16.39c15.84-3.19 26.1-18.62 22.92-34.46-3.19-15.85-18.62-26.1-34.46-22.92l-137.93 27.76-118.73-80.23L834.89 867.83z" style="fill:#4f91ff"/>
    <g>
      <g>
        <g>
          <path d="M2435.38,3261.65V639.64c0-319.91-260.27-580.18-580.17-580.18c-319.91,0-580.17,260.27-580.17,580.18
					v2622.05c-224.04,176.19-357.41,445.89-359.5,732.2c-3.75,514.78,411.81,939.4,926.26,946.54c4.47,0.07,8.96,0.1,13.41,0.1h0.03
					c251,0,486.97-97.74,664.44-275.22c177.48-177.48,275.22-413.46,275.22-664.47C2794.9,3711.63,2661.48,3439.32,2435.38,3261.65z
					" style="fill:#dde6f5"/>
        </g>
        <g>
          <g>
            <path d="M2562.17,4000.82c0,393.81-321.97,712.4-717.05,706.92c-26.72-0.38-53.07-2.25-78.97-5.56
						c348.17-43.99,617.44-341.19,617.44-701.37c0-264.17-144.88-494.4-359.5-615.79V3129.1h178.59v255.94
						C2417.28,3506.42,2562.17,3736.66,2562.17,4000.82z" style="fill:#3e76ef"/>
          </g>
          <g>
            <path d="M2383.58,4000.82c0,360.18-269.27,657.38-617.44,701.37c-349.44-44.37-620.52-346.59-617.89-706.62
						c1.88-261.92,146.31-489.97,359.5-610.53V3129.1h516.32v255.94C2238.7,3506.42,2383.58,3736.66,2383.58,4000.82z" style="fill:#4f91ff"/>
          </g>
        </g>
        <g>
          <ellipse cx="1376.65" cy="3889.84" rx="159.26" ry="131.11" style="fill:#fff" transform="rotate(-76.019 1376.73 3889.802)"/>
        </g>
        <g>
          <ellipse cx="1492.47" cy="3603.51" rx="85.55" ry="70.43" style="fill:#fff" transform="rotate(-41.849 1492.552 3603.473)"/>
        </g>
      </g>
      <g>
        <path d="M1855.17,292.22c-95.94,0-182.79,38.88-245.7,101.72c-62.83,62.91-101.72,149.76-101.72,245.7v656.33V3129.1
				h694.91V1295.96V639.63C2202.66,447.76,2047.12,292.22,1855.17,292.22z" style="fill:#ecf3fb"/>
      </g>
      <g>
        <g>
          <path d="M2154.41,1454.67H1745.5c-10.36,0-18.77-8.4-18.77-18.77s8.4-18.77,18.77-18.77h408.91c10.36,0,18.77,8.4,18.77,18.77
					S2164.77,1454.67,2154.41,1454.67z"/>
        </g>
        <g>
          <path d="M2105.6,1627.55h-233.25c-10.36,0-18.77-8.4-18.77-18.77s8.4-18.77,18.77-18.77h233.25c10.36,0,18.77,8.4,18.77,18.77
					S2115.97,1627.55,2105.6,1627.55z"/>
        </g>
        <g>
          <path d="M2105.6,1800.42h-233.25c-10.36,0-18.77-8.4-18.77-18.77s8.4-18.77,18.77-18.77h233.25c10.36,0,18.77,8.4,18.77,18.77
					S2115.97,1800.42,2105.6,1800.42z"/>
        </g>
        <g>
          <path d="M2105.6,1973.3h-233.25c-10.36,0-18.77-8.4-18.77-18.77s8.4-18.77,18.77-18.77h233.25c10.36,0,18.77,8.4,18.77,18.77
					S2115.97,1973.3,2105.6,1973.3z"/>
        </g>
        <g>
          <path d="M2105.6,2146.17h-233.25c-10.36,0-18.77-8.4-18.77-18.77s8.4-18.77,18.77-18.77h233.25c10.36,0,18.77,8.4,18.77,18.77
					S2115.97,2146.17,2105.6,2146.17z"/>
        </g>
        <g>
          <path d="M2105.6,2319.05h-233.25c-10.36,0-18.77-8.4-18.77-18.77s8.4-18.77,18.77-18.77h233.25c10.36,0,18.77,8.4,18.77,18.77
					S2115.97,2319.05,2105.6,2319.05z"/>
        </g>
        <g>
          <path d="M2154.41,2491.92H1745.5c-10.36,0-18.77-8.4-18.77-18.77s8.4-18.77,18.77-18.77h408.91c10.36,0,18.77,8.4,18.77,18.77
					S2164.77,2491.92,2154.41,2491.92z"/>
        </g>
        <g>
          <path d="M2105.6,2664.8h-233.25c-10.36,0-18.77-8.4-18.77-18.77s8.4-18.77,18.77-18.77h233.25c10.36,0,18.77,8.4,18.77,18.77
					S2115.97,2664.8,2105.6,2664.8z"/>
        </g>
        <g>
          <path d="M2105.6,2837.67h-233.25c-10.36,0-18.77-8.4-18.77-18.77s8.4-18.77,18.77-18.77h233.25c10.36,0,18.77,8.4,18.77,18.77
					S2115.97,2837.67,2105.6,2837.67z"/>
        </g>
        <g>
          <path d="M2105.6,3010.55h-233.25c-10.36,0-18.77-8.4-18.77-18.77s8.4-18.77,18.77-18.77h233.25c10.36,0,18.77,8.4,18.77,18.77
					S2115.97,3010.55,2105.6,3010.55z"/>
        </g>
        <g>
          <path d="M2105.6,3183.43h-233.25c-10.36,0-18.77-8.4-18.77-18.77s8.4-18.77,18.77-18.77h233.25c10.36,0,18.77,8.4,18.77,18.77
					S2115.97,3183.43,2105.6,3183.43z"/>
        </g>
        <g>
          <path d="M2105.6,3356.3h-318.83c-10.36,0-18.77-8.4-18.77-18.77s8.4-18.77,18.77-18.77h318.83c10.36,0,18.77,8.4,18.77,18.77
					S2115.97,3356.3,2105.6,3356.3z"/>
        </g>
      </g>
    </g>
  </g>
</svg>
