<svg xmlns="http://www.w3.org/2000/svg" xml:space="preserve" id="Layer_1" x="0" y="0" style="enable-background:new 0 0 5000 5000" version="1.1" viewBox="0 0 5000 5000">
  <g>
    <g>
      <g>
        <path d="M4876.18,3229.39c-309.81,986.66-1231.57,1702.43-2320.47,1702.43
				c-1343.1,0-2431.88-1088.78-2431.88-2431.82S1212.6,68.18,2555.7,68.18c230.79,0,454.04,32.14,665.62,92.2
				c-1049.55,21.47-1893.74,878.96-1893.74,1933.59c0,1068.13,865.9,1934.03,1934.03,1934.03c555.65,0,1056.58-234.3,1409.38-609.51
				C4744.12,3360.75,4812.72,3297.49,4876.18,3229.39z" style="fill:#ecf3fb"/>
        <path d="M4671.02,3418.49C4318.22,3793.7,3817.3,4028,3261.64,4028c-1068.13,0-1934.03-865.9-1934.03-1934.03
				c0-1054.64,844.19-1912.13,1893.74-1933.59c24.16,6.9,48.2,14.12,72.05,21.78c-84.11,11.49-166.39,28.75-246.42,51.28
				c-848.77,166.51-1489.09,914.54-1489.09,1812.14c0,1019.93,826.8,1846.79,1846.73,1846.79c388.2,0,748.34-119.75,1045.66-324.3
				C4527.6,3523.49,4601.42,3473.47,4671.02,3418.49z" style="fill:#ccdbf2"/>
        <path d="M4450.28,3568.06c-297.32,204.55-657.46,324.3-1045.66,324.3c-1019.93,0-1846.73-826.86-1846.73-1846.79
				c0-897.6,640.33-1645.63,1489.09-1812.14c-765.6,215.85-1326.78,919.44-1326.78,1754.15
				c0,1006.43,815.88,1822.31,1822.31,1822.31C3873.03,3809.89,4183.03,3721.89,4450.28,3568.06z" style="fill:#bdceec"/>
        <path d="M3705.12,2138.75c-0.12,0.12-0.25,0.24-0.38,0.36l-179.15,162.84c-7.52,6.83-10.92,17.1-8.95,27.08
				l40,203.07c0,0.01,0.01,0.03,0.01,0.04c4.76,24.37-21.3,43.08-42.87,30.76l-169.04-96.54c-8.83-5.04-19.65-5.09-28.52-0.15
				l-12.78,7.13l-198.66,110.78c-21.71,12.1-47.59-6.91-42.54-31.24l49.22-237.04c2.07-9.95-1.22-20.25-8.67-27.17l-163.16-151.39
				c-18.22-16.9-8.14-47.4,16.57-50.11l232.76-25.56c0.08-0.01,0.17-0.02,0.25-0.03c10-1.19,18.68-7.48,22.91-16.62l81.49-175.92
				l0.31-0.67c10.45-22.55,42.57-22.39,52.79,0.27l0.31,0.69l85.05,188.65l0.06,0.01l256.55,30.84c0.4,0.05,0.79,0.1,1.18,0.17
				C3713.5,2092.76,3722.7,2122.24,3705.12,2138.75z" style="fill:#fcb43d"/>
        <polygon points="2813.23 1049.66 2834.09 1155.55 2820.28 1147.66 2801.7 1053.32 2881.56 980.73 2774.41 967.85 2737.05 884.98 2741.58 865.8 2743.83 870.79 2785.94 964.19 2893.09 977.07" style="fill:#ffa20e"/>
        <polygon points="2741.58 865.8 2737.05 884.98 2698.38 968.47 2688.01 969.6 2593.74 979.96 2591.25 977.65 2588.94 975.51 2685.86 964.86 2696.22 963.73 2734.9 880.22" style="fill:#f2960f"/>
        <polygon points="2877.21 984.69 2801.7 1053.32 2820.28 1147.66 2740.37 1102.02 2731.29 1107.08 2649.67 1152.6 2646.11 1154.58 2646.76 1151.46 2667.58 1051.21 2668.06 1048.92 2593.74 979.96 2688.01 969.6 2698.38 968.47 2737.05 884.98 2774.41 967.85 2774.43 967.85 2881.56 980.73" style="fill:#fcb43d"/>
        <polygon points="4181.06 3292.32 4190.12 3338.28 4184.12 3334.85 4176.06 3293.91 4210.72 3262.4 4164.21 3256.81 4148 3220.84 4149.96 3212.52 4150.94 3214.68 4169.22 3255.22 4215.72 3260.81" style="fill:#ffa20e"/>
        <polygon points="4149.96 3212.52 4148 3220.84 4131.21 3257.08 4126.71 3257.57 4085.8 3262.07 4084.72 3261.06 4083.71 3260.14 4125.78 3255.51 4130.28 3255.02 4147.07 3218.78" style="fill:#f2960f"/>
        <polygon points="4208.83 3264.12 4176.06 3293.91 4184.12 3334.85 4149.44 3315.05 4145.5 3317.24 4110.07 3337 4108.53 3337.86 4108.81 3336.5 4117.85 3292.99 4118.05 3292 4085.8 3262.07 4126.71 3257.57 4131.21 3257.08 4148 3220.84 4164.21 3256.81 4164.22 3256.81 4210.72 3262.4" style="fill:#fcb43d"/>
      </g>
      <g>
        <g>
          <path d="M1046.99,1627.69c-21.78-18.33-47.32-31.13-75.69-36.9c-111.41-22.53-224.64,72.55-252.88,212.33
					c-11.55,56.99-7.15,112.54,9.6,159.92c-63.83-53.22-95.84-152.83-74.82-257.02c28.31-139.78,141.53-234.87,252.94-212.33
					C972.17,1507.05,1022.7,1558.71,1046.99,1627.69z" style="fill:#bdceec"/>
          <path d="M1056.59,1787.61c-28.31,139.78-141.53,234.86-252.88,212.33c-28.37-5.78-53.92-18.58-75.69-36.91
					c-16.76-47.39-21.15-102.93-9.6-159.92c28.24-139.78,141.47-234.87,252.88-212.33c28.37,5.77,53.92,18.58,75.69,36.9
					C1063.81,1675.07,1068.14,1730.68,1056.59,1787.61z" style="fill:#ccdbf2"/>
        </g>
        <g>
          <path d="M1331.19,3623.16c-17.32,26.86-40.99,48.52-70.23,62.32c-101.3,47.76-231.98-16.44-291.86-143.42
					c-59.13-125.4-27.18-265.18,71.3-314.58c-42.62,66.09-47.26,163.82-4.71,254.07c59.88,126.97,190.55,191.18,291.79,143.42
					C1328.74,3624.42,1329.99,3623.79,1331.19,3623.16z" style="fill:#bdceec"/>
          <path d="M1331.19,3623.16c-1.19,0.63-2.45,1.25-3.7,1.82c-101.24,47.76-231.92-16.44-291.79-143.42
					c-42.55-90.26-37.91-187.98,4.71-254.07c1.19-0.63,2.39-1.26,3.64-1.82c101.3-47.76,231.92,16.44,291.79,143.42
					C1378.45,3459.35,1373.8,3557.07,1331.19,3623.16z" style="fill:#ccdbf2"/>
        </g>
        <g>
          <path d="M3632.04,4229.11c26.86,17.32,48.52,40.99,62.32,70.23c47.76,101.3-16.44,231.98-143.42,291.86
					c-125.4,59.13-265.18,27.18-314.58-71.3c66.09,42.62,163.82,47.26,254.07,4.71c126.97-59.88,191.18-190.55,143.42-291.79
					C3633.29,4231.56,3632.67,4230.31,3632.04,4229.11z" style="fill:#bdceec"/>
          <path d="M3632.04,4229.11c0.63,1.19,1.26,2.45,1.82,3.7c47.76,101.24-16.44,231.92-143.42,291.79
					c-90.26,42.55-187.98,37.91-254.07-4.71c-0.63-1.19-1.25-2.39-1.82-3.64c-47.76-101.3,16.44-231.92,143.42-291.79
					C3468.22,4181.85,3565.95,4186.5,3632.04,4229.11z" style="fill:#ccdbf2"/>
        </g>
        <g>
          <path d="M745.57,2781.16c-10.35,4.44-21.52,6.11-32.79,4.39c-39-5.98-64.54-50.45-57.05-99.34
					c7.4-48.28,44.24-82.83,82.74-77.88c-25.46,10.92-46.05,38.56-51.37,73.31c-7.49,48.88,18.06,93.36,57.04,99.32
					C744.6,2781.04,745.09,2781.1,745.57,2781.16z" style="fill:#bdceec"/>
          <path d="M745.57,2781.16c-0.47-0.05-0.96-0.11-1.44-0.2c-38.98-5.97-64.53-50.44-57.04-99.32
					c5.33-34.75,25.92-62.39,51.37-73.31c0.47,0.05,0.94,0.1,1.42,0.19c39,5.98,64.53,50.44,57.04,99.32
					C791.61,2742.59,771.02,2770.23,745.57,2781.16z" style="fill:#ccdbf2"/>
        </g>
        <g>
          <path d="M1533.76,4373.4c-0.54,11.25-3.93,22.03-10.4,31.4c-22.44,32.45-73.61,35.95-114.29,7.82
					c-40.17-27.78-55.11-76.03-33.82-108.48c-1.32,27.67,14.52,58.28,43.43,78.28c40.67,28.13,91.84,24.63,114.27-7.81
					C1533.23,4374.21,1533.51,4373.8,1533.76,4373.4z" style="fill:#bdceec"/>
          <path d="M1533.76,4373.4c-0.25,0.4-0.52,0.81-0.81,1.21c-22.42,32.44-73.6,35.94-114.27,7.81
					c-28.91-20-44.75-50.61-43.43-78.28c0.25-0.4,0.51-0.8,0.79-1.2c22.44-32.45,73.6-35.94,114.27-7.81
					C1519.24,4315.12,1535.08,4345.73,1533.76,4373.4z" style="fill:#ccdbf2"/>
        </g>
        <g>
          <path d="M2198.78,4182.69c-0.86,18.05-6.3,35.34-16.69,50.39c-36.01,52.07-118.12,57.69-183.39,12.55
					c-64.45-44.58-88.43-122-54.26-174.07c-2.12,44.4,23.3,93.52,69.69,125.61c65.27,45.14,147.38,39.51,183.36-12.54
					C2197.94,4184,2198.38,4183.34,2198.78,4182.69z" style="fill:#bdceec"/>
          <path d="M2198.78,4182.69c-0.41,0.65-0.84,1.31-1.3,1.94c-35.98,52.05-118.09,57.67-183.36,12.54
					c-46.39-32.09-71.81-81.2-69.69-125.61c0.41-0.64,0.81-1.29,1.27-1.92c36.01-52.07,118.09-57.67,183.36-12.53
					C2175.48,4089.18,2200.9,4138.29,2198.78,4182.69z" style="fill:#ccdbf2"/>
        </g>
        <g>
          <path d="M1155.04,1068.86c-10.05-5.09-18.5-12.58-24.41-22.32c-20.45-33.74-2.74-81.88,39.56-107.51
					c41.77-25.31,91.91-19.24,112.83,13.46c-24.72-12.51-59.13-10.56-89.19,7.66c-42.29,25.63-60,73.77-39.56,107.49
					C1154.51,1068.05,1154.77,1068.47,1155.04,1068.86z" style="fill:#bdceec"/>
          <path d="M1155.04,1068.86c-0.26-0.39-0.53-0.81-0.77-1.23c-20.44-33.72-2.73-81.86,39.56-107.49
					c30.06-18.22,64.47-20.17,89.19-7.66c0.26,0.4,0.53,0.79,0.77,1.21c20.45,33.74,2.73,81.86-39.56,107.49
					C1214.16,1079.42,1179.75,1081.37,1155.04,1068.86z" style="fill:#ccdbf2"/>
        </g>
      </g>
    </g>
    <g>
      <path d="M524.5,3498.03c-8.7,5.14-18.46,7.91-28.69,7.66c-35.41-0.86-63.25-37.53-62.18-81.91
			c1.06-43.83,29.9-78.81,64.74-78.82c-21.41,12.64-36.58,39.61-37.34,71.16c-1.07,44.38,26.77,81.05,62.16,81.9
			C523.63,3498.04,524.07,3498.04,524.5,3498.03z" style="fill:#bdceec"/>
      <path d="M524.5,3498.03c-0.43,0.01-0.87,0.01-1.3-0.01c-35.39-0.85-63.23-37.52-62.16-81.9
			c0.76-31.55,15.93-58.51,37.34-71.16c0.43-0.01,0.85-0.02,1.29,0c35.41,0.86,63.23,37.52,62.16,81.9
			C561.08,3458.42,545.91,3485.39,524.5,3498.03z" style="fill:#ccdbf2"/>
    </g>
  </g>
  <path d="M3723.46,2077.95l-257-30.9l-100.86-223.69c-12.32-27.33-51.05-27.53-63.65-0.33l-103.14,222.65l-30.91,3.39
	l-206.61,22.7c-32.3,3.55-45.48,43.41-21.66,65.51l0,0c-18.22-16.9-8.14-47.4,16.57-50.11l218.13-23.96l14.63-1.6
	c0.08-0.01,0.17-0.02,0.25-0.03l16.03-1.76l6.88-14.86l81.49-175.92c10.59-22.8,43.07-22.63,53.41,0.29l85.05,188.65l0.06,0.01
	l256.55,30.84c0.4,0.05,0.79,0.1,1.18,0.17c23.43,3.97,32.55,33.18,15.26,49.75c-0.12,0.12-0.25,0.24-0.38,0.36l-179.15,162.84
	l-12.12,11.01l3.17,16.07l40,203.07c0,0.01,0.01,0.03,0.01,0.04c4.76,24.37-21.3,43.08-42.87,30.76l18.91,10.8
	c30.3,17.31,66.92-9.02,60.18-43.26l-45-228.41l191.54-174.1C3757.7,2111.31,3747.99,2080.9,3723.46,2077.95z" style="fill:#ffa20e"/>
</svg>
