<svg xmlns="http://www.w3.org/2000/svg" xml:space="preserve" id="Layer_1" x="0" y="0" style="enable-background:new 0 0 5000 5000" version="1.1" viewBox="0 0 5000 5000">
  <g>
    <path d="M4963.27,3144.32c0,269.48-177.14,497.56-421.36,574.28c17.96-56.93,27.6-117.6,27.6-180.52
		c0-332.49-269.57-601.97-601.96-601.97c-120.72,0-233.2,35.58-327.45,96.77c-82.19-234.59-305.5-402.7-568.03-402.7
		c-14.67,0-29.16,0.52-43.57,1.56c5.9-40.79,9.03-82.45,9.03-124.89c0-476.82-386.56-863.37-863.46-863.37
		c-136.87,0-266.27,31.85-381.26,88.52c140.77-285.71,434.9-482.37,775.02-482.37c476.9,0,863.46,386.64,863.46,863.46
		c0,42.44-3.12,84.1-9.03,124.89c14.41-1.04,28.9-1.56,43.57-1.56c262.54,0,485.84,168.11,568.03,402.7
		c94.25-61.19,206.73-96.77,327.45-96.77C4693.71,2542.35,4963.27,2811.83,4963.27,3144.32z" style="fill:#dde6f5"/>
    <path d="M4569.51,3538.08c0,62.92-9.63,123.58-27.59,180.52c-57.03,17.96-117.69,27.6-180.61,27.6H638.69
		c-331.79,0-600.84-268.36-601.96-599.8v-2.08c0-62.93,9.63-123.59,27.59-180.61c76.73-244.22,304.81-421.36,574.37-421.36
		c19.27,0,38.28,0.87,57.02,2.69c54.59,5.12,107.1,17.53,156.39,36.28c7.03-52.42,20.05-102.93,38.45-150.84
		c92.35-242.22,319.04-418.14,589.04-436.72c15.62-1.04,31.32-1.56,47.21-1.56c18.18,0,36.19,0.71,54,2.12
		c44.29,3.48,87.39,11.22,128.86,22.79h0.09c0.82-7.4,1.73-14.77,2.74-22.12c11.65-85.14,35.65-166.38,70.24-241.72
		c3.22-7.11,6.6-14.23,10.07-21.26c115-56.68,244.4-88.53,381.27-88.53c476.9,0,863.45,386.56,863.45,863.38
		c0,42.44-3.12,84.09-9.02,124.89c14.4-1.05,28.9-1.57,43.56-1.57c262.54,0,485.85,168.11,568.04,402.7
		c94.25-61.18,206.72-96.77,327.45-96.77C4299.95,2936.11,4569.51,3205.59,4569.51,3538.08z" style="fill:#ccdbf2"/>
    <path d="M2863.86,3048.85c0,0-273.67-662.08-846.45-403.48c-50.24-161.25-803.44-332.99-993.13,263.99
		c-200.85-214.52-836.89,122.71-591.4,524.45c0,0,66.95,200.85,460.8,312.39c2.84,0.8,5.21,2.78,7.9,4.17H638.69
		c-332.49,0-601.96-269.48-601.96-601.88v-4.17c2.25-330.58,270.87-597.8,601.96-597.8c75.16,0,147.11,13.8,213.41,38.97
		c44.78-332.57,329.8-589.12,674.7-589.12c63.35,0,124.72,8.68,182.86,24.91c167.76,46.6,309.49,155.96,398.27,301.07
		c77.94-42.26,167.24-66.22,262.19-66.22c85.4,0,166.29,19.44,238.49,54.24C2890.54,2484.12,2957.49,2730.82,2863.86,3048.85z" style="fill:#dde6f5"/>
    <ellipse cx="1583.22" cy="2187.72" rx="81.83" ry="212.01" style="fill:#ecf3fb" transform="rotate(-81.773 1583.174 2187.726)"/>
    <ellipse cx="2388.11" cy="1381.37" rx="168.1" ry="64.88" style="fill:#ecf3fb" transform="rotate(-13.233 2388.577 1381.586)"/>
    <ellipse cx="2717.31" cy="1387.48" rx="43.68" ry="84.24" style="fill:#ecf3fb" transform="rotate(-77.807 2717.503 1387.52)"/>
    <ellipse cx="4576.75" cy="2669.63" rx="43.68" ry="84.24" style="fill:#ecf3fb" transform="rotate(-66.466 4576.764 2669.721)"/>
    <ellipse cx="2500" cy="2430.13" rx="57.54" ry="149.09" style="fill:#ecf3fb" transform="rotate(-73.508 2500 2430.04)"/>
    <path d="M2916.67,2884.22c-7.21,57.5-23.91,114.27-52.81,164.63c27.42-50.98,42.47-107.8,48.08-165.17
		c7.02-71.6,0.96-144.25-14.74-214.34c-1.87-7.82-3.65-15.59-6-23.21c-0.19-0.48-2.24-6.73-2.56-7.6
		c-26.54-79.2-71.52-150.04-129.22-207.85c-89.4-89.61-209.34-147.94-338.5-157.57c-83.95-6.79-169.53,6.35-247.36,38.55
		c-15.98,6.67-32.09,14.19-47.35,22.42c-6.35,3.35-18.59,10.12-24.87,13.46l-9.64-15.27c-66.09-104.93-162.26-190.61-274.17-243.84
		c-44.75-21.71-136.24-70.29-278.92-91.96h0.05l42.14-2.15c44.29,3.48,87.39,11.22,128.86,22.79h0.09
		c0.82-7.4,1.73-14.77,2.74-22.12l3.4,0.99c164.08,47.25,308.73,156.89,399.18,301.48c1.47-0.71,2.86-1.37,3.89-1.83
		c40.36-19.29,83.34-33.63,127.1-42.87c61.94-12.83,125.94-15.32,188.65-7.4c215.49,26.42,401.67,182.05,464.97,389.63l1.61,5.26
		l0.81,2.63c0.13,0.44,0.26,0.84,0.4,1.38c1.95,7.6,3.61,15.22,5.16,22.83C2921.6,2738.41,2925.74,2812.03,2916.67,2884.22z" style="fill:#acc8ef"/>
  </g>
</svg>
