<svg xmlns="http://www.w3.org/2000/svg" xml:space="preserve" id="Layer_1" x="0" y="0" style="enable-background:new 0 0 5000 5000" version="1.1" viewBox="0 0 5000 5000">
  <g>
    <g>
      <g>
        <g>
          <path d="M4945.8,2824.19c0,214.79-100.88,406.04-257.85,528.93c73.17-107.52,115.93-237.38,115.93-377.23
					c0-145-45.97-279.33-124.19-389.09c-78.21-109.77-188.57-194.96-317.42-241.84c0.9-13.37,1.58-26.83,1.58-40.34
					c0-97.3-24.49-188.8-67.69-268.82c-95.71-177.61-283.47-298.26-499.39-298.26c-99.55,0-193.01,25.69-274.3,70.69
					c9.32-59.05,14.12-119.53,14.12-181.14c0-640.93-519.6-1160.53-1160.47-1160.53c-74.6,0-147.55,7.06-218.25,20.43
					c-210.72,40.14-401.26,137.25-554.95,274.7c169.76-217.4,415.28-372.77,696.87-426.4c70.7-13.37,143.65-20.43,218.25-20.43
					c640.86,0,1160.47,519.6,1160.47,1160.53c0,61.6-4.81,122.09-14.12,181.14c81.29-45,174.75-70.69,274.3-70.69
					c215.92,0,403.68,120.65,499.39,298.26c43.2,80.02,67.69,171.52,67.69,268.82c0,13.51-0.68,26.97-1.58,40.34
					c128.85,46.88,239.21,132.08,317.42,241.84C4899.83,2544.87,4945.8,2679.19,4945.8,2824.19z" style="fill:#bdceec"/>
        </g>
        <g>
          <path d="M4803.9,2975.91c0,139.85-42.79,269.7-115.92,377.19c-47.07,36.87-99.26,67.64-155.24,90.96
					c-79.54,33.21-166.77,51.52-258.28,51.52H1096.42c-1.34,0-2.62,0-3.97-0.12c-1.34,0.12-2.69,0.12-4.03,0.12
					c-137.35,0-268.41-26.8-388.3-75.33c-28.14-11.35-55.67-23.99-82.47-37.73c-334.95-171.35-564.17-519.86-564.17-921.9
					c0-235.94,78.93-453.38,211.83-627.48c189.12-247.66,487.44-407.41,823.12-407.41c48.53,0,96.27,3.36,143.03,9.83
					c43.04,5.98,85.16,14.59,126.3,25.58c3.11-263.59,94.19-506.06,245.15-699.45c153.71-137.47,344.23-234.6,554.96-274.7
					c70.75-13.37,143.7-20.45,218.3-20.45c640.85,0,1160.46,519.61,1160.46,1160.52c0,61.59-4.82,122.09-14.16,181.18
					c81.31-45.05,174.77-70.69,274.33-70.69c180.45,0,341.24,84.24,445.08,215.61c6.04,7.69,11.96,15.57,17.64,23.56
					c13.37,18.86,25.64,38.58,36.69,59.03c43.16,80.03,67.64,171.53,67.64,268.84c0,13.55-0.67,26.98-1.53,40.35
					c128.8,46.88,239.17,132.1,317.37,241.86C4757.93,2696.57,4803.9,2830.87,4803.9,2975.91z" style="fill:#dde6f5"/>
        </g>
      </g>
      <g>
        <path d="M1093.55,1425.74c519.51-49.41,998.45,366.52,1038.94,883.7c1.25,16.51,2.41,34.95,2.7,51.52
				c0.81,34.33-0.3,68.62-3.83,102.59c-4.06-38.22-9-75.89-16.04-113.34c-2.05-11.65-4.91-25.61-7.4-37.16
				C2002.57,1818.65,1594.83,1469.79,1093.55,1425.74L1093.55,1425.74z" style="fill:#bdceec"/>
      </g>
    </g>
    <g>
      <g>
        <g>
          <path d="M1952.2,4292.09H798.46c-32.03,0-57.99-25.98-57.99-58.01c0-32.02,25.97-58.01,57.99-58.01H1952.2
					c32.03,0,57.99,25.98,57.99,58.01C2010.19,4266.11,1984.23,4292.09,1952.2,4292.09z" style="fill:#4f91ff"/>
        </g>
        <g>
          <path d="M3508.41,4292.09H2354.66c-32.03,0-57.99-25.98-57.99-58.01c0-32.02,25.97-58.01,57.99-58.01h1153.74
					c32.03,0,58.01,25.98,58.01,58.01C3566.41,4266.11,3540.43,4292.09,3508.41,4292.09z" style="fill:#4f91ff"/>
        </g>
        <g>
          <path d="M4200.81,4292.09h-409.85c-32.03,0-58.01-25.98-58.01-58.01c0-32.02,25.98-58.01,58.01-58.01h409.85
					c32.02,0,58.01,25.98,58.01,58.01C4258.82,4266.11,4232.83,4292.09,4200.81,4292.09z" style="fill:#4f91ff"/>
        </g>
      </g>
      <g>
        <g>
          <path d="M2931.52,3899.02H798.46c-32.03,0-57.99-25.98-57.99-58.01s25.97-58.01,57.99-58.01h2133.06
					c32.03,0,58.01,25.98,58.01,58.01S2963.54,3899.02,2931.52,3899.02z" style="fill:#4f91ff"/>
        </g>
        <g>
          <path d="M4200.81,3899.02h-918.29c-32.03,0-58.01-25.98-58.01-58.01s25.98-58.01,58.01-58.01h918.29
					c32.02,0,58.01,25.98,58.01,58.01S4232.83,3899.02,4200.81,3899.02z" style="fill:#4f91ff"/>
        </g>
      </g>
      <g>
        <g>
          <path d="M4200.81,4685.15H2067.75c-32.03,0-57.99-25.98-57.99-58.01c0-32.02,25.97-58.01,57.99-58.01h2133.06
					c32.02,0,58.01,25.98,58.01,58.01C4258.82,4659.17,4232.83,4685.15,4200.81,4685.15z" style="fill:#4f91ff"/>
        </g>
        <g>
          <path d="M1716.74,4685.15H798.46c-32.03,0-57.99-25.98-57.99-58.01c0-32.02,25.97-58.01,57.99-58.01h918.29
					c32.03,0,57.99,25.98,57.99,58.01C1774.74,4659.17,1748.77,4685.15,1716.74,4685.15z" style="fill:#4f91ff"/>
        </g>
      </g>
    </g>
  </g>
</svg>
