<svg xmlns="http://www.w3.org/2000/svg" xml:space="preserve" id="Layer_1" x="0" y="0" style="enable-background:new 0 0 5000 5000" version="1.1" viewBox="0 0 5000 5000">
  <g>
    <g>
      <g>
        <g>
          <g>
            <path d="M2500,994.23c-64,0-115.89-51.89-115.89-115.89V171.46c0-64,51.89-115.89,115.89-115.89
						c64,0,115.89,51.88,115.89,115.89v706.88C2615.89,942.34,2564,994.23,2500,994.23z" style="fill:#f89a04"/>
          </g>
          <g>
            <path d="M1353.31,1469.2c-29.66,0-59.32-11.31-81.95-33.94L771.53,935.42c-45.26-45.26-45.26-118.63,0-163.89
						s118.63-45.26,163.89,0l499.84,499.84c45.26,45.26,45.26,118.63,0,163.89C1412.63,1457.89,1382.97,1469.2,1353.31,1469.2z" style="fill:#f89a04"/>
          </g>
        </g>
        <g>
          <path d="M878.34,2615.89H171.46c-64,0-115.89-51.88-115.89-115.89c0-64,51.88-115.89,115.89-115.89h706.88
					c64,0,115.89,51.89,115.89,115.89C994.23,2564,942.34,2615.89,878.34,2615.89z" style="fill:#f89a04"/>
        </g>
        <g>
          <path d="M853.47,4262.42c-29.66,0-59.32-11.31-81.95-33.94c-45.26-45.26-45.26-118.63,0-163.89l499.84-499.84
					c45.26-45.26,118.63-45.26,163.89,0c45.26,45.26,45.26,118.63,0,163.89l-499.84,499.84
					C912.79,4251.1,883.13,4262.42,853.47,4262.42z" style="fill:#f89a04"/>
        </g>
        <g>
          <path d="M2500,4944.43c-64,0-115.89-51.89-115.89-115.89v-706.88c0-64,51.89-115.89,115.89-115.89
					c64,0,115.89,51.89,115.89,115.89v706.88C2615.89,4892.54,2564,4944.43,2500,4944.43z" style="fill:#f89a04"/>
        </g>
        <g>
          <path d="M4828.54,2615.89h-706.88c-64,0-115.89-51.88-115.89-115.89c0-64,51.89-115.89,115.89-115.89h706.88
					c64,0,115.89,51.89,115.89,115.89C4944.43,2564,4892.54,2615.89,4828.54,2615.89z" style="fill:#f89a04"/>
        </g>
      </g>
      <g>
        <path d="M3854.14,2515.02c0,747.93-606.27,1354.2-1354.2,1354.2c-503.34,0-942.6-274.69-1175.9-682.3
				c197.99,113.33,427.42,178.18,671.9,178.18c747.82,0,1354.2-606.27,1354.2-1354.09c0-244.59-64.85-474.01-178.18-672.01
				C3579.56,1572.52,3854.14,2011.67,3854.14,2515.02z" style="fill:#f98e00"/>
        <linearGradient id="SVGID_1_" x1="1081.955" x2="3045.607" y1="1418" y2="2840.936" gradientUnits="userSpaceOnUse">
          <stop offset="0" style="stop-color:#ffce43"/>
          <stop offset=".699" style="stop-color:#ffa20e"/>
        </linearGradient>
        <path d="M3350.14,2011.01c0,747.82-606.38,1354.09-1354.2,1354.09c-244.48,0-473.9-64.85-671.9-178.18
				c-113.44-197.99-178.18-427.42-178.18-671.9c0-747.82,606.27-1354.2,1354.09-1354.2c244.59,0,474.01,64.86,672.01,178.19
				C3285.28,1537,3350.14,1766.42,3350.14,2011.01z" style="fill:url(#SVGID_1_)"/>
      </g>
      <g>
        <circle cx="1782.82" cy="715.43" r="143.8" style="fill:#f89a04"/>
        <circle cx="745.7" cy="1739.15" r="143.8" style="fill:#f89a04"/>
        <circle cx="736.22" cy="3196.39" r="143.8" style="fill:#f89a04"/>
        <circle cx="1759.94" cy="4233.51" r="143.8" style="fill:#f89a04"/>
        <circle cx="3217.18" cy="4242.98" r="143.8" style="fill:#f89a04"/>
        <circle cx="3240.06" cy="724.91" r="143.8" style="fill:#f89a04"/>
      </g>
    </g>
    <g>
      <path d="M4426.23,3062.69V1125.61c0-236.34-192.28-428.62-428.62-428.62c-236.34,0-428.62,192.28-428.62,428.62
			v1937.1c-165.51,130.17-264.05,329.41-265.59,540.93c-2.77,380.3,304.24,694.01,684.3,699.28c3.3,0.05,6.62,0.08,9.91,0.08h0.02
			c185.43,0,359.76-72.21,490.88-203.33c131.12-131.12,203.33-305.46,203.33-490.9C4691.83,3395.12,4593.27,3193.95,4426.23,3062.69
			z" style="fill:#dde6f5"/>
      <path d="M4254.3,1125.6v484.88h-513.38V1125.6c0-70.88,28.73-135.04,75.15-181.52
			c46.47-46.42,110.64-75.15,181.52-75.15C4139.39,868.94,4254.3,983.85,4254.3,1125.6z" style="fill:#ecf3fb"/>
      <path d="M4519.9,3608.77c0,290.94-237.86,526.3-529.74,522.26c-19.74-0.28-39.21-1.67-58.34-4.11
			c257.22-32.5,456.15-252.06,456.15-518.15c0-195.16-107.04-365.25-265.59-454.93V1610.48h131.94v1543.36
			C4412.86,3243.52,4519.9,3413.61,4519.9,3608.77z" style="fill:#e22728"/>
      <path d="M3947.12,4124.68c-5.09,0.89-10.18,1.55-15.27,2.21c-258.23-32.76-458.46-256.02-456.47-521.99
			c1.33-193.48,108.03-361.94,265.54-451.05v-1543.4h30.22v1543.4c-157.51,89.1-264.21,257.57-265.54,451.05
			C3503.6,3865.67,3696.09,4085.38,3947.12,4124.68z" style="fill:#f16065"/>
      <path d="M4387.99,3608.77c0,260.77-191.04,476.94-440.86,515.91c-251.04-39.29-443.52-259-441.53-519.78
			c1.33-193.48,108.03-361.94,265.54-451.05v-1543.4h351.21v1543.4C4280.95,3243.51,4387.99,3413.63,4387.99,3608.77z" style="fill:#ed4543"/>
      <ellipse cx="3644.06" cy="3526.78" rx="117.66" ry="96.86" style="fill:#fff" transform="rotate(-76.019 3644.133 3526.692)"/>
      <ellipse cx="3729.63" cy="3315.25" rx="63.2" ry="52.03" style="fill:#fff" transform="rotate(-41.849 3729.706 3315.157)"/>
      <g>
        <g>
          <path d="M4218.65,1727.74h-279.85c-7.66,0-13.86-6.21-13.86-13.86s6.21-13.86,13.86-13.86h279.85c7.66,0,13.86,6.21,13.86,13.86
					S4226.31,1727.74,4218.65,1727.74z"/>
        </g>
        <g>
          <path d="M4182.6,1855.45h-172.32c-7.66,0-13.86-6.21-13.86-13.86s6.21-13.86,13.86-13.86h172.32c7.66,0,13.86,6.21,13.86,13.86
					S4190.26,1855.45,4182.6,1855.45z"/>
        </g>
        <g>
          <path d="M4182.6,1983.17h-172.32c-7.66,0-13.86-6.21-13.86-13.86s6.21-13.86,13.86-13.86h172.32c7.66,0,13.86,6.21,13.86,13.86
					S4190.26,1983.17,4182.6,1983.17z"/>
        </g>
        <g>
          <path d="M4182.6,2110.89h-172.32c-7.66,0-13.86-6.21-13.86-13.86s6.21-13.86,13.86-13.86h172.32c7.66,0,13.86,6.21,13.86,13.86
					S4190.26,2110.89,4182.6,2110.89z"/>
        </g>
        <g>
          <path d="M4182.6,2238.6h-172.32c-7.66,0-13.86-6.21-13.86-13.86s6.21-13.86,13.86-13.86h172.32c7.66,0,13.86,6.21,13.86,13.86
					S4190.26,2238.6,4182.6,2238.6z"/>
        </g>
        <g>
          <path d="M4182.6,2366.32h-172.32c-7.66,0-13.86-6.21-13.86-13.86s6.21-13.86,13.86-13.86h172.32c7.66,0,13.86,6.21,13.86,13.86
					S4190.26,2366.32,4182.6,2366.32z"/>
        </g>
        <g>
          <path d="M4218.65,2494.03h-279.85c-7.66,0-13.86-6.21-13.86-13.86s6.21-13.86,13.86-13.86h279.85c7.66,0,13.86,6.21,13.86,13.86
					S4226.31,2494.03,4218.65,2494.03z"/>
        </g>
        <g>
          <path d="M4182.6,2621.75h-172.32c-7.66,0-13.86-6.21-13.86-13.86c0-7.66,6.21-13.86,13.86-13.86h172.32
					c7.66,0,13.86,6.21,13.86,13.86C4196.46,2615.54,4190.26,2621.75,4182.6,2621.75z"/>
        </g>
        <g>
          <path d="M4182.6,2749.47h-172.32c-7.66,0-13.86-6.21-13.86-13.86c0-7.66,6.21-13.86,13.86-13.86h172.32
					c7.66,0,13.86,6.21,13.86,13.86C4196.46,2743.26,4190.26,2749.47,4182.6,2749.47z"/>
        </g>
        <g>
          <path d="M4182.6,2877.18h-172.32c-7.66,0-13.86-6.21-13.86-13.86c0-7.66,6.21-13.86,13.86-13.86h172.32
					c7.66,0,13.86,6.21,13.86,13.86C4196.46,2870.98,4190.26,2877.18,4182.6,2877.18z"/>
        </g>
        <g>
          <path d="M4182.6,3004.9h-172.32c-7.66,0-13.86-6.21-13.86-13.86c0-7.66,6.21-13.86,13.86-13.86h172.32
					c7.66,0,13.86,6.21,13.86,13.86C4196.46,2998.69,4190.26,3004.9,4182.6,3004.9z"/>
        </g>
        <g>
          <path d="M4182.6,3132.61h-213.3c-7.66,0-13.86-6.21-13.86-13.86c0-7.66,6.21-13.86,13.86-13.86h213.3
					c7.66,0,13.86,6.21,13.86,13.86C4196.46,3126.41,4190.26,3132.61,4182.6,3132.61z"/>
        </g>
      </g>
    </g>
  </g>
</svg>
