<svg xmlns="http://www.w3.org/2000/svg" xml:space="preserve" id="Layer_1" x="0" y="0" style="enable-background:new 0 0 5000 5000" version="1.1" viewBox="0 0 5000 5000">
  <g>
    <g>
      <g>
        <g>
          <path d="M4954.47,2725.14c0,215.52-101.22,407.42-258.72,530.72c73.42-107.88,116.33-238.19,116.33-378.51
					c0-145.49-46.13-280.27-124.61-390.41c-78.47-110.14-189.21-195.62-318.5-242.66c0.9-13.42,1.58-26.92,1.58-40.48
					c0-97.63-24.57-189.45-67.92-269.74c-96.04-178.21-284.43-299.27-501.08-299.27c-99.89,0-193.67,25.78-275.23,70.93
					c9.35-59.25,14.17-119.94,14.17-181.75c0-643.11-521.36-1164.47-1164.4-1164.47c-74.85,0-148.05,7.08-218.99,20.5
					c-211.44,40.27-402.62,137.72-556.84,275.64c170.33-218.14,416.69-374.03,699.23-427.85c70.94-13.42,144.14-20.5,218.99-20.5
					c643.04,0,1164.4,521.37,1164.4,1164.47c0,61.81-4.82,122.51-14.17,181.75c81.56-45.15,175.34-70.93,275.23-70.93
					c216.66,0,405.05,121.06,501.08,299.27c43.35,80.29,67.92,172.1,67.92,269.74c0,13.56-0.68,27.06-1.58,40.48
					c129.29,47.04,240.03,132.52,318.5,242.66C4908.34,2444.87,4954.47,2579.65,4954.47,2725.14z" style="fill:#bdceec"/>
        </g>
        <g>
          <path d="M4812.08,2877.38c0,140.33-42.94,270.61-116.32,378.47c-47.23,37-99.6,67.87-155.76,91.27
					c-74.05,30.93-154.72,48.94-239.37,51.33c-6.55,0.25-13.17,0.37-19.78,0.37H1092.02c-1.35,0-2.63,0-3.98-0.12
					c-1.35,0.12-2.7,0.12-4.04,0.12c-137.82,0-269.32-26.89-389.62-75.59c-28.24-11.39-55.86-24.07-82.75-37.85
					c-336.09-171.93-566.09-521.62-566.09-925.02c0-236.74,79.2-454.92,212.54-629.61c189.76-248.5,489.09-408.79,825.92-408.79
					c48.7,0,96.59,3.37,143.51,9.86c43.18,6,85.45,14.64,126.73,25.66c3.12-264.48,94.51-507.78,245.99-701.82
					c154.23-137.94,345.4-235.39,556.84-275.63c70.99-13.42,144.19-20.52,219.04-20.52c643.02,0,1164.39,521.37,1164.39,1164.46
					c0,61.8-4.84,122.5-14.21,181.8c81.59-45.2,175.36-70.93,275.27-70.93c181.06,0,342.4,84.53,446.59,216.34
					c6.06,7.72,12,15.62,17.7,23.64c13.41,18.93,25.73,38.71,36.81,59.23c43.3,80.3,67.87,172.12,67.87,269.75
					c0,13.6-0.67,27.07-1.53,40.49c129.24,47.04,239.98,132.55,318.45,242.68C4765.96,2597.09,4812.08,2731.84,4812.08,2877.38z" style="fill:#dde6f5"/>
        </g>
      </g>
      <g>
        <path d="M1089.15,1321.95c521.27-49.58,1001.83,367.76,1042.47,886.7c1.25,16.56,2.42,35.06,2.71,51.69
				c0.82,34.45-0.31,68.86-3.84,102.94c-4.08-38.35-9.03-76.14-16.09-113.72c-2.05-11.69-4.93-25.7-7.42-37.29
				C2001.25,1716.19,1592.12,1366.15,1089.15,1321.95L1089.15,1321.95z" style="fill:#bdceec"/>
      </g>
    </g>
    <g>
      <g>
        <path d="M2049.4,3634.28H968.76c-32.13,0-58.19-26.07-58.19-58.2s26.05-58.2,58.19-58.2H2049.4
				c249.53,0,452.52-202.98,452.52-452.5c0-193.21-157.18-350.37-350.37-350.37c-148.14,0-268.67,120.52-268.67,268.66
				c0,112.1,91.2,203.28,203.3,203.28c83.27,0,151-67.7,151-150.97c0-60.19-48.98-109.17-109.17-109.17
				c-32.13,0-58.19-26.07-58.19-58.2s26.05-58.2,58.19-58.2c124.36,0,225.54,101.22,225.54,225.58
				c0,147.43-119.95,267.38-267.38,267.38c-176.26,0-319.67-143.42-319.67-319.69c0-212.31,172.73-385.07,385.05-385.07
				c257.37,0,466.77,209.41,466.77,466.78C2618.31,3379.06,2363.09,3634.28,2049.4,3634.28z" style="fill:#4f91ff"/>
      </g>
      <g>
        <path d="M4457.75,4201.24H3377.12c-313.69,0-568.91-255.22-568.91-568.91c0-257.37,209.38-466.78,466.75-466.78
				c212.31,0,385.07,172.76,385.07,385.07c0,176.26-143.42,319.69-319.69,319.69c-147.43,0-267.38-119.98-267.38-267.41
				c0-124.36,101.18-225.54,225.54-225.54c32.13,0,58.2,26.07,58.2,58.2s-26.07,58.2-58.2,58.2c-60.19,0-109.13,48.94-109.13,109.13
				c0,83.27,67.7,151,150.97,151c112.1,0,203.28-91.18,203.28-203.28c0-148.14-120.52-268.66-268.66-268.66
				c-193.17,0-350.34,157.17-350.34,350.37c0,249.53,202.98,452.5,452.5,452.5h1080.63c32.13,0,58.2,26.07,58.2,58.2
				S4489.88,4201.24,4457.75,4201.24z" style="fill:#4f91ff"/>
      </g>
      <g>
        <path d="M2246.04,4792.71c-212.32,0-385.05-172.73-385.05-385.03c0-176.3,143.41-319.72,319.69-319.72
				c147.43,0,267.36,119.98,267.36,267.41c0,124.36-101.17,225.54-225.53,225.54c-32.13,0-58.19-26.07-58.19-58.2
				s26.05-58.2,58.19-58.2c60.19,0,109.15-48.94,109.15-109.13c0-83.26-67.74-151-150.98-151c-112.1,0-203.31,91.18-203.31,203.31
				c0,148.14,120.54,268.62,268.67,268.62c193.21,0,350.37-157.17,350.37-350.34c0-249.53-202.99-452.53-452.52-452.53H140.05
				c-32.13,0-58.19-26.07-58.19-58.2s26.05-58.2,58.19-58.2H2143.9c313.69,0,568.93,255.25,568.93,568.94
				C2712.82,4583.34,2503.41,4792.71,2246.04,4792.71z" style="fill:#3e76ef"/>
      </g>
    </g>
    <g>
      <g>
        <path d="M4319.13,3110.56l202.2-8.32c-10.23,16.72-220.7,296.2-220.7,296.2s-13.17,0.37-19.78,0.37h-324.08
				l357.82-731.59l286.35-24.81L4319.13,3110.56z" style="fill:#ccdbf2"/>
      </g>
    </g>
    <g>
      <g>
        <polygon points="4540.67 2642.42 4269.59 3076.66 4193.55 3083.13 4468.7 2642.42" style="fill:#fc4335"/>
      </g>
      <g>
        <path d="M4492.72,3057.63c-166.58,272.56-722.98,965.32-722.98,965.32c-2.96-14.97,58.02-130,132.86-263.41
				c0-0.09,0.09-0.09,0.09-0.19c168.15-214.91,402.56-520.91,513.98-695.26L4492.72,3057.63z" style="fill:#fc4335"/>
      </g>
      <g>
        <path d="M4269.59,3076.66l147.09-12.56c-111.43,174.34-345.83,480.35-513.98,695.26
				c114.01-203.36,259.99-449.31,259.99-449.31l-70.96-0.74l-163.07-1.85l7.57-20.05l242.26-645h290.21l-275.15,440.71
				L4269.59,3076.66L4269.59,3076.66z" style="fill:#ffa20e"/>
      </g>
    </g>
    <g>
      <g>
        <polygon points="4584.28 3413.45 4464.6 3605.17 4431.03 3608.02 4552.51 3413.45" style="fill:#fc4335"/>
      </g>
      <g>
        <path d="M4563.11,3596.76c-73.55,120.33-319.19,426.19-319.19,426.19c-1.31-6.61,25.62-57.39,58.66-116.29
				c0-0.04,0.04-0.04,0.04-0.08c74.24-94.88,177.73-229.98,226.92-306.95L4563.11,3596.76z" style="fill:#fc4335"/>
      </g>
      <g>
        <path d="M4464.6,3605.17l64.94-5.55c-49.19,76.97-152.68,212.07-226.92,306.95
				c50.34-89.78,114.79-198.37,114.79-198.37l-31.33-0.33l-72-0.82l3.34-8.85l106.96-284.76h128.13l-121.48,194.57L4464.6,3605.17
				L4464.6,3605.17z" style="fill:#ffa20e"/>
      </g>
    </g>
  </g>
</svg>
