<svg xmlns="http://www.w3.org/2000/svg" xml:space="preserve" id="Layer_1" x="0" y="0" style="enable-background:new 0 0 5000 5000" version="1.1" viewBox="0 0 5000 5000">
  <g>
    <g>
      <g>
        <g>
          <path d="M2647.99,2165.2c-14.42,0-28.72-6.23-38.56-18.26c-17.41-21.28-14.27-52.65,7.01-70.06l766.63-627.14
					c21.28-17.41,52.65-14.27,70.06,7.01c17.41,21.28,14.27,52.65-7.01,70.06l-766.63,627.14
					C2670.23,2161.51,2659.07,2165.2,2647.99,2165.2z" style="fill:#4f91ff"/>
        </g>
        <g>
          <path d="M3682.04,1319.3c-14.42,0-28.72-6.23-38.56-18.26c-17.41-21.28-14.27-52.65,7.01-70.06l766.63-627.14
					c21.28-17.41,52.65-14.27,70.06,7.01c17.41,21.28,14.27,52.65-7.01,70.06l-766.63,627.14
					C3704.28,1315.61,3693.12,1319.3,3682.04,1319.3z" style="fill:#4f91ff"/>
        </g>
        <g>
          <path d="M4636.41,538.58c-14.42,0-28.72-6.23-38.56-18.26c-17.41-21.28-14.27-52.65,7.01-70.06l272.35-222.79
					c21.28-17.41,52.65-14.27,70.06,7.01c17.41,21.28,14.27,52.65-7.01,70.06L4667.9,527.32
					C4658.65,534.89,4647.5,538.58,4636.41,538.58z" style="fill:#4f91ff"/>
        </g>
      </g>
      <g>
        <g>
          <path d="M2330.86,3531.81c-14.42,0-28.72-6.23-38.56-18.26c-17.41-21.28-14.27-52.65,7.01-70.06l766.63-627.14
					c21.28-17.41,52.65-14.27,70.06,7.01c17.41,21.28,14.27,52.65-7.01,70.06l-766.63,627.14
					C2353.1,3528.13,2341.94,3531.81,2330.86,3531.81z" style="fill:#4f91ff"/>
        </g>
        <g>
          <path d="M3364.91,2685.91c-14.42,0-28.72-6.23-38.56-18.26c-17.41-21.28-14.27-52.65,7.01-70.06l766.63-627.14
					c21.28-17.41,52.65-14.27,70.06,7.01c17.41,21.28,14.27,52.65-7.01,70.06l-766.63,627.14
					C3387.15,2682.23,3375.99,2685.91,3364.91,2685.91z" style="fill:#4f91ff"/>
        </g>
        <g>
          <path d="M4319.28,1905.19c-14.42,0-28.72-6.23-38.56-18.26c-17.41-21.28-14.27-52.65,7.01-70.06l272.35-222.79
					c21.28-17.41,52.65-14.27,70.06,7.01c17.41,21.28,14.27,52.65-7.01,70.06l-272.35,222.79
					C4341.52,1901.51,4330.37,1905.19,4319.28,1905.19z" style="fill:#4f91ff"/>
        </g>
      </g>
      <g>
        <g>
          <path d="M1505.56,2607.11c-14.42,0-28.72-6.23-38.56-18.26c-17.41-21.28-14.27-52.65,7.01-70.06l1417.36-1159.47
					c21.28-17.41,52.65-14.27,70.06,7.01c17.41,21.28,14.27,52.65-7.01,70.06L1537.05,2595.85
					C1527.8,2603.42,1516.65,2607.11,1505.56,2607.11z" style="fill:#4f91ff"/>
        </g>
        <g>
          <path d="M3156.16,1256.84c-14.42,0-28.72-6.23-38.56-18.26c-17.41-21.28-14.27-52.65,7.01-70.06l610.17-499.15
					c21.28-17.41,52.65-14.27,70.06,7.01c17.41,21.28,14.27,52.65-7.01,70.06l-610.17,499.15
					C3178.4,1253.16,3167.24,1256.84,3156.16,1256.84z" style="fill:#4f91ff"/>
        </g>
      </g>
      <g>
        <g>
          <path d="M3174.26,2238.19c-14.42,0-28.72-6.23-38.56-18.26c-17.41-21.28-14.27-52.65,7.01-70.06L4560.08,990.41
					c21.28-17.41,52.65-14.27,70.06,7.01c17.41,21.28,14.27,52.65-7.01,70.06L3205.76,2226.94
					C3196.51,2234.51,3185.35,2238.19,3174.26,2238.19z" style="fill:#4f91ff"/>
        </g>
        <g>
          <path d="M2330.86,2928.14c-14.42,0-28.72-6.23-38.56-18.26c-17.41-21.28-14.27-52.65,7.01-70.06l610.17-499.15
					c21.28-17.41,52.65-14.27,70.06,7.01c17.41,21.28,14.27,52.65-7.01,70.06l-610.17,499.15
					C2353.1,2924.45,2341.94,2928.14,2330.86,2928.14z" style="fill:#4f91ff"/>
        </g>
      </g>
    </g>
    <g>
      <g>
        <polygon points="2226.92 2482.23 2226.76 2482.83 1364.84 3455.2 1419.75 2896.29" style="fill:#ffdd9d"/>
      </g>
      <g>
        <polygon points="1419.75 2896.29 1364.84 3455.2 711.75 2322.56" style="fill:#feca70"/>
      </g>
      <g>
        <polygon points="1364.84 3455.2 91.87 3713.83 91.27 3713.67 853.62 3222.73" style="fill:#ffdd9d"/>
      </g>
      <g>
        <polygon points="711.75 2322.56 1364.84 3455.2 853.62 3222.73" style="fill:#ffa20e"/>
      </g>
      <g>
        <polygon points="91.87 3713.83 1364.84 3455.2 983.01 3850.61" style="fill:#ffa20e"/>
      </g>
      <g>
        <polygon points="2541.87 3972.51 1628.73 3912.87 1364.84 3455.2" style="fill:#ffa20e"/>
      </g>
      <g>
        <polygon points="1364.84 3455.2 1628.73 3912.87 1222.97 4734 1212.48 4695.73 1212.27 4695.36" style="fill:#feca70"/>
      </g>
      <g>
        <polygon points="2226.76 2482.83 1898.72 3322.6 1364.84 3455.2" style="fill:#ffa20e"/>
      </g>
      <g>
        <polygon points="1364.84 3455.2 1212.27 4695.36 983.01 3850.61" style="fill:#ffba57"/>
      </g>
      <g>
        <polygon points="2543.06 3972.82 2541.87 3972.51 1364.84 3455.2 1898.72 3322.6" style="fill:#feca70"/>
      </g>
    </g>
  </g>
</svg>
