<svg xmlns="http://www.w3.org/2000/svg" xml:space="preserve" id="Layer_1" x="0" y="0" style="enable-background:new 0 0 5000 5000" version="1.1" viewBox="0 0 5000 5000">
  <g>
    <g>
      <g>
        <g>
          <g>
            <path d="M3749.05,4305.51c-46.37,28.62-97.72,35.71-140.14,14.17c-76.33-38.76-94.9-155.48-41.47-260.7
						c53.43-105.22,321.69-291.18,321.69-291.18s0.14,6.04,0.27,16.74c-81.53,60.53-228.37,176.34-266.4,251.24
						c-53.43,105.22-34.86,221.94,41.44,260.68C3690.37,4309.62,3719.62,4312.11,3749.05,4305.51z" style="fill:#3e76ef"/>
            <path d="M3843.83,4199.32c-23.72,46.72-57.65,83.33-94.78,106.19c-29.43,6.6-58.69,4.11-84.61-9.05
						c-76.3-38.74-94.87-155.46-41.44-260.68c38.03-74.9,184.87-190.71,266.4-251.24
						C3890.21,3852.45,3889.99,4108.41,3843.83,4199.32z" style="fill:#4f91ff"/>
          </g>
          <g>
            <path d="M2829.61,4305.51c-46.37,28.62-97.72,35.71-140.14,14.17c-76.33-38.76-94.9-155.48-41.47-260.7
						c53.43-105.22,321.69-291.18,321.69-291.18s0.14,6.04,0.27,16.74c-81.53,60.53-228.37,176.34-266.4,251.24
						c-53.43,105.22-34.86,221.94,41.44,260.68C2770.93,4309.62,2800.19,4312.11,2829.61,4305.51z" style="fill:#3e76ef"/>
            <path d="M2924.39,4199.32c-23.72,46.72-57.65,83.33-94.78,106.19c-29.43,6.6-58.69,4.11-84.61-9.05
						c-76.3-38.74-94.87-155.46-41.44-260.68c38.03-74.9,184.87-190.71,266.4-251.24
						C2970.77,3852.45,2970.55,4108.41,2924.39,4199.32z" style="fill:#4f91ff"/>
          </g>
          <g>
            <path d="M1910.17,4305.51c-46.37,28.62-97.72,35.71-140.14,14.17c-76.33-38.76-94.9-155.48-41.47-260.7
						c53.43-105.22,321.69-291.18,321.69-291.18s0.14,6.04,0.27,16.74c-81.53,60.53-228.37,176.34-266.4,251.24
						c-53.43,105.22-34.86,221.94,41.44,260.68C1851.49,4309.62,1880.75,4312.11,1910.17,4305.51z" style="fill:#3e76ef"/>
            <path d="M2004.95,4199.32c-23.72,46.72-57.65,83.33-94.78,106.19c-29.43,6.6-58.68,4.11-84.61-9.05
						c-76.3-38.74-94.87-155.46-41.44-260.68c38.03-74.9,184.87-190.71,266.4-251.24
						C2051.33,3852.45,2051.11,4108.41,2004.95,4199.32z" style="fill:#4f91ff"/>
          </g>
        </g>
        <g>
          <g>
            <path d="M3146.45,4869.96c-46.37,28.62-97.72,35.71-140.14,14.17c-76.33-38.76-94.9-155.48-41.47-260.7
						c53.43-105.22,321.69-291.18,321.69-291.18s0.14,6.04,0.27,16.74c-81.53,60.53-228.37,176.34-266.4,251.24
						c-53.43,105.22-34.86,221.94,41.44,260.68C3087.76,4874.07,3117.02,4876.55,3146.45,4869.96z" style="fill:#3e76ef"/>
            <path d="M3241.22,4763.76c-23.72,46.72-57.65,83.33-94.78,106.19c-29.43,6.6-58.69,4.11-84.61-9.05
						c-76.3-38.74-94.87-155.46-41.44-260.68c38.03-74.9,184.87-190.71,266.4-251.24
						C3287.6,4416.89,3287.38,4672.85,3241.22,4763.76z" style="fill:#4f91ff"/>
          </g>
          <g>
            <path d="M2227.01,4869.96c-46.37,28.62-97.72,35.71-140.14,14.17c-76.33-38.76-94.9-155.48-41.47-260.7
						c53.43-105.22,321.69-291.18,321.69-291.18s0.14,6.04,0.27,16.74c-81.53,60.53-228.37,176.34-266.4,251.24
						c-53.42,105.22-34.86,221.94,41.44,260.68C2168.32,4874.07,2197.58,4876.55,2227.01,4869.96z" style="fill:#3e76ef"/>
            <path d="M2321.78,4763.76c-23.72,46.72-57.65,83.33-94.78,106.19c-29.43,6.6-58.69,4.11-84.61-9.05
						c-76.3-38.74-94.87-155.46-41.44-260.68c38.03-74.9,184.87-190.71,266.4-251.24
						C2368.16,4416.89,2367.94,4672.85,2321.78,4763.76z" style="fill:#4f91ff"/>
          </g>
        </g>
      </g>
    </g>
    <g>
      <g>
        <g>
          <linearGradient id="SVGID_1_" x1="1637.139" x2="1637.139" y1="413.442" y2="1081.851" gradientTransform="rotate(22.407 2569.198 2636.793)" gradientUnits="userSpaceOnUse">
            <stop offset=".122" style="stop-color:#fbb03b"/>
            <stop offset=".661" style="stop-color:#f7931e"/>
            <stop offset="1" style="stop-color:#f15a24"/>
          </linearGradient>
          <path d="M2149.66,735.65c-4.5-66.46,7.73-164.18,58.03-211.85c71.39-67.67,172.4-21.99,255.78-88.16
					c39.12-31.05,76.99-88.79,84.15-204.1c16.75,22.49,33.1,58.54,55.45,100.31c75.32,140.77,22.21,379.19-83.97,501.06
					c-23.07,26.48-45.77,45.48-62.66,58.06l-320.28-99.79L2149.66,735.65z" style="fill:url(#SVGID_1_)"/>
          <linearGradient id="SVGID_00000021118503034928847970000013511389384822750874_" x1="2258.508" x2="2258.508" y1="-101.603" y2="566.778" gradientTransform="rotate(-22.593 2569.939 2636.052)" gradientUnits="userSpaceOnUse">
            <stop offset=".122" style="stop-color:#fbb03b"/>
            <stop offset=".661" style="stop-color:#f7931e"/>
            <stop offset="1" style="stop-color:#f15a24"/>
          </linearGradient>
          <path d="M1304.43,875.17
					c-50.18-43.81-110.62-121.56-108.77-190.83c2.63-98.33,106.35-137.45,118.53-243.2c5.71-49.62-8.35-117.23-84.81-203.82
					c27.75,4.06,64.8,17.99,110.14,31.72c152.8,46.28,283.83,252.42,294.93,413.67c2.41,35.03-0.2,64.52-3.25,85.37l-297.03,155.91
					L1304.43,875.17z" style="fill:url(#SVGID_00000021118503034928847970000013511389384822750874_)"/>
          <linearGradient id="SVGID_00000004535514323419302400000002311486390202023040_" x1="3062.691" x2="3062.691" y1="-25.96" y2="642.449" gradientTransform="rotate(-67.592 2569.73 2636.956)" gradientUnits="userSpaceOnUse">
            <stop offset=".122" style="stop-color:#fbb03b"/>
            <stop offset=".661" style="stop-color:#f7931e"/>
            <stop offset="1" style="stop-color:#f15a24"/>
          </linearGradient>
          <path d="M805.43,1571.5
					c-66.46,4.5-164.18-7.73-211.85-58.03c-67.67-71.39-21.99-172.4-88.16-255.78c-31.05-39.12-88.79-76.99-204.1-84.15
					c22.49-16.75,58.54-33.1,100.31-55.45c140.77-75.32,379.19-22.21,501.06,83.97c26.48,23.07,45.48,45.77,58.06,62.66L860.97,1585
					L805.43,1571.5z" style="fill:url(#SVGID_00000004535514323419302400000002311486390202023040_)"/>
          <linearGradient id="SVGID_00000083796605711545237600000007521381494662088076_" x1="3577.169" x2="3577.169" y1="595.703" y2="1264.083" gradientTransform="scale(-1)rotate(67.407 3952.982 -3852.15)" gradientUnits="userSpaceOnUse">
            <stop offset=".122" style="stop-color:#fbb03b"/>
            <stop offset=".661" style="stop-color:#f7931e"/>
            <stop offset="1" style="stop-color:#f15a24"/>
          </linearGradient>
          <path d="M944.95,2416.73
					c-43.81,50.18-121.56,110.62-190.83,108.77c-98.33-2.63-137.45-106.35-243.2-118.53c-49.62-5.71-117.23,8.35-203.82,84.81
					c4.06-27.75,17.99-64.8,31.72-110.14c46.28-152.8,252.42-283.83,413.67-294.93c35.03-2.41,64.52,0.2,85.37,3.25L993.77,2387
					L944.95,2416.73z" style="fill:url(#SVGID_00000083796605711545237600000007521381494662088076_)"/>
          <linearGradient id="SVGID_00000106119481475902339400000011676316414628423567_" x1="3502.094" x2="3502.094" y1="1399.592" y2="2068.001" gradientTransform="rotate(-157.593 2569.624 2636.924)" gradientUnits="userSpaceOnUse">
            <stop offset=".122" style="stop-color:#fbb03b"/>
            <stop offset=".661" style="stop-color:#f7931e"/>
            <stop offset="1" style="stop-color:#f15a24"/>
          </linearGradient>
          <path d="M1641.28,2915.73
					c4.5,66.46-7.73,164.18-58.03,211.85c-71.39,67.67-172.4,21.99-255.78,88.16c-39.12,31.05-76.99,88.79-84.15,204.1
					c-16.75-22.49-33.1-58.54-55.45-100.31c-75.32-140.77-22.21-379.19,83.97-501.06c23.07-26.48,45.77-45.48,62.66-58.06
					l320.28,99.79L1641.28,2915.73z" style="fill:url(#SVGID_00000106119481475902339400000011676316414628423567_)"/>
          <linearGradient id="SVGID_00000012466394553259577300000007140097650187570074_" x1="2879.863" x2="2879.863" y1="1914.363" y2="2582.743" gradientTransform="scale(-1)rotate(-22.593 -13200.018 12862.186)" gradientUnits="userSpaceOnUse">
            <stop offset=".122" style="stop-color:#fbb03b"/>
            <stop offset=".661" style="stop-color:#f7931e"/>
            <stop offset="1" style="stop-color:#f15a24"/>
          </linearGradient>
          <path d="M2486.5,2776.21
					c50.18,43.81,110.62,121.56,108.77,190.83c-2.63,98.33-106.35,137.45-118.53,243.2c-5.71,49.62,8.35,117.23,84.81,203.82
					c-27.75-4.06-64.8-17.99-110.14-31.72c-152.8-46.28-283.83-252.42-294.93-413.67c-2.41-35.03,0.2-64.52,3.25-85.37
					l297.03-155.91L2486.5,2776.21z" style="fill:url(#SVGID_00000012466394553259577300000007140097650187570074_)"/>
          <linearGradient id="SVGID_00000084522359179113229660000000051291254229192878_" x1="2076.541" x2="2076.541" y1="1838.995" y2="2507.404" gradientTransform="rotate(112.408 2569.554 2636.902)" gradientUnits="userSpaceOnUse">
            <stop offset=".122" style="stop-color:#fbb03b"/>
            <stop offset=".661" style="stop-color:#f7931e"/>
            <stop offset="1" style="stop-color:#f15a24"/>
          </linearGradient>
          <path d="M2985.51,2079.88
					c66.46-4.5,164.18,7.73,211.85,58.03c67.67,71.39,21.99,172.4,88.16,255.78c31.05,39.12,88.79,76.99,204.1,84.15
					c-22.49,16.75-58.54,33.1-100.31,55.45c-140.77,75.32-379.19,22.21-501.06-83.97c-26.48-23.07-45.48-45.77-58.06-62.66
					l99.79-320.28L2985.51,2079.88z" style="fill:url(#SVGID_00000084522359179113229660000000051291254229192878_)"/>
          <linearGradient id="SVGID_00000068653337170921828540000006673631385048243135_" x1="1561.203" x2="1561.203" y1="1217.058" y2="1885.438" gradientTransform="rotate(67.407 2569.14 2636.966)" gradientUnits="userSpaceOnUse">
            <stop offset=".122" style="stop-color:#fbb03b"/>
            <stop offset=".661" style="stop-color:#f7931e"/>
            <stop offset="1" style="stop-color:#f15a24"/>
          </linearGradient>
          <path d="M2845.99,1234.66
					c43.81-50.18,121.56-110.62,190.83-108.77c98.33,2.63,137.45,106.35,243.2,118.53c49.62,5.71,117.23-8.35,203.82-84.81
					c-4.06,27.75-17.99,64.8-31.72,110.14c-46.28,152.8-252.42,283.83-413.67,294.93c-35.03,2.41-64.52-0.2-85.37-3.25
					l-155.91-297.03L2845.99,1234.66z" style="fill:url(#SVGID_00000068653337170921828540000006673631385048243135_)"/>
        </g>
        <g>
          <linearGradient id="SVGID_00000104678456839784581630000003738173516023111843_" x1="1895.468" x2="1895.468" y1="95.36" y2="763.771" gradientUnits="userSpaceOnUse">
            <stop offset=".122" style="stop-color:#fbb03b"/>
            <stop offset=".661" style="stop-color:#f7931e"/>
            <stop offset="1" style="stop-color:#f15a24"/>
          </linearGradient>
          <path d="M1714.96,721.05
					c-29.49-59.73-55.43-154.73-27.11-217.97c40.21-89.77,151-86.04,202.87-179c24.34-43.62,37.33-111.44,0-220.77
					c24.06,14.41,52.91,41.5,89.5,71.6c123.3,101.43,165.08,342.09,113.37,495.23c-11.23,33.27-24.98,59.49-35.8,77.57
					l-334.13,29.83L1714.96,721.05z" style="fill:url(#SVGID_00000104678456839784581630000003738173516023111843_)"/>
          <linearGradient id="SVGID_00000080166139000462535690000016453311782672275885_" x1="2666.673" x2="2666.673" y1="-143.632" y2="524.786" gradientTransform="rotate(-45.001 2569.526 2637.135)" gradientUnits="userSpaceOnUse">
            <stop offset=".122" style="stop-color:#fbb03b"/>
            <stop offset=".661" style="stop-color:#f7931e"/>
            <stop offset="1" style="stop-color:#f15a24"/>
          </linearGradient>
          <path d="M986.73,1172.23
					c-63.09-21.38-148.61-70.22-173.3-134.96c-35.05-91.91,45.93-167.61,16.88-270.02c-13.63-48.05-52.4-105.19-156.11-156.11
					c27.2-6.82,66.76-8.07,113.92-12.66c158.91-15.46,358.62,125.17,430.35,270.02c15.58,31.47,24.41,59.73,29.53,80.16
					l-215.17,257.36L986.73,1172.23z" style="fill:url(#SVGID_00000080166139000462535690000016453311782672275885_)"/>
          <linearGradient id="SVGID_00000019677509605480703470000010231833034996130200_" x1="3380.892" x2="3380.892" y1="232.552" y2="900.964" gradientTransform="rotate(-90 2569.583 2637)" gradientUnits="userSpaceOnUse">
            <stop offset=".122" style="stop-color:#fbb03b"/>
            <stop offset=".661" style="stop-color:#f7931e"/>
            <stop offset="1" style="stop-color:#f15a24"/>
          </linearGradient>
          <path d="M790.83,2006.2
					c-59.73,29.49-154.73,55.43-217.97,27.11c-89.77-40.21-86.04-151-179-202.87c-43.62-24.34-111.44-37.33-220.77,0
					c14.41-24.06,41.5-52.91,71.6-89.5c101.43-123.3,342.09-165.08,495.23-113.37c33.27,11.23,59.49,24.98,77.57,35.8l29.83,334.13
					L790.83,2006.2z" style="fill:url(#SVGID_00000019677509605480703470000010231833034996130200_)"/>
          <linearGradient id="SVGID_00000149345019058678694740000011463723745827754934_" x1="3620.026" x2="3620.026" y1="1003.742" y2="1672.16" gradientTransform="rotate(-134.999 2569.606 2637.056)" gradientUnits="userSpaceOnUse">
            <stop offset=".122" style="stop-color:#fbb03b"/>
            <stop offset=".661" style="stop-color:#f7931e"/>
            <stop offset="1" style="stop-color:#f15a24"/>
          </linearGradient>
          <path d="M1242.01,2734.43
					c-21.38,63.09-70.22,148.61-134.96,173.3c-91.91,35.05-167.61-45.93-270.02-16.88c-48.05,13.63-105.19,52.4-156.11,156.11
					c-6.82-27.2-8.07-66.76-12.66-113.92c-15.46-158.91,125.17-358.62,270.02-430.34c31.47-15.58,59.73-24.41,80.16-29.53
					l257.36,215.17L1242.01,2734.43z" style="fill:url(#SVGID_00000149345019058678694740000011463723745827754934_)"/>
          <linearGradient id="SVGID_00000067956381781507969640000004457915151676879284_" x1="3243.699" x2="3243.699" y1="1717.976" y2="2386.388" gradientTransform="rotate(180 2569.583 2637)" gradientUnits="userSpaceOnUse">
            <stop offset=".122" style="stop-color:#fbb03b"/>
            <stop offset=".661" style="stop-color:#f7931e"/>
            <stop offset="1" style="stop-color:#f15a24"/>
          </linearGradient>
          <path d="M2075.98,2930.33
					c29.49,59.73,55.43,154.73,27.11,217.97c-40.21,89.77-151,86.04-202.87,179c-24.34,43.62-37.33,111.44,0,220.77
					c-24.06-14.41-52.91-41.5-89.5-71.6c-123.3-101.43-165.08-342.09-113.37-495.23c11.23-33.27,24.98-59.49,35.8-77.57
					l334.13-29.83L2075.98,2930.33z" style="fill:url(#SVGID_00000067956381781507969640000004457915151676879284_)"/>
          <linearGradient id="SVGID_00000164498732667424833340000014789138718444689056_" x1="2472.652" x2="2472.652" y1="1957.094" y2="2625.512" gradientTransform="rotate(134.999 2569.64 2637.024)" gradientUnits="userSpaceOnUse">
            <stop offset=".122" style="stop-color:#fbb03b"/>
            <stop offset=".661" style="stop-color:#f7931e"/>
            <stop offset="1" style="stop-color:#f15a24"/>
          </linearGradient>
          <path d="M2804.2,2479.15
					c63.09,21.38,148.61,70.22,173.3,134.96c35.05,91.91-45.93,167.61-16.88,270.02c13.63,48.05,52.4,105.19,156.11,156.11
					c-27.2,6.82-66.76,8.07-113.92,12.66c-158.91,15.46-358.62-125.17-430.34-270.02c-15.58-31.47-24.41-59.73-29.53-80.16
					l215.17-257.36L2804.2,2479.15z" style="fill:url(#SVGID_00000164498732667424833340000014789138718444689056_)"/>
          <linearGradient id="SVGID_00000151533555589716524790000009229458636350432684_" x1="1758.275" x2="1758.275" y1="1580.783" y2="2249.195" gradientTransform="rotate(90 2569.583 2637)" gradientUnits="userSpaceOnUse">
            <stop offset=".122" style="stop-color:#fbb03b"/>
            <stop offset=".661" style="stop-color:#f7931e"/>
            <stop offset="1" style="stop-color:#f15a24"/>
          </linearGradient>
          <path d="M3000.1,1645.18
					c59.73-29.49,154.73-55.43,217.97-27.11c89.77,40.21,86.04,151,179,202.87c43.62,24.34,111.44,37.33,220.77,0
					c-14.41,24.06-41.5,52.91-71.6,89.5c-101.43,123.3-342.09,165.08-495.23,113.37c-33.27-11.23-59.49-24.98-77.57-35.8
					l-29.83-334.13L3000.1,1645.18z" style="fill:url(#SVGID_00000151533555589716524790000009229458636350432684_)"/>
          <linearGradient id="SVGID_00000052797044811848899730000006399488332667246214_" x1="1519.299" x2="1519.299" y1="809.72" y2="1478.138" gradientTransform="rotate(45.001 2569.72 2636.944)" gradientUnits="userSpaceOnUse">
            <stop offset=".122" style="stop-color:#fbb03b"/>
            <stop offset=".661" style="stop-color:#f7931e"/>
            <stop offset="1" style="stop-color:#f15a24"/>
          </linearGradient>
          <path d="M2548.93,916.96
					c21.38-63.09,70.22-148.61,134.96-173.3c91.91-35.05,167.61,45.93,270.02,16.88c48.05-13.63,105.19-52.4,156.11-156.11
					c6.82,27.2,8.07,66.76,12.66,113.92c15.46,158.91-125.17,358.62-270.02,430.35c-31.47,15.58-59.73,24.41-80.16,29.53
					l-257.36-215.17L2548.93,916.96z" style="fill:url(#SVGID_00000052797044811848899730000006399488332667246214_)"/>
        </g>
        <path d="M3031.12,1825.68c0,627.24-508.44,1135.68-1135.68,1135.68c-422.12,0-790.5-230.37-986.16-572.2
				c166.05,95.04,358.45,149.43,563.48,149.43c627.15,0,1135.68-508.44,1135.68-1135.59c0-205.12-54.39-397.53-149.43-563.57
				C2800.85,1035.27,3031.12,1403.56,3031.12,1825.68z" style="fill:#ff9700"/>
        <linearGradient id="SVGID_00000080899529642883828630000008540514860572960701_" x1="706.258" x2="2353.051" y1="905.68" y2="2099.007" gradientUnits="userSpaceOnUse">
          <stop offset="0" style="stop-color:#ffce43"/>
          <stop offset=".699" style="stop-color:#ffa20e"/>
        </linearGradient>
        <path d="M2608.44,1403
				c0,627.15-508.53,1135.59-1135.68,1135.59c-205.03,0-397.43-54.39-563.48-149.43c-95.14-166.05-149.43-358.45-149.43-563.48
				C759.85,1198.53,1268.29,690,1895.44,690c205.12,0,397.53,54.39,563.57,149.43C2554.05,1005.47,2608.44,1197.88,2608.44,1403z" style="fill:url(#SVGID_00000080899529642883828630000008540514860572960701_)"/>
      </g>
      <g>
        <path d="M4826.91,3230.32c0,208.77-137.23,385.47-326.43,444.91c13.92-44.11,21.38-91.11,21.38-139.85
				c0-257.58-208.84-466.35-466.35-466.35c-93.53,0-180.67,27.57-253.68,74.97c-63.67-181.74-236.67-311.98-440.07-311.98
				c-11.36,0-22.59,0.4-33.75,1.21c4.57-31.6,6.99-63.87,6.99-96.75c0-369.4-299.47-668.87-668.94-668.87
				c-106.03,0-206.28,24.68-295.37,68.58c109.06-221.34,336.92-373.7,600.43-373.7c369.46,0,668.94,299.54,668.94,668.94
				c0,32.88-2.42,65.15-6.99,96.75c11.16-0.81,22.39-1.21,33.75-1.21c203.39,0,376.39,130.24,440.07,311.98
				c73.02-47.4,160.16-74.97,253.68-74.97C4618.07,2763.97,4826.91,2972.74,4826.91,3230.32z" style="fill:#dde6f5"/>
        <path d="M4521.85,3535.38c0,48.75-7.46,95.74-21.38,139.84c-44.17,13.92-91.17,21.39-139.92,21.39H1476.57
				c-257.05,0-465.48-207.9-466.36-464.67v-1.61c0-48.74,7.47-95.74,21.38-139.92c59.44-189.2,236.14-326.44,444.98-326.44
				c14.92,0,29.65,0.68,44.17,2.08c42.3,3.97,82.98,13.58,121.17,28.11c5.44-40.62,15.53-79.74,29.78-116.86
				c71.54-187.65,247.16-323.94,456.34-338.34c12.1-0.8,24.27-1.2,36.57-1.2c42.13,0,83.14,4.96,122.4,14.32
				c6.48,1.54,12.9,3.2,19.27,4.98h0.07c0.64-5.73,1.35-11.44,2.13-17.14c9.02-65.97,27.62-128.9,54.42-187.26
				c2.48-5.51,5.11-11.03,7.79-16.48c89.09-43.9,189.34-68.58,295.37-68.58c369.47,0,668.94,299.48,668.94,668.87
				c0,32.88-2.42,65.16-6.99,96.75c11.16-0.8,22.39-1.2,33.75-1.2c203.39,0,376.39,130.23,440.07,311.97
				c73.02-47.4,160.16-74.97,253.69-74.97C4313.02,3069.02,4521.85,3277.78,4521.85,3535.38z" style="fill:#ccdbf2"/>
        <path d="M3200.45,3156.36c0,0-212.02-512.93-655.76-312.58c-38.92-124.92-622.44-257.98-769.4,204.52
				c-155.61-166.19-648.35,95.06-458.17,406.3c0,0,51.87,155.6,356.99,242.01c2.2,0.62,4.03,2.15,6.12,3.23h-203.66
				c-257.58,0-466.35-208.77-466.35-466.29v-3.23c1.75-256.11,209.85-463.13,466.35-463.13c58.23,0,113.97,10.69,165.33,30.19
				c34.7-257.65,255.5-456.4,522.7-456.4c49.08,0,96.62,6.72,141.67,19.3c129.97,36.11,239.77,120.82,308.55,233.24
				c60.38-32.74,129.57-51.3,203.12-51.3c66.16,0,128.83,15.06,184.77,42.02C3221.12,2718.85,3272.99,2909.98,3200.45,3156.36z" style="fill:#dde6f5"/>
        <ellipse cx="2208.32" cy="2489.23" rx="63.39" ry="164.25" style="fill:#ecf3fb" transform="rotate(-81.773 2208.26 2489.24)"/>
        <ellipse cx="2831.88" cy="1864.53" rx="130.23" ry="50.26" style="fill:#ecf3fb" transform="rotate(-13.233 2832.442 1864.833)"/>
        <ellipse cx="3086.92" cy="1869.26" rx="33.84" ry="65.26" style="fill:#ecf3fb" transform="rotate(-77.807 3087.141 1869.328)"/>
        <ellipse cx="4527.46" cy="2862.57" rx="33.84" ry="65.26" style="fill:#ecf3fb" transform="rotate(-66.466 4527.473 2862.663)"/>
        <ellipse cx="2918.56" cy="2677.03" rx="44.58" ry="115.5" style="fill:#ecf3fb" transform="rotate(-73.508 2918.56 2676.922)"/>
        <path d="M3225.43,3094.17c22.24-80.73,17.49-167.42-3.22-247.91c-0.18-0.86-0.95-2.93-1.24-3.86
				c-0.71-2.02-1.94-5.86-2.64-7.85c-20.61-59.48-54.75-112.81-98.27-156.57c-67.45-67.83-157.46-112.7-254.6-121.91
				c-67.65-6.71-136.97,3.13-199.79,29.16c-12.38,5.17-24.86,10.99-36.68,17.38c-4.93,2.6-14.4,7.83-19.28,10.42l-7.46-11.83
				c-51.34-81.46-125.68-147.62-212.4-188.91c-34.66-16.82-127.83-58.91-204.38-70.91c22.78-2.39,61.1,3.23,101.54,10.69
				c6.48,1.54,12.9,3.2,19.27,4.98h0.07c0.64-5.73,1.35-11.44,2.13-17.14l2.63,0.76c127.05,36.55,239.31,121.68,309.26,233.57
				c1.14-0.55,2.22-1.06,3.01-1.42c33.87-16.15,70.07-27.95,106.97-34.86c48.13-9.06,97.77-10.02,146.2-2.88
				c164.81,23.35,306.02,145.11,352.92,304.71c2.09,6.79,3.49,13.89,4.94,20.79c6.6,33.2,10.11,66.97,10.65,100.8
				c0.91,67.18-10.82,136.17-44.59,194.95C3211.07,3136.61,3219.31,3115.67,3225.43,3094.17z" style="fill:#bdceec"/>
      </g>
    </g>
  </g>
</svg>
