<svg xmlns="http://www.w3.org/2000/svg" id="Layer_1" version="1.1" viewBox="0 0 5000 5000">
  <path d="M4926.24,2171.99c-147.88-1011.23-940.2-1901.28-2017.44-2069.88C737.15-262.84-801.21,2233.52,565.92,3982.64c78.48,104.11,163.49,199.64,254.01,286.6,995.11,956.21,2653.74,876.85,3568.52-214.29-.03-.02-.07-.02-.1-.03-45.04-15.22-46.21-19.93-17.15-58.05,18.84-24.75,32.65-54.14,56.93-73.72.52-.41,1.03-.83,1.57-1.24.35-.28.69-.53,1.05-.79.47-.34.93-.69,1.4-1.02.22-.17.47-.33.69-.48.5-.36,1.02-.72,1.53-1.07,7.29-5.03,15.5-9.15,24.94-12.12.88-.28,1.69-.71,2.53-1.19.03-.03.07-.05.1-.07,0-.02.02-.02.02-.02.02-.02.03-.02.05-.03,0-.02.02-.02.02-.02.02-.02.03-.02.05-.03,0-.02.02-.02.02-.02.02-.02.03-.02.05-.03.03-.03.09-.05.12-.09.05-.05.1-.09.17-.14,5.4-3.9,10-12.79,11.88-19.56,9.36-25.46,20.36-50.04,32.6-73.96,0-.02.02-.02.02-.03,14.82-29.04,31.44-57.14,48.99-84.72.02-.03.03-.07.07-.1,32.04-50.35,67.22-98.96,100.51-148.39.15-.22.31-.45.47-.69.03-.05.07-.09.1-.14.21-.31.41-.6.62-.91,12.26-18.27,24.27-36.66,35.75-55.3.1-.17.21-.33.31-.5,2.4-3.88,4.76-7.77,7.1-11.67,13.05-22.89,22.92-48.82,28.18-74.58,4.07-19.91,11.55-34.84,24.41-44.58.45-.36.93-.71,1.41-1.02,7.46-5.31,16.63-8.95,27.87-10.91,160.65-396.52,201.33-810.38,143.52-1205.72Z" style="fill:#f2f2f2"/>
  <g>
    <path d="M4457.37,2385.88c-57.23-6.22-48.02-97.82-143.77-182.26-45.25-39.9-104.41-69.81-166.49-85.81-120.56,25.15-234.63,67.91-339.43,125.49-36.04,61.04-51.8,118.5-78.74,113.68-32.42-5.81-21.46-91.15-45.87-178.2-10.76-38.34-28.35-77-59.57-109.35-83.24-86.29-168.35-29.27-287.55-95.84-217.31-121.4-203.54-461.28-288.84-458.77-54.66,1.62-42.28,140.57-161.63,228.72-88.79,65.57-149.93,17.03-335.47,76.69-187.63,60.31-294.86,94.79-316.3,172.53-33.99,123.26,187.14,212.5,162.94,345.05-29.18,159.87-373.13,151.72-402.55,306.7-15.6,82.17,85.38,114.8,249.2,354.64,24.92,36.49,47.42,69.74,67.67,100.18,20.25,30.42,38.28,58.04,54.23,83.22,100.2,158.2,119.26,221.24,102.6,290.31-24.67,102.27-123.76,201.35-224.5,206.81-112.45,6.1-172.15-107.46-244.08-154.05-22.25-14.41-45.7-22.43-72.22-18.48-116.42,17.32-131.93,260.23-217.76,359.31-21.62,24.98-47.73,40.82-81.03,41.59-31.16.72-64.17-6.26-95.13-18.82-20.96-8.5-40.99-19.55-58.86-32.47-2.95-2.12-5.83-4.31-8.64-6.52-36.3-28.68-62.05-65.29-65.73-103.46-.81-8.39-.22-16.39,1.55-24.08,6.15-26.8,26.65-49.88,52.57-72.59,59.69-52.23,148.15-102.41,156.74-190.88,14.03-144.74-191.76-329.92-345.05-306.72-116.21,17.6-129.33,143.9-258.8,174.59-136.71,32.41-270.38-73.22-325.88-117.07-266.55-210.65-310.2-567.82-345.03-853.05-20.63-168.87-40.7-346.16,9.58-575.08,59.95-273,186.64-467.85,268.59-574.86,136.07-189.07,223.31-227.77,281.08-213.98,132.16,31.54,118.83,339.64,255.44,367.1,70.81,14.24,139.79-55.4,262.16-182.11,221.84-229.68,232.7-360.03,341.69-373.8,42.27-5.34,75.08,9.93,325.87,210.86,264,211.53,295.77,249.2,352.26,239.63,146.39-24.82,118.13-309.25,318.68-391.07,122.47-49.97,290.2-8.88,373.8,84.36,82.7,92.2,31.22,190.66,115.02,268.36,113.68,105.42,265.8-22.53,447.96,70.74,139.45,71.4,88.44,165.89,251.73,303.08,155.87,130.95,239.35,75.91,469.66,230.03,115.23,77.12,200.31,135.74,225.82,230.39,1.65,6.12,3.07,12.38,4.21,18.81,26.89,151.34-100.61,325.33-182.11,316.46Z" style="fill:#e6e6e6"/>
    <g>
      <g>
        <path d="M3149.88,3728.75c1.18-26.23,5.11-51.69,11.54-76.1,14.1-53.62,40.1-102.23,74.93-142.98,70.21-82.19,176.16-132.4,292.27-127.2,199.89,8.95,355.23,178.85,346.28,378.75-4.64,103.5-52.43,195.07-125.21,258.07-14.42,12.49-29.84,23.85-46.07,33.94-60.07,37.38-131.6,57.65-207.47,54.25-199.89-8.95-355.22-178.85-346.26-378.73Z" style="fill:#b3b3b3"/>
        <path d="M3149.88,3728.75c1.18-26.23,5.11-51.69,11.54-76.1,14.1-53.62,40.1-102.23,74.93-142.98,60.05-37.38,131.6-57.65,207.46-54.25,199.89,8.95,355.23,178.85,346.28,378.76-3.75,83.78-35.79,159.75-86.47,219.06-60.07,37.38-131.6,57.65-207.47,54.25-199.89-8.95-355.22-178.85-346.26-378.73Z" style="fill:#e6e6e6"/>
      </g>
      <g>
        <path d="M1422.41,1864.21c-.83-20.62.56-40.82,3.96-60.36,7.46-42.93,24.58-82.72,49.13-116.95,49.49-69.04,129.11-115.42,220.37-119.09,157.11-6.32,290.09,116.35,296.41,273.48,3.27,81.35-28.04,156.24-80.83,210.43-10.46,10.74-21.77,20.66-33.81,29.65-44.54,33.28-99.21,53.92-158.84,56.31-157.11,6.32-290.07-116.35-296.39-273.47Z" style="fill:#b3b3b3"/>
        <path d="M1422.41,1864.21c-.83-20.62.56-40.82,3.96-60.36,7.46-42.93,24.58-82.72,49.13-116.95,44.53-33.28,99.21-53.92,158.83-56.31,157.11-6.32,290.09,116.35,296.41,273.48,2.65,65.85-17.37,127.48-53.1,177.3-44.54,33.28-99.21,53.92-158.84,56.31-157.11,6.32-290.07-116.35-296.39-273.47Z" style="fill:#f2f2f2"/>
      </g>
      <g>
        <path d="M4529.44,2692.82c9.76-2.04,19.67-2.11,29.61-.38,21.81,3.79,43.69,16.22,64.12,35.51,41.19,38.87,76.41,105.53,93.04,185.09,28.63,136.97-8.57,261.05-82.92,276.59-38.5,8.05-79.53-14.56-114.13-57.26-6.86-8.46-13.46-17.72-19.73-27.67-23.22-36.82-42.03-83.3-52.9-135.29-28.63-136.97,8.57-261.04,82.92-276.58Z" style="fill:#b3b3b3"/>
        <path d="M4529.44,2692.82c9.76-2.04,19.67-2.11,29.61-.38,21.81,3.79,43.69,16.22,64.12,35.51,23.22,36.81,42.03,83.3,52.89,135.28,28.63,136.97-8.57,261.05-82.92,276.59-31.16,6.51-63.99-7.06-93.71-35.13-23.22-36.82-42.03-83.3-52.9-135.29-28.63-136.97,8.57-261.04,82.92-276.58Z" style="fill:#e6e6e6"/>
      </g>
      <g>
        <path d="M2447.02,4635.32c18.53,1.06,36.56,2.9,53.89,5.42,38.06,5.52,72.77,14.31,102.06,25.4,59.08,22.36,96.14,54.07,94.24,87.13-3.27,56.93-120.82,96.64-262.05,88.53-73.12-4.2-138.48-20.41-184.06-42.98-9.03-4.47-17.29-9.2-24.66-14.12-27.3-18.22-42.7-39.24-41.45-60.85,3.27-56.93,120.82-96.64,262.04-88.52Z" style="fill:#b3b3b3"/>
        <path d="M2447.02,4635.32c18.53,1.06,36.56,2.9,53.89,5.42,38.06,5.52,72.77,14.31,102.06,25.4,27.3,18.21,42.7,39.24,41.46,60.85-3.27,56.93-120.82,96.64-262.05,88.53-59.19-3.4-113.3-14.67-155.94-30.82-27.3-18.22-42.7-39.24-41.45-60.85,3.27-56.93,120.82-96.64,262.04-88.52Z" style="fill:#e6e6e6"/>
      </g>
      <path d="M2621.35,184.04c.37,6.85-4.64,13.77-14.21,20.47-35.27-20.84-132.31-31.81-245.25-25.33-73.11,4.2-138.79,14.94-184.88,28.64-9.13,2.72-17.45,5.6-24.96,8.54-11.85,4.64-21.57,9.5-28.71,14.51h-.08c-8.83-5.23-13.77-11.04-14.14-17.38-.74-12.07,15.17-24.15,42.93-34.97,7.51-2.95,15.83-5.82,24.96-8.54,46.09-13.77,111.76-24.44,184.88-28.64,141.29-8.1,257.63,11.04,259.47,42.7Z" style="fill:#b3b3b3"/>
      <path d="M2607.14,204.51c-16.05,11.19-44.77,21.79-82.09,30.48-29.53,6.99-64.42,12.74-102.56,16.79-17.38,1.84-35.42,3.31-53.97,4.42-112.87,6.48-209.91-4.49-245.18-25.33,7.14-5.01,16.86-9.87,28.71-14.51,7.51-2.94,15.83-5.82,24.96-8.54,46.09-13.7,111.76-24.44,184.88-28.64,112.94-6.48,209.99,4.49,245.25,25.33Z" style="fill:#e6e6e6"/>
      <path d="M503.37,3704.41c-1.18.66-2.36,1.11-3.61,1.55-41.6,13.91-111.84-84.01-156.61-218.16-23.19-69.5-35.05-135.33-35.34-184.59,0-9.72.37-18.85,1.25-27.17,3.17-30.92,12.59-51.54,28.35-56.77,17.3-5.82,39.61,7.8,62.88,35.27-13.62,6.99-21.79,26.65-24.74,55.15-.88,8.32-1.25,17.45-1.25,27.24.29,49.18,12.15,115.01,35.34,184.51,26.14,78.41,60.96,144.38,93.73,182.96Z" style="fill:#b3b3b3"/>
      <path d="M503.37,3704.41c-32.77-38.58-67.59-104.55-93.73-182.96-23.19-69.5-35.05-135.33-35.34-184.51,0-9.79.37-18.92,1.25-27.24,2.95-28.49,11.12-48.15,24.74-55.15,32.77,38.58,67.59,104.55,93.73,182.89,5.89,17.6,11.04,34.97,15.46,51.91,9.64,37.18,15.83,72.16,18.48,102.78,4.93,58.61-3.16,101.24-24.59,112.28Z" style="fill:#e6e6e6"/>
      <g>
        <path d="M4596.61,1678.72c-5.87-17.61-11.02-34.98-15.43-51.9-9.69-37.16-15.87-72.15-18.47-102.79-5.25-61.78,4-105.78,28.16-113.84,41.59-13.87,111.84,84,156.61,218.21,23.17,69.48,35.04,135.29,35.32,184.53.06,9.76-.35,18.87-1.21,27.21-3.17,30.89-12.6,51.51-28.38,56.77-41.59,13.87-111.84-84.01-156.6-218.19Z" style="fill:#b3b3b3"/>
        <path d="M4596.61,1678.72c-5.87-17.61-11.02-34.98-15.43-51.9-9.69-37.16-15.87-72.15-18.47-102.79,3.17-30.89,12.59-51.51,28.38-56.77,41.59-13.87,111.84,84.01,156.61,218.21,18.76,56.24,30.11,110.09,33.9,154.67-3.17,30.89-12.6,51.51-28.38,56.77-41.59,13.87-111.84-84.01-156.6-218.19Z" style="fill:#e6e6e6"/>
      </g>
      <g>
        <path d="M3514.5,728.46c1.92-12.17,5.09-23.83,9.37-34.88,9.38-24.26,24.05-45.56,42.42-62.74,37.04-34.64,89.06-52.51,142.92-44.01,92.73,14.64,156.26,101.98,141.63,194.72-7.58,48.01-34.65,88.2-71.89,113.77-7.38,5.07-15.16,9.56-23.26,13.41-29.96,14.28-64.38,19.99-99.57,14.43-92.73-14.64-156.26-101.98-141.62-194.71Z" style="fill:#b3b3b3"/>
        <path d="M3514.5,728.46c1.92-12.17,5.09-23.83,9.37-34.88,9.38-24.26,24.05-45.56,42.42-62.74,29.95-14.29,64.38-19.99,99.56-14.43,92.73,14.64,156.26,101.98,141.63,194.72-6.14,38.87-25.05,72.61-51.78,97.61-29.96,14.28-64.38,19.99-99.57,14.43-92.73-14.64-156.26-101.98-141.62-194.71Z" style="fill:#e6e6e6"/>
      </g>
      <g>
        <path d="M2804.68,2524.2c1.92-12.17,5.09-23.83,9.36-34.88,9.38-24.26,24.05-45.56,42.42-62.74,37.04-34.64,89.06-52.51,142.92-44.01,92.73,14.64,156.26,101.98,141.63,194.72-7.58,48.01-34.65,88.2-71.89,113.77-7.38,5.07-15.16,9.56-23.26,13.41-29.96,14.28-64.38,19.99-99.57,14.43-92.73-14.64-156.26-101.98-141.62-194.71Z" style="fill:#b3b3b3"/>
        <path d="M2804.68,2524.2c1.92-12.17,5.09-23.83,9.36-34.88,9.38-24.26,24.05-45.56,42.42-62.74,29.95-14.29,64.38-19.99,99.56-14.43,92.73,14.64,156.26,101.98,141.63,194.72-6.13,38.87-25.05,72.61-51.78,97.61-29.96,14.28-64.38,19.99-99.57,14.43-92.73-14.64-156.26-101.98-141.62-194.71Z" style="fill:#e6e6e6"/>
      </g>
      <g>
        <path d="M627.15,1941.11c1.92-12.17,5.09-23.83,9.36-34.88,9.38-24.26,24.05-45.56,42.42-62.74,37.04-34.64,89.06-52.51,142.92-44.01,92.73,14.64,156.26,101.98,141.63,194.72-7.58,48.01-34.65,88.2-71.89,113.77-7.38,5.07-15.16,9.56-23.26,13.41-29.96,14.28-64.38,19.99-99.57,14.43-92.73-14.64-156.25-101.98-141.62-194.71Z" style="fill:#b3b3b3"/>
        <path d="M627.15,1941.11c1.92-12.17,5.09-23.83,9.36-34.88,9.38-24.26,24.05-45.56,42.42-62.74,29.95-14.29,64.38-19.99,99.56-14.43,92.73,14.64,156.26,101.98,141.63,194.72-6.13,38.87-25.05,72.61-51.78,97.61-29.96,14.28-64.38,19.99-99.57,14.43-92.73-14.64-156.25-101.98-141.62-194.71Z" style="fill:#f2f2f2"/>
      </g>
      <g>
        <path d="M2189,698.88c1.92-12.17,5.09-23.83,9.37-34.88,9.38-24.26,24.05-45.56,42.42-62.74,37.04-34.64,89.06-52.51,142.93-44.01,92.73,14.64,156.26,101.98,141.63,194.72-7.58,48.01-34.65,88.2-71.89,113.77-7.38,5.07-15.16,9.56-23.26,13.41-29.96,14.28-64.38,19.99-99.57,14.43-92.73-14.64-156.26-101.98-141.62-194.71Z" style="fill:#b3b3b3"/>
        <path d="M2189,698.88c1.92-12.17,5.09-23.83,9.37-34.88,9.38-24.26,24.05-45.56,42.42-62.74,29.95-14.29,64.38-19.99,99.56-14.43,92.73,14.64,156.26,101.98,141.63,194.72-6.13,38.87-25.05,72.61-51.78,97.61-29.96,14.28-64.38,19.99-99.57,14.43-92.73-14.64-156.26-101.98-141.62-194.71Z" style="fill:#e6e6e6"/>
      </g>
      <g>
        <path d="M4387.91,4055.36c-45.15-15.26-46.33-19.93-17.26-58.09,25.67-33.7,41.98-76.01,88.12-90.44,6.68-2.09,12.77-13.14,15.01-21.19,14.37-51.66,46.47-93.56,71.22-139.64,45.14-84.06,108.57-154.79,155.31-236.79,13.04-22.88,22.92-48.81,28.18-74.57,6.5-31.87,21.8-50.93,53.69-56.51-21.56,80.43-59.82,154.23-95.76,228.34-58.85,121.35-133.78,233.59-210.55,344.36-4.09,5.9-10.68,10.07-16.11,15.04-1.56-10.53,4.94-27.58-11.92-27.42-10.56.1-18.63,12.9-17.12,26.51,1.12,10.07,2.49,20.1,3.74,30.16,0,0,.42-1.13.43-1.12-.82,2.58-1.64,5.14-2.47,7.71-9.61,22.23-28.39,36.85-44.52,53.67Z" style="fill:#e6e6e6"/>
        <path d="M4434.57,3995.09c-1.26-10.05-2.63-20.09-3.74-30.16-1.51-13.61,6.56-26.41,17.12-26.51,16.86-.16,10.36,16.89,11.92,27.42-8.11,10.02-12.24,23.49-25.29,29.24Z" style="fill:#c8d9f1"/>
      </g>
      <ellipse cx="4360.34" cy="1099.88" rx="32.21" ry="160.02" style="fill:#ccc" transform="rotate(-35.73 4359.948 1099.907)"/>
      <ellipse cx="2826.88" cy="2043.82" rx="75.36" ry="103.08" style="fill:#e6e6e6" transform="rotate(-15.61 2827.559 2044.175)"/>
      <path d="M2899.49,4007.36c-15.31,4.28-40.14-36.7-55.47-91.53-15.32-54.83-15.33-102.74-.02-107.02,15.31-4.28,69.11,36.7,84.43,91.53,15.32,54.83-13.63,102.74-28.94,107.02Z" style="fill:#e6e6e6"/>
      <ellipse cx="156.63" cy="2565.52" rx="23.46" ry="103.08" style="fill:#ccc" transform="rotate(-2.48 156.996 2569.572)"/>
      <path d="M1835.58,713.58c-15.31,4.28-64.16-36.7-79.49-91.53-15.32-54.83,8.69-102.74,24-107.02s40.14,36.7,55.47,91.53c15.32,54.83,15.33,102.74.02,107.02Z" style="fill:#ccc"/>
    </g>
    <path d="M1535.77,3848.97c0,1.38,0,2.76-.02,4.14-.14,12.24-1.05,24.29-2.69,36.11-9.05,65.28-40.3,123.59-85.88,167.03-10.86,10.34-22.53,19.84-34.89,28.37,37.54-48.45,59.85-109.3,59.64-175.2-.05-17.75-1.74-35.13-4.91-51.97-.45-2.43-.93-4.83-1.47-7.22-10.34-48.13-32.87-91.77-64.17-127.54-52.52-59.98-129.71-97.84-215.5-97.58-59.67.19-115.07,18.79-160.8,50.38,52.02-67.16,133.31-110.54,224.63-110.83,79.86-.24,152.26,32.53,204.24,85.44,50.37,51.28,81.57,121.47,81.81,198.86Z" style="fill:#b3b3b3"/>
    <path d="M1535.76,3853.1c-.14,12.24-1.05,24.29-2.69,36.11-20.96-8.5-40.99-19.55-58.86-32.47,20.31-1.93,40.83-3.15,61.55-3.64Z" style="fill:#b3b3b3"/>
    <path d="M1471.95,3909.42c.21,65.9-22.1,126.74-59.64,175.2-45.75,31.6-101.15,50.19-160.82,50.38h-.9c-2.76,0-5.5-.03-8.22-.12-1.6-.03-3.19-.1-4.79-.17-1.12-.05-2.26-.1-3.38-.17-1.21-.07-2.4-.14-3.6-.22-.28-.02-.57-.05-.86-.07-1.21-.09-2.43-.19-3.65-.29-1.22-.1-2.46-.21-3.69-.33-2.65-.28-5.33-.57-7.98-.91-.71-.09-1.4-.17-2.1-.28-.76-.09-1.5-.19-2.24-.31-3.96-.55-7.91-1.21-11.84-1.95-1.31-.24-2.6-.5-3.91-.76-1.15-.22-2.29-.47-3.45-.72-2.98-.62-5.95-1.31-8.91-2.05-1.02-.24-2.03-.5-3.05-.78-.9-.22-1.81-.47-2.72-.72-1.14-.29-2.26-.6-3.38-.93-1.12-.31-2.26-.64-3.36-.98-1.12-.33-2.24-.67-3.36-1.02-1.09-.33-2.15-.67-3.24-1.02-4.9-1.6-9.72-3.31-14.51-5.15-1-.38-1.98-.78-2.96-1.17-1.21-.48-2.41-.96-3.6-1.46-1.21-.5-2.4-1-3.59-1.52-.9-.38-1.79-.78-2.69-1.17-5.02-2.22-9.96-4.58-14.84-7.1-1.15-.59-2.29-1.17-3.43-1.79-1.14-.6-2.28-1.21-3.4-1.83-10.67-5.86-20.93-12.38-30.72-19.51-.9-.65-1.79-1.31-2.69-1.98-6.39-4.77-12.58-9.81-18.56-15.1-.84-.74-1.71-1.5-2.53-2.28-1-.9-1.96-1.79-2.95-2.71-.69-.64-1.38-1.29-2.07-1.95-4.15-3.95-8.19-8.02-12.1-12.19-1.52-1.64-3.03-3.31-4.53-4.98-2.15-2.43-4.27-4.9-6.36-7.38-.83-1.02-1.67-2.03-2.48-3.05-.72-.88-1.43-1.78-2.14-2.67-2.12-2.69-4.19-5.41-6.22-8.17-.53-.74-1.09-1.48-1.6-2.24-2.86-3.95-5.6-7.98-8.24-12.08-.41-.64-.83-1.29-1.24-1.95-.91-1.45-1.83-2.91-2.71-4.38-.91-1.48-1.81-2.98-2.69-4.5-.12-.24-.26-.47-.4-.69-.83-1.45-1.65-2.9-2.46-4.34-.86-1.55-1.71-3.12-2.53-4.69-.45-.84-.9-1.69-1.33-2.53-.1-.17-.19-.34-.28-.52-.6-1.17-1.21-2.36-1.79-3.53-.62-1.24-1.22-2.48-1.81-3.72-.62-1.28-1.22-2.57-1.81-3.86-.36-.74-.69-1.47-1.02-2.21-.33-.69-.64-1.4-.95-2.1-1.41-3.22-2.79-6.48-4.09-9.76-.26-.64-.52-1.28-.76-1.91-.47-1.15-.91-2.33-1.34-3.5-.53-1.45-1.07-2.9-1.59-4.34-.72-2.05-1.43-4.1-2.1-6.15-.43-1.29-.83-2.57-1.24-3.86-.69-2.19-1.36-4.41-2-6.64-.59-2.05-1.15-4.1-1.69-6.17-.24-.88-.47-1.76-.69-2.64-.69-2.74-1.34-5.5-1.95-8.26-.26-1.16-.5-2.31-.74-3.47-1.53-7.34-2.77-14.79-3.72-22.32-.14-1.05-.26-2.09-.38-3.14-.6-5.26-1.07-10.57-1.36-15.91-.07-.91-.12-1.84-.16-2.76-.1-1.93-.17-3.88-.22-5.81-.03-.9-.05-1.79-.07-2.69-.03-1.55-.05-3.1-.05-4.65-.07-20.63,2.07-40.77,6.19-60.16,9.07-42.63,27.65-81.76,53.45-115.06,45.73-31.6,101.13-50.19,160.8-50.38,85.79-.26,162.98,37.59,215.5,97.58,31.3,35.77,53.83,79.41,64.17,127.54.53,2.4,1.02,4.79,1.47,7.22,3.17,16.84,4.86,34.22,4.91,51.97Z" style="fill:#e6e6e6"/>
    <path d="M2947.58,3073.44h-.02c-8.84-2.96-18.06-5.24-27.6-6.74-20.77-3.28-41.27-2.64-60.73,1.38h-.03c-31.01,6.39-59.42,21.34-82.17,42.63,29.96-14.29,64.38-20,99.56-14.44,92.74,14.65,156.27,101.99,141.64,194.73-6.14,38.87-25.06,72.6-51.78,97.61,8.08-3.86,15.88-8.36,23.25-13.43,37.23-25.56,64.29-65.74,71.88-113.76,13.13-83.2-36.66-162.06-114.01-187.97Z" style="fill:#b3b3b3"/>
    <path d="M3018.24,3290.99c-6.14,38.87-25.06,72.6-51.78,97.61-29.98,14.27-64.38,19.98-99.58,14.43-92.74-14.63-156.25-101.97-141.62-194.71,1.91-12.17,5.08-23.82,9.36-34.87,9.38-24.27,24.05-45.57,42.42-62.74,29.96-14.29,64.38-20,99.56-14.44,92.74,14.65,156.27,101.99,141.64,194.73Z" style="fill:#d8d8d8"/>
  </g>
</svg>
