<svg xmlns="http://www.w3.org/2000/svg" xml:space="preserve" id="Layer_1" x="0" y="0" style="enable-background:new 0 0 5000 5000" version="1.1" viewBox="0 0 5000 5000">
  <g>
    <g>
      <path d="M3832,3310.75c-690.48,823.58-1993.45,814.03-2644.68-50.02C241.46,2050.57,1305.8,323.42,2808.28,575.91
			c1036.69,162.26,1691.98,1290.23,1296.51,2266.27c-22.07,3.86-32.65,17.05-37.15,39.1c-3.64,17.83-10.47,35.76-19.5,51.6
			c-51.84,86.39-121.45,164.4-156.73,260.44c-1.55,5.57-5.76,13.22-10.38,14.66c-31.93,9.98-43.21,39.25-60.97,62.57
			C3799.95,3296.96,3800.77,3300.2,3832,3310.75z" style="fill:#f2f2f2"/>
      <g>
        <path d="M2975.08,3085.07c0.81-18.15,3.54-35.76,7.99-52.65c9.75-37.1,27.74-70.73,51.84-98.92
				c48.57-56.86,121.88-91.6,202.21-88.01c138.29,6.19,245.77,123.74,239.58,262.05c-3.21,71.61-36.27,134.96-86.63,178.55
				c-9.98,8.64-20.64,16.5-31.87,23.48c-41.56,25.86-91.05,39.88-143.54,37.53C3076.36,3340.91,2968.89,3223.36,2975.08,3085.07z" style="fill:#b3b3b3"/>
        <path d="M2975.08,3085.07c0.81-18.15,3.54-35.76,7.99-52.65c9.75-37.1,27.74-70.73,51.84-98.92
				c41.55-25.86,91.05-39.88,143.53-37.53c138.29,6.19,245.77,123.74,239.58,262.05c-2.6,57.97-24.76,110.53-59.82,151.56
				c-41.56,25.86-91.05,39.88-143.54,37.53C3076.36,3340.91,2968.89,3223.36,2975.08,3085.07z" style="fill:#e6e6e6"/>
      </g>
      <path d="M1220.67,1340.38c-56.69,74.04-144.35,208.85-185.84,397.72c-34.79,158.39-20.91,281.05-6.63,397.88
			c24.11,197.34,54.3,444.45,238.73,590.19c38.39,30.34,130.88,103.43,225.47,81c89.58-21.24,98.65-108.62,179.05-120.79
			c106.05-16.05,248.44,112.06,238.73,212.2c-9.25,95.45-152.87,126.46-145.89,198.94c5.71,59.32,88.48,113.21,158,111.58
			c114.47-2.68,105.86-262.36,206.72-277.36c77.66-11.55,116.95,124.89,218.83,119.36c69.7-3.78,138.25-72.34,155.32-143.09
			c15.2-63-12.58-118.75-155.32-327.74c-113.34-165.94-183.21-188.51-172.42-245.36c20.35-107.23,258.32-101.59,278.52-212.2
			c16.74-91.7-136.26-153.44-112.73-238.73c14.83-53.78,89.02-77.63,218.83-119.36c128.37-41.27,170.67-7.68,232.1-53.05
			c82.58-60.99,74.01-157.13,111.83-158.24c59.03-1.74,49.49,233.41,199.85,317.4c82.47,46.06,141.35,6.61,198.94,66.31
			c70.61,73.19,40.63,193.15,72.95,198.94c30.65,5.49,40.38-105.57,126-152.52c81.25-44.55,205.84-17.68,278.52,46.42
			c66.25,58.43,59.89,121.8,99.47,126.11c56.39,6.14,144.6-114.24,126-218.95c-13.03-73.31-74.28-115.62-159.15-172.42
			c-159.33-106.63-217.09-68.54-324.94-159.15c-112.97-94.91-77.69-160.29-174.16-209.69c-126.03-64.53-231.28,24-309.93-48.94
			c-57.98-53.77-22.36-121.88-79.58-185.68c-57.85-64.5-173.89-92.93-258.62-58.36c-138.76,56.61-119.2,253.39-220.48,270.56
			c-39.08,6.62-61.06-19.44-243.71-165.78C2061.6,1068.57,2038.9,1058,2009.65,1061.7c-75.4,9.53-82.91,99.71-236.39,258.62
			c-84.67,87.67-132.39,135.85-181.38,126c-94.51-19-85.3-232.16-176.73-253.98C1375.16,1182.79,1314.81,1209.57,1220.67,1340.38z" style="fill:#e6e6e6"/>
      <g>
        <path d="M1779.9,1795.06c-0.57-14.27,0.39-28.24,2.74-41.76c5.16-29.7,17.01-57.23,33.99-80.92
				c34.24-47.76,89.33-79.86,152.47-82.4c108.7-4.37,200.7,80.5,205.07,189.21c2.26,56.28-19.4,108.1-55.92,145.59
				c-7.24,7.43-15.06,14.3-23.39,20.51c-30.82,23.02-68.64,37.3-109.9,38.96C1876.26,1988.63,1784.28,1903.76,1779.9,1795.06z" style="fill:#b3b3b3"/>
        <path d="M1779.9,1795.06c-0.57-14.27,0.39-28.24,2.74-41.76c5.16-29.7,17.01-57.23,33.99-80.92
				c30.81-23.02,68.64-37.3,109.89-38.96c108.7-4.37,200.7,80.5,205.07,189.21c1.83,45.56-12.02,88.2-36.74,122.67
				c-30.82,23.02-68.64,37.3-109.9,38.96C1876.26,1988.63,1784.28,1903.76,1779.9,1795.06z" style="fill:#f2f2f2"/>
      </g>
      <g>
        <path d="M3929.55,2368.34c6.75-1.41,13.61-1.46,20.48-0.26c15.09,2.62,30.23,11.22,44.36,24.57
				c28.49,26.9,52.87,73.01,64.37,128.06c19.81,94.76-5.93,180.61-57.37,191.37c-26.64,5.57-55.02-10.07-78.96-39.62
				c-4.74-5.85-9.31-12.26-13.65-19.15c-16.07-25.48-29.08-57.64-36.6-93.6C3852.37,2464.93,3878.11,2379.09,3929.55,2368.34z" style="fill:#b3b3b3"/>
        <path d="M3929.55,2368.34c6.75-1.41,13.61-1.46,20.48-0.26c15.09,2.62,30.23,11.22,44.36,24.57
				c16.06,25.47,29.08,57.63,36.59,93.6c19.81,94.76-5.93,180.61-57.37,191.37c-21.56,4.51-44.27-4.89-64.84-24.3
				c-16.07-25.48-29.08-57.64-36.6-93.6C3852.37,2464.93,3878.11,2379.09,3929.55,2368.34z" style="fill:#e6e6e6"/>
      </g>
      <g>
        <path d="M2488.8,3712.29c12.82,0.74,25.3,2.01,37.29,3.75c26.33,3.82,50.34,9.9,70.61,17.58
				c40.88,15.47,66.51,37.41,65.2,60.28c-2.26,39.39-83.59,66.86-181.31,61.25c-50.59-2.91-95.81-14.12-127.35-29.74
				c-6.25-3.09-11.96-6.36-17.06-9.77c-18.89-12.61-29.54-27.15-28.68-42.1C2309.76,3734.15,2391.09,3706.68,2488.8,3712.29z" style="fill:#b3b3b3"/>
        <path d="M2488.8,3712.29c12.82,0.74,25.3,2.01,37.29,3.75c26.33,3.82,50.34,9.9,70.61,17.58
				c18.89,12.6,29.54,27.15,28.68,42.1c-2.26,39.39-83.59,66.86-181.31,61.25c-40.95-2.35-78.39-10.15-107.89-21.32
				c-18.89-12.61-29.54-27.15-28.68-42.1C2309.76,3734.15,2391.09,3706.68,2488.8,3712.29z" style="fill:#e6e6e6"/>
      </g>
      <path d="M2609.41,632.6c0.25,4.74-3.21,9.53-9.83,14.16c-24.4-14.42-91.54-22.01-169.68-17.52
			c-50.58,2.9-96.02,10.34-127.91,19.82c-6.32,1.88-12.07,3.87-17.27,5.91c-8.2,3.21-14.93,6.57-19.87,10.04c-0.05,0-0.05,0-0.05,0
			c-6.11-3.62-9.53-7.64-9.78-12.02c-0.51-8.35,10.49-16.71,29.7-24.2c5.2-2.04,10.95-4.02,17.27-5.91
			c31.89-9.53,77.33-16.91,127.91-19.82C2527.65,597.45,2608.13,610.7,2609.41,632.6z" style="fill:#b3b3b3"/>
      <path d="M2599.57,646.77c-11.11,7.74-30.97,15.08-56.8,21.09c-20.43,4.84-44.57,8.81-70.96,11.61
			c-12.02,1.27-24.5,2.29-37.34,3.06c-78.09,4.48-145.23-3.11-169.63-17.52c4.94-3.46,11.67-6.83,19.87-10.04
			c5.2-2.04,10.95-4.02,17.27-5.91c31.89-9.48,77.33-16.91,127.91-19.82C2508.03,624.76,2575.17,632.35,2599.57,646.77z" style="fill:#e6e6e6"/>
      <path d="M1144.05,3068.23c-0.82,0.46-1.63,0.76-2.5,1.07c-28.78,9.63-77.38-58.12-108.35-150.94
			c-16.05-48.09-24.25-93.63-24.45-127.71c0-6.72,0.25-13.04,0.87-18.8c2.19-21.39,8.71-35.66,19.61-39.27
			c11.97-4.02,27.41,5.4,43.5,24.4c-9.42,4.84-15.08,18.44-17.12,38.15c-0.61,5.76-0.87,12.07-0.87,18.85
			c0.2,34.03,8.41,79.57,24.45,127.66C1097.29,2995.89,1121.38,3041.53,1144.05,3068.23z" style="fill:#b3b3b3"/>
      <path d="M1144.05,3068.23c-22.67-26.69-46.76-72.34-64.85-126.59c-16.05-48.09-24.25-93.63-24.45-127.66
			c0-6.78,0.26-13.09,0.87-18.85c2.04-19.71,7.69-33.32,17.12-38.15c22.67,26.69,46.76,72.34,64.85,126.54
			c4.07,12.18,7.64,24.2,10.7,35.91c6.67,25.73,10.95,49.92,12.78,71.11C1164.48,3031.09,1158.87,3060.58,1144.05,3068.23z" style="fill:#e6e6e6"/>
      <g>
        <path d="M3976.03,1666.72c-4.06-12.18-7.62-24.2-10.68-35.91c-6.71-25.71-10.98-49.92-12.78-71.11
				c-3.63-42.74,2.77-73.19,19.48-78.76c28.78-9.6,77.38,58.12,108.35,150.97c16.03,48.07,24.24,93.6,24.44,127.67
				c0.04,6.75-0.24,13.05-0.83,18.82c-2.19,21.37-8.71,35.64-19.64,39.28C4055.59,1827.28,4006.99,1759.56,3976.03,1666.72z" style="fill:#b3b3b3"/>
        <path d="M3976.03,1666.72c-4.06-12.18-7.62-24.2-10.68-35.91c-6.71-25.71-10.98-49.92-12.78-71.11
				c2.19-21.37,8.71-35.64,19.63-39.28c28.78-9.6,77.38,58.12,108.35,150.97c12.98,38.91,20.83,76.16,23.45,107.01
				c-2.19,21.37-8.71,35.64-19.64,39.28C4055.59,1827.28,4006.99,1759.56,3976.03,1666.72z" style="fill:#e6e6e6"/>
      </g>
      <g>
        <path d="M1463.75,3169.45c-0.04-14.28,1.43-28.21,4.29-41.63c6.26-29.49,19.12-56.56,36.97-79.6
				c35.99-46.46,92.23-76.48,155.42-76.68c108.79-0.33,197.57,87.9,197.91,196.7c0.17,56.33-23.4,107.3-61.29,143.41
				c-7.51,7.16-15.58,13.73-24.14,19.63c-31.65,21.86-69.97,34.73-111.27,34.86C1552.86,3366.47,1464.08,3278.24,1463.75,3169.45z" style="fill:#b3b3b3"/>
        <path d="M1463.75,3169.45c-0.04-14.28,1.43-28.21,4.29-41.63c6.26-29.49,19.12-56.56,36.97-79.6
				c31.64-21.86,69.97-34.73,111.26-34.86c108.79-0.33,197.57,87.9,197.91,196.7c0.14,45.6-15.28,87.69-41.26,121.22
				c-31.65,21.86-69.97,34.73-111.27,34.86C1552.86,3366.47,1464.08,3278.24,1463.75,3169.45z" style="fill:#e6e6e6"/>
      </g>
      <g>
        <path d="M3227.35,1009.27c1.33-8.42,3.52-16.49,6.48-24.13c6.49-16.79,16.64-31.52,29.35-43.41
				c25.62-23.97,61.62-36.33,98.88-30.45c64.15,10.13,108.11,70.56,97.99,134.72c-5.24,33.22-23.98,61.03-49.74,78.71
				c-5.1,3.51-10.49,6.61-16.09,9.28c-20.73,9.88-44.54,13.83-68.89,9.99C3261.17,1133.85,3217.22,1073.42,3227.35,1009.27z" style="fill:#b3b3b3"/>
        <path d="M3227.35,1009.27c1.33-8.42,3.52-16.49,6.48-24.13c6.49-16.79,16.64-31.52,29.35-43.41
				c20.72-9.88,44.54-13.83,68.88-9.99c64.15,10.13,108.11,70.56,97.99,134.72c-4.24,26.89-17.33,50.24-35.83,67.53
				c-20.73,9.88-44.54,13.83-68.89,9.99C3261.17,1133.85,3217.22,1073.42,3227.35,1009.27z" style="fill:#e6e6e6"/>
      </g>
      <g>
        <path d="M2736.25,2251.68c1.33-8.42,3.52-16.49,6.48-24.13c6.49-16.79,16.64-31.52,29.35-43.41
				c25.62-23.97,61.62-36.33,98.88-30.45c64.15,10.13,108.11,70.56,97.99,134.72c-5.24,33.22-23.98,61.02-49.74,78.71
				c-5.1,3.51-10.49,6.61-16.09,9.28c-20.73,9.88-44.54,13.83-68.89,9.99C2770.07,2376.26,2726.12,2315.83,2736.25,2251.68z" style="fill:#b3b3b3"/>
        <path d="M2736.25,2251.68c1.33-8.42,3.52-16.49,6.48-24.13c6.49-16.79,16.64-31.52,29.35-43.41
				c20.72-9.88,44.54-13.83,68.88-9.99c64.15,10.13,108.11,70.56,97.99,134.72c-4.24,26.89-17.33,50.24-35.83,67.53
				c-20.73,9.88-44.54,13.83-68.89,9.99C2770.07,2376.26,2726.12,2315.83,2736.25,2251.68z" style="fill:#e6e6e6"/>
      </g>
      <g>
        <path d="M2681.3,2725c1.33-8.42,3.52-16.49,6.48-24.13c6.49-16.79,16.64-31.52,29.35-43.41
				c25.62-23.97,61.62-36.33,98.88-30.45c64.15,10.13,108.11,70.56,97.99,134.72c-5.24,33.22-23.98,61.03-49.74,78.71
				c-5.1,3.51-10.49,6.61-16.09,9.28c-20.73,9.88-44.54,13.83-68.89,9.99C2715.12,2849.58,2671.17,2789.15,2681.3,2725z" style="fill:#b3b3b3"/>
        <path d="M2681.3,2725c1.33-8.42,3.52-16.49,6.48-24.13c6.49-16.79,16.64-31.52,29.35-43.41
				c20.72-9.88,44.54-13.83,68.88-9.99c64.15,10.13,108.11,70.56,97.99,134.72c-4.24,26.89-17.33,50.24-35.83,67.53
				c-20.73,9.88-44.54,13.83-68.89,9.99C2715.12,2849.58,2671.17,2789.15,2681.3,2725z" style="fill:#e6e6e6"/>
      </g>
      <g>
        <path d="M1229.69,1848.26c1.33-8.42,3.52-16.49,6.48-24.13c6.49-16.79,16.64-31.52,29.35-43.41
				c25.62-23.97,61.62-36.33,98.88-30.45c64.15,10.13,108.11,70.56,97.99,134.72c-5.24,33.22-23.98,61.03-49.74,78.71
				c-5.1,3.51-10.49,6.61-16.09,9.28c-20.73,9.88-44.54,13.83-68.89,9.99C1263.52,1972.84,1219.56,1912.41,1229.69,1848.26z" style="fill:#b3b3b3"/>
        <path d="M1229.69,1848.26c1.33-8.42,3.52-16.49,6.48-24.13c6.49-16.79,16.64-31.52,29.35-43.41
				c20.72-9.88,44.54-13.83,68.88-9.99c64.15,10.13,108.11,70.56,97.99,134.72c-4.24,26.89-17.33,50.24-35.83,67.53
				c-20.73,9.88-44.54,13.83-68.89,9.99C1263.52,1972.84,1219.56,1912.41,1229.69,1848.26z" style="fill:#f2f2f2"/>
      </g>
      <g>
        <path d="M2310.28,988.81c1.33-8.42,3.52-16.49,6.48-24.13c6.49-16.79,16.64-31.52,29.35-43.41
				c25.62-23.97,61.62-36.33,98.88-30.45c64.15,10.13,108.11,70.56,97.99,134.72c-5.24,33.22-23.98,61.03-49.74,78.71
				c-5.1,3.51-10.49,6.61-16.09,9.28c-20.73,9.88-44.54,13.83-68.89,9.99C2344.11,1113.39,2300.15,1052.96,2310.28,988.81z" style="fill:#b3b3b3"/>
        <path d="M2310.28,988.81c1.33-8.42,3.52-16.49,6.48-24.13c6.49-16.79,16.64-31.52,29.35-43.41
				c20.72-9.88,44.54-13.83,68.88-9.99c64.15,10.13,108.11,70.56,97.99,134.72c-4.24,26.89-17.33,50.24-35.83,67.53
				c-20.73,9.88-44.54,13.83-68.89,9.99C2344.11,1113.39,2300.15,1052.96,2310.28,988.81z" style="fill:#e6e6e6"/>
      </g>
      <g>
        <path d="M3831.63,3311.03c-31.24-10.55-32.05-13.79-11.94-40.19c17.76-23.32,29.04-52.59,60.97-62.57
				c4.62-1.45,8.84-9.09,10.38-14.66c9.94-35.74,32.15-64.73,49.27-96.61c31.23-58.16,75.12-107.1,107.46-163.83
				c9.02-15.83,15.86-33.77,19.5-51.6c4.5-22.05,15.08-35.24,37.15-39.1c-14.92,55.65-41.39,106.7-66.26,157.98
				c-40.71,83.96-92.56,161.61-145.67,238.25c-2.83,4.08-7.39,6.97-11.15,10.41c-1.08-7.29,3.42-19.08-8.24-18.97
				c-7.3,0.07-12.89,8.92-11.84,18.34c0.77,6.96,1.72,13.91,2.59,20.86c0,0,0.29-0.78,0.3-0.77c-0.57,1.78-1.14,3.56-1.71,5.33
				C3855.78,3289.28,3842.79,3299.39,3831.63,3311.03z" style="fill:#e6e6e6"/>
        <path d="M3863.91,3269.34c-0.87-6.95-1.82-13.9-2.59-20.86c-1.05-9.42,4.54-18.27,11.84-18.34
				c11.66-0.11,7.17,11.69,8.24,18.97C3875.8,3256.04,3872.94,3265.36,3863.91,3269.34z" style="fill:#ccc"/>
      </g>
      <ellipse cx="3812.55" cy="1266.24" rx="22.29" ry="110.71" style="fill:#ccc" transform="rotate(-35.728 3812.639 1266.38)"/>
      <ellipse cx="2751.61" cy="1919.32" rx="52.14" ry="71.32" style="fill:#e6e6e6" transform="rotate(-15.613 2752.015 1919.69)"/>
      <path d="M2801.84,3277.83c-10.59,2.96-27.77-25.39-38.37-63.33s-10.61-71.08-0.01-74.05s47.81,25.39,58.41,63.33
			C2832.47,3241.72,2812.43,3274.87,2801.84,3277.83z" style="fill:#e6e6e6"/>
      <ellipse cx="904.15" cy="2280.27" rx="16.23" ry="71.32" style="fill:#ccc" transform="rotate(-2.482 905.023 2282.334)"/>
      <path d="M2065.76,998.97c-10.59,2.96-44.39-25.39-54.99-63.33c-10.6-37.93,6.01-71.09,16.6-74.05
			c10.59-2.96,27.77,25.39,38.37,63.33C2076.35,962.86,2076.35,996.01,2065.76,998.97z" style="fill:#ccc"/>
    </g>
    <g>
      <path d="M3150.33,4574.5c0,162.93-107.1,300.82-254.75,347.21c10.86-34.42,16.68-71.1,16.68-109.14
			c0-201.02-162.98-363.95-363.95-363.95c-72.99,0-140.99,21.51-197.98,58.51c-49.69-141.83-184.7-243.47-343.43-243.47
			c-8.87,0-17.63,0.31-26.34,0.95c3.57-24.66,5.46-49.85,5.46-75.51c0-288.28-233.71-521.99-522.04-521.99
			c-82.75,0-160.99,19.26-230.51,53.52c85.11-172.74,262.94-291.64,468.58-291.64c288.33,0,522.04,233.76,522.04,522.04
			c0,25.66-1.89,50.85-5.46,75.51c8.71-0.63,17.47-0.94,26.34-0.94c158.73,0,293.74,101.64,343.43,243.47
			c56.98-36.99,124.99-58.51,197.98-58.51C2987.35,4210.55,3150.33,4373.48,3150.33,4574.5z" style="fill:#dde6f5"/>
      <path d="M2912.27,4812.56c0,38.04-5.82,74.72-16.68,109.14c-34.48,10.86-71.15,16.69-109.19,16.69H535.7
			c-200.6,0-363.26-162.24-363.95-362.64v-1.26c0-38.04,5.82-74.72,16.68-109.19c46.39-147.66,184.28-254.75,347.26-254.75
			c11.65,0,23.14,0.52,34.47,1.63c33.01,3.1,64.75,10.6,94.55,21.93c4.25-31.69,12.12-62.23,23.25-91.2
			c55.83-146.45,192.89-252.81,356.13-264.04c9.44-0.63,18.94-0.94,28.54-0.94c38.3,0,75.4,5.25,110.56,15.06h0.05
			c6.24-56.35,21.41-110.03,44.13-159.52c1.94-4.3,3.99-8.6,6.09-12.86c69.53-34.26,147.76-53.52,230.51-53.52
			c288.33,0,522.04,233.71,522.04,521.99c0,25.66-1.89,50.85-5.46,75.51c8.71-0.63,17.47-0.95,26.34-0.95
			c158.73,0,293.74,101.64,343.43,243.47c56.98-36.99,124.99-58.51,197.98-58.51C2749.29,4448.62,2912.27,4611.54,2912.27,4812.56z" style="fill:#ccdbf2"/>
      <path d="M1881.03,4516.78c0,0-165.46-400.29-511.76-243.94c-30.37-97.49-485.76-201.33-600.44,159.61
			c-121.44-129.7-505.98,74.19-357.56,317.08c0,0,40.48,121.44,278.6,188.87c1.72,0.49,3.15,1.68,4.78,2.52H535.7
			c-201.02,0-363.95-162.93-363.95-363.89v-2.52c1.36-199.87,163.77-361.43,363.95-361.43c45.44,0,88.94,8.34,129.03,23.56
			c27.08-201.07,199.39-356.18,407.92-356.18c38.3,0,75.4,5.25,110.56,15.06c101.43,28.18,187.12,94.29,240.8,182.03
			c47.12-25.55,101.11-40.04,158.52-40.04c51.63,0,100.54,11.76,144.19,32.8C1897.16,4175.34,1937.64,4324.5,1881.03,4516.78z" style="fill:#dde6f5"/>
      <ellipse cx="1106.76" cy="3996.14" rx="49.47" ry="128.18" style="fill:#ecf3fb" transform="rotate(-81.773 1106.69 3996.125)"/>
      <ellipse cx="1593.39" cy="3508.62" rx="101.63" ry="39.23" style="fill:#ecf3fb" transform="rotate(-13.233 1593.751 3509.255)"/>
      <ellipse cx="1792.43" cy="3512.32" rx="26.41" ry="50.93" style="fill:#ecf3fb" transform="rotate(-77.807 1792.601 3512.506)"/>
      <ellipse cx="2916.64" cy="4287.5" rx="26.41" ry="50.93" style="fill:#ecf3fb" transform="rotate(-66.466 2916.617 4287.587)"/>
      <ellipse cx="1661.04" cy="4142.7" rx="34.79" ry="90.14" style="fill:#ecf3fb" transform="rotate(-73.508 1661.09 4142.593)"/>
      <path d="M1186.97,3880.22c102.53,29.53,192.73,99.54,246.84,191.31c0,0-15.29-4.11-15.29-4.11
			c95.55-50.77,215.28-52.28,311.78-3.37c25.83,12.99,50.18,29.42,72.02,48.32c4.48,4.22,10.33,9.3,14.63,13.67
			c1.57,1.7,10.25,10.3,11.6,11.98c3.33,3.84,7.76,8.62,10.99,12.52c2.96,3.76,7.45,9.25,10.36,13.04
			c1.62,2.18,8.03,11.25,9.7,13.52c4.12,6.43,10.4,15.93,13.98,22.63c0,0,3.3,5.77,3.3,5.77l0.82,1.44l0.75,1.48l1.5,2.97
			c1.98,3.96,4.03,7.89,5.95,11.88l5.36,12.15l1.34,3.04c1.75,4.51,4.17,10.99,5.9,15.5c1.46,3.98,2.78,8.66,4.12,12.63
			c2.17,6.26,3.58,12.93,4.89,19.37c11.57,60.2,12.54,123.75-5.61,182.69c-5.27,16.73-12.16,32.94-20.87,48.11
			c16.58-30.82,25.68-65.17,29.07-99.86c4.52-48.09,0.08-97.07-12.54-143.62c-1.93-5.3-3.95-11.54-5.96-16.79
			c-1.79-4.4-4.39-10.63-6.18-14.99c0,0-1.39-2.93-1.39-2.93l-5.55-11.71c-2.46-4.74-5.14-9.54-7.66-14.26
			c-0.83-1.69-3.96-6.59-4.98-8.33c-3.68-6.38-9.94-15.44-14.19-21.62c-1.66-2.11-8.33-11.02-9.77-12.87
			c-2.9-3.61-7.42-8.76-10.39-12.36c-3.23-3.68-7.64-8.2-10.97-11.83c-3-3.19-10.7-10.46-13.87-13.49
			c-3.46-3.05-8.66-7.53-12.14-10.59c-88.7-73.55-210.85-94.91-319.02-55.08c-19.26,6.92-37.68,16.31-55.43,26.39
			c0,0-5.88-9.32-5.88-9.32c-40.07-63.57-98.09-115.19-165.77-147.41c-27.06-13.13-73.7-38.26-175.77-55.67
			C1072.65,3880.45,1186.97,3880.22,1186.97,3880.22L1186.97,3880.22z" style="fill:#bdceec"/>
    </g>
    <g>
      <g>
        <g>
          <path d="M4828.25,3899.39c0,75.39-35.4,142.51-90.5,185.64c25.68-37.74,40.69-83.31,40.69-132.4
					c0-50.89-16.13-98.04-43.59-136.56c-27.45-38.52-66.18-68.43-111.41-84.88c0.32-4.69,0.55-9.42,0.55-14.16
					c0-34.15-8.6-66.26-23.76-94.35c-33.59-62.34-99.49-104.68-175.27-104.68c-34.94,0-67.74,9.02-96.27,24.81
					c3.27-20.72,4.96-41.95,4.96-63.57c0-224.95-182.36-407.31-407.29-407.31c-26.18,0-51.79,2.48-76.6,7.17
					c-73.96,14.09-140.83,48.17-194.77,96.41c59.58-76.3,145.75-130.83,244.58-149.66c24.81-4.69,50.42-7.17,76.6-7.17
					c224.92,0,407.29,182.36,407.29,407.31c0,21.62-1.69,42.85-4.96,63.57c28.53-15.79,61.33-24.81,96.27-24.81
					c75.78,0,141.68,42.34,175.27,104.68c15.16,28.08,23.76,60.2,23.76,94.35c0,4.74-0.24,9.47-0.55,14.16
					c45.22,16.45,83.96,46.35,111.41,84.88C4812.11,3801.35,4828.25,3848.5,4828.25,3899.39z" style="fill:#bdceec"/>
          <path d="M4778.44,3952.63c0,49.08-15.01,94.66-40.69,132.4c-40,31.32-90.39,49.99-145.13,49.99H3477.23
					c-0.48,0-0.92,0-1.4-0.03c-0.47,0.03-0.95,0.03-1.42,0.03c-48.2,0-94.2-9.39-136.27-26.43c-9.87-3.99-19.53-8.42-28.95-13.23
					c-117.55-60.14-198.01-182.45-198.01-323.57c0-82.8,27.7-159.13,74.35-220.23c66.36-86.92,171.07-143,288.88-143
					c17.03,0,33.8,1.18,50.21,3.46c15.09,2.09,29.89,5.11,44.32,8.99c1.1-92.53,33.06-177.63,86.05-245.5
					c53.94-48.24,120.81-82.33,194.77-96.41c24.81-4.69,50.42-7.17,76.6-7.17c224.92,0,407.29,182.36,407.29,407.31
					c0,21.62-1.69,42.85-4.96,63.57c28.53-15.79,61.33-24.81,96.27-24.81c63.34,0,119.77,29.58,156.21,75.69
					c2.13,2.7,4.2,5.46,6.19,8.26c4.7,6.62,9,13.54,12.87,20.72c15.16,28.08,23.76,60.2,23.76,94.35c0,4.74-0.24,9.47-0.55,14.16
					c45.22,16.45,83.96,46.35,111.41,84.88C4762.3,3854.59,4778.44,3901.74,4778.44,3952.63z" style="fill:#dde6f5"/>
        </g>
        <path d="M3476.22,3408.57c182.33-17.34,350.42,128.64,364.64,310.15c0.44,5.79,0.85,12.27,0.95,18.08
				c0.29,12.05-0.11,24.08-1.34,36.01c-1.43-13.42-3.16-26.63-5.63-39.78c-0.72-4.09-1.72-8.99-2.6-13.04
				C3795.26,3546.47,3652.15,3424.03,3476.22,3408.57L3476.22,3408.57z" style="fill:#bdceec"/>
      </g>
      <g>
        <g>
          <path d="M1939.72,939.79c0,75.39-35.4,142.51-90.5,185.64c25.68-37.74,40.69-83.31,40.69-132.4
					c0-50.89-16.13-98.04-43.59-136.56c-27.45-38.52-66.18-68.43-111.41-84.88c0.32-4.69,0.55-9.42,0.55-14.16
					c0-34.15-8.6-66.26-23.76-94.35c-33.59-62.34-99.49-104.68-175.27-104.68c-34.94,0-67.74,9.02-96.27,24.81
					c3.27-20.72,4.96-41.95,4.96-63.57c0-224.95-182.36-407.31-407.29-407.31c-26.18,0-51.79,2.48-76.6,7.17
					c-73.96,14.09-140.83,48.17-194.77,96.41c59.58-76.3,145.75-130.83,244.58-149.66c24.81-4.69,50.42-7.17,76.6-7.17
					c224.92,0,407.29,182.36,407.29,407.31c0,21.62-1.69,42.85-4.96,63.57c28.53-15.79,61.33-24.81,96.27-24.81
					c75.78,0,141.68,42.34,175.27,104.68c15.16,28.08,23.76,60.2,23.76,94.35c0,4.74-0.24,9.47-0.55,14.16
					c45.22,16.45,83.96,46.35,111.41,84.88C1923.58,841.76,1939.72,888.9,1939.72,939.79z" style="fill:#bdceec"/>
          <path d="M1889.91,993.04c0,49.08-15.01,94.66-40.69,132.4c-40,31.32-90.39,49.99-145.13,49.99H588.71
					c-0.48,0-0.92,0-1.4-0.03c-0.47,0.03-0.95,0.03-1.42,0.03c-48.2,0-94.2-9.39-136.27-26.43c-9.87-3.99-19.53-8.42-28.95-13.23
					c-117.55-60.14-198.01-182.45-198.01-323.57c0-82.8,27.7-159.13,74.35-220.23c66.36-86.92,171.07-143,288.88-143
					c17.03,0,33.8,1.18,50.21,3.46c15.09,2.09,29.88,5.11,44.32,8.99c1.1-92.53,33.06-177.63,86.05-245.5
					c53.94-48.24,120.81-82.33,194.77-96.41c24.81-4.69,50.42-7.17,76.6-7.17c224.92,0,407.29,182.36,407.29,407.31
					c0,21.62-1.69,42.85-4.96,63.57c28.53-15.79,61.33-24.81,96.27-24.81c63.34,0,119.77,29.58,156.21,75.69
					c2.13,2.7,4.2,5.45,6.19,8.26c4.7,6.62,9,13.54,12.87,20.72c15.16,28.08,23.76,60.2,23.76,94.35c0,4.74-0.24,9.47-0.55,14.16
					c45.22,16.45,83.96,46.35,111.41,84.88C1873.78,895,1889.91,942.15,1889.91,993.04z" style="fill:#dde6f5"/>
        </g>
        <path d="M587.7,448.98c182.33-17.34,350.42,128.64,364.64,310.15c0.44,5.79,0.85,12.27,0.95,18.08
				c0.29,12.05-0.11,24.08-1.34,36.01c-1.43-13.41-3.16-26.63-5.63-39.78c-0.72-4.09-1.72-8.99-2.6-13.04
				C906.73,586.88,763.63,464.44,587.7,448.98L587.7,448.98z" style="fill:#bdceec"/>
      </g>
    </g>
  </g>
</svg>
