<svg xmlns="http://www.w3.org/2000/svg" xml:space="preserve" id="Layer_1" x="0" y="0" style="enable-background:new 0 0 5000 5000" version="1.1" viewBox="0 0 5000 5000">
  <g>
    <g>
      <g>
        <path d="M4426.14,3385.8c-17.17,33.81-35.14,67.13-53.92,99.94c-1.3,2.32-2.62,4.63-3.96,6.95
				c-0.07,0.1-0.12,0.22-0.19,0.33c-20.65,35.83-42.26,71.06-64.76,105.64c-409.44,629.1-1118.86,1045.04-1925.43,1045.04
				c-1267.88,0-2295.68-1027.82-2295.68-2295.7c0-805.69,415.03-1514.45,1043-1924.09c0.67-0.45,1.35-0.89,2.04-1.34
				c30.7-19.98,63.65-40.22,95.74-58.98c4.2-2.45,8.39-4.87,12.56-7.27C1077.28,668,985.86,1021.89,985.86,1395.36
				c0,1267.86,1027.81,2295.68,2295.68,2295.68C3698.35,3691.05,4089.21,3579.97,4426.14,3385.8z" style="fill:#eaf2fb"/>
      </g>
      <g>
        <path d="M4229.63,3486.74c-283.81,170.22-646.54,244.03-995.2,244.03c-1267.88,0-2288.42-1077.62-2288.42-2345.48
				c0-373.47,114.92-739,289.51-1028.98C1077.28,668,985.86,1021.89,985.86,1395.36c0,1267.86,1027.81,2295.69,2295.69,2295.69
				C3619.62,3691.05,3940.62,3617.97,4229.63,3486.74z" style="fill:#bdceec"/>
      </g>
      <g>
        <path d="M4372.21,3485.74c0.05-0.03,0.11-0.05,0.16-0.08c-1.36,2.35-2.73,4.68-4.12,7.03
				c-0.07,0.1-0.12,0.22-0.19,0.33c-17.11,29.02-34.85,57.61-53.18,85.79c-359.81,234.18-789.34,370.25-1250.64,370.25
				c-201.84,0-397.59-26.05-584.08-74.96C1495.17,3615.73,768.55,2719.39,768.55,1653.36c0-452.29,130.8-874.03,356.63-1229.46
				c0.67-0.45,1.36-0.89,2.05-1.34c30.7-19.98,63.65-40.22,95.74-58.98c4.2-2.46,8.38-4.87,12.55-7.27
				c-174.59,289.98-289.51,655.51-289.51,1028.98c0,1267.86,1020.54,2345.48,2288.42,2345.48c348.66,0,711.39-73.81,995.2-244.03
				c45.12-20.48,89.46-42.38,132.96-65.66c21.39-11.43,42.57-23.19,63.55-35.28C4408.97,3419.61,4390.99,3452.93,4372.21,3485.74z" style="fill:#ccdbf2"/>
      </g>
      <g>
        <g>
          <path d="M1618.24,4168.51c-6.95,11.87-15.71,22.28-26.03,31.22c-22.65,19.64-52.73,32.21-87.35,37.6
					c-69.8,10.88-157.97-7.42-240.58-55.78c-142.22-83.27-214.85-224.59-161.89-315.05c27.42-46.83,83.22-70.99,150.42-71.83
					c13.31-0.17,27.09,0.59,41.15,2.26c52.06,6.18,108.41,24.94,162.4,56.55C1598.58,3936.74,1671.2,4078.06,1618.24,4168.51z" style="fill:#bdceec"/>
        </g>
        <g>
          <path d="M1618.24,4168.51c-6.95,11.87-15.71,22.28-26.03,31.22c-22.65,19.64-52.73,32.21-87.35,37.6
					c-52.04-6.17-108.41-24.94-162.38-56.54c-142.22-83.27-214.85-224.59-161.89-315.05c22.2-37.91,62.99-60.96,113.37-68.81
					c52.06,6.18,108.41,24.94,162.4,56.55C1598.58,3936.74,1671.2,4078.06,1618.24,4168.51z" style="fill:#ccdbf2"/>
        </g>
      </g>
      <g>
        <g>
          <path d="M3316.66,4165.51c3.44,7.71,5.51,15.8,6.29,24.14c1.72,18.32-2.75,37.82-12.42,57.03
					c-19.49,38.73-60.11,76.22-113.75,100.19c-92.35,41.27-188.84,27.07-215.09-31.67c-13.59-30.41-5.73-66.89,17.85-100.74
					c4.67-6.71,9.96-13.31,15.82-19.74c21.67-23.78,51.16-45.22,86.21-60.88C3193.94,4092.57,3290.42,4106.78,3316.66,4165.51z" style="fill:#bdceec"/>
        </g>
        <g>
          <path d="M3316.66,4165.51c3.44,7.71,5.51,15.8,6.29,24.14c1.72,18.32-2.75,37.82-12.42,57.03
					c-21.66,23.78-51.16,45.22-86.21,60.88c-92.35,41.27-188.84,27.07-215.09-31.67c-11-24.62-7.94-53.22,6.13-81.17
					c21.67-23.78,51.16-45.22,86.21-60.88C3193.94,4092.57,3290.42,4106.78,3316.66,4165.51z" style="fill:#ccdbf2"/>
        </g>
      </g>
      <g>
        <g>
          <path d="M443.2,1712.08c-8.17-2.13-15.78-5.58-22.77-10.19c-15.37-10.12-27.8-25.8-36.74-45.35
					c-18.03-39.43-21.88-94.57-7.05-151.41c25.55-97.87,96.97-164.28,159.22-148.03c32.23,8.41,55.78,37.36,67.45,76.93
					c2.31,7.84,4.16,16.1,5.51,24.69c5.01,31.78,3.29,68.2-6.41,105.35C576.87,1661.92,505.45,1728.33,443.2,1712.08z" style="fill:#bdceec"/>
        </g>
        <g>
          <path d="M443.2,1712.08c-8.17-2.13-15.78-5.58-22.77-10.19c-15.37-10.12-27.8-25.8-36.74-45.35
					c-5.01-31.78-3.29-68.2,6.4-105.34c25.55-97.87,96.97-164.28,159.22-148.03c26.09,6.81,46.49,27.08,59.5,55.54
					c5.01,31.78,3.29,68.2-6.41,105.35C576.87,1661.92,505.45,1728.33,443.2,1712.08z" style="fill:#ccdbf2"/>
        </g>
      </g>
      <g>
        <g>
          <path d="M640.55,2983.71c-19.48,26.07-44.42,44.47-73.87,52.35c-13.29,3.55-26.84,4.79-40.48,3.88
					c-29.9-1.97-60.13-14.18-88.52-34.7c-57.27-41.37-107.08-116.39-131.79-208.87c-38.97-145.89-2.11-285.33,82.24-328.47
					c7.7-3.94,15.8-7.08,24.27-9.35c52.43-14,109.1,8.08,157.45,54.75c9.59,9.24,18.83,19.47,27.67,30.55
					c32.66,41.01,59.52,93.99,75.66,154.42C703.33,2811.15,688.08,2920.18,640.55,2983.71z" style="fill:#bdceec"/>
        </g>
        <g>
          <path d="M640.55,2983.71c-7.7,3.94-15.8,7.08-24.27,9.35c-13.28,3.55-26.84,4.79-40.46,3.88
					c-29.91-1.97-60.13-14.18-88.54-34.7c-57.25-41.37-107.06-116.39-131.78-208.87c-30.15-112.89-14.9-221.94,32.62-285.47
					c7.7-3.94,15.8-7.08,24.27-9.35c52.43-14,109.1,8.08,157.45,54.75c9.59,9.24,18.83,19.47,27.67,30.55
					c32.66,41.01,59.52,93.99,75.66,154.42C703.33,2811.15,688.08,2920.18,640.55,2983.71z" style="fill:#ccdbf2"/>
        </g>
      </g>
      <g>
        <path d="M546.62,3252.71c-7.75,11.42-66.67,17.68-107.56-10.07s-48.28-78.98-40.53-90.4
				c7.75-11.42,47.18,1.81,88.07,29.56S554.37,3241.29,546.62,3252.71z" style="fill:#cbdbf3"/>
      </g>
      <g>
        <ellipse cx="957.99" cy="3625.31" rx="36.28" ry="89.48" style="fill:#cbdbf3"/>
      </g>
      <g>
        <ellipse cx="2865.62" cy="4171.67" rx="89.48" ry="24.99" style="fill:#cbdbf3" transform="rotate(-47.46 2865.582 4171.702)"/>
      </g>
      <g>
        <ellipse cx="2083.03" cy="4254.5" rx="36.28" ry="89.48" style="fill:#cbdbf3" transform="rotate(-81.611 2083.197 4254.564)"/>
      </g>
      <g>
        <ellipse cx="1801.37" cy="3796.92" rx="36.28" ry="89.48" style="fill:#cbdbf3" transform="rotate(-47.46 1801.331 3796.94)"/>
      </g>
      <g>
        <ellipse cx="367.51" cy="2143.37" rx="89.48" ry="36.28" style="fill:#cbdbf3" transform="rotate(-81.541 367.505 2143.414)"/>
      </g>
    </g>
    <g>
      <g>
        <path d="M3218.76,2306.44h-762.37c-22.67,0-41.05-18.38-41.05-41.05s18.38-41.05,41.05-41.05h762.37
				c176.03,0,319.25-143.21,319.25-319.25c0-136.3-110.89-247.19-247.19-247.19c-104.51,0-189.54,85.03-189.54,189.54
				c0,79.08,64.34,143.42,143.42,143.42c58.74,0,106.53-47.79,106.53-106.53c0-42.46-34.55-77.01-77.01-77.01
				c-22.67,0-41.05-18.38-41.05-41.05s18.38-41.05,41.05-41.05c87.74,0,159.12,71.38,159.12,159.11
				c0,104.01-84.62,188.63-188.63,188.63c-60.24,0-116.87-23.46-159.47-66.05c-42.6-42.6-66.05-99.23-66.05-159.47
				c0-72.56,28.26-140.77,79.56-192.08s119.52-79.56,192.08-79.56c44.44,0,87.56,8.71,128.19,25.89
				c39.22,16.59,74.43,40.32,104.66,70.55c30.23,30.23,53.97,65.44,70.55,104.66c17.18,40.62,25.89,83.75,25.89,128.19
				c0,54.16-10.62,106.73-31.56,156.24c-20.22,47.8-49.15,90.72-86,127.56s-79.76,65.78-127.56,86
				C3325.49,2295.82,3272.92,2306.44,3218.76,2306.44z" style="fill:#4f91ff"/>
      </g>
      <g>
        <path d="M4917.82,2706.41h-762.37c-54.16,0-106.73-10.62-156.24-31.56c-47.8-20.22-90.71-49.15-127.56-86
				c-36.85-36.85-65.78-79.76-86-127.56c-20.94-49.51-31.56-102.07-31.56-156.24c0-44.44,8.71-87.56,25.89-128.19
				c16.59-39.22,40.32-74.43,70.55-104.66c30.23-30.23,65.44-53.97,104.66-70.55c40.62-17.18,83.75-25.89,128.19-25.89
				c72.56,0,140.77,28.26,192.08,79.56s79.56,119.52,79.56,192.08c0,60.24-23.46,116.87-66.05,159.47
				c-42.6,42.6-99.23,66.05-159.47,66.05c-104.01,0-188.63-84.62-188.63-188.63c0-87.74,71.38-159.11,159.11-159.11
				c22.67,0,41.05,18.38,41.05,41.05s-18.38,41.05-41.05,41.05c-42.46,0-77.01,34.55-77.01,77.01
				c0,58.74,47.79,106.53,106.53,106.53c79.08,0,143.42-64.34,143.42-143.42c0-104.51-85.03-189.54-189.54-189.54
				c-136.3,0-247.19,110.89-247.19,247.19c0,176.03,143.21,319.25,319.25,319.25h762.37c22.67,0,41.05,18.38,41.05,41.05
				S4940.49,2706.41,4917.82,2706.41z" style="fill:#4f91ff"/>
      </g>
      <g>
        <path d="M3357.49,3123.7c-72.56,0-140.77-28.26-192.08-79.56s-79.56-119.52-79.56-192.08
				c0-60.24,23.46-116.87,66.05-159.47c42.6-42.6,99.23-66.05,159.47-66.05c104.01,0,188.63,84.62,188.63,188.63
				c0,87.74-71.38,159.12-159.11,159.12c-22.67,0-41.05-18.38-41.05-41.05s18.38-41.05,41.05-41.05c42.46,0,77.01-34.55,77.01-77.01
				c0-58.74-47.79-106.53-106.53-106.53c-79.08,0-143.42,64.34-143.42,143.42c0,104.51,85.03,189.54,189.54,189.54
				c136.3,0,247.19-110.89,247.19-247.19c0-176.03-143.21-319.25-319.25-319.25H1871.73c-22.67,0-41.05-18.38-41.05-41.05
				c0-22.67,18.38-41.05,41.05-41.05h1413.69c54.16,0,106.73,10.62,156.24,31.56c47.8,20.22,90.72,49.15,127.56,86
				c36.85,36.85,65.78,79.76,86,127.56c20.94,49.51,31.56,102.07,31.56,156.24c0,44.44-8.71,87.56-25.89,128.19
				c-16.59,39.22-40.32,74.43-70.55,104.66c-30.23,30.23-65.44,53.97-104.66,70.55C3445.05,3114.99,3401.92,3123.7,3357.49,3123.7z" style="fill:#3e76ef"/>
      </g>
    </g>
  </g>
</svg>
