<svg xmlns="http://www.w3.org/2000/svg" xml:space="preserve" id="Layer_1" x="0" y="0" style="enable-background:new 0 0 5000 5000" version="1.1" viewBox="0 0 5000 5000">
  <g>
    <g>
      <g>
        <path d="M3075.47,1391.43C2989.68,804.77,2530.02,288.41,1905.06,190.6C645.19-21.12-247.28,1427.13,545.85,2441.87
				c45.53,60.4,94.85,115.82,147.36,166.27c577.31,554.74,1539.55,508.7,2070.26-124.32c-0.02-0.01-0.04-0.01-0.06-0.02
				c-26.13-8.83-26.81-11.56-9.95-33.68c10.93-14.36,18.94-31.41,33.03-42.77c0.3-0.24,0.6-0.48,0.91-0.72
				c0.2-0.16,0.4-0.31,0.61-0.46c0.27-0.2,0.54-0.4,0.81-0.59c0.13-0.1,0.27-0.19,0.4-0.28c0.29-0.21,0.59-0.42,0.89-0.62
				c4.23-2.92,8.99-5.31,14.47-7.03c0.51-0.16,0.98-0.41,1.47-0.69c0.02-0.02,0.04-0.03,0.06-0.04c0-0.01,0.01-0.01,0.01-0.01
				c0.01-0.01,0.02-0.01,0.03-0.02c0-0.01,0.01-0.01,0.01-0.01c0.01-0.01,0.02-0.01,0.03-0.02c0-0.01,0.01-0.01,0.01-0.01
				c0.01-0.01,0.02-0.01,0.03-0.02c0.02-0.02,0.05-0.03,0.07-0.05c0.03-0.03,0.06-0.05,0.1-0.08c3.13-2.26,5.8-7.42,6.89-11.35
				c5.43-14.77,11.81-29.03,18.91-42.91c0-0.01,0.01-0.01,0.01-0.02c8.6-16.85,18.24-33.15,28.42-49.15
				c0.01-0.02,0.02-0.04,0.04-0.06c18.59-29.21,39-57.41,58.31-86.09c0.09-0.13,0.18-0.26,0.27-0.4c0.02-0.03,0.04-0.05,0.06-0.08
				c0.12-0.18,0.24-0.35,0.36-0.53c7.11-10.6,14.08-21.27,20.74-32.08c0.06-0.1,0.12-0.19,0.18-0.29c1.39-2.25,2.76-4.51,4.12-6.77
				c7.57-13.28,13.3-28.32,16.35-43.27c2.36-11.55,6.7-20.21,14.16-25.86c0.26-0.21,0.54-0.41,0.82-0.59
				c4.33-3.08,9.65-5.19,16.17-6.33C3085.41,1860.88,3109.01,1620.78,3075.47,1391.43z M1162.13,2398.59
				c-18.08,0.42-37.23-3.63-55.19-10.92c-5.25,37.87-23.38,71.7-49.82,96.9c-6.3,6-13.07,11.51-20.24,16.46
				c-26.54,18.33-58.68,29.12-93.3,29.23h-0.52c-1.6,0-3.19-0.02-4.77-0.07c-0.93-0.02-1.85-0.06-2.78-0.1
				c-0.65-0.03-1.31-0.06-1.96-0.1c-0.7-0.04-1.39-0.08-2.09-0.13c-0.16-0.01-0.33-0.03-0.5-0.04c-0.7-0.05-1.41-0.11-2.12-0.17
				c-0.71-0.06-1.43-0.12-2.14-0.19c-1.54-0.16-3.09-0.33-4.63-0.53c-0.41-0.05-0.81-0.1-1.22-0.16c-0.44-0.05-0.87-0.11-1.3-0.18
				c-2.3-0.32-4.59-0.7-6.87-1.13c-0.76-0.14-1.51-0.29-2.27-0.44c-0.67-0.13-1.33-0.27-2-0.42c-1.73-0.36-3.45-0.76-5.17-1.19
				c-0.59-0.14-1.18-0.29-1.77-0.45c-0.52-0.13-1.05-0.27-1.58-0.42c-0.66-0.17-1.31-0.35-1.96-0.54c-0.65-0.18-1.31-0.37-1.95-0.57
				c-0.65-0.19-1.3-0.39-1.95-0.59c-0.63-0.19-1.25-0.39-1.88-0.59c-2.84-0.93-5.64-1.92-8.42-2.99c-0.58-0.22-1.15-0.45-1.72-0.68
				c-0.7-0.28-1.4-0.56-2.09-0.85c-0.7-0.29-1.39-0.58-2.08-0.88c-0.52-0.22-1.04-0.45-1.56-0.68c-2.91-1.29-5.78-2.66-8.61-4.12
				c-0.67-0.34-1.33-0.68-1.99-1.04c-0.66-0.35-1.32-0.7-1.97-1.06c-6.19-3.4-12.14-7.18-17.82-11.32
				c-0.52-0.38-1.04-0.76-1.56-1.15c-3.71-2.77-7.3-5.69-10.77-8.76c-0.49-0.43-0.99-0.87-1.47-1.32c-0.58-0.52-1.14-1.04-1.71-1.57
				c-0.4-0.37-0.8-0.75-1.2-1.13c-2.41-2.29-4.75-4.65-7.02-7.07c-0.88-0.95-1.76-1.92-2.63-2.89c-1.25-1.41-2.48-2.84-3.69-4.28
				c71.38-55.19,158.15-91.44,252.79-101.22c1.38-0.14,2.77-0.28,4.16-0.41c10.37,7.5,21.99,13.91,34.15,18.84
				c0.95-6.86,1.48-13.85,1.56-20.95c3.98-0.09,7.98-0.14,11.99-0.14c15.95,0,31.7,0.72,47.22,2.23c13.99,1.31,27.81,3.2,41.43,5.65
				C1196.6,2388.95,1181.45,2398.14,1162.13,2398.59z M1589.69,1977.7c58.13,91.78,69.19,128.35,59.52,168.42
				c-14.31,59.33-71.8,116.81-130.24,119.98c-65.24,3.54-99.87-62.34-141.6-89.37C1429.44,2093.27,1502.73,2024.41,1589.69,1977.7z
				 M1993.7,2023.45c-4.4,27.86-20.1,51.17-41.7,66c-4.28,2.94-8.8,5.55-13.49,7.79c-17.39,8.28-37.35,11.59-57.77,8.37
				c-53.8-8.49-90.65-59.16-82.16-112.96c1.11-7.06,2.95-13.82,5.43-20.23c5.44-14.08,13.95-26.44,24.61-36.4
				c13.2-12.35,29.68-21.02,47.67-24.73c0.01,0,0.01,0,0.02,0c14.39,0.52,28.64,1.58,42.72,3.15c2.79-0.01,5.63-0.02,8.52-0.04h0.01
				C1972.43,1929.43,2001.32,1975.18,1993.7,2023.45z M2720.05,1409.78c-60.94-53.75-165.42-76.28-233.54-38.92
				c-71.8,39.37-79.95,132.49-105.65,127.89c-18.81-3.37-12.45-52.88-26.61-103.38c106.62-63.17,231.06-99.44,363.98-99.44
				c65.22,0,128.41,8.73,188.44,25.09c0.96,3.55,1.78,7.18,2.44,10.91c15.6,87.8-58.37,188.74-105.65,183.59
				C2770.26,1511.91,2775.6,1458.77,2720.05,1409.78z" style="fill:#f2f2f2"/>
        <g>
          <path d="M2044.92,2294.58c0.68-15.22,2.97-29.99,6.7-44.15c8.18-31.11,23.26-59.31,43.47-82.95
					c40.73-47.68,102.2-76.81,169.56-73.79c115.96,5.19,206.09,103.76,200.89,219.73c-2.69,60.04-30.42,113.17-72.64,149.72
					c-8.37,7.24-17.31,13.84-26.73,19.69c-34.85,21.69-76.35,33.44-120.37,31.47C2129.84,2509.11,2039.73,2410.54,2044.92,2294.58z" style="fill:#b3b3b3"/>
          <path d="M2044.92,2294.58c0.68-15.22,2.97-29.99,6.7-44.15c8.18-31.11,23.26-59.31,43.47-82.95
					c34.84-21.69,76.35-33.44,120.35-31.47c115.96,5.19,206.09,103.76,200.89,219.73c-2.18,48.61-20.76,92.68-50.16,127.09
					c-34.85,21.69-76.35,33.44-120.37,31.47C2129.84,2509.11,2039.73,2410.54,2044.92,2294.58z" style="fill:#e6e6e6"/>
        </g>
        <path d="M2906.67,1321.02c-60.03-16.36-123.22-25.09-188.44-25.09c-132.92,0-257.36,36.27-363.98,99.44
				c-6.24-22.24-16.45-44.67-34.56-63.44c-48.29-50.06-97.67-16.98-166.82-55.6c-126.07-70.43-118.08-267.61-167.57-266.15
				c-31.71,0.94-24.53,81.55-93.77,132.69c-51.51,38.04-86.98,9.88-194.62,44.49c-108.85,34.99-171.06,54.99-183.5,100.09
				c-19.72,71.51,108.57,123.28,94.53,200.18c-16.93,92.75-216.47,88.02-233.54,177.93c-9.05,47.67,49.53,66.6,144.57,205.74
				c28.92,42.34,52.21,77.17,70.72,106.4c-86.96,46.71-160.25,115.57-212.32,199.03c-12.91-8.36-26.51-13.01-41.9-10.72
				c-67.54,10.05-76.54,150.97-126.33,208.45c-13.62-2.45-27.44-4.34-41.43-5.65c-15.52-1.51-31.27-2.23-47.22-2.23
				c-4.01,0-8.01,0.05-11.99,0.14c-0.08,7.1-0.61,14.09-1.56,20.95c-12.16-4.93-23.78-11.34-34.15-18.84
				c-1.71-1.23-3.38-2.5-5.01-3.78c-21.06-16.64-36-37.88-38.13-60.02c-0.47-4.87-0.13-9.51,0.9-13.97
				c3.57-15.55,15.46-28.94,30.5-42.11c34.63-30.3,85.95-59.41,90.93-110.74c8.14-83.97-111.25-191.4-200.18-177.94
				c-67.42,10.21-75.03,83.48-150.14,101.29c-79.31,18.8-156.86-42.48-189.06-67.92c-154.64-122.21-179.96-329.42-200.17-494.89
				c-11.97-97.97-23.61-200.82,5.56-333.63c34.78-158.38,108.28-271.42,155.82-333.5c78.94-109.69,129.55-132.14,163.07-124.14
				c76.67,18.3,68.94,197.04,148.19,212.97c41.08,8.26,81.1-32.14,152.09-105.65c128.7-133.25,135-208.87,198.23-216.86
				c24.52-3.1,43.56,5.76,189.05,122.33c153.16,122.72,171.59,144.57,204.36,139.02c84.93-14.4,68.53-179.41,184.88-226.88
				c71.05-28.99,168.36-5.15,216.86,48.94c47.98,53.49,18.11,110.61,66.73,155.69c65.95,61.16,154.2-13.07,259.88,41.04
				c80.9,41.42,51.31,96.24,146.04,175.83c90.43,75.97,138.86,44.04,272.47,133.45C2842.51,1232.1,2891.87,1266.11,2906.67,1321.02z
				" style="fill:#e6e6e6"/>
        <g>
          <path d="M1042.74,1212.88c-0.48-11.96,0.32-23.68,2.3-35.02c4.33-24.9,14.26-47.99,28.5-67.85
					c28.71-40.05,74.9-66.96,127.85-69.09c91.15-3.67,168.29,67.5,171.96,158.66c1.9,47.2-16.27,90.64-46.89,122.08
					c-6.07,6.23-12.63,11.99-19.61,17.2c-25.84,19.31-57.55,31.28-92.15,32.67C1123.54,1375.19,1046.41,1304.03,1042.74,1212.88z" style="fill:#b3b3b3"/>
          <path d="M1042.74,1212.88c-0.48-11.96,0.32-23.68,2.3-35.02c4.33-24.9,14.26-47.99,28.5-67.85
					c25.83-19.31,57.55-31.28,92.14-32.67c91.15-3.67,168.29,67.5,171.96,158.66c1.54,38.2-10.08,73.95-30.8,102.86
					c-25.84,19.31-57.55,31.28-92.15,32.67C1123.54,1375.19,1046.41,1304.03,1042.74,1212.88z" style="fill:#f2f2f2"/>
        </g>
        <g>
          <path d="M2845.27,1693.59c5.66-1.18,11.41-1.23,17.18-0.22c12.65,2.2,25.35,9.41,37.2,20.6
					c23.89,22.55,44.33,61.22,53.98,107.38c16.61,79.46-4.97,151.45-48.11,160.46c-22.33,4.67-46.14-8.45-66.21-33.22
					c-3.98-4.91-7.81-10.28-11.45-16.05c-13.47-21.36-24.38-48.33-30.69-78.49C2780.55,1774.58,2802.13,1702.6,2845.27,1693.59z" style="fill:#b3b3b3"/>
          <path d="M2845.27,1693.59c5.66-1.18,11.41-1.23,17.18-0.22c12.65,2.2,25.35,9.41,37.2,20.6
					c13.47,21.36,24.38,48.33,30.69,78.48c16.61,79.46-4.97,151.45-48.11,160.46c-18.08,3.78-37.12-4.1-54.37-20.38
					c-13.47-21.36-24.38-48.33-30.69-78.49C2780.55,1774.58,2802.13,1702.6,2845.27,1693.59z" style="fill:#e6e6e6"/>
        </g>
        <g>
          <path d="M1637.16,2820.52c10.75,0.62,21.21,1.68,31.26,3.14c22.08,3.2,42.22,8.3,59.21,14.74
					c34.28,12.97,55.77,31.37,54.67,50.55c-1.9,33.03-70.09,56.07-152.03,51.36c-42.42-2.44-80.34-11.84-106.78-24.94
					c-5.24-2.59-10.03-5.34-14.31-8.19c-15.84-10.57-24.77-22.77-24.05-35.3C1487.04,2838.85,1555.23,2815.81,1637.16,2820.52z" style="fill:#b3b3b3"/>
          <path d="M1637.16,2820.52c10.75,0.62,21.21,1.68,31.26,3.14c22.08,3.2,42.22,8.3,59.21,14.74
					c15.84,10.57,24.77,22.77,24.05,35.3c-1.9,33.03-70.09,56.07-152.03,51.36c-34.34-1.97-65.73-8.51-90.47-17.88
					c-15.84-10.57-24.77-22.77-24.05-35.3C1487.04,2838.85,1555.23,2815.81,1637.16,2820.52z" style="fill:#e6e6e6"/>
        </g>
        <path d="M1738.3,238.13c0.21,3.97-2.69,7.99-8.24,11.87c-20.46-12.09-76.76-18.45-142.28-14.69
				c-42.42,2.43-80.52,8.67-107.26,16.62c-5.3,1.58-10.12,3.25-14.48,4.95c-6.88,2.69-12.52,5.51-16.66,8.42c-0.04,0-0.04,0-0.04,0
				c-5.12-3.03-7.99-6.41-8.2-10.08c-0.43-7,8.8-14.01,24.9-20.29c4.36-1.71,9.18-3.37,14.48-4.95
				c26.74-7.99,64.84-14.18,107.26-16.62C1669.74,208.66,1737.23,219.77,1738.3,238.13z" style="fill:#b3b3b3"/>
        <path d="M1730.05,250.01c-9.31,6.49-25.97,12.64-47.63,17.68c-17.13,4.06-37.38,7.39-59.5,9.74
				c-10.08,1.07-20.55,1.92-31.31,2.56c-65.48,3.76-121.78-2.61-142.24-14.69c4.14-2.91,9.78-5.72,16.66-8.42
				c4.36-1.71,9.18-3.37,14.48-4.95c26.74-7.95,64.84-14.18,107.26-16.62C1653.29,231.56,1709.59,237.92,1730.05,250.01z" style="fill:#e6e6e6"/>
        <path d="M509.56,2280.46c-0.68,0.38-1.37,0.64-2.09,0.9c-24.13,8.07-64.88-48.74-90.85-126.56
				c-13.45-40.32-20.33-78.51-20.5-107.09c0-5.64,0.21-10.94,0.73-15.76c1.84-17.94,7.3-29.9,16.45-32.93
				c10.04-3.37,22.98,4.53,36.48,20.46c-7.9,4.06-12.64,15.46-14.35,31.99c-0.51,4.83-0.73,10.12-0.73,15.8
				c0.17,28.53,7.05,66.72,20.5,107.04C470.35,2219.8,490.55,2258.07,509.56,2280.46z" style="fill:#b3b3b3"/>
        <path d="M509.56,2280.46c-19.01-22.38-39.21-60.65-54.38-106.15c-13.45-40.32-20.33-78.51-20.5-107.04
				c0-5.68,0.21-10.98,0.73-15.8c1.71-16.53,6.45-27.94,14.35-31.99c19.01,22.38,39.21,60.65,54.38,106.1
				c3.42,10.21,6.41,20.29,8.97,30.11c5.59,21.57,9.18,41.86,10.72,59.63C526.69,2249.32,521.99,2274.05,509.56,2280.46z" style="fill:#e6e6e6"/>
        <g>
          <path d="M2884.24,1105.27c-3.41-10.22-6.39-20.29-8.95-30.11c-5.62-21.56-9.21-41.86-10.72-59.63
					c-3.05-35.84,2.32-61.37,16.34-66.04c24.13-8.05,64.89,48.73,90.85,126.59c13.44,40.31,20.33,78.49,20.49,107.05
					c0.03,5.66-0.2,10.94-0.7,15.79c-1.84,17.92-7.31,29.88-16.47,32.94C2950.96,1239.9,2910.2,1183.11,2884.24,1105.27z" style="fill:#b3b3b3"/>
          <path d="M2884.24,1105.27c-3.41-10.22-6.39-20.29-8.95-30.11c-5.62-21.56-9.21-41.86-10.72-59.63
					c1.84-17.92,7.31-29.88,16.46-32.94c24.13-8.05,64.89,48.74,90.85,126.59c10.88,32.63,17.47,63.87,19.67,89.73
					c-1.84,17.92-7.31,29.88-16.47,32.94C2950.96,1239.9,2910.2,1183.11,2884.24,1105.27z" style="fill:#e6e6e6"/>
        </g>
        <g>
          <path d="M1108.51,2364.32c0,0.8,0,1.6-0.01,2.4c-0.08,7.1-0.61,14.09-1.56,20.95
					c-12.16-4.93-23.78-11.34-34.15-18.84c-1.39,0.13-2.78,0.27-4.16,0.41c-94.64,9.78-181.41,46.03-252.79,101.22
					c-0.48-0.59-0.97-1.18-1.44-1.77c-0.42-0.51-0.83-1.03-1.24-1.55c-1.23-1.56-2.43-3.14-3.61-4.74c-0.31-0.43-0.63-0.86-0.93-1.3
					c-1.66-2.29-3.25-4.63-4.78-7.01c-0.24-0.37-0.48-0.75-0.72-1.13c-0.53-0.84-1.06-1.69-1.57-2.54
					c-0.53-0.86-1.05-1.73-1.56-2.61c-0.07-0.14-0.15-0.27-0.23-0.4c-0.48-0.84-0.96-1.68-1.43-2.52c-0.5-0.9-0.99-1.81-1.47-2.72
					c-0.26-0.49-0.52-0.98-0.77-1.47c-0.06-0.1-0.11-0.2-0.16-0.3c-0.35-0.68-0.7-1.37-1.04-2.05c-0.36-0.72-0.71-1.44-1.05-2.16
					c-0.36-0.74-0.71-1.49-1.05-2.24c-0.21-0.43-0.4-0.85-0.59-1.28c-0.19-0.4-0.37-0.81-0.55-1.22c-0.82-1.87-1.62-3.76-2.37-5.66
					c-0.15-0.37-0.3-0.74-0.44-1.11c-0.27-0.67-0.53-1.35-0.78-2.03c-0.31-0.84-0.62-1.68-0.92-2.52c-0.42-1.19-0.83-2.38-1.22-3.57
					c-0.25-0.75-0.48-1.49-0.72-2.24c-0.4-1.27-0.79-2.56-1.16-3.85c-0.34-1.19-0.67-2.38-0.98-3.58c-0.14-0.51-0.27-1.02-0.4-1.53
					c-0.4-1.59-0.78-3.19-1.13-4.79c-0.15-0.67-0.29-1.34-0.43-2.01c-0.89-4.26-1.61-8.58-2.16-12.95
					c-0.08-0.61-0.15-1.21-0.22-1.82c-0.35-3.05-0.62-6.13-0.79-9.23c-0.04-0.53-0.07-1.07-0.09-1.6c-0.06-1.12-0.1-2.25-0.13-3.37
					c-0.02-0.52-0.03-1.04-0.04-1.56c-0.02-0.9-0.03-1.8-0.03-2.7c-0.04-11.97,1.2-23.65,3.59-34.9
					c5.26-24.73,16.04-47.43,31.01-66.75c30.18-38.96,77.34-64.13,130.32-64.3c46.33-0.14,88.33,18.87,118.49,49.57
					C1090.27,2278.7,1108.37,2319.42,1108.51,2364.32z" style="fill:#b3b3b3"/>
          <path d="M1068.63,2369.24c-94.64,9.78-181.41,46.03-252.79,101.22c-0.48-0.59-0.97-1.18-1.44-1.77
					c-0.42-0.51-0.83-1.03-1.24-1.55c-1.23-1.56-2.43-3.14-3.61-4.74c-0.31-0.43-0.63-0.86-0.93-1.3c-1.66-2.29-3.25-4.63-4.78-7.01
					c-0.24-0.37-0.48-0.75-0.72-1.13c-0.53-0.84-1.06-1.69-1.57-2.54c-0.53-0.86-1.05-1.73-1.56-2.61c-0.07-0.14-0.15-0.27-0.23-0.4
					c-0.48-0.84-0.96-1.68-1.43-2.52c-0.5-0.9-0.99-1.81-1.47-2.72c-0.26-0.49-0.52-0.98-0.77-1.47c-0.06-0.1-0.11-0.2-0.16-0.3
					c-0.35-0.68-0.7-1.37-1.04-2.05c-0.36-0.72-0.71-1.44-1.05-2.16c-0.36-0.74-0.71-1.49-1.05-2.24c-0.21-0.43-0.4-0.85-0.59-1.28
					c-0.19-0.4-0.37-0.81-0.55-1.22c-0.82-1.87-1.62-3.76-2.37-5.66c-0.15-0.37-0.3-0.74-0.44-1.11c-0.27-0.67-0.53-1.35-0.78-2.03
					c-0.31-0.84-0.62-1.68-0.92-2.52c-0.42-1.19-0.83-2.38-1.22-3.57c-0.25-0.75-0.48-1.49-0.72-2.24c-0.4-1.27-0.79-2.56-1.16-3.85
					c-0.34-1.19-0.67-2.38-0.98-3.58c-0.14-0.51-0.27-1.02-0.4-1.53c-0.4-1.59-0.78-3.19-1.13-4.79c-0.15-0.67-0.29-1.34-0.43-2.01
					c-0.89-4.26-1.61-8.58-2.16-12.95c-0.08-0.61-0.15-1.21-0.22-1.82c-0.35-3.05-0.62-6.13-0.79-9.23
					c-0.04-0.53-0.07-1.07-0.09-1.6c-0.06-1.12-0.1-2.25-0.13-3.37c-0.02-0.52-0.03-1.04-0.04-1.56c-0.02-0.9-0.03-1.8-0.03-2.7
					c-0.04-11.97,1.2-23.65,3.59-34.9c5.26-24.73,16.04-47.43,31.01-66.75c26.53-18.33,58.67-29.12,93.29-29.23
					c49.77-0.15,94.55,21.81,125.02,56.61c18.16,20.75,31.23,46.07,37.23,73.99C1068.09,2366.44,1068.37,2367.83,1068.63,2369.24z" style="fill:#e6e6e6"/>
        </g>
        <g>
          <path d="M2256.45,553.97c1.11-7.06,2.95-13.83,5.43-20.23c5.44-14.08,13.95-26.43,24.61-36.4
					c21.49-20.1,51.67-30.46,82.92-25.53c53.79,8.49,90.66,59.16,82.16,112.96c-4.4,27.85-20.1,51.17-41.7,66
					c-4.28,2.94-8.79,5.54-13.49,7.78c-17.38,8.29-37.35,11.6-57.77,8.37C2284.82,658.44,2247.96,607.77,2256.45,553.97z" style="fill:#b3b3b3"/>
          <path d="M2256.45,553.97c1.11-7.06,2.95-13.83,5.43-20.23c5.44-14.08,13.95-26.43,24.61-36.4
					c17.38-8.29,37.35-11.6,57.76-8.37c53.79,8.49,90.66,59.16,82.16,112.96c-3.56,22.55-14.53,42.12-30.04,56.63
					c-17.38,8.29-37.35,11.6-57.77,8.37C2284.82,658.44,2247.96,607.77,2256.45,553.97z" style="fill:#e6e6e6"/>
        </g>
        <g>
          <path d="M1844.66,1595.76c1.11-7.06,2.95-13.83,5.43-20.23c5.44-14.08,13.95-26.43,24.61-36.4
					c21.49-20.1,51.67-30.46,82.92-25.53c53.79,8.49,90.66,59.16,82.16,112.96c-4.4,27.85-20.1,51.17-41.7,66
					c-4.28,2.94-8.79,5.54-13.49,7.78c-17.38,8.29-37.35,11.6-57.77,8.37C1873.02,1700.23,1836.16,1649.56,1844.66,1595.76z" style="fill:#b3b3b3"/>
          <path d="M1844.66,1595.76c1.11-7.06,2.95-13.83,5.43-20.23c5.44-14.08,13.95-26.43,24.61-36.4
					c17.38-8.29,37.35-11.6,57.76-8.37c53.79,8.49,90.66,59.16,82.16,112.96c-3.56,22.55-14.53,42.12-30.04,56.63
					c-17.38,8.29-37.35,11.6-57.77,8.37C1873.02,1700.23,1836.16,1649.56,1844.66,1595.76z" style="fill:#e6e6e6"/>
        </g>
        <g>
          <path d="M581.37,1257.49c1.11-7.06,2.95-13.83,5.43-20.23c5.44-14.07,13.95-26.43,24.61-36.4
					c21.49-20.1,51.67-30.46,82.92-25.53c53.79,8.49,90.66,59.16,82.16,112.96c-4.4,27.85-20.1,51.17-41.7,66
					c-4.28,2.94-8.79,5.54-13.49,7.78c-17.38,8.29-37.35,11.6-57.77,8.37C609.74,1361.95,572.88,1311.28,581.37,1257.49z" style="fill:#b3b3b3"/>
          <path d="M581.37,1257.49c1.11-7.06,2.95-13.83,5.43-20.23c5.44-14.07,13.95-26.43,24.61-36.4
					c17.38-8.29,37.35-11.6,57.76-8.37c53.8,8.49,90.66,59.16,82.16,112.96c-3.56,22.55-14.53,42.12-30.04,56.63
					c-17.38,8.29-37.35,11.6-57.77,8.37C609.74,1361.95,572.88,1311.28,581.37,1257.49z" style="fill:#f2f2f2"/>
        </g>
        <g>
          <path d="M1487.47,536.82c1.11-7.06,2.95-13.83,5.43-20.23c5.44-14.08,13.95-26.43,24.61-36.4
					c21.49-20.1,51.67-30.46,82.92-25.53c53.79,8.49,90.66,59.16,82.16,112.96c-4.4,27.85-20.1,51.17-41.7,66
					c-4.28,2.94-8.79,5.54-13.49,7.78c-17.38,8.29-37.35,11.6-57.77,8.37C1515.84,641.28,1478.98,590.61,1487.47,536.82z" style="fill:#b3b3b3"/>
          <path d="M1487.47,536.82c1.11-7.06,2.95-13.83,5.43-20.23c5.44-14.08,13.95-26.43,24.61-36.4
					c17.38-8.29,37.35-11.6,57.76-8.37c53.79,8.49,90.66,59.16,82.16,112.96c-3.56,22.55-14.53,42.12-30.04,56.63
					c-17.38,8.29-37.35,11.6-57.77,8.37C1515.84,641.28,1478.98,590.61,1487.47,536.82z" style="fill:#e6e6e6"/>
        </g>
        <g>
          <path d="M2763.16,2484.06c-26.19-8.85-26.88-11.56-10.01-33.7c14.89-19.55,24.35-44.1,51.12-52.47
					c3.87-1.21,7.41-7.62,8.71-12.3c8.34-29.97,26.96-54.28,41.32-81.01c26.19-48.77,62.99-89.8,90.1-137.37
					c7.57-13.28,13.3-28.31,16.35-43.26c3.77-18.49,12.64-29.55,31.15-32.79c-12.51,46.66-34.71,89.47-55.56,132.47
					c-34.14,70.4-77.61,135.52-122.15,199.78c-2.37,3.42-6.2,5.84-9.35,8.73c-0.91-6.11,2.87-16-6.91-15.91
					c-6.12,0.06-10.81,7.48-9.93,15.38c0.65,5.84,1.44,11.66,2.17,17.49c0,0,0.24-0.66,0.25-0.65c-0.47,1.5-0.95,2.98-1.43,4.47
					C2783.41,2465.81,2772.51,2474.3,2763.16,2484.06z" style="fill:#e6e6e6"/>
          <path d="M2790.23,2449.09c-0.73-5.83-1.52-11.65-2.17-17.49c-0.88-7.9,3.81-15.32,9.93-15.38
					c9.78-0.09,6.01,9.8,6.91,15.91C2800.19,2437.94,2797.8,2445.76,2790.23,2449.09z" style="fill:#c8d9f1"/>
        </g>
        <ellipse cx="2747.16" cy="769.45" rx="18.69" ry="92.83" style="fill:#ccc" transform="rotate(-35.728 2747.226 769.548)"/>
        <ellipse cx="1857.54" cy="1317.07" rx="43.72" ry="59.8" style="fill:#e6e6e6" transform="rotate(-15.613 1857.807 1317.324)"/>
        <path d="M1899.66,2456.21c-8.88,2.48-23.29-21.29-32.18-53.1c-8.89-31.81-8.89-59.61-0.01-62.09
				c8.88-2.48,40.09,21.29,48.98,53.1C1925.34,2425.93,1908.54,2453.73,1899.66,2456.21z" style="fill:#e6e6e6"/>
        <ellipse cx="308.4" cy="1619.74" rx="13.61" ry="59.8" style="fill:#ccc" transform="rotate(-2.482 308.713 1621.183)"/>
        <path d="M1282.44,545.34c-8.88,2.48-37.22-21.29-46.11-53.1c-8.89-31.81,5.04-59.61,13.92-62.09
				c8.88-2.48,23.29,21.29,32.18,53.1C1291.31,515.06,1291.32,542.86,1282.44,545.34z" style="fill:#ccc"/>
      </g>
      <path d="M1649.21,2146.12c-14.31,59.33-71.8,116.81-130.24,119.98c-65.24,3.54-99.87-62.34-141.6-89.37
			c52.07-83.46,125.36-152.32,212.32-199.03C1647.82,2069.48,1658.88,2106.05,1649.21,2146.12z" style="fill:#d8d8d8"/>
      <path d="M1209.14,2374.46c-12.54,14.49-27.69,23.68-47.01,24.13c-18.08,0.42-37.23-3.63-55.19-10.92
			c0.95-6.86,1.48-13.85,1.56-20.95c3.98-0.09,7.98-0.14,11.99-0.14c15.95,0,31.7,0.72,47.22,2.23
			C1181.7,2370.12,1195.52,2372.01,1209.14,2374.46z" style="fill:#ccc"/>
      <path d="M1106.94,2387.67c-5.25,37.87-23.38,71.7-49.82,96.9c-6.3,6-13.07,11.51-20.24,16.46
			c21.78-28.11,34.72-63.41,34.6-101.64c-0.03-10.3-1.01-20.38-2.85-30.15c1.38-0.14,2.77-0.28,4.16-0.41
			C1083.16,2376.33,1094.78,2382.74,1106.94,2387.67z" style="fill:#a3a3a3"/>
      <path d="M1108.5,2366.72c-0.08,7.1-0.61,14.09-1.56,20.95c-12.16-4.93-23.78-11.34-34.15-18.84
			C1084.57,2367.71,1096.48,2367,1108.5,2366.72z" style="fill:#a3a3a3"/>
      <path d="M1071.48,2399.39c0.12,38.23-12.82,73.53-34.6,101.64c-26.54,18.33-58.68,29.12-93.3,29.23h-0.52
			c-1.6,0-3.19-0.02-4.77-0.07c-0.93-0.02-1.85-0.06-2.78-0.1c-0.65-0.03-1.31-0.06-1.96-0.1c-0.7-0.04-1.39-0.08-2.09-0.13
			c-0.16-0.01-0.33-0.03-0.5-0.04c-0.7-0.05-1.41-0.11-2.12-0.17c-0.71-0.06-1.43-0.12-2.14-0.19c-1.54-0.16-3.09-0.33-4.63-0.53
			c-0.41-0.05-0.81-0.1-1.22-0.16c-0.44-0.05-0.87-0.11-1.3-0.18c-2.3-0.32-4.59-0.7-6.87-1.13c-0.76-0.14-1.51-0.29-2.27-0.44
			c-0.67-0.13-1.33-0.27-2-0.42c-1.73-0.36-3.45-0.76-5.17-1.19c-0.59-0.14-1.18-0.29-1.77-0.45c-0.52-0.13-1.05-0.27-1.58-0.42
			c-0.66-0.17-1.31-0.35-1.96-0.54c-0.65-0.18-1.31-0.37-1.95-0.57c-0.65-0.19-1.3-0.39-1.95-0.59c-0.63-0.19-1.25-0.39-1.88-0.59
			c-2.84-0.93-5.64-1.92-8.42-2.99c-0.58-0.22-1.15-0.45-1.72-0.68c-0.7-0.28-1.4-0.56-2.09-0.85c-0.7-0.29-1.39-0.58-2.08-0.88
			c-0.52-0.22-1.04-0.45-1.56-0.68c-2.91-1.29-5.78-2.66-8.61-4.12c-0.67-0.34-1.33-0.68-1.99-1.04c-0.66-0.35-1.32-0.7-1.97-1.06
			c-6.19-3.4-12.14-7.18-17.82-11.32c-0.52-0.38-1.04-0.76-1.56-1.15c-3.71-2.77-7.3-5.69-10.77-8.76
			c-0.49-0.43-0.99-0.87-1.47-1.32c-0.58-0.52-1.14-1.04-1.71-1.57c-0.4-0.37-0.8-0.75-1.2-1.13c-2.41-2.29-4.75-4.65-7.02-7.07
			c-0.88-0.95-1.76-1.92-2.63-2.89c-1.25-1.41-2.48-2.84-3.69-4.28c71.38-55.19,158.15-91.44,252.79-101.22
			C1070.47,2379.01,1071.45,2389.09,1071.48,2399.39z" style="fill:#d8d8d8"/>
      <path d="M1927.56,1914.4h-0.01c-5.13-1.72-10.48-3.04-16.01-3.91c-12.05-1.9-23.94-1.53-35.23,0.8
			c-0.01,0-0.01,0-0.02,0c-17.99,3.71-34.47,12.38-47.67,24.73c17.38-8.29,37.35-11.6,57.76-8.38c53.8,8.5,90.66,59.17,82.17,112.97
			c-3.56,22.55-14.54,42.12-30.04,56.63c4.69-2.24,9.21-4.85,13.49-7.79c21.6-14.83,37.3-38.14,41.7-66
			C2001.32,1975.18,1972.43,1929.43,1927.56,1914.4z" style="fill:#b3b3b3"/>
      <path d="M1968.55 2040.61c-3.56 22.55-14.54 42.12-30.04 56.63-17.39 8.28-37.35 11.59-57.77 8.37-53.8-8.49-90.65-59.16-82.16-112.96 1.11-7.06 2.95-13.82 5.43-20.23 5.44-14.08 13.95-26.44 24.61-36.4 17.38-8.29 37.35-11.6 57.76-8.38C1940.18 1936.14 1977.04 1986.81 1968.55 2040.61zM2803.46 1515.52c-33.2-3.61-27.86-56.75-83.41-105.74-26.25-23.15-60.57-40.5-96.59-49.78-69.94 14.59-136.12 39.4-196.92 72.8-20.91 35.41-30.05 68.75-45.68 65.95-18.81-3.37-12.45-52.88-26.61-103.38 106.62-63.17 231.06-99.44 363.98-99.44 65.22 0 128.41 8.73 188.44 25.09.96 3.55 1.78 7.18 2.44 10.91C2924.71 1419.73 2850.74 1520.67 2803.46 1515.52z" style="fill:#d8d8d8"/>
      <path d="M3031.94,1978.84c-11.46,37.56-24.69,74.95-39.73,112.08c-6.52,1.14-11.84,3.25-16.17,6.33
			c-0.28,0.18-0.56,0.38-0.82,0.59c-7.46,5.65-11.8,14.31-14.16,25.86c-3.05,14.95-8.78,29.99-16.35,43.27
			c-1.36,2.26-2.73,4.52-4.12,6.77c-0.06,0.1-0.12,0.19-0.18,0.29c-6.66,10.81-13.63,21.48-20.74,32.08
			c-0.12,0.18-0.24,0.35-0.36,0.53c-0.02,0.03-0.04,0.05-0.06,0.08c-0.09,0.14-0.18,0.27-0.27,0.4
			c-19.31,28.68-39.72,56.88-58.31,86.09c-0.02,0.02-0.03,0.04-0.04,0.06c-10.18,16-19.82,32.3-28.42,49.15
			c0,0.01-0.01,0.01-0.01,0.02c-7.1,13.88-13.48,28.14-18.91,42.91c-1.09,3.93-3.76,9.09-6.89,11.35c-0.04,0.03-0.07,0.05-0.1,0.08
			c-0.02,0.02-0.05,0.03-0.07,0.05c-0.01,0.01-0.02,0.01-0.03,0.02c0,0-0.01,0-0.01,0.01c-0.01,0.01-0.02,0.01-0.03,0.02
			c0,0-0.01,0-0.01,0.01c-0.01,0.01-0.02,0.01-0.03,0.02c0,0-0.01,0-0.01,0.01c-0.02,0.01-0.04,0.02-0.06,0.04
			c-0.49,0.28-0.96,0.53-1.47,0.69c-5.48,1.72-10.24,4.11-14.47,7.03c-0.3,0.2-0.6,0.41-0.89,0.62c-0.13,0.09-0.27,0.18-0.4,0.28
			c-0.27,0.19-0.54,0.39-0.81,0.59c-0.21,0.15-0.41,0.3-0.61,0.46c-0.31,0.24-0.61,0.48-0.91,0.72
			c-14.09,11.36-22.1,28.41-33.03,42.77c-16.86,22.12-16.18,24.85,9.95,33.68c0.02,0.01,0.04,0.01,0.06,0.02
			c-530.71,633.02-1492.95,679.06-2070.26,124.32c32.04-53.17,73.73-99.87,122.63-137.68c1.21,1.44,2.44,2.87,3.69,4.28
			c0.87,0.97,1.75,1.94,2.63,2.89c2.27,2.42,4.61,4.78,7.02,7.07c0.4,0.38,0.8,0.76,1.2,1.13c0.57,0.53,1.13,1.05,1.71,1.57
			c0.48,0.45,0.98,0.89,1.47,1.32c3.47,3.07,7.06,5.99,10.77,8.76c0.52,0.39,1.04,0.77,1.56,1.15c5.68,4.14,11.63,7.92,17.82,11.32
			c0.65,0.36,1.31,0.71,1.97,1.06c0.66,0.36,1.32,0.7,1.99,1.04c2.83,1.46,5.7,2.83,8.61,4.12c0.52,0.23,1.04,0.46,1.56,0.68
			c0.69,0.3,1.38,0.59,2.08,0.88c0.69,0.29,1.39,0.57,2.09,0.85c0.57,0.23,1.14,0.46,1.72,0.68c2.78,1.07,5.58,2.06,8.42,2.99
			c0.63,0.2,1.25,0.4,1.88,0.59c0.65,0.2,1.3,0.4,1.95,0.59c0.64,0.2,1.3,0.39,1.95,0.57c0.65,0.19,1.3,0.37,1.96,0.54
			c0.53,0.15,1.06,0.29,1.58,0.42c0.59,0.16,1.18,0.31,1.77,0.45c1.72,0.43,3.44,0.83,5.17,1.19c0.67,0.15,1.33,0.29,2,0.42
			c0.76,0.15,1.51,0.3,2.27,0.44c2.28,0.43,4.57,0.81,6.87,1.13c0.43,0.07,0.86,0.13,1.3,0.18c0.41,0.06,0.81,0.11,1.22,0.16
			c1.54,0.2,3.09,0.37,4.63,0.53c0.71,0.07,1.43,0.13,2.14,0.19c0.71,0.06,1.42,0.12,2.12,0.17c0.17,0.01,0.34,0.03,0.5,0.04
			c0.7,0.05,1.39,0.09,2.09,0.13c0.65,0.04,1.31,0.07,1.96,0.1c0.93,0.04,1.85,0.08,2.78,0.1c1.58,0.05,3.17,0.07,4.77,0.07h0.52
			c34.62-0.11,66.76-10.9,93.3-29.23c7.17-4.95,13.94-10.46,20.24-16.46c26.44-25.2,44.57-59.03,49.82-96.9
			c17.96,7.29,37.11,11.34,55.19,10.92c19.32-0.45,34.47-9.64,47.01-24.13c30.43,5.45,59.9,13.67,88.1,24.39
			c5.82-43.41,16.6-85.25,31.84-124.93c13-34.11,29.22-66.63,48.29-97.19c41.73,27.03,76.36,92.91,141.6,89.37
			c58.44-3.17,115.93-60.65,130.24-119.98c9.67-40.07-1.39-76.64-59.52-168.42c68.49-36.8,145.47-59.85,227.24-65.47
			c12.94-0.87,25.95-1.3,39.1-1.3c6.78,0,13.54,0.12,20.26,0.36c-17.99,3.71-34.47,12.38-47.67,24.73
			c-10.66,9.96-19.17,22.32-24.61,36.4c-2.48,6.41-4.32,13.17-5.43,20.23c-8.49,53.8,28.36,104.47,82.16,112.96
			c20.42,3.22,40.38-0.09,57.77-8.37c4.69-2.24,9.21-4.85,13.49-7.79c21.6-14.83,37.3-38.14,41.7-66
			c7.62-48.27-21.27-94.02-66.14-109.05c33.35-0.13,71.48-0.28,82.16-0.32c9.61-70.83,29.52-138.39,58.29-201.03
			c2.66-5.9,5.46-11.79,8.33-17.61c61.58-124.97,158.58-229.37,277.91-300.07c7.71,27.51,9.34,54.73,12.26,74.35
			c2.44,16.4,5.79,27.49,14.35,29.03c15.63,2.8,24.77-30.54,45.67-65.95c60.81-33.4,127-58.21,196.95-72.8
			c36.01,9.28,70.33,26.64,96.57,49.78c55.55,48.99,50.21,102.13,83.41,105.74c42.5,4.63,106.57-76.47,107.75-156.69
			c0.14-9.02-0.52-18.03-2.1-26.9c-0.66-3.73-1.48-7.36-2.44-10.91c59.75,16.28,116.38,40.11,168.8,70.41
			c1.13,7.74,2.2,15.5,3.19,23.26C3102.55,1599.85,3089.14,1791.52,3031.94,1978.84z" style="fill:#e6e6e6"/>
      <g>
        <path d="M4754.18,2914.14c0,223.18-146.71,412.08-348.97,475.62c14.88-47.15,22.85-97.39,22.85-149.51
				c0-275.37-223.26-498.55-498.55-498.55c-99.99,0-193.15,29.47-271.21,80.14c-68.07-194.29-253.01-333.52-470.45-333.52
				c-12.15,0-24.15,0.43-36.08,1.29c4.89-33.78,7.47-68.28,7.47-103.43c0-151.37-47.04-291.75-127.3-407.34
				c-129.12-185.96-344.25-307.72-587.83-307.72c-113.35,0-220.52,26.38-315.77,73.32c54.59-110.8,137.02-205.42,238.17-274.72
				c19.34-13.26,39.37-25.59,60.02-36.92c60.81-33.4,127-58.21,196.95-72.8c47.37-9.88,96.45-15.07,146.75-15.07
				c48.26,0,95.41,4.78,140.98,13.9c58.74,11.74,114.87,30.68,167.45,55.86c240.57,115.17,406.7,360.89,406.7,645.37
				c0,35.15-2.59,69.65-7.47,103.44c11.93-0.87,23.93-1.3,36.08-1.3c217.44,0,402.38,139.23,470.45,333.52
				c78.06-50.67,171.22-80.14,271.21-80.14C4530.92,2415.58,4754.18,2638.77,4754.18,2914.14z" style="fill:#dde6f5"/>
        <path d="M4428.06,3240.25c0,52.11-7.98,102.36-22.86,149.51c-47.23,14.88-97.47,22.86-149.58,22.86H1172.49
				c-274.8,0-497.62-222.25-498.56-496.76v-1.73c0-52.11,7.98-102.36,22.86-149.58c63.54-202.27,252.44-348.98,475.7-348.98
				c15.96,0,31.7,0.72,47.22,2.23c45.21,4.24,88.7,14.52,129.53,30.05c5.82-43.42,16.6-85.25,31.84-124.93
				c76.48-200.62,264.23-346.32,487.85-361.7c12.94-0.86,25.95-1.29,39.1-1.29c52.47,0,103.29,7.19,151.45,20.63h0.07
				c8.55-77.2,29.33-150.73,60.45-218.52c2.66-5.89,5.46-11.79,8.34-17.61c95.24-46.94,202.41-73.32,315.77-73.32
				c394.98,0,715.13,320.15,715.13,715.06c0,35.15-2.59,69.65-7.48,103.44c11.93-0.86,23.94-1.3,36.08-1.3
				c217.44,0,402.38,139.23,470.45,333.52c78.06-50.67,171.22-80.15,271.2-80.15C4204.8,2741.7,4428.06,2964.88,4428.06,3240.25z" style="fill:#ccdbf2"/>
        <path d="M3015.41,2835.07c0,0-226.66-548.35-701.04-334.17c-41.61-133.55-665.42-275.79-822.53,218.64
				c-166.35-177.67-693.13,101.63-489.81,434.36c0,0,55.45,166.35,381.64,258.73c2.35,0.67,4.31,2.3,6.54,3.45h-217.72
				c-275.37,0-498.56-223.19-498.56-498.49v-3.45c1.87-273.79,224.34-495.11,498.56-495.11c62.25,0,121.84,11.43,176.75,32.27
				c37.09-275.44,273.14-487.92,558.79-487.92c52.47,0,103.29,7.19,151.45,20.63c138.94,38.6,256.32,129.17,329.86,249.35
				c64.55-35,138.51-54.85,217.15-54.85c70.73,0,137.72,16.1,197.53,44.92C3037.51,2367.35,3092.96,2571.67,3015.41,2835.07z" style="fill:#dde6f5"/>
        <ellipse cx="1954.76" cy="2121.87" rx="67.77" ry="175.59" style="fill:#ecf3fb" transform="rotate(-81.773 1954.716 2121.878)"/>
        <ellipse cx="2621.39" cy="1454.03" rx="139.22" ry="53.74" style="fill:#ecf3fb" transform="rotate(-13.233 2621.892 1454.257)"/>
        <ellipse cx="2894.04" cy="1459.09" rx="36.18" ry="69.77" style="fill:#ecf3fb" transform="rotate(-77.807 2894.241 1459.134)"/>
        <ellipse cx="4434.06" cy="2520.99" rx="36.18" ry="69.77" style="fill:#ecf3fb" transform="rotate(-66.466 4434.073 2521.08)"/>
        <ellipse cx="2714.06" cy="2322.64" rx="47.66" ry="123.48" style="fill:#ecf3fb" transform="rotate(-73.508 2714.052 2322.541)"/>
        <path d="M2064.64,1963.07c140.47,40.41,264.02,136.37,338.13,262.08c0,0-20.95-5.63-20.95-5.63l8.3-4.2
				c2.11-1.08,6.2-3.11,8.35-4.08c36.21-17.27,74.92-29.88,114.36-37.26c51.45-9.69,104.51-10.72,156.28-3.07
				c176.2,24.96,327.16,155.13,377.3,325.76c2.23,7.26,3.72,14.84,5.28,22.23c7.06,35.5,10.81,71.6,11.4,107.77
				c0.97,71.82-11.58,145.57-47.67,208.41c11.35-21.11,20.16-43.5,26.7-66.48c23.77-86.3,18.7-178.99-3.44-265.03
				c-0.2-0.92-1.01-3.13-1.33-4.13c-0.76-2.15-2.08-6.26-2.83-8.39c-57.25-165.1-211.57-285.49-385.96-298.45
				c-75.29-6.08-152.21,7.15-220.77,38.91c-7.56,3.43-16.01,7.65-23.31,11.59c-5.27,2.78-15.39,8.38-20.6,11.14
				c0,0-7.98-12.64-7.98-12.64c-54.89-87.09-134.36-157.82-227.08-201.96c-37.06-17.98-128.11-58.77-224.08-76
				C1924.74,1963.63,2064.64,1963.07,2064.64,1963.07L2064.64,1963.07z" style="fill:#bdceec"/>
      </g>
    </g>
    <g>
      <g>
        <g>
          <path d="M1620.19,4150.11c52.41,32.34,110.45,40.36,158.39,16.02c86.28-43.81,107.26-175.73,46.87-294.65
					c-60.38-118.93-363.59-329.11-363.59-329.11s-0.15,6.83-0.31,18.92c92.14,68.41,258.11,199.31,301.1,283.96
					c60.38,118.92,39.4,250.85-46.84,294.64C1686.52,4154.76,1653.45,4157.57,1620.19,4150.11z" style="fill:#3e76ef"/>
          <path d="M1513.07,4030.09c26.81,52.8,65.16,94.19,107.12,120.02c33.26,7.46,66.33,4.65,95.63-10.23
					c86.24-43.79,107.22-175.71,46.84-294.64c-42.98-84.66-208.95-215.55-301.1-283.96
					C1460.64,3638.04,1460.89,3927.33,1513.07,4030.09z" style="fill:#4f91ff"/>
        </g>
        <g>
          <path d="M2659.38,4150.11c52.41,32.34,110.45,40.36,158.39,16.02c86.28-43.81,107.26-175.73,46.87-294.65
					c-60.38-118.93-363.59-329.11-363.59-329.11s-0.15,6.83-0.31,18.92c92.14,68.41,258.11,199.31,301.1,283.96
					c60.38,118.92,39.4,250.85-46.84,294.64C2725.71,4154.76,2692.64,4157.57,2659.38,4150.11z" style="fill:#3e76ef"/>
          <path d="M2552.26,4030.09c26.81,52.8,65.16,94.19,107.12,120.02c33.26,7.46,66.33,4.65,95.63-10.23
					c86.24-43.79,107.22-175.71,46.84-294.64c-42.98-84.66-208.95-215.55-301.1-283.96
					C2499.84,3638.04,2500.09,3927.33,2552.26,4030.09z" style="fill:#4f91ff"/>
        </g>
        <g>
          <path d="M3698.57,4150.11c52.41,32.34,110.45,40.36,158.39,16.02c86.28-43.81,107.26-175.73,46.87-294.65
					c-60.38-118.93-363.59-329.11-363.59-329.11s-0.15,6.83-0.31,18.92c92.14,68.41,258.11,199.31,301.1,283.96
					c60.38,118.92,39.4,250.85-46.84,294.64C3764.9,4154.76,3731.83,4157.57,3698.57,4150.11z" style="fill:#3e76ef"/>
          <path d="M3591.45,4030.09c26.81,52.8,65.16,94.19,107.12,120.02c33.26,7.46,66.33,4.65,95.63-10.23
					c86.24-43.79,107.22-175.71,46.84-294.64c-42.98-84.66-208.95-215.55-301.1-283.96
					C3539.03,3638.04,3539.28,3927.33,3591.45,4030.09z" style="fill:#4f91ff"/>
        </g>
      </g>
      <g>
        <g>
          <path d="M2301.28,4788.07c52.41,32.34,110.45,40.36,158.39,16.02c86.28-43.81,107.26-175.73,46.87-294.65
					c-60.38-118.93-363.59-329.11-363.59-329.11s-0.15,6.83-0.31,18.92c92.14,68.41,258.11,199.31,301.1,283.96
					c60.38,118.92,39.4,250.85-46.84,294.64C2367.61,4792.71,2334.54,4795.52,2301.28,4788.07z" style="fill:#3e76ef"/>
          <path d="M2194.16,4668.04c26.81,52.8,65.16,94.19,107.12,120.02c33.26,7.46,66.33,4.65,95.63-10.23
					c86.24-43.79,107.22-175.71,46.84-294.64c-42.98-84.66-208.95-215.55-301.1-283.96
					C2141.74,4276,2141.99,4565.29,2194.16,4668.04z" style="fill:#4f91ff"/>
        </g>
        <g>
          <path d="M3340.47,4788.07c52.41,32.34,110.45,40.36,158.39,16.02c86.28-43.81,107.26-175.73,46.87-294.65
					c-60.38-118.93-363.59-329.11-363.59-329.11s-0.15,6.83-0.31,18.92c92.14,68.41,258.11,199.31,301.1,283.96
					c60.38,118.92,39.4,250.85-46.84,294.64C3406.8,4792.71,3373.73,4795.52,3340.47,4788.07z" style="fill:#3e76ef"/>
          <path d="M3233.35,4668.04c26.81,52.8,65.16,94.19,107.12,120.02c33.26,7.46,66.33,4.65,95.63-10.23
					c86.24-43.79,107.22-175.71,46.84-294.64c-42.98-84.66-208.95-215.55-301.1-283.96
					C3180.93,4276,3181.18,4565.29,3233.35,4668.04z" style="fill:#4f91ff"/>
        </g>
      </g>
    </g>
  </g>
</svg>
