<svg xmlns="http://www.w3.org/2000/svg" xml:space="preserve" id="Layer_1" x="0" y="0" style="enable-background:new 0 0 5000 5000" version="1.1" viewBox="0 0 5000 5000">
  <g>
    <g>
      <g>
        <path d="M4946.17,2708.66c0,214.79-100.88,406.04-257.85,528.93c73.17-107.52,115.93-237.38,115.93-377.23
				c0-145-45.97-279.33-124.19-389.09c-78.21-109.77-188.57-194.96-317.42-241.84c0.9-13.37,1.58-26.83,1.58-40.34
				c0-97.3-24.49-188.8-67.69-268.82c-95.71-177.61-283.47-298.26-499.39-298.26c-99.55,0-193.01,25.69-274.3,70.69
				c9.32-59.05,14.12-119.53,14.12-181.14c0-640.93-519.6-1160.53-1160.47-1160.53c-74.6,0-147.55,7.06-218.25,20.43
				c-210.72,40.14-401.26,137.25-554.95,274.7c169.76-217.4,415.28-372.77,696.87-426.4c70.7-13.37,143.65-20.43,218.25-20.43
				c640.86,0,1160.47,519.6,1160.47,1160.53c0,61.6-4.81,122.09-14.12,181.14c81.29-45,174.75-70.69,274.3-70.69
				c215.92,0,403.68,120.65,499.39,298.26c43.2,80.02,67.69,171.52,67.69,268.82c0,13.51-0.68,26.97-1.58,40.34
				c128.85,46.88,239.21,132.08,317.42,241.84C4900.19,2429.33,4946.17,2563.66,4946.17,2708.66z" style="fill:#bdceec"/>
        <path d="M4804.25,2860.36c0,139.85-42.76,269.71-115.93,377.23c-113.98,89.24-257.54,142.44-413.51,142.44H1096.8
				c-1.36,0-2.63,0-3.99-0.08c-1.35,0.08-2.7,0.08-4.05,0.08c-137.32,0-268.39-26.75-388.27-75.3
				c-28.13-11.38-55.66-23.98-82.49-37.7c-334.93-171.36-564.17-519.86-564.17-921.92c0-235.93,78.93-453.41,211.84-627.48
				c189.08-247.65,487.41-407.44,823.08-407.44c48.53,0,96.3,3.37,143.06,9.85c43,5.96,85.15,14.56,126.28,25.61
				c3.15-263.63,94.19-506.11,245.19-699.49c153.7-137.45,344.23-234.57,554.95-274.7c70.7-13.37,143.65-20.43,218.25-20.43
				c640.86,0,1160.47,519.6,1160.47,1160.53c0,61.61-4.81,122.09-14.12,181.14c81.29-45,174.75-70.69,274.3-70.69
				c180.47,0,341.27,84.28,445.08,215.67c6.08,7.69,11.96,15.54,17.63,23.54c13.39,18.86,25.64,38.57,36.68,59.05
				c43.2,80.02,67.69,171.52,67.69,268.82c0,13.51-0.68,26.97-1.58,40.34c128.85,46.88,239.21,132.08,317.42,241.84
				C4758.28,2581.03,4804.25,2715.36,4804.25,2860.36z" style="fill:#dde6f5"/>
      </g>
      <path d="M1093.92,1310.21c519.51-49.41,998.45,366.52,1038.94,883.7c1.25,16.51,2.41,34.95,2.7,51.52
			c0.81,34.33-0.31,68.62-3.83,102.59c-4.06-38.22-9-75.89-16.04-113.34c-2.05-11.65-4.91-25.61-7.4-37.16
			C2002.93,1703.11,1595.19,1354.26,1093.92,1310.21L1093.92,1310.21z" style="fill:#bdceec"/>
    </g>
    <g>
      <g>
        <g>
          <path d="M4140.26,4110.56c-54.13,33.41-114.08,41.69-163.6,16.54c-89.11-45.25-110.78-181.5-48.41-304.33
					c62.37-122.83,375.53-339.92,375.53-339.92s0.16,7.05,0.32,19.54c-95.17,70.66-266.59,205.85-310.99,293.29
					c-62.37,122.83-40.7,259.09,48.38,304.32C4071.75,4115.36,4105.91,4118.27,4140.26,4110.56z" style="fill:#3e76ef"/>
          <path d="M4250.9,3986.6c-27.69,54.54-67.3,97.28-110.64,123.97c-34.35,7.7-68.51,4.8-98.77-10.57
					c-89.07-45.23-110.74-181.48-48.38-304.32c44.4-87.44,215.82-222.63,310.99-293.29
					C4305.04,3581.67,4304.79,3880.47,4250.9,3986.6z" style="fill:#4f91ff"/>
        </g>
        <g>
          <path d="M3066.93,4110.56c-54.13,33.41-114.08,41.69-163.6,16.54c-89.11-45.25-110.78-181.5-48.41-304.33
					c62.37-122.83,375.53-339.92,375.53-339.92s0.16,7.05,0.32,19.54c-95.17,70.66-266.59,205.85-310.99,293.29
					c-62.37,122.83-40.7,259.09,48.38,304.32C2998.42,4115.36,3032.57,4118.27,3066.93,4110.56z" style="fill:#3e76ef"/>
          <path d="M3177.57,3986.6c-27.69,54.54-67.3,97.28-110.64,123.97c-34.35,7.7-68.51,4.8-98.77-10.57
					c-89.07-45.23-110.74-181.48-48.38-304.32c44.4-87.44,215.82-222.63,310.99-293.29
					C3231.71,3581.67,3231.45,3880.47,3177.57,3986.6z" style="fill:#4f91ff"/>
        </g>
        <g>
          <path d="M1993.59,4110.56c-54.13,33.41-114.08,41.69-163.6,16.54c-89.11-45.25-110.78-181.5-48.41-304.33
					c62.37-122.83,375.53-339.92,375.53-339.92s0.16,7.05,0.32,19.54c-95.17,70.66-266.59,205.85-310.99,293.29
					c-62.37,122.83-40.7,259.09,48.38,304.32C1925.08,4115.36,1959.24,4118.27,1993.59,4110.56z" style="fill:#3e76ef"/>
          <path d="M2104.23,3986.6c-27.69,54.54-67.3,97.28-110.64,123.97c-34.35,7.7-68.51,4.8-98.77-10.57
					c-89.07-45.23-110.74-181.48-48.38-304.32c44.4-87.44,215.82-222.63,310.99-293.29
					C2158.38,3581.67,2158.12,3880.47,2104.23,3986.6z" style="fill:#4f91ff"/>
        </g>
        <g>
          <path d="M943.32,4110.56c-54.13,33.41-114.08,41.69-163.6,16.54c-89.11-45.25-110.78-181.5-48.41-304.33
					c62.37-122.83,375.53-339.92,375.53-339.92s0.16,7.05,0.32,19.54c-95.17,70.66-266.59,205.85-310.99,293.29
					c-62.37,122.83-40.7,259.09,48.38,304.32C874.82,4115.36,908.97,4118.27,943.32,4110.56z" style="fill:#3e76ef"/>
          <path d="M1053.96,3986.6c-27.69,54.54-67.3,97.28-110.64,123.97c-34.35,7.7-68.51,4.8-98.77-10.57
					c-89.07-45.23-110.74-181.48-48.38-304.32c44.4-87.44,215.82-222.63,310.99-293.29
					C1108.11,3581.67,1107.85,3880.47,1053.96,3986.6z" style="fill:#4f91ff"/>
        </g>
      </g>
      <g>
        <g>
          <path d="M3436.79,4769.48c-54.13,33.41-114.08,41.69-163.6,16.54c-89.11-45.25-110.78-181.5-48.41-304.33
					c62.37-122.83,375.53-339.92,375.53-339.92s0.16,7.05,0.32,19.54c-95.17,70.66-266.59,205.85-310.99,293.29
					c-62.37,122.83-40.7,259.09,48.38,304.32C3368.28,4774.28,3402.44,4777.18,3436.79,4769.48z" style="fill:#3e76ef"/>
          <path d="M3547.43,4645.51c-27.69,54.54-67.3,97.28-110.64,123.97c-34.35,7.7-68.51,4.8-98.77-10.57
					c-89.07-45.23-110.74-181.48-48.38-304.32c44.4-87.44,215.82-222.63,310.99-293.29
					C3601.57,4240.58,3601.32,4539.38,3547.43,4645.51z" style="fill:#4f91ff"/>
        </g>
        <g>
          <path d="M2363.46,4769.48c-54.13,33.41-114.08,41.69-163.6,16.54c-89.11-45.25-110.78-181.5-48.41-304.33
					c62.37-122.83,375.53-339.92,375.53-339.92s0.16,7.05,0.32,19.54c-95.17,70.66-266.59,205.85-310.99,293.29
					c-62.37,122.83-40.7,259.09,48.38,304.32C2294.95,4774.28,2329.1,4777.18,2363.46,4769.48z" style="fill:#3e76ef"/>
          <path d="M2474.1,4645.51c-27.69,54.54-67.3,97.28-110.64,123.97c-34.35,7.7-68.51,4.8-98.77-10.57
					c-89.07-45.23-110.74-181.48-48.38-304.32c44.4-87.44,215.82-222.63,310.99-293.29
					C2528.24,4240.58,2527.98,4539.38,2474.1,4645.51z" style="fill:#4f91ff"/>
        </g>
        <g>
          <path d="M1290.12,4769.48c-54.13,33.41-114.08,41.69-163.6,16.54c-89.11-45.25-110.78-181.5-48.41-304.33
					c62.37-122.83,375.53-339.92,375.53-339.92s0.16,7.05,0.32,19.54c-95.17,70.66-266.59,205.85-310.99,293.29
					c-62.37,122.83-40.7,259.09,48.38,304.32C1221.62,4774.28,1255.77,4777.18,1290.12,4769.48z" style="fill:#3e76ef"/>
          <path d="M1400.76,4645.51c-27.69,54.54-67.3,97.28-110.64,123.97c-34.35,7.7-68.51,4.8-98.77-10.57
					c-89.07-45.23-110.74-181.48-48.38-304.32c44.4-87.44,215.82-222.63,310.99-293.29
					C1454.91,4240.58,1454.65,4539.38,1400.76,4645.51z" style="fill:#4f91ff"/>
        </g>
      </g>
    </g>
  </g>
</svg>
