<svg xmlns="http://www.w3.org/2000/svg" xml:space="preserve" id="Layer_1" x="0" y="0" style="enable-background:new 0 0 5000 5000" version="1.1" viewBox="0 0 5000 5000">
  <g>
    <g>
      <g>
        <g>
          <path d="M4871.92,2555.73c0,208.27-97.81,393.72-250.02,512.87c70.95-104.25,112.42-230.18,112.42-365.78
					c0-140.6-44.58-270.85-120.42-377.28c-75.83-106.43-182.85-189.04-307.79-234.5c0.87-12.97,1.53-26.02,1.53-39.12
					c0-94.35-23.75-183.07-65.64-260.66c-92.81-172.22-274.86-289.21-484.23-289.21c-96.53,0-187.15,24.91-265.97,68.55
					c9.03-57.25,13.7-115.9,13.7-175.64c0-621.48-503.83-1125.31-1125.24-1125.31c-72.33,0-143.07,6.84-211.63,19.81
					c-204.33,38.92-389.08,133.09-538.11,266.37c164.6-210.8,402.67-361.45,675.71-413.46c68.56-12.97,139.29-19.81,211.63-19.81
					c621.41,0,1125.24,503.83,1125.24,1125.31c0,59.74-4.66,118.39-13.7,175.64c78.82-43.64,169.45-68.55,265.97-68.55
					c209.37,0,391.43,116.99,484.23,289.21c41.89,77.59,65.64,166.31,65.64,260.66c0,13.1-0.66,26.15-1.53,39.12
					c124.94,45.46,231.95,128.07,307.79,234.5C4827.35,2284.89,4871.92,2415.13,4871.92,2555.73z" style="fill:#bdceec"/>
          <path d="M4734.31,2702.84c0,135.61-41.49,261.51-112.41,365.74c-110.51,86.54-249.73,138.15-400.96,138.15H1139.37
					c-1.3,0-2.55,0-3.85-0.12c-1.3,0.12-2.6,0.12-3.91,0.12c-12.67,0-25.33-0.24-37.88-0.65c-17.52-0.65-34.92-1.78-52.21-3.31
					c-100.51-9-196.69-32.73-286.43-69.08c-27.29-11.01-53.92-23.26-79.97-36.52c-324.72-166.21-547.05-504.08-547.05-893.97
					c0-228.78,76.53-439.62,205.45-608.43c183.32-240.14,472.59-395.05,798.08-395.05c47.06,0,93.35,3.26,138.69,9.53
					c41.73,5.8,82.57,14.15,122.47,24.86c3.08-255.65,91.33-490.76,237.77-678.28c148.99-133.3,333.78-227.47,538.11-266.36
					c68.54-12.96,139.28-19.83,211.61-19.83c621.39,0,1125.23,503.84,1125.23,1125.29c0,59.72-4.68,118.38-13.67,175.68
					c78.78-43.68,169.41-68.54,265.95-68.54c174.97,0,330.88,81.68,431.57,209.12c5.92,7.46,11.6,15.03,17.11,22.79
					c12.96,18.29,24.86,37.41,35.57,57.3c41.85,77.54,65.64,166.27,65.64,260.62c0,13.14-0.65,26.16-1.54,39.13
					c124.95,45.46,231.91,128.09,307.8,234.52C4689.74,2431.98,4734.31,2562.2,4734.31,2702.84z" style="fill:#dde6f5"/>
        </g>
        <path d="M1136.6,1199.73c503.74-47.91,968.14,355.39,1007.41,856.88c1.21,16.01,2.34,33.89,2.62,49.95
				c0.79,33.29-0.3,66.54-3.71,99.48c-3.94-37.06-8.72-73.58-15.55-109.9c-1.98-11.3-4.76-24.84-7.17-36.03
				C2018.03,1580.71,1622.66,1242.44,1136.6,1199.73L1136.6,1199.73z" style="fill:#bdceec"/>
      </g>
      <g>
        <g>
          <g>
            <path d="M4090.48,3915.08c-52.49,32.39-110.62,40.42-158.63,16.04c-86.41-43.87-107.42-175.99-46.94-295.1
						c60.47-119.1,364.13-329.6,364.13-329.6s0.15,6.84,0.31,18.94c-92.28,68.52-258.5,199.6-301.55,284.39
						c-60.47,119.1-39.46,251.22,46.91,295.08C4024.05,3919.74,4057.17,3922.55,4090.48,3915.08z" style="fill:#3e76ef"/>
            <path d="M4197.76,3794.88c-26.85,52.88-65.26,94.33-107.28,120.2c-33.31,7.47-66.43,4.65-95.77-10.25
						c-86.37-43.85-107.38-175.98-46.91-295.08c43.05-84.78,209.27-215.87,301.55-284.39
						C4250.26,3402.24,4250.01,3691.97,4197.76,3794.88z" style="fill:#4f91ff"/>
          </g>
          <g>
            <path d="M3049.72,3915.08c-52.49,32.39-110.62,40.42-158.63,16.04c-86.41-43.87-107.42-175.99-46.94-295.1
						c60.47-119.1,364.13-329.6,364.13-329.6s0.15,6.84,0.31,18.94c-92.28,68.52-258.5,199.6-301.55,284.39
						c-60.47,119.1-39.46,251.22,46.91,295.08C2983.3,3919.74,3016.41,3922.55,3049.72,3915.08z" style="fill:#3e76ef"/>
            <path d="M3157.01,3794.88c-26.85,52.88-65.26,94.33-107.28,120.2c-33.31,7.47-66.43,4.65-95.77-10.25
						c-86.37-43.85-107.38-175.98-46.91-295.08c43.05-84.78,209.27-215.87,301.55-284.39
						C3209.51,3402.24,3209.26,3691.97,3157.01,3794.88z" style="fill:#4f91ff"/>
          </g>
          <g>
            <path d="M2008.97,3915.08c-52.49,32.39-110.62,40.42-158.63,16.04c-86.41-43.87-107.42-175.99-46.94-295.1
						c60.47-119.1,364.13-329.6,364.13-329.6s0.15,6.84,0.31,18.94c-92.28,68.52-258.5,199.6-301.55,284.39
						c-60.47,119.1-39.46,251.22,46.91,295.08C1942.54,3919.74,1975.66,3922.55,2008.97,3915.08z" style="fill:#3e76ef"/>
            <path d="M2116.25,3794.88c-26.85,52.88-65.26,94.33-107.28,120.2c-33.31,7.47-66.43,4.65-95.77-10.25
						c-86.37-43.85-107.38-175.98-46.91-295.08c43.05-84.78,209.27-215.87,301.55-284.39
						C2168.75,3402.24,2168.5,3691.97,2116.25,3794.88z" style="fill:#4f91ff"/>
          </g>
        </g>
        <g>
          <g>
            <path d="M3408.36,4847.19c-52.49,32.39-110.62,40.42-158.63,16.04c-86.41-43.87-107.42-175.99-46.94-295.1
						c60.47-119.1,364.13-329.6,364.13-329.6s0.15,6.84,0.31,18.94c-92.28,68.52-258.5,199.6-301.55,284.39
						c-60.47,119.1-39.46,251.22,46.91,295.08C3341.93,4851.84,3375.05,4854.65,3408.36,4847.19z" style="fill:#3e76ef"/>
            <path d="M3515.64,4726.98c-26.85,52.88-65.26,94.33-107.28,120.2c-33.31,7.47-66.43,4.65-95.77-10.25
						c-86.37-43.85-107.38-175.98-46.91-295.08c43.05-84.78,209.27-215.87,301.55-284.39
						C3568.14,4334.34,3567.9,4624.07,3515.64,4726.98z" style="fill:#4f91ff"/>
          </g>
          <g>
            <path d="M2367.61,4847.19c-52.49,32.39-110.62,40.42-158.63,16.04c-86.41-43.87-107.42-175.99-46.94-295.1
						c60.47-119.1,364.13-329.6,364.13-329.6s0.15,6.84,0.31,18.94c-92.28,68.52-258.5,199.6-301.55,284.39
						c-60.47,119.1-39.46,251.22,46.91,295.08C2301.18,4851.84,2334.3,4854.65,2367.61,4847.19z" style="fill:#3e76ef"/>
            <path d="M2474.89,4726.98c-26.85,52.88-65.26,94.33-107.28,120.2c-33.31,7.47-66.43,4.65-95.77-10.25
						c-86.37-43.85-107.38-175.98-46.91-295.08c43.05-84.78,209.27-215.87,301.55-284.39
						C2527.39,4334.34,2527.14,4624.07,2474.89,4726.98z" style="fill:#4f91ff"/>
          </g>
        </g>
      </g>
    </g>
    <g>
      <path d="M1395.49,3019.1l280.63-32.02c-16.46,26.99-83.28,164.43-115.42,219.66h-421.33c-1.3,0-2.55,0-3.85-0.12
			c-1.3,0.12-2.6,0.12-3.91,0.12c-12.67,0-25.33-0.24-37.88-0.65c-17.52-0.65-34.92-1.78-52.21-3.31l265.95-687.63l431.51-37.41
			L1395.49,3019.1z" style="fill:#ccdbf2"/>
    </g>
    <g>
      <polygon points="1544.58 2664.2 1273.75 3098.04 1197.79 3104.5 1472.67 2664.2" style="fill:#fc4335"/>
      <path d="M1496.67,3079.02c-166.43,272.3-722.28,964.4-722.28,964.4c-2.95-14.95,57.97-129.87,132.73-263.16
			c0-0.09,0.09-0.09,0.09-0.18c167.99-214.7,402.17-520.42,513.49-694.59L1496.67,3079.02z" style="fill:#fc4335"/>
      <path d="M1273.75,3098.04l146.95-12.55c-111.32,174.18-345.5,479.89-513.49,694.59
			c113.9-203.17,259.74-448.88,259.74-448.88l-70.89-0.74l-162.92-1.85l7.57-20.03l242.02-644.38h289.93l-274.89,440.29
			L1273.75,3098.04L1273.75,3098.04z" style="fill:#ffa20e"/>
    </g>
    <g>
      <polygon points="1588.15 3434.5 1468.58 3626.04 1435.04 3628.89 1556.4 3434.5" style="fill:#fc4335"/>
      <path d="M1567,3617.64c-73.48,120.22-318.89,425.78-318.89,425.78c-1.3-6.6,25.59-57.34,58.6-116.18
			c0-0.04,0.04-0.04,0.04-0.08c74.17-94.79,177.56-229.76,226.7-306.66L1567,3617.64z" style="fill:#fc4335"/>
      <path d="M1468.58,3626.04l64.88-5.54c-49.15,76.9-152.54,211.87-226.7,306.66c50.29-89.7,114.68-198.18,114.68-198.18
			l-31.3-0.33l-71.93-0.81l3.34-8.84l106.85-284.49h128l-121.36,194.39L1468.58,3626.04L1468.58,3626.04z" style="fill:#ffa20e"/>
    </g>
  </g>
</svg>
