<svg xmlns="http://www.w3.org/2000/svg" xml:space="preserve" id="Layer_1" x="0" y="0" style="enable-background:new 0 0 5000 5000" version="1.1" viewBox="0 0 5000 5000">
  <g>
    <g>
      <g>
        <g>
          <path d="M4006.63,2033.75c-56.91,775.42-608.3,1457.92-1405.23,1645.35
					c-982.96,231.18-1967.2-378.24-2198.37-1361.16S781.29,350.79,1764.25,119.61c168.9-39.72,337.82-54.63,503.01-47.09
					c-764.43,196.36-1234.65,969.23-1053.13,1741.07c183.85,781.72,966.61,1266.39,1748.33,1082.54
					c406.66-95.64,732.94-353.34,926.55-688.66C3932.59,2152.62,3971.91,2094.51,4006.63,2033.75z" style="fill:#f2f2f2"/>
          <path d="M3889.03,2207.46c-193.62,335.33-519.89,593.02-926.55,688.66C2180.76,3079.97,1398,2595.3,1214.14,1813.58
					C1032.62,1041.73,1502.84,268.87,2267.27,72.5c18.87,0.89,37.71,2.04,56.48,3.54c-59.58,22.88-116.83,49.68-171.52,79.94
					c-592.52,267.96-932.39,925.63-777.89,1582.54c175.55,746.44,922.98,1209.27,1669.42,1033.72
					c284.11-66.82,527.07-216.45,709.45-417.33C3802.15,2308.99,3847.55,2259.68,3889.03,2207.46z" style="fill:#e6e6e6"/>
          <path d="M3753.22,2354.91c-182.38,200.88-425.35,350.51-709.45,417.33
					c-746.44,175.55-1493.87-287.28-1669.42-1033.72c-154.5-656.92,185.37-1314.58,777.89-1582.54
					c-523.16,289.75-812.76,901.27-669.08,1512.16c173.23,736.57,910.77,1193.24,1647.34,1020.01
					C3372.39,2631.26,3584.11,2513.5,3753.22,2354.91z" style="fill:#ddd"/>
        </g>
        <g>
          <g>
            <path d="M928.51,1520.63c-19.09-9.66-39.99-14.64-61.75-13.98c-85.41,2.68-151.91,91.77-148.52,198.92
						c1.36,43.7,14.13,83.59,34.56,115.39c-55.88-27.97-96.45-95.35-98.99-175.23c-3.34-107.17,63.16-196.25,148.57-198.94
						C852.99,1445.22,898.86,1474.33,928.51,1520.63z" style="fill:#ccc"/>
            <path d="M963.07,1636.02c3.34,107.17-63.16,196.25-148.52,198.92c-21.76,0.66-42.66-4.32-61.75-13.98
						c-20.42-31.8-33.2-71.69-34.56-115.39c-3.39-107.16,63.11-196.24,148.52-198.92c21.76-0.66,42.66,4.32,61.75,13.98
						C948.98,1552.41,961.72,1592.37,963.07,1636.02z" style="fill:#e6e6e6"/>
          </g>
          <g>
            <path d="M1479.98,2932.12c-8.05,22.64-21.64,42.56-40.67,57.7c-65.92,52.39-172.61,27.89-238.28-54.72
						c-64.86-81.6-65.53-189.4-1.97-242.5c-19.81,55.7-6.39,128.03,40.29,186.76c65.68,82.62,172.37,107.12,238.24,54.74
						C1478.4,2933.46,1479.21,2932.78,1479.98,2932.12z" style="fill:#ccc"/>
            <path d="M1479.98,2932.12c-0.76,0.67-1.57,1.34-2.4,1.97c-65.87,52.38-172.56,27.88-238.24-54.74
						c-46.68-58.73-60.1-131.05-40.29-186.76c0.77-0.66,1.53-1.33,2.35-1.96c65.92-52.39,172.56-27.88,238.24,54.74
						C1486.37,2804.09,1499.79,2876.41,1479.98,2932.12z" style="fill:#e6e6e6"/>
          </g>
          <g>
            <path d="M3268.17,2979.55c22.64,8.05,42.56,21.64,57.7,40.67c52.39,65.92,27.89,172.61-54.72,238.28
						c-81.6,64.86-189.4,65.53-242.5,1.97c55.7,19.81,128.03,6.39,186.76-40.29c82.62-65.68,107.12-172.37,54.74-238.24
						C3269.51,2981.13,3268.84,2980.32,3268.17,2979.55z" style="fill:#ccc"/>
            <path d="M3268.17,2979.55c0.67,0.76,1.34,1.57,1.97,2.4c52.38,65.87,27.88,172.56-54.74,238.24
						c-58.73,46.68-131.05,60.1-186.76,40.29c-0.66-0.77-1.33-1.53-1.96-2.35c-52.39-65.92-27.88-172.56,54.74-238.24
						C3140.15,2973.16,3212.47,2959.74,3268.17,2979.55z" style="fill:#e6e6e6"/>
          </g>
          <g>
            <path d="M906.45,2416.69c-6.81,5.03-14.7,8.18-23.24,8.86c-29.57,2.34-55.92-25.82-58.85-62.88
						c-2.89-36.61,18.12-68.24,47.15-71.24c-16.75,12.38-27.06,36.15-24.98,62.5c2.93,37.06,29.28,65.22,58.84,62.87
						C905.73,2416.77,906.1,2416.73,906.45,2416.69z" style="fill:#ccc"/>
            <path d="M906.45,2416.69c-0.35,0.04-0.72,0.08-1.09,0.1c-29.55,2.34-55.91-25.81-58.84-62.87
						c-2.08-26.35,8.23-50.12,24.98-62.5c0.35-0.04,0.71-0.09,1.07-0.11c29.57-2.34,55.91,25.81,58.84,62.87
						C933.52,2380.54,923.21,2404.31,906.45,2416.69z" style="fill:#e6e6e6"/>
          </g>
          <g>
            <path d="M1757.36,3446.32c1.54,8.32,0.92,16.8-2.21,24.77c-10.84,27.61-47.69,38.98-82.3,25.4
						c-34.18-13.42-53.42-46.16-43.42-73.57c3.8,20.48,20.66,40.15,45.26,49.81c34.61,13.59,71.46,2.21,82.28-25.39
						C1757.12,3447,1757.25,3446.65,1757.36,3446.32z" style="fill:#ccc"/>
            <path d="M1757.36,3446.32c-0.12,0.34-0.24,0.69-0.38,1.02c-10.83,27.6-47.67,38.97-82.28,25.39
						c-24.6-9.66-41.46-29.33-45.26-49.81c0.12-0.34,0.23-0.68,0.37-1.01c10.84-27.61,47.67-38.97,82.28-25.39
						C1736.71,3406.16,1753.57,3425.84,1757.36,3446.32z" style="fill:#e6e6e6"/>
          </g>
          <g>
            <path d="M2211.24,3192.28c2.48,13.36,1.47,26.95-3.54,39.75c-17.4,44.31-76.52,62.55-132.06,40.75
						c-54.84-21.53-85.72-74.07-69.68-118.05c6.09,32.86,33.15,64.43,72.62,79.93c55.54,21.8,114.66,3.55,132.04-40.73
						C2210.85,3193.38,2211.06,3192.82,2211.24,3192.28z" style="fill:#ccc"/>
            <path d="M2211.24,3192.28c-0.19,0.54-0.39,1.1-0.61,1.64c-17.38,44.29-76.5,62.54-132.04,40.73
						c-39.47-15.5-66.53-47.07-72.62-79.93c0.19-0.54,0.37-1.08,0.6-1.62c17.4-44.3,76.5-62.54,132.04-40.73
						C2178.09,3127.85,2205.15,3159.42,2211.24,3192.28z" style="fill:#e6e6e6"/>
          </g>
          <g>
            <path d="M911.4,1093.05c-8.23-1.99-15.71-6.02-21.71-12.14c-20.77-21.18-16.1-59.45,10.45-85.49
						c26.21-25.71,63.96-29.9,84.89-9.57c-20.24-4.9-45.09,2.45-63.96,20.96c-26.54,26.04-31.22,64.31-10.45,85.47
						C910.87,1092.55,911.14,1092.81,911.4,1093.05z" style="fill:#ccc"/>
            <path d="M911.4,1093.05c-0.26-0.24-0.53-0.5-0.78-0.77c-20.77-21.16-16.09-59.44,10.45-85.47
						c18.87-18.51,43.71-25.86,63.96-20.96c0.26,0.24,0.52,0.49,0.77,0.75c20.77,21.18,16.09,59.44-10.45,85.47
						C956.49,1090.6,931.64,1097.95,911.4,1093.05z" style="fill:#e6e6e6"/>
          </g>
        </g>
      </g>
      <g>
        <g>
          <g>
            <g>
              <path d="M4645.94,3459.84c0,150.88-70.86,285.22-181.12,371.55c51.4-75.53,81.44-166.75,81.44-264.98
							c0-101.86-32.29-196.21-87.24-273.32c-54.94-77.1-132.46-136.95-222.97-169.88c0.63-9.4,1.11-18.85,1.11-28.34
							c0-68.35-17.2-132.63-47.55-188.83c-67.23-124.76-199.12-209.51-350.8-209.51c-69.93,0-135.58,18.04-192.68,49.66
							c6.54-41.48,9.92-83.97,9.92-127.24c0-450.22-364.99-815.21-815.17-815.21c-52.4,0-103.65,4.96-153.31,14.35
							c-148.02,28.19-281.86,96.41-389.83,192.96c119.25-152.71,291.71-261.85,489.51-299.53c49.66-9.4,100.91-14.35,153.31-14.35
							c450.17,0,815.17,364.99,815.17,815.21c0,43.27-3.38,85.76-9.92,127.24c57.1-31.61,122.75-49.66,192.68-49.66
							c151.67,0,283.56,84.75,350.79,209.51c30.35,56.21,47.55,120.48,47.55,188.83c0,9.49-0.48,18.94-1.11,28.34
							c90.51,32.93,168.04,92.78,222.97,169.88C4613.65,3263.62,4645.94,3357.98,4645.94,3459.84z" style="fill:#bdceec"/>
              <path d="M4546.28,3566.43c0,98.21-30.11,189.44-81.48,264.95c-50.78,39.78-109.98,69.36-174.44,85.67
							c-37.1,9.44-75.99,14.4-116.02,14.4H1941.91c-0.9,0-1.79,0-2.75-0.06c-0.96,0.06-1.91,0.06-2.87,0.06
							c-9.14,0-18.34-0.18-27.42-0.48c-86.5-3.23-169.12-21.57-245.29-52.39c-19.77-8.01-39.07-16.91-57.95-26.47
							c-235.26-120.44-396.32-365.19-396.32-647.64c0-165.72,55.44-318.47,148.87-440.76c132.74-173.96,342.31-286.22,578.1-286.22
							c34.11,0,67.62,2.39,100.48,6.93c30.23,4.18,59.86,10.22,88.71,17.98c2.27-185.19,66.19-355.51,172.29-491.36
							c107.89-96.54,241.77-164.76,389.8-192.96c49.64-9.38,100.9-14.34,153.29-14.34c450.14,0,815.15,364.95,815.15,815.21
							c0,43.25-3.35,85.73-9.92,127.25c57.11-31.66,122.77-49.64,192.72-49.64c126.71,0,239.68,59.14,312.62,151.5
							c4.3,5.38,8.42,10.87,12.36,16.49c9.44,13.26,18.04,27.12,25.81,41.52c30.29,56.16,47.55,120.43,47.55,188.78
							c0,9.56-0.48,18.94-1.13,28.38c90.51,32.92,167.99,92.77,223.01,169.9C4513.96,3370.18,4546.28,3464.51,4546.28,3566.43z" style="fill:#dde6f5"/>
            </g>
            <path d="M1939.93,2477.5c364.93-34.71,701.36,257.46,729.8,620.75c0.88,11.59,1.69,24.55,1.9,36.19
						c0.57,24.12-0.21,48.2-2.69,72.07c-2.85-26.85-6.32-53.31-11.27-79.61c-1.44-8.19-3.45-17.99-5.2-26.1
						C2578.47,2753.49,2292.05,2508.44,1939.93,2477.5L1939.93,2477.5z" style="fill:#bdceec"/>
          </g>
          <g>
            <g>
              <g>
                <path d="M1767.4,4444.6c-38.03,23.47-80.13,29.28-114.92,11.62c-62.6-31.78-77.82-127.5-34.01-213.78
								c43.81-86.28,263.79-238.78,263.79-238.78s0.11,4.95,0.22,13.72c-66.85,49.64-187.27,144.6-218.45,206.02
								c-43.81,86.28-28.59,182,33.98,213.77C1719.28,4447.97,1743.27,4450.01,1767.4,4444.6z" style="fill:#3e76ef"/>
                <path d="M1845.12,4357.52c-19.45,38.31-47.28,68.34-77.72,87.08c-24.13,5.41-48.12,3.37-69.38-7.42
								c-62.57-31.77-77.79-127.48-33.98-213.77c31.19-61.42,151.6-156.39,218.45-206.02
								C1883.16,4073.08,1882.98,4282.97,1845.12,4357.52z" style="fill:#4f91ff"/>
              </g>
              <g>
                <path d="M3325.87,4444.6c-38.03,23.47-80.13,29.28-114.92,11.62c-62.6-31.78-77.82-127.5-34.01-213.78
								c43.81-86.28,263.79-238.78,263.79-238.78s0.11,4.95,0.22,13.72c-66.85,49.64-187.27,144.6-218.45,206.02
								c-43.81,86.28-28.59,182,33.98,213.77C3277.75,4447.97,3301.74,4450.01,3325.87,4444.6z" style="fill:#3e76ef"/>
                <path d="M3403.59,4357.52c-19.45,38.31-47.28,68.34-77.72,87.08c-24.13,5.41-48.12,3.37-69.38-7.42
								c-62.57-31.77-77.79-127.48-33.98-213.77c31.19-61.42,151.6-156.39,218.45-206.02
								C3441.62,4073.08,3441.44,4282.97,3403.59,4357.52z" style="fill:#4f91ff"/>
              </g>
              <g>
                <path d="M2571.91,4444.6c-38.03,23.47-80.13,29.28-114.92,11.62c-62.6-31.78-77.82-127.5-34.01-213.78
								c43.81-86.28,263.79-238.78,263.79-238.78s0.11,4.95,0.22,13.72c-66.85,49.64-187.27,144.6-218.45,206.02
								c-43.81,86.28-28.59,182,33.98,213.77C2523.79,4447.97,2547.78,4450.01,2571.91,4444.6z" style="fill:#3e76ef"/>
                <path d="M2649.63,4357.52c-19.45,38.31-47.28,68.34-77.72,87.08c-24.13,5.41-48.12,3.37-69.38-7.42
								c-62.57-31.77-77.79-127.48-33.98-213.77c31.19-61.42,151.6-156.39,218.45-206.02
								C2687.66,4073.08,2687.48,4282.97,2649.63,4357.52z" style="fill:#4f91ff"/>
              </g>
            </g>
            <g>
              <g>
                <path d="M2831.72,4907.46c-38.03,23.47-80.13,29.28-114.92,11.62c-62.6-31.78-77.82-127.5-34.01-213.78
								c43.81-86.28,263.79-238.78,263.79-238.78s0.11,4.95,0.22,13.72c-66.85,49.64-187.27,144.6-218.45,206.02
								c-43.81,86.28-28.59,182,33.98,213.77C2783.6,4910.83,2807.59,4912.87,2831.72,4907.46z" style="fill:#3e76ef"/>
                <path d="M2909.44,4820.37c-19.45,38.31-47.28,68.34-77.72,87.08c-24.13,5.41-48.12,3.37-69.38-7.42
								c-62.57-31.77-77.79-127.48-33.98-213.77c31.19-61.42,151.6-156.39,218.45-206.02
								C2947.47,4535.93,2947.29,4745.82,2909.44,4820.37z" style="fill:#4f91ff"/>
              </g>
              <g>
                <path d="M2077.76,4907.46c-38.03,23.47-80.13,29.28-114.92,11.62c-62.6-31.78-77.82-127.5-34.01-213.78
								c43.81-86.28,263.79-238.78,263.79-238.78s0.11,4.95,0.22,13.72c-66.85,49.64-187.27,144.6-218.45,206.02
								c-43.81,86.28-28.59,182,33.98,213.77C2029.64,4910.83,2053.63,4912.87,2077.76,4907.46z" style="fill:#3e76ef"/>
                <path d="M2155.48,4820.37c-19.45,38.31-47.28,68.34-77.72,87.08c-24.13,5.41-48.12,3.37-69.38-7.42
								c-62.57-31.77-77.79-127.48-33.98-213.77c31.19-61.42,151.6-156.39,218.45-206.02
								C2193.51,4535.93,2193.33,4745.82,2155.48,4820.37z" style="fill:#4f91ff"/>
              </g>
            </g>
          </g>
        </g>
      </g>
    </g>
    <g>
      <g>
        <path d="M4225.95,3845.71l181.61-20.73c-11.89,19.48-26.46,41.76-43.07,66.25c-24.02,10.04-48.75,18.7-74.14,25.81
				c-37.1,9.44-75.99,14.4-116.02,14.4h-160.22l154.85-411.91l279.28-24.19L4225.95,3845.71z" style="fill:#ccdbf2"/>
      </g>
      <g>
        <polygon points="4330.92 3569.72 4102.89 3935 4038.92 3940.44 4270.37 3569.72" style="fill:#fc4335"/>
        <path d="M4290.58,3918.99C4150.45,4148.26,3682.43,4731,3682.43,4731c-2.49-12.59,48.81-109.35,111.76-221.58
				c0-0.08,0.08-0.08,0.08-0.16c141.45-180.78,338.62-438.18,432.35-584.84L4290.58,3918.99z" style="fill:#fc4335"/>
        <path d="M4102.89,3935l123.73-10.57c-93.73,146.66-290.9,404.06-432.35,584.84
				c95.91-171.06,218.7-377.95,218.7-377.95l-59.69-0.62l-137.17-1.55l6.37-16.86l203.78-542.56h244.12l-231.45,370.72L4102.89,3935
				L4102.89,3935z" style="fill:#ffa20e"/>
      </g>
      <g>
        <polygon points="4350.63 4114.54 4273.25 4238.5 4251.54 4240.35 4330.09 4114.54" style="fill:#fc4335"/>
        <path d="M4336.94,4233.07c-47.55,77.81-206.38,275.57-206.38,275.57c-0.84-4.27,16.56-37.11,37.93-75.19
				c0-0.03,0.03-0.03,0.03-0.05c48-61.35,114.92-148.7,146.72-198.47L4336.94,4233.07z" style="fill:#fc4335"/>
        <path d="M4273.25,4238.5l41.99-3.59c-31.81,49.77-98.72,137.12-146.72,198.47
				c32.55-58.05,74.22-128.26,74.22-128.26l-20.26-0.21l-46.55-0.53l2.16-5.72l69.16-184.12h82.84l-78.55,125.81L4273.25,4238.5
				L4273.25,4238.5z" style="fill:#ffa20e"/>
      </g>
    </g>
  </g>
</svg>
