<svg xmlns="http://www.w3.org/2000/svg" xml:space="preserve" id="Layer_1" x="0" y="0" style="enable-background:new 0 0 5000 5000" version="1.1" viewBox="0 0 5000 5000">
  <g>
    <g>
      <path d="M4562.39,3184.71H3531.11c-17.88-578.42-492.38-1041.83-1075.14-1041.83S1398.72,2606.3,1380.84,3184.71
			H349.56c18.08-1147.88,954.22-2072.84,2106.42-2072.84S4544.31,2036.83,4562.39,3184.71z" style="fill:#f16065"/>
      <path d="M4370.9,3184.71h-839.79c-17.88-578.42-492.38-1041.83-1075.14-1041.83S1398.72,2606.3,1380.84,3184.71
			H541.06c18.05-1042.13,868.47-1881.37,1914.91-1881.37S4352.84,2142.58,4370.9,3184.71z" style="fill:#ffa20e"/>
      <path d="M4194.13,3184.71h-663.02c-17.88-578.42-492.38-1041.83-1075.14-1041.83S1398.72,2606.3,1380.84,3184.71
			H717.82c18.03-944.51,789.34-1704.63,1738.15-1704.63S4176.1,2240.2,4194.13,3184.71z" style="fill:#feee6e"/>
      <path d="M4009.97,3184.71h-478.86c-17.88-578.42-492.38-1041.83-1075.14-1041.83S1398.72,2606.3,1380.84,3184.71
			H901.98c18-842.81,706.85-1520.51,1553.99-1520.51S3991.96,2341.9,4009.97,3184.71z" style="fill:#c5e458"/>
      <path d="M3833.19,3184.71h-302.08c-17.88-578.42-492.38-1041.83-1075.14-1041.83S1398.72,2606.3,1380.84,3184.71
			h-302.08c17.98-745.19,627.69-1343.77,1377.21-1343.77S3815.21,2439.52,3833.19,3184.71z" style="fill:#50b0ff"/>
      <path d="M3678.48,3184.71h-147.37c-17.88-578.42-492.38-1041.83-1075.14-1041.83S1398.72,2606.3,1380.84,3184.71
			h-147.37c17.94-659.77,558.4-1189.12,1222.5-1189.12S3660.54,2524.94,3678.48,3184.71z" style="fill:#9f45ff"/>
      <path d="M3531.11,3184.71h-143.34c-17.82-499.28-428.18-898.57-931.8-898.57s-913.97,399.29-931.8,898.57h-143.34
			c17.88-578.42,492.38-1041.83,1075.14-1041.83S3513.23,2606.3,3531.11,3184.71z" style="fill:#f99dfc"/>
    </g>
    <g>
      <path d="M4861.19,3056.34c-3.53-4.69-7.2-9.32-11-13.88c-0.37-0.43-0.75-0.88-1.14-1.34
			c-3.73-4.44-7.59-8.8-11.57-13.08c-0.99-1.06-1.99-2.14-3.01-3.2c-2.02-2.13-4.07-4.23-6.15-6.32c-0.76-0.77-1.53-1.54-2.3-2.28
			c-1.37-1.37-2.76-2.71-4.15-4.06c-1.03-0.98-2.06-1.95-3.1-2.93c-1.08-1.01-2.17-2.03-3.27-3.03c-0.99-0.92-1.99-1.82-2.99-2.72
			c-4.58-4.09-9.27-8.11-14.09-12.05c-1.14-0.93-2.29-1.86-3.45-2.77c-3.54-2.83-7.16-5.61-10.82-8.33
			c-1.22-0.92-2.44-1.82-3.68-2.71c-1.25-0.9-2.48-1.8-3.74-2.69c-1.12-0.81-2.27-1.61-3.42-2.39c-0.79-0.56-1.59-1.11-2.39-1.65
			c-0.89-0.62-1.78-1.23-2.69-1.83c-1.01-0.68-2.02-1.36-3.03-2.02c-1.17-0.78-2.35-1.55-3.53-2.32c-0.16-0.1-0.31-0.21-0.46-0.29
			c-1.03-0.67-2.06-1.33-3.1-1.98c-1.06-0.68-2.13-1.36-3.2-2.02c-1.34-0.84-2.7-1.66-4.06-2.48c-1.21-0.73-2.42-1.47-3.64-2.19
			c-5.94-3.52-12-6.92-18.17-10.18c-1.39-0.75-2.8-1.48-4.21-2.2c-7.31-3.77-14.77-7.37-22.38-10.78c-0.99-0.44-1.99-0.88-2.99-1.32
			c-8.86-3.9-17.92-7.53-27.18-10.9c-1.07-0.4-2.15-0.78-3.24-1.16c-3.75-1.34-7.53-2.64-11.35-3.89c-1.05-0.34-2.1-0.68-3.16-1.01
			c-2.16-0.71-4.34-1.38-6.54-2.04c-3.1-0.95-6.23-1.87-9.37-2.74c-1.54-0.44-3.08-0.86-4.62-1.27c-0.13-0.05-0.28-0.09-0.43-0.11
			c-1.19-0.34-2.38-0.65-3.58-0.95c-0.64-0.17-1.27-0.34-1.92-0.5c-1.22-0.32-2.44-0.62-3.67-0.93c-0.26-0.06-0.53-0.13-0.79-0.2
			c-1.44-0.35-2.88-0.71-4.34-1.04c-0.18-0.05-0.37-0.1-0.56-0.13c-1.45-0.34-2.91-0.68-4.36-1c-2.19-0.5-4.39-0.98-6.6-1.44
			c-1.2-0.26-2.38-0.5-3.59-0.75c-5.01-1.01-10.05-1.95-15.15-2.82c-177.8-30.19-344.05,42.94-410.01,169.21
			c-9.02-2.43-18.22-4.44-27.61-6.04c-2.92-0.5-5.85-0.95-8.77-1.36c-0.96-0.13-1.94-0.27-2.92-0.39c-0.88-0.12-1.77-0.23-2.66-0.33
			c-0.57-0.07-1.15-0.15-1.72-0.21c-0.88-0.1-1.76-0.2-2.63-0.29c-1.05-0.11-2.09-0.21-3.14-0.31c-1.04-0.1-2.08-0.2-3.1-0.28
			c-1.04-0.09-2.08-0.17-3.12-0.24c-1.03-0.07-2.06-0.15-3.09-0.21c-1.03-0.07-2.04-0.12-3.05-0.18c-1.05-0.05-2.1-0.11-3.14-0.15
			c-1.03-0.04-2.06-0.07-3.09-0.11c-2.02-0.07-4.03-0.11-6.04-0.13c-89.92-0.98-173.45,39.38-228.98,105.74
			c-1.34,1.6-2.66,3.21-3.97,4.84c-1.31,1.64-2.59,3.27-3.86,4.94c-2.54,3.32-5.02,6.7-7.43,10.13c-0.6,0.86-1.2,1.72-1.8,2.59
			c-1.19,1.72-2.36,3.47-3.51,5.23c-1.15,1.76-2.28,3.53-3.4,5.31c-1.11,1.8-2.21,3.59-3.29,5.4c-1.07,1.82-2.14,3.64-3.18,5.49
			c-1.04,1.83-2.06,3.69-3.07,5.56c-1,1.87-1.98,3.75-2.94,5.64c-1.93,3.79-3.77,7.62-5.55,11.51c-0.88,1.94-1.75,3.9-2.59,5.86
			c-1.27,2.96-2.48,5.93-3.67,8.93c-0.78,2.02-1.54,4.03-2.28,6.05c-1.11,3.04-2.17,6.12-3.19,9.21c-1.01,3.09-1.98,6.21-2.9,9.35
			c-0.92,3.15-1.78,6.32-2.6,9.51c-1.36,5.33-2.58,10.71-3.65,16.16c-29.87-18.95-63.93-32.39-101.01-38.68
			c-134.45-22.83-262.64,56.11-305.7,180.91c-19.85-9.86-41.49-17.02-64.46-20.92c-126.9-21.55-247.21,63.82-268.74,190.71
			c-1.33,7.81-2.25,15.56-2.77,23.29c-24.5-26.39-42.75-58.3-52.96-93.18c-9.63-32.84-12.13-68.33-6.01-104.36
			c21.55-126.89,141.86-212.26,268.74-190.71c22.97,3.9,44.61,11.06,64.46,20.92c43.07-124.8,171.26-203.75,305.7-180.91
			c37.08,6.29,71.14,19.73,101.01,38.68c30.79-156.06,180.54-260.05,338.31-233.25c9.4,1.59,18.59,3.6,27.61,6.04
			c65.96-126.27,232.22-199.41,410.01-169.21c126,21.39,229.4,89.87,286.26,178.14C4843.87,2949.4,4860.98,3002.13,4861.19,3056.34z
			" style="fill:#ecf3fb"/>
      <path d="M4861.19,3056.34c-0.84,12.83-3.2,36.77-5.4,49.72c-0.73,4.3-1.53,8.58-2.41,12.82
			c-0.13-0.12-0.26-0.26-0.39-0.38c-1.14-1.1-2.27-2.19-3.42-3.29c-1-0.94-2-1.88-3.01-2.81c-3.96-3.69-7.99-7.29-12.11-10.82
			c-0.81-0.71-1.62-1.41-2.46-2.1c-4.23-3.6-8.54-7.12-12.93-10.56c-1-0.78-2.03-1.58-3.04-2.36c-1.7-1.32-3.41-2.61-5.14-3.91
			c-1-0.75-2-1.49-3.03-2.24c-0.28-0.21-0.55-0.42-0.83-0.61c-0.99-0.72-2-1.45-3.01-2.16c-1.55-1.11-3.09-2.2-4.66-3.29
			c-0.81-0.56-1.62-1.14-2.44-1.69c-0.87-0.61-1.75-1.2-2.61-1.78c-0.99-0.67-1.98-1.32-2.97-1.98
			c-10.19-6.77-20.7-13.11-31.51-19.01c-1.27-0.7-2.57-1.39-3.85-2.08c-6.45-3.43-13-6.71-19.65-9.83c-1.33-0.61-2.65-1.23-4-1.83
			c-2.68-1.23-5.36-2.43-8.08-3.59c-1.28-0.55-2.55-1.1-3.85-1.64c-0.13-0.06-0.28-0.12-0.42-0.17c-1.31-0.55-2.61-1.09-3.91-1.61
			c-1.05-0.43-2.09-0.85-3.13-1.27c-1.81-0.73-3.64-1.44-5.47-2.14c-1.05-0.39-2.13-0.81-3.19-1.2c-1.11-0.43-2.24-0.83-3.36-1.23
			c-1.19-0.44-2.36-0.87-3.54-1.28c-1.22-0.43-2.46-0.86-3.69-1.28c-2.41-0.84-4.83-1.64-7.25-2.42c-1.28-0.42-2.56-0.83-3.86-1.23
			c-1.06-0.34-2.15-0.67-3.23-1c-0.84-0.26-1.69-0.51-2.53-0.76c-0.99-0.29-1.99-0.6-2.98-0.88c-1.33-0.39-2.69-0.78-4.04-1.16
			c-1.58-0.45-3.15-0.87-4.74-1.3c-1.34-0.37-2.66-0.71-4.01-1.06c-5.77-1.49-11.58-2.87-17.46-4.12c-1.55-0.34-3.09-0.66-4.63-0.97
			c-4.64-0.94-9.31-1.82-14.01-2.63c-178.45-30.3-349.88,53.41-439.75,198.26c-5.6-2.71-11.35-5.22-17.21-7.53
			c-15.93-6.27-32.74-11-50.3-13.98c-122.92-20.87-240.11,51.02-279.98,164.85c-0.93-0.6-1.87-1.19-2.82-1.77
			c-0.81-0.51-1.62-1-2.44-1.49c-0.88-0.54-1.77-1.07-2.66-1.59c-0.88-0.53-1.78-1.05-2.69-1.56s-1.81-1.03-2.71-1.51
			c-0.89-0.51-1.81-1-2.72-1.49c-2.75-1.49-5.53-2.92-8.34-4.3c-0.93-0.45-1.87-0.92-2.81-1.34c-0.94-0.46-1.89-0.9-2.85-1.34
			c-1.78-0.83-3.6-1.64-5.42-2.42c-4.13-1.8-8.33-3.48-12.6-5.06c-3.2-1.19-6.44-2.31-9.7-3.36c-1.08-0.37-2.18-0.71-3.27-1.05
			c-1.07-0.33-2.15-0.65-3.24-0.99c-0.04,0-0.06-0.01-0.09-0.02c-0.94-0.27-1.91-0.54-2.86-0.82c-0.64-0.17-1.26-0.35-1.89-0.53
			c-0.92-0.26-1.84-0.5-2.77-0.75c-1.92-0.51-3.86-0.99-5.83-1.45c-1.12-0.27-2.26-0.53-3.4-0.78c-4.29-0.97-8.65-1.82-13.05-2.57
			c-0.04,0-0.06-0.01-0.1-0.01c-0.87-0.16-1.73-0.31-2.6-0.43c-0.64-0.11-1.26-0.21-1.89-0.29c-1.06-0.17-2.1-0.33-3.16-0.46
			c-1.51-0.21-3.05-0.42-4.57-0.6c-1.17-0.15-2.35-0.27-3.52-0.4c-0.55-0.06-1.12-0.11-1.67-0.16c-0.85-0.1-1.7-0.17-2.54-0.24
			c-0.51-0.06-1.01-0.1-1.51-0.13c-1.25-0.1-2.48-0.21-3.71-0.28c-1.44-0.11-2.9-0.2-4.35-0.27h-0.01c-1.45-0.09-2.9-0.13-4.35-0.18
			c-119.85-4.13-228.09,77.57-256.44,194.87c-0.01,0.06-0.02,0.11-0.04,0.18c-0.44,1.83-0.87,3.65-1.27,5.51
			c-0.82,3.81-1.56,7.66-2.22,11.55c-0.6,3.48-1.11,6.95-1.56,10.42c-0.18,1.43-0.34,2.85-0.5,4.26c-0.06,0.55-0.13,1.1-0.18,1.66
			c-0.12,1.22-0.26,2.43-0.35,3.64c-0.65,7.11-0.98,14.17-1.03,21.2c-13.89-6.65-27.11-14.37-39.56-22.99
			c-47.84,92.31-151.34,147.44-259.34,129.09c-21.31-3.62-41.51-9.87-60.33-18.39c-5.72-5.07-11.17-10.41-16.35-15.99
			c-24.5-26.39-42.75-58.3-52.96-93.18c34.43-118.19,152.74-194.37,277.06-173.25c24.23,4.12,47.05,11.67,67.99,22.06
			c45.42-131.64,180.65-214.92,322.46-190.83c39.11,6.63,75.04,20.82,106.55,40.81c29.27-148.33,160.41-252.07,307.84-250.47
			c16.19,0.18,32.57,1.62,49.03,4.42c9.91,1.69,19.61,3.8,29.11,6.37c69.58-133.19,244.96-210.33,432.49-178.48
			c77.69,13.18,147.22,43.34,203.56,84.7C4843.87,2949.4,4860.98,3002.13,4861.19,3056.34z" style="fill:#ccdbf2"/>
      <path d="M4861.19,3056.34c-0.84,12.83-3.2,36.77-5.4,49.72c-0.73,4.3-1.53,8.58-2.41,12.82
			c-5.38,26.28-13.39,51.39-23.71,75.1c-2.38-2.48-4.8-4.94-7.26-7.35c-1-0.99-2-1.97-3.01-2.94c-1.08-1.04-2.16-2.08-3.25-3.12
			c-0.94-0.89-1.89-1.78-2.85-2.66c-3.75-3.49-7.58-6.92-11.47-10.26c-0.77-0.67-1.55-1.33-2.33-1.99
			c-4.01-3.42-8.1-6.76-12.25-10.01c-0.95-0.75-1.92-1.49-2.88-2.24c-1.61-1.25-3.24-2.48-4.87-3.7c-0.95-0.71-1.91-1.42-2.87-2.13
			c-0.27-0.2-0.52-0.39-0.79-0.57c-0.94-0.68-1.89-1.38-2.85-2.05c-1.47-1.05-2.93-2.09-4.41-3.11c-0.77-0.54-1.54-1.08-2.32-1.6
			c-0.82-0.57-1.65-1.14-2.48-1.69c-0.93-0.64-1.87-1.26-2.81-1.88c-9.66-6.41-19.62-12.43-29.87-18.02
			c-1.21-0.66-2.43-1.32-3.65-1.97c-6.11-3.26-12.31-6.36-18.62-9.32c-1.26-0.59-2.52-1.17-3.79-1.75c-2.54-1.16-5.08-2.3-7.66-3.4
			c-1.21-0.53-2.42-1.05-3.64-1.55c-0.13-0.06-0.27-0.12-0.4-0.17c-1.23-0.51-2.47-1.03-3.7-1.53c-0.99-0.4-1.98-0.81-2.97-1.2
			c-1.71-0.7-3.45-1.37-5.18-2.03c-1-0.38-2.02-0.77-3.03-1.14c-1.05-0.4-2.11-0.79-3.18-1.17c-1.12-0.42-2.24-0.82-3.36-1.21
			c-1.16-0.42-2.33-0.82-3.51-1.22c-2.27-0.79-4.57-1.55-6.87-2.3c-1.21-0.39-2.43-0.78-3.65-1.16c-1.01-0.33-2.04-0.65-3.07-0.95
			c-0.79-0.24-1.6-0.49-2.39-0.72c-0.94-0.28-1.88-0.56-2.82-0.83c-1.27-0.38-2.55-0.75-3.84-1.1c-1.49-0.43-2.99-0.83-4.5-1.23
			c-1.27-0.34-2.53-0.67-3.8-1c-5.46-1.42-10.98-2.72-16.56-3.91c-1.47-0.32-2.92-0.62-4.39-0.92c-4.4-0.89-8.82-1.72-13.28-2.48
			c-169.17-28.73-331.7,50.63-416.89,187.95c-5.31-2.57-10.76-4.95-16.32-7.14c-15.1-5.94-31.04-10.42-47.68-13.24
			c-116.53-19.79-227.63,48.37-265.43,156.27c-0.88-0.56-1.77-1.12-2.68-1.67c-0.77-0.49-1.54-0.95-2.32-1.42
			c-0.83-0.51-1.67-1.01-2.52-1.5c-0.84-0.5-1.7-1-2.55-1.48c-0.86-0.49-1.71-0.98-2.57-1.44c-0.86-0.49-1.72-0.95-2.59-1.42
			c-2.6-1.41-5.24-2.76-7.9-4.07c-0.88-0.43-1.77-0.87-2.66-1.28c-0.89-0.44-1.8-0.85-2.7-1.27c-1.7-0.78-3.42-1.55-5.14-2.3
			c-3.92-1.7-7.9-3.3-11.95-4.79c-3.03-1.12-6.1-2.19-9.19-3.19c-1.03-0.34-2.06-0.67-3.1-0.99c-1.03-0.32-2.04-0.62-3.08-0.94
			c-0.02,0-0.05-0.01-0.07-0.02c-0.89-0.26-1.81-0.51-2.71-0.78c-0.6-0.16-1.2-0.33-1.8-0.49c-0.87-0.24-1.75-0.48-2.63-0.71
			c-1.82-0.49-3.67-0.94-5.52-1.38c-1.08-0.26-2.15-0.5-3.23-0.75c-4.07-0.92-8.2-1.72-12.36-2.43c-0.04,0-0.06-0.01-0.1-0.01
			c-0.82-0.15-1.65-0.28-2.47-0.4c-0.6-0.1-1.2-0.2-1.8-0.28c-1-0.16-1.99-0.31-2.99-0.44c-1.44-0.2-2.9-0.39-4.34-0.56
			c-1.11-0.13-2.22-0.26-3.34-0.38c-0.53-0.06-1.06-0.11-1.59-0.16c-0.81-0.09-1.61-0.16-2.41-0.23c-0.49-0.05-0.97-0.09-1.44-0.12
			c-1.17-0.1-2.35-0.2-3.52-0.27c-1.37-0.1-2.75-0.18-4.12-0.26h-0.01c-1.38-0.07-2.75-0.12-4.13-0.17
			c-113.62-3.91-216.22,73.54-243.11,184.74c-0.01,0.06-0.02,0.11-0.04,0.17c-0.42,1.73-0.82,3.47-1.2,5.23
			c-0.78,3.62-1.49,7.26-2.11,10.95c-0.56,3.3-1.05,6.58-1.48,9.87c-0.17,1.36-0.33,2.7-0.48,4.04c-0.06,0.53-0.12,1.05-0.17,1.58
			c-0.12,1.16-0.24,2.31-0.34,3.46c-0.61,6.73-0.93,13.43-0.97,20.09c-13.17-6.29-25.71-13.61-37.51-21.8
			c-45.36,87.52-143.47,139.78-245.86,122.38c-44.51-7.56-83.93-27.28-115.41-55.19c-5.72-5.07-11.17-10.41-16.35-15.99
			c0.53-7.72,1.44-15.48,2.77-23.29c21.54-126.89,141.84-212.26,268.74-190.71c22.97,3.9,44.61,11.06,64.46,20.92
			c43.07-124.8,171.25-203.75,305.7-180.91c37.08,6.29,71.14,19.73,101.01,38.68c1.07-5.45,2.3-10.84,3.65-16.16
			c0.82-3.19,1.69-6.35,2.6-9.51c0.92-3.14,1.88-6.26,2.9-9.35c1.03-3.09,2.09-6.17,3.19-9.21c0.75-2.02,1.5-4.03,2.28-6.05
			c1.19-3.01,2.39-5.97,3.67-8.93c0.84-1.97,1.71-3.92,2.59-5.86c1.77-3.89,3.62-7.72,5.55-11.51c0.97-1.89,1.94-3.78,2.94-5.64
			c1-1.87,2.03-3.73,3.07-5.56c1.04-1.84,2.1-3.67,3.18-5.49c1.08-1.81,2.17-3.6,3.29-5.4c1.11-1.78,2.25-3.56,3.4-5.31
			c1.15-1.76,2.32-3.51,3.51-5.23c0.6-0.87,1.2-1.73,1.8-2.59c2.41-3.43,4.89-6.81,7.43-10.13c1.27-1.66,2.55-3.3,3.86-4.94
			c1.31-1.62,2.63-3.24,3.97-4.84c55.53-66.36,139.06-106.72,228.98-105.74c2,0.02,4.02,0.06,6.04,0.13
			c1.03,0.04,2.06,0.07,3.09,0.11c1.04,0.04,2.09,0.1,3.14,0.15c1.01,0.06,2.03,0.11,3.05,0.18c1.03,0.06,2.07,0.13,3.09,0.21
			c1.04,0.07,2.08,0.16,3.12,0.24c1.03,0.09,2.06,0.18,3.1,0.28c1.05,0.1,2.09,0.2,3.14,0.31c0.87,0.1,1.75,0.2,2.63,0.29
			c0.57,0.06,1.15,0.13,1.72,0.21c0.89,0.1,1.78,0.21,2.66,0.33c0.98,0.12,1.95,0.26,2.92,0.39c2.92,0.4,5.85,0.85,8.77,1.36
			c9.4,1.6,18.59,3.6,27.61,6.04c65.96-126.27,232.21-199.4,410.01-169.21c5.1,0.87,10.14,1.81,15.15,2.82
			c1.21,0.24,2.39,0.49,3.59,0.75c2.21,0.46,4.41,0.94,6.6,1.44c1.45,0.32,2.91,0.66,4.36,1c0.2,0.04,0.38,0.09,0.56,0.13
			c1.45,0.33,2.9,0.68,4.34,1.04c0.27,0.06,0.54,0.13,0.79,0.2c1.22,0.31,2.44,0.61,3.67,0.93c0.65,0.16,1.28,0.33,1.92,0.5
			c1.2,0.31,2.39,0.62,3.58,0.95c0.15,0.02,0.29,0.06,0.43,0.11c1.54,0.42,3.08,0.83,4.62,1.27c3.14,0.88,6.27,1.8,9.37,2.74
			c2.2,0.66,4.37,1.33,6.54,2.04c1.06,0.33,2.11,0.67,3.16,1.01c3.82,1.25,7.6,2.54,11.35,3.89c1.09,0.38,2.16,0.76,3.24,1.16
			c9.26,3.37,18.33,7,27.18,10.9c1,0.44,2,0.88,2.99,1.32c7.61,3.41,15.08,7,22.38,10.78c1.42,0.72,2.82,1.45,4.21,2.2
			c6.17,3.26,12.23,6.66,18.17,10.18c1.22,0.72,2.43,1.45,3.64,2.19c1.36,0.82,2.71,1.64,4.06,2.48c1.08,0.66,2.14,1.33,3.2,2.02
			c1.04,0.65,2.08,1.31,3.1,1.98c0.16,0.09,0.31,0.2,0.46,0.29c1.19,0.77,2.36,1.54,3.53,2.32c1.01,0.66,2.02,1.33,3.03,2.02
			c0.9,0.6,1.8,1.21,2.69,1.83c0.81,0.54,1.6,1.09,2.39,1.65c1.15,0.79,2.3,1.59,3.42,2.39c1.26,0.89,2.49,1.78,3.74,2.69
			c1.23,0.89,2.46,1.8,3.68,2.71c3.67,2.72,7.28,5.5,10.82,8.33c1.16,0.92,2.31,1.84,3.45,2.77c4.81,3.93,9.5,7.95,14.09,12.05
			c1,0.9,2,1.81,2.99,2.72c1.1,1,2.2,2.02,3.27,3.03c1.04,0.98,2.08,1.95,3.1,2.93c1.39,1.34,2.79,2.69,4.15,4.06
			c0.77,0.74,1.54,1.51,2.3,2.28c2.08,2.09,4.13,4.19,6.15,6.32c1.01,1.06,2.02,2.14,3.01,3.2c3.98,4.29,7.84,8.65,11.57,13.08
			c0.39,0.46,0.77,0.92,1.14,1.34C4855.71,3048.88,4858.36,3051.07,4861.19,3056.34z" style="fill:#bdceec"/>
      <path d="M4829.67,3193.98c2.38,2.47,4.73,4.96,7.04,7.49c-25.64-9.21-52.45-16.29-80.24-21.01
			c-193.3-32.83-379.01,57.86-476.35,214.77c-22.61-10.92-47.12-18.88-73.13-23.3c-133.16-22.61-260.11,55.27-303.3,178.57
			c-30.15-19.22-64.56-32.85-102-39.21c-130.84-22.22-255.77,51.51-302.83,170.09c-8.86-25.46-13.54-52.66-13.34-80.62
			c0.04-6.66,0.35-13.35,0.97-20.09c0.1-1.15,0.22-2.31,0.34-3.46c0.05-0.53,0.11-1.05,0.17-1.58c0.15-1.34,0.31-2.7,0.48-4.04
			c0.43-3.29,0.92-6.57,1.48-9.87c0.62-3.69,1.33-7.33,2.11-10.95c0.38-1.76,0.78-3.49,1.2-5.23c0.01-0.06,0.02-0.11,0.04-0.17
			c26.96-111.98,129.41-188.76,243.11-184.74c1.38,0.05,2.75,0.1,4.13,0.17h0.01c1.37,0.07,2.75,0.16,4.12,0.26
			c1.17,0.07,2.35,0.17,3.52,0.27c0.48,0.04,0.95,0.07,1.44,0.12c0.79,0.07,1.6,0.15,2.41,0.23c0.53,0.05,1.06,0.1,1.59,0.16
			c1.11,0.12,2.22,0.24,3.34,0.38c1.44,0.17,2.9,0.37,4.34,0.56c1,0.13,1.99,0.28,2.99,0.44c0.6,0.09,1.2,0.18,1.8,0.28
			c0.82,0.12,1.65,0.26,2.47,0.4c0.04,0,0.06,0.01,0.1,0.01c4.17,0.71,8.3,1.51,12.36,2.43c1.08,0.24,2.15,0.49,3.23,0.75
			c1.86,0.44,3.7,0.89,5.52,1.38c0.88,0.22,1.75,0.46,2.63,0.71c0.6,0.16,1.2,0.33,1.8,0.49c0.9,0.27,1.82,0.53,2.71,0.78
			c0.02,0.01,0.05,0.02,0.07,0.02c1.04,0.32,2.05,0.62,3.08,0.94c1.04,0.32,2.08,0.65,3.1,0.99c3.09,0.99,6.16,2.06,9.19,3.19
			c4.04,1.49,8.03,3.09,11.95,4.79c1.72,0.75,3.45,1.52,5.14,2.3c0.9,0.42,1.8,0.84,2.7,1.27c0.89,0.42,1.78,0.86,2.66,1.28
			c2.66,1.31,5.3,2.66,7.9,4.07c0.86,0.46,1.72,0.94,2.59,1.42c0.85,0.48,1.71,0.95,2.57,1.44c0.86,0.49,1.7,0.98,2.55,1.48
			c0.84,0.49,1.69,0.99,2.52,1.5c0.78,0.46,1.55,0.93,2.32,1.42c0.9,0.55,1.8,1.11,2.68,1.67c37.8-107.9,148.9-176.06,265.43-156.27
			c16.64,2.82,32.58,7.31,47.68,13.24c5.56,2.19,11.01,4.57,16.32,7.14c85.19-137.32,247.72-216.69,416.89-187.95
			c4.46,0.76,8.88,1.59,13.28,2.48c1.47,0.29,2.92,0.6,4.39,0.92c5.57,1.18,11.09,2.49,16.56,3.91c1.27,0.33,2.53,0.66,3.8,1
			c1.5,0.4,3.01,0.81,4.5,1.23c1.28,0.35,2.57,0.72,3.84,1.1c0.94,0.27,1.88,0.55,2.82,0.83c0.81,0.23,1.6,0.48,2.39,0.72
			c1.03,0.31,2.05,0.62,3.07,0.95c1.22,0.38,2.44,0.77,3.65,1.16c2.3,0.75,4.59,1.5,6.87,2.3c1.17,0.39,2.35,0.81,3.51,1.22
			c1.12,0.39,2.25,0.79,3.36,1.21c1.06,0.38,2.13,0.77,3.18,1.17c1.01,0.37,2.03,0.76,3.03,1.14c1.73,0.66,3.47,1.33,5.18,2.03
			c0.99,0.39,1.98,0.79,2.97,1.2c1.23,0.5,2.47,1.01,3.7,1.53c0.13,0.05,0.27,0.11,0.4,0.17c1.22,0.5,2.43,1.03,3.64,1.55
			c2.58,1.1,5.12,2.24,7.66,3.4c1.27,0.57,2.53,1.16,3.79,1.75c6.3,2.96,12.51,6.06,18.62,9.32c1.22,0.65,2.44,1.31,3.65,1.97
			c10.25,5.6,20.21,11.61,29.87,18.02c0.94,0.61,1.88,1.25,2.81,1.88c0.83,0.55,1.66,1.11,2.48,1.69c0.78,0.53,1.55,1.06,2.32,1.6
			c1.48,1.03,2.94,2.06,4.41,3.11c0.95,0.67,1.91,1.37,2.85,2.05c0.27,0.18,0.53,0.38,0.79,0.57c0.97,0.71,1.92,1.42,2.87,2.13
			c1.64,1.22,3.26,2.46,4.87,3.7c0.97,0.75,1.93,1.49,2.88,2.24c4.15,3.25,8.25,6.59,12.25,10.01c0.78,0.66,1.56,1.32,2.33,1.99
			c3.9,3.35,7.72,6.77,11.47,10.26c0.95,0.88,1.91,1.77,2.85,2.66c1.09,1.04,2.17,2.08,3.25,3.12c1.01,0.98,2.02,1.95,3.01,2.94
			C4824.86,3189.04,4827.28,3191.5,4829.67,3193.98z" style="fill:#ecf3fb"/>
      <path d="M4938.6,3546.93c-6.98,41.09-19.87,79.69-37.59,115.11c-57.2,114.15-165.04,195.12-289.64,218.89
			c-46.68,8.89-95.71,9.77-145.31,1.34c-121.12-20.56-220.73-92.3-280.42-189.3c-43.03,20.68-92.66,28.71-143.3,20.11
			c-31.67-5.38-60.83-16.77-86.47-32.8c-37.51,110.33-150.57,180.24-269.14,160.11c-15.53-2.64-30.47-6.71-44.69-12.06
			c-32.61-12.23-61.48-31.15-85.26-54.86c0.44-3.73,0.98-7.46,1.61-11.22c22.35-131.59,147.12-220.13,278.71-197.79
			c32.78,5.56,62.88,17.5,89.27,34.32c37.79-107.92,148.89-176.08,265.43-156.28c22.76,3.86,44.21,10.82,63.99,20.39
			c3.68-5.93,7.49-11.73,11.46-17.43c0.98-1.43,1.98-2.85,2.99-4.26c1.26-1.77,2.53-3.52,3.81-5.27c1.28-1.75,2.58-3.47,3.9-5.19
			c2.99-3.93,6.06-7.82,9.21-11.64c0.97-1.19,1.94-2.36,2.93-3.53c1.27-1.53,2.55-3.03,3.86-4.52c1.22-1.43,2.46-2.85,3.73-4.25
			c1.41-1.59,2.82-3.15,4.25-4.7c0.9-0.99,1.82-1.98,2.75-2.96c0.77-0.85,1.58-1.7,2.38-2.54c1.23-1.31,2.49-2.6,3.76-3.9
			c1.42-1.45,2.83-2.88,4.26-4.3c1.33-1.33,2.69-2.65,4.04-3.96c0.24-0.24,0.5-0.49,0.76-0.73c0.82-0.79,1.65-1.58,2.48-2.36
			c0.6-0.59,1.21-1.16,1.83-1.72c0.81-0.76,1.61-1.51,2.43-2.25c3.13-2.9,6.29-5.72,9.52-8.49c0.89-0.77,1.77-1.53,2.68-2.28
			c0.81-0.68,1.61-1.37,2.42-2.04c1.28-1.09,2.58-2.15,3.9-3.21c1.4-1.16,2.83-2.3,4.26-3.43c0.79-0.64,1.59-1.26,2.39-1.88
			c0.57-0.45,1.15-0.9,1.75-1.36c0.82-0.64,1.65-1.27,2.47-1.89c2.93-2.24,5.89-4.42,8.89-6.57c0.64-0.48,1.28-0.93,1.93-1.38
			c0.94-0.67,1.89-1.34,2.85-2c2.16-1.53,4.35-3.02,6.56-4.5c1.66-1.11,3.35-2.21,5.03-3.31c0.24-0.17,0.5-0.33,0.76-0.48
			c1.31-0.86,2.61-1.69,3.92-2.5c0.55-0.35,1.11-0.71,1.67-1.05c1.59-0.99,3.19-1.97,4.79-2.94c1.83-1.1,3.68-2.2,5.53-3.27
			c1.71-1,3.43-1.99,5.16-2.96c2.94-1.67,5.91-3.3,8.91-4.87c0.94-0.51,1.89-1,2.85-1.5c0.95-0.5,1.91-0.99,2.86-1.48
			c0.95-0.49,1.92-0.98,2.87-1.45c0.92-0.46,1.83-0.92,2.74-1.37c1.01-0.5,2.03-0.99,3.05-1.48c0.92-0.44,1.83-0.88,2.75-1.32
			c0.09-0.05,0.17-0.09,0.26-0.12c0.94-0.44,1.88-0.88,2.82-1.32c2.11-0.98,4.23-1.94,6.37-2.88c0.82-0.37,1.64-0.72,2.47-1.08
			c5.16-2.25,10.37-4.4,15.63-6.43c0.78-0.29,1.55-0.6,2.33-0.89c1.53-0.59,3.07-1.15,4.61-1.71c1.11-0.42,2.22-0.82,3.35-1.21
			c1.94-0.7,3.9-1.38,5.85-2.04c1.17-0.4,2.36-0.79,3.54-1.18c1.36-0.44,2.71-0.88,4.07-1.31c0.63-0.21,1.28-0.42,1.93-0.61
			c1.03-0.32,2.05-0.64,3.09-0.95c1.43-0.44,2.86-0.86,4.3-1.27c0.84-0.26,1.69-0.5,2.54-0.73c0.45-0.13,0.92-0.27,1.37-0.39
			c0.78-0.22,1.56-0.44,2.35-0.65c5.41-1.49,10.87-2.86,16.35-4.12c0.88-0.21,1.76-0.4,2.64-0.6c1.67-0.38,3.35-0.75,5.01-1.09
			c1.37-0.29,2.74-0.57,4.12-0.84c4.45-0.89,8.91-1.7,13.39-2.43c0.79-0.13,1.6-0.27,2.39-0.39c2.63-0.42,5.24-0.81,7.87-1.17
			c0.72-0.1,1.44-0.2,2.16-0.28c4.56-0.61,9.14-1.15,13.72-1.6c1.58-0.15,3.15-0.29,4.74-0.43c1.47-0.13,2.93-0.26,4.4-0.35
			c2.03-0.16,4.06-0.31,6.07-0.42c1.5-0.1,3.02-0.18,4.53-0.26c1.51-0.07,3.03-0.15,4.56-0.2c3.53-0.15,7.07-0.23,10.62-0.27
			c1.66-0.02,3.34-0.04,5.01-0.04c22.8,0,45.89,1.91,69.11,5.85c1.8,0.31,3.58,0.62,5.36,0.95c1.78,0.32,3.57,0.66,5.34,1.01
			c1.39,0.27,2.79,0.55,4.18,0.84c2.2,0.45,4.39,0.93,6.57,1.42c1.42,0.32,2.85,0.65,4.26,0.99c0.4,0.09,0.82,0.18,1.22,0.28
			c1.48,0.35,2.94,0.71,4.41,1.09c0.24,0.05,0.48,0.11,0.72,0.18c1.14,0.28,2.27,0.56,3.41,0.87c0.86,0.22,1.71,0.44,2.55,0.67
			c1.04,0.28,2.06,0.56,3.09,0.84c0.76,0.21,1.5,0.42,2.26,0.64c0.82,0.23,1.62,0.46,2.44,0.7c1.14,0.32,2.26,0.66,3.38,1
			c0.76,0.22,1.53,0.45,2.28,0.7c0.68,0.2,1.37,0.4,2.07,0.64c1.09,0.33,2.17,0.67,3.25,1.01c1.65,0.53,3.29,1.06,4.92,1.61
			c0.85,0.28,1.71,0.56,2.55,0.87c1.01,0.34,2.04,0.7,3.05,1.05c8.36,2.92,16.58,6.11,24.65,9.54c1.58,0.67,3.14,1.34,4.7,2.04
			c1.59,0.7,3.18,1.41,4.75,2.13c0.05,0.01,0.09,0.04,0.12,0.05c1.48,0.68,2.96,1.36,4.42,2.05c1.64,0.77,3.27,1.55,4.9,2.35
			c1.15,0.55,2.28,1.12,3.43,1.69c6,2.99,11.91,6.12,17.73,9.4c1.1,0.61,2.2,1.23,3.29,1.87c3.48,1.99,6.93,4.03,10.34,6.12
			c0.81,0.5,1.61,1,2.41,1.5c5.89,3.67,11.66,7.48,17.32,11.42c1,0.7,2,1.39,2.99,2.1c1.39,0.98,2.77,1.98,4.14,2.98
			c1.22,0.88,2.42,1.77,3.63,2.68c0.66,0.49,1.31,0.97,1.94,1.45c2.35,1.77,4.67,3.57,6.96,5.38c1.22,0.98,2.44,1.94,3.65,2.92
			c0.94,0.77,1.88,1.54,2.82,2.31c0.75,0.6,1.48,1.21,2.21,1.83c2.24,1.87,4.46,3.76,6.66,5.68c1,0.87,1.99,1.75,2.98,2.63
			c1.87,1.66,3.71,3.32,5.53,5.02c0.86,0.78,1.71,1.56,2.55,2.36c0.84,0.79,1.67,1.59,2.5,2.37c1.54,1.48,3.07,2.96,4.58,4.45
			c0.44,0.44,0.88,0.87,1.32,1.31c0.73,0.72,1.47,1.45,2.19,2.19c2.32,2.35,4.63,4.72,6.89,7.12c0.85,0.89,1.7,1.8,2.54,2.71
			c2.53,2.71,5.02,5.47,7.46,8.26c0.82,0.93,1.62,1.86,2.43,2.8c2.46,2.85,4.88,5.72,7.26,8.63c0.7,0.87,1.39,1.72,2.09,2.59
			c2.37,2.96,4.7,5.94,6.99,8.96c0.75,0.98,1.49,1.97,2.22,2.96c1.48,1.98,2.93,3.98,4.37,5.99c0.72,1,1.44,2.02,2.15,3.03
			c1.43,2.02,2.83,4.06,4.21,6.1C4945.68,3481.19,4944.19,3513.95,4938.6,3546.93z" style="fill:#bdceec"/>
      <path d="M4943.41,3449.23c-1.38-2.04-2.79-4.08-4.21-6.1c-0.71-1.01-1.43-2.03-2.15-3.03c-1.44-2-2.9-4.01-4.37-5.99
			c-0.73-0.99-1.48-1.98-2.22-2.96c-2.28-3.02-4.62-6-6.99-8.96c-0.7-0.87-1.39-1.74-2.09-2.59c-2.38-2.91-4.8-5.78-7.26-8.63
			c-0.79-0.94-1.61-1.87-2.43-2.8c-2.44-2.79-4.94-5.55-7.46-8.26c-0.84-0.92-1.69-1.82-2.54-2.71c-2.26-2.41-4.57-4.78-6.89-7.12
			c-0.72-0.73-1.45-1.47-2.19-2.19c-0.44-0.44-0.88-0.87-1.32-1.31c-1.51-1.49-3.04-2.97-4.58-4.45c-0.83-0.78-1.66-1.58-2.5-2.37
			c-0.84-0.79-1.7-1.58-2.55-2.36c-1.82-1.7-3.67-3.36-5.53-5.02c-0.99-0.88-1.98-1.76-2.98-2.63c-2.2-1.92-4.42-3.81-6.66-5.68
			c-0.73-0.61-1.47-1.22-2.21-1.83c-0.94-0.77-1.88-1.54-2.82-2.31c-1.21-0.98-2.43-1.95-3.65-2.92c-2.3-1.81-4.62-3.6-6.96-5.38
			c-0.65-0.49-1.3-0.98-1.94-1.45c-1.21-0.9-2.41-1.8-3.63-2.68c-1.37-1-2.75-2-4.14-2.98c-0.99-0.71-1.99-1.4-2.99-2.1
			c-5.67-3.95-11.44-7.76-17.32-11.42c-0.79-0.5-1.6-1-2.41-1.5c-3.41-2.09-6.85-4.13-10.34-6.12c-1.09-0.64-2.19-1.26-3.29-1.87
			c-5.82-3.27-11.73-6.4-17.73-9.4c-1.14-0.56-2.28-1.12-3.43-1.69c-1.62-0.79-3.26-1.58-4.9-2.35c-1.47-0.7-2.94-1.38-4.42-2.05
			c-0.04-0.01-0.07-0.04-0.12-0.05c-1.58-0.72-3.16-1.43-4.75-2.13c-1.56-0.7-3.13-1.37-4.7-2.04c-8.08-3.43-16.3-6.62-24.65-9.54
			c-1.01-0.35-2.03-0.71-3.05-1.05c-0.85-0.29-1.7-0.59-2.55-0.87c-1.64-0.55-3.27-1.09-4.92-1.61c-1.07-0.35-2.16-0.7-3.25-1.01
			c-0.7-0.23-1.38-0.44-2.07-0.64c-0.76-0.24-1.53-0.48-2.28-0.7c-1.12-0.34-2.26-0.67-3.38-1c-0.82-0.23-1.62-0.46-2.44-0.7
			c-0.76-0.22-1.5-0.43-2.26-0.64c-1.03-0.29-2.06-0.57-3.09-0.84c-0.84-0.23-1.7-0.45-2.55-0.67c-1.12-0.31-2.27-0.6-3.41-0.87
			c-0.24-0.07-0.48-0.13-0.72-0.18c-1.47-0.38-2.93-0.75-4.41-1.09c-0.4-0.1-0.82-0.2-1.22-0.28c-1.42-0.34-2.85-0.67-4.26-0.99
			c-2.19-0.49-4.37-0.97-6.57-1.42c-1.39-0.29-2.79-0.57-4.18-0.84c-1.77-0.35-3.56-0.7-5.34-1.01c-1.78-0.33-3.57-0.65-5.36-0.95
			c-23.22-3.95-46.32-5.85-69.11-5.85c-1.67,0-3.33,0.01-5.01,0.04c-3.54,0.04-7.09,0.12-10.62,0.27c-1.52,0.05-3.04,0.12-4.56,0.2
			c-1.51,0.07-3.02,0.16-4.53,0.26c-2.02,0.11-4.04,0.26-6.07,0.42c-1.47,0.1-2.93,0.22-4.4,0.35c-1.58,0.13-3.16,0.28-4.74,0.43
			c-4.58,0.45-9.16,0.99-13.72,1.6c-0.72,0.09-1.44,0.18-2.16,0.28c-2.63,0.37-5.24,0.76-7.87,1.17c-0.79,0.12-1.59,0.26-2.39,0.39
			c-4.48,0.73-8.94,1.54-13.39,2.43c-1.38,0.27-2.75,0.55-4.12,0.84c-1.66,0.34-3.34,0.71-5.01,1.09c-0.88,0.18-1.76,0.39-2.64,0.6
			c-5.47,1.26-10.93,2.63-16.35,4.12c-0.78,0.21-1.56,0.43-2.35,0.65c-0.45,0.12-0.92,0.26-1.37,0.39c-0.86,0.23-1.7,0.48-2.54,0.73
			c-1.44,0.42-2.87,0.83-4.3,1.27c-1.04,0.32-2.06,0.64-3.09,0.95c-0.65,0.2-1.28,0.4-1.93,0.61c-1.36,0.43-2.71,0.87-4.07,1.31
			c-1.19,0.39-2.37,0.78-3.54,1.18c-1.95,0.66-3.91,1.34-5.85,2.04c-1.11,0.39-2.24,0.79-3.35,1.21c-1.54,0.56-3.08,1.12-4.61,1.71
			c-0.78,0.29-1.56,0.59-2.33,0.89c-5.25,2.03-10.47,4.18-15.63,6.43c-0.83,0.35-1.65,0.71-2.47,1.08
			c-2.14,0.94-4.25,1.91-6.37,2.88c-0.94,0.43-1.88,0.87-2.82,1.32c-0.09,0.04-0.17,0.07-0.26,0.12c-0.92,0.43-1.83,0.87-2.75,1.32
			c-1.03,0.49-2.04,0.98-3.05,1.48c-0.92,0.45-1.83,0.9-2.74,1.37c-0.96,0.48-1.92,0.97-2.87,1.45c-0.95,0.49-1.91,0.98-2.86,1.48
			c-0.95,0.49-1.91,0.99-2.85,1.5c-2.99,1.58-5.96,3.2-8.91,4.87c-1.72,0.97-3.44,1.95-5.16,2.96c-1.86,1.07-3.7,2.16-5.53,3.27
			c-1.6,0.97-3.2,1.94-4.79,2.94c-0.56,0.34-1.12,0.7-1.67,1.05c-1.32,0.82-2.61,1.65-3.92,2.5c-0.26,0.15-0.51,0.31-0.76,0.48
			c-1.69,1.09-3.36,2.2-5.03,3.31c-2.21,1.48-4.4,2.97-6.56,4.5c-0.95,0.66-1.91,1.32-2.85,2c-0.65,0.45-1.3,0.92-1.93,1.38
			c-3.01,2.15-5.96,4.34-8.89,6.57c-0.83,0.62-1.65,1.26-2.47,1.89c-0.6,0.45-1.17,0.9-1.75,1.36c-0.81,0.62-1.6,1.25-2.39,1.88
			c-1.43,1.14-2.85,2.27-4.26,3.43c-1.32,1.06-2.61,2.13-3.9,3.21c-0.81,0.67-1.62,1.36-2.42,2.04c-0.89,0.76-1.8,1.51-2.68,2.28
			c-3.23,2.77-6.39,5.6-9.52,8.49c-0.82,0.73-1.62,1.48-2.43,2.25c-0.62,0.56-1.23,1.14-1.83,1.72c-0.83,0.77-1.66,1.56-2.48,2.36
			c-0.26,0.24-0.51,0.49-0.76,0.73c-1.36,1.31-2.71,2.63-4.04,3.96c-1.43,1.42-2.86,2.85-4.26,4.3c-1.27,1.3-2.53,2.59-3.76,3.9
			c-0.81,0.84-1.6,1.69-2.38,2.54c-0.94,0.98-1.86,1.97-2.75,2.96c-1.44,1.55-2.86,3.13-4.25,4.7c-1.27,1.41-2.5,2.82-3.73,4.25
			c-1.31,1.5-2.59,3.01-3.86,4.52c-0.99,1.17-1.97,2.35-2.93,3.53c-3.15,3.82-6.22,7.71-9.21,11.64c-1.32,1.72-2.61,3.45-3.9,5.19
			c-1.28,1.75-2.57,3.51-3.81,5.27c-1.01,1.42-2.02,2.83-2.99,4.26c-3.97,5.71-7.78,11.51-11.46,17.43
			c-19.78-9.57-41.23-16.53-63.99-20.39c-116.54-19.79-227.65,48.37-265.43,156.28c-26.39-16.82-56.49-28.76-89.27-34.32
			c-131.59-22.35-256.37,66.19-278.71,197.79c-0.64,3.75-1.17,7.49-1.61,11.22c-25.94-25.83-45.83-57.36-57.92-92.11
			c47.06-118.58,172-192.31,302.83-170.09c37.45,6.35,71.85,19.99,102,39.21c43.19-123.3,170.14-201.18,303.3-178.57
			c26.01,4.42,50.52,12.38,73.13,23.3c97.35-156.91,283.05-247.6,476.35-214.77c27.79,4.73,54.6,11.8,80.24,21.01
			c1.91,2.09,3.8,4.2,5.67,6.33c0.55,0.62,1.09,1.23,1.62,1.86c1.23,1.43,2.47,2.86,3.68,4.3c0.87,1.03,1.73,2.06,2.58,3.09
			c6.11,7.38,11.95,14.97,17.52,22.75c0.73,1.03,1.47,2.06,2.2,3.1c0.7,0.99,1.38,1.98,2.06,2.97c0.56,0.81,1.11,1.62,1.66,2.43
			c0.56,0.82,1.12,1.65,1.67,2.48c2.88,4.33,5.69,8.7,8.42,13.13c0.57,0.93,1.14,1.86,1.7,2.79c0.82,1.36,1.62,2.7,2.42,4.07
			c0.57,0.96,1.15,1.94,1.71,2.93c0.68,1.17,1.36,2.35,2.02,3.53c0.67,1.17,1.33,2.36,1.98,3.54c0.66,1.19,1.31,2.38,1.94,3.57
			c0.51,0.95,1.01,1.89,1.51,2.85c0.66,1.23,1.31,2.48,1.94,3.73c3.21,6.22,6.25,12.51,9.14,18.9c0.45,0.99,0.89,1.98,1.32,2.97
			c2.41,5.41,4.69,10.89,6.85,16.41c0.51,1.31,1.01,2.61,1.51,3.93c0.5,1.31,0.99,2.63,1.48,3.95c0.62,1.67,1.22,3.36,1.82,5.05
			c0.33,0.94,0.66,1.89,0.99,2.85c0.56,1.61,1.11,3.24,1.65,4.86c0.32,0.98,0.65,1.95,0.97,2.94c0.49,1.54,0.98,3.08,1.45,4.63
			c0.37,1.15,0.72,2.31,1.06,3.47c0.54,1.77,1.05,3.56,1.56,5.34c0.29,1.01,0.57,2.03,0.86,3.04c0.37,1.33,0.73,2.68,1.09,4.01
			c0.01,0.07,0.04,0.15,0.06,0.22c0.34,1.32,0.68,2.65,1.03,3.97c0.35,1.38,0.7,2.75,1.03,4.13c0.31,1.23,0.6,2.48,0.89,3.73
			c0.05,0.22,0.1,0.44,0.15,0.65c0.28,1.23,0.56,2.46,0.84,3.69c0.02,0.12,0.05,0.26,0.09,0.38c0.29,1.33,0.57,2.66,0.85,4.01
			c0.29,1.38,0.57,2.77,0.86,4.17c0.28,1.41,0.55,2.8,0.82,4.19c0.26,1.41,0.51,2.8,0.77,4.2c0.49,2.81,0.96,5.62,1.41,8.44
			c0.66,4.23,1.26,8.48,1.78,12.74C4942.21,3434.88,4942.91,3442.04,4943.41,3449.23z" style="fill:#ccdbf2"/>
    </g>
    <g>
      <path d="M138.81,3056.34c3.53-4.69,7.2-9.32,11-13.88c0.37-0.43,0.75-0.88,1.14-1.34c3.73-4.44,7.59-8.8,11.57-13.08
			c0.99-1.06,1.99-2.14,3.01-3.2c2.02-2.13,4.07-4.23,6.15-6.32c0.76-0.77,1.53-1.54,2.3-2.28c1.37-1.37,2.76-2.71,4.15-4.06
			c1.03-0.98,2.06-1.95,3.1-2.93c1.08-1.01,2.18-2.03,3.27-3.03c0.99-0.92,1.99-1.82,2.99-2.72c4.58-4.09,9.27-8.11,14.09-12.05
			c1.14-0.93,2.28-1.86,3.45-2.77c3.54-2.83,7.16-5.61,10.82-8.33c1.22-0.92,2.44-1.82,3.68-2.71c1.25-0.9,2.48-1.8,3.74-2.69
			c1.12-0.81,2.27-1.61,3.42-2.39c0.79-0.56,1.59-1.11,2.39-1.65c0.89-0.62,1.78-1.23,2.69-1.83c1.01-0.68,2.02-1.36,3.03-2.02
			c1.17-0.78,2.35-1.55,3.53-2.32c0.16-0.1,0.31-0.21,0.46-0.29c1.03-0.67,2.06-1.33,3.1-1.98c1.06-0.68,2.13-1.36,3.2-2.02
			c1.34-0.84,2.7-1.66,4.06-2.48c1.21-0.73,2.42-1.47,3.64-2.19c5.94-3.52,12-6.92,18.17-10.18c1.39-0.75,2.8-1.48,4.21-2.2
			c7.31-3.77,14.77-7.37,22.38-10.78c0.99-0.44,1.99-0.88,2.99-1.32c8.86-3.9,17.92-7.53,27.18-10.9c1.07-0.4,2.15-0.78,3.24-1.16
			c3.75-1.34,7.53-2.64,11.35-3.89c1.05-0.34,2.1-0.68,3.16-1.01c2.16-0.71,4.34-1.38,6.54-2.04c3.1-0.95,6.23-1.87,9.37-2.74
			c1.54-0.44,3.08-0.86,4.62-1.27c0.13-0.05,0.28-0.09,0.43-0.11c1.19-0.34,2.38-0.65,3.58-0.95c0.64-0.17,1.27-0.34,1.92-0.5
			c1.22-0.32,2.44-0.62,3.67-0.93c0.26-0.06,0.53-0.13,0.79-0.2c1.44-0.35,2.88-0.71,4.34-1.04c0.18-0.05,0.37-0.1,0.56-0.13
			c1.45-0.34,2.91-0.68,4.36-1c2.19-0.5,4.39-0.98,6.6-1.44c1.2-0.26,2.38-0.5,3.59-0.75c5.01-1.01,10.05-1.95,15.15-2.82
			c177.8-30.19,344.05,42.94,410.01,169.21c9.02-2.43,18.22-4.44,27.61-6.04c2.92-0.5,5.85-0.95,8.77-1.36
			c0.97-0.13,1.94-0.27,2.92-0.39c0.88-0.12,1.77-0.23,2.66-0.33c0.57-0.07,1.15-0.15,1.72-0.21c0.88-0.1,1.76-0.2,2.63-0.29
			c1.05-0.11,2.09-0.21,3.14-0.31c1.04-0.1,2.08-0.2,3.1-0.28c1.04-0.09,2.08-0.17,3.12-0.24c1.03-0.07,2.06-0.15,3.09-0.21
			c1.03-0.07,2.04-0.12,3.05-0.18c1.05-0.05,2.1-0.11,3.14-0.15c1.03-0.04,2.07-0.07,3.09-0.11c2.02-0.07,4.03-0.11,6.04-0.13
			c89.92-0.98,173.45,39.38,228.98,105.74c1.34,1.6,2.66,3.21,3.97,4.84c1.31,1.64,2.59,3.27,3.86,4.94
			c2.54,3.32,5.02,6.7,7.43,10.13c0.6,0.86,1.2,1.72,1.8,2.59c1.19,1.72,2.36,3.47,3.51,5.23c1.15,1.76,2.28,3.53,3.4,5.31
			c1.11,1.8,2.21,3.59,3.29,5.4c1.07,1.82,2.14,3.64,3.18,5.49c1.04,1.83,2.06,3.69,3.07,5.56c1,1.87,1.98,3.75,2.94,5.64
			c1.93,3.79,3.78,7.62,5.55,11.51c0.88,1.94,1.75,3.9,2.59,5.86c1.27,2.96,2.48,5.93,3.67,8.93c0.78,2.02,1.54,4.03,2.28,6.05
			c1.11,3.04,2.17,6.12,3.19,9.21c1.01,3.09,1.98,6.21,2.9,9.35c0.92,3.15,1.78,6.32,2.6,9.51c1.36,5.33,2.58,10.71,3.65,16.16
			c29.87-18.95,63.93-32.39,101.01-38.68c134.45-22.83,262.64,56.11,305.7,180.91c19.85-9.86,41.49-17.02,64.46-20.92
			c126.9-21.55,247.21,63.82,268.74,190.71c1.33,7.81,2.25,15.56,2.77,23.29c24.5-26.39,42.75-58.3,52.96-93.18
			c9.63-32.84,12.13-68.33,6.01-104.36c-21.55-126.89-141.86-212.26-268.74-190.71c-22.97,3.9-44.61,11.06-64.46,20.92
			c-43.07-124.8-171.26-203.75-305.7-180.91c-37.08,6.29-71.14,19.73-101.01,38.68c-30.79-156.06-180.54-260.05-338.31-233.25
			c-9.4,1.59-18.59,3.6-27.61,6.04c-65.96-126.27-232.21-199.41-410.01-169.21c-126,21.39-229.4,89.87-286.26,178.14
			C156.13,2949.4,139.02,3002.13,138.81,3056.34z" style="fill:#ecf3fb"/>
      <path d="M138.81,3056.34c0.84,12.83,3.2,36.77,5.4,49.72c0.73,4.3,1.53,8.58,2.41,12.82
			c0.13-0.12,0.26-0.26,0.39-0.38c1.14-1.1,2.27-2.19,3.42-3.29c1-0.94,2-1.88,3.01-2.81c3.96-3.69,7.99-7.29,12.11-10.82
			c0.81-0.71,1.62-1.41,2.46-2.1c4.23-3.6,8.54-7.12,12.93-10.56c1-0.78,2.03-1.58,3.04-2.36c1.7-1.32,3.41-2.61,5.14-3.91
			c1-0.75,2-1.49,3.03-2.24c0.28-0.21,0.55-0.42,0.83-0.61c0.99-0.72,2-1.45,3.01-2.16c1.55-1.11,3.09-2.2,4.65-3.29
			c0.81-0.56,1.62-1.14,2.44-1.69c0.87-0.61,1.75-1.2,2.61-1.78c0.99-0.67,1.98-1.32,2.97-1.98c10.19-6.77,20.7-13.11,31.51-19.01
			c1.27-0.7,2.57-1.39,3.85-2.08c6.45-3.43,13-6.71,19.65-9.83c1.33-0.61,2.65-1.23,4-1.83c2.68-1.23,5.36-2.43,8.08-3.59
			c1.28-0.55,2.55-1.1,3.85-1.64c0.13-0.06,0.28-0.12,0.42-0.17c1.31-0.55,2.61-1.09,3.91-1.61c1.05-0.43,2.09-0.85,3.13-1.27
			c1.81-0.73,3.64-1.44,5.47-2.14c1.05-0.39,2.13-0.81,3.19-1.2c1.11-0.43,2.24-0.83,3.36-1.23c1.19-0.44,2.36-0.87,3.54-1.28
			c1.22-0.43,2.46-0.86,3.69-1.28c2.41-0.84,4.83-1.64,7.25-2.42c1.28-0.42,2.57-0.83,3.86-1.23c1.06-0.34,2.15-0.67,3.22-1
			c0.84-0.26,1.69-0.51,2.53-0.76c0.99-0.29,1.99-0.6,2.98-0.88c1.33-0.39,2.69-0.78,4.04-1.16c1.58-0.45,3.15-0.87,4.74-1.3
			c1.34-0.37,2.66-0.71,4.01-1.06c5.77-1.49,11.58-2.87,17.46-4.12c1.55-0.34,3.09-0.66,4.63-0.97c4.64-0.94,9.31-1.82,14.01-2.63
			c178.45-30.3,349.88,53.41,439.75,198.26c5.6-2.71,11.35-5.22,17.21-7.53c15.93-6.27,32.74-11,50.3-13.98
			c122.92-20.87,240.11,51.02,279.98,164.85c0.93-0.6,1.87-1.19,2.82-1.77c0.81-0.51,1.62-1,2.44-1.49
			c0.88-0.54,1.77-1.07,2.66-1.59c0.88-0.53,1.78-1.05,2.69-1.56s1.81-1.03,2.71-1.51c0.89-0.51,1.81-1,2.72-1.49
			c2.75-1.49,5.53-2.92,8.34-4.3c0.93-0.45,1.87-0.92,2.81-1.34c0.94-0.46,1.89-0.9,2.85-1.34c1.78-0.83,3.6-1.64,5.42-2.42
			c4.13-1.8,8.33-3.48,12.6-5.06c3.2-1.19,6.44-2.31,9.7-3.36c1.08-0.37,2.18-0.71,3.27-1.05c1.08-0.33,2.15-0.65,3.24-0.99
			c0.04,0,0.06-0.01,0.09-0.02c0.94-0.27,1.91-0.54,2.86-0.82c0.64-0.17,1.26-0.35,1.89-0.53c0.92-0.26,1.84-0.5,2.77-0.75
			c1.92-0.51,3.86-0.99,5.83-1.45c1.12-0.27,2.26-0.53,3.4-0.78c4.29-0.97,8.65-1.82,13.05-2.57c0.04,0,0.06-0.01,0.1-0.01
			c0.87-0.16,1.73-0.31,2.6-0.43c0.64-0.11,1.26-0.21,1.89-0.29c1.06-0.17,2.1-0.33,3.16-0.46c1.52-0.21,3.05-0.42,4.57-0.6
			c1.17-0.15,2.35-0.27,3.52-0.4c0.55-0.06,1.12-0.11,1.67-0.16c0.86-0.1,1.7-0.17,2.54-0.24c0.51-0.06,1.01-0.1,1.51-0.13
			c1.25-0.1,2.48-0.21,3.71-0.28c1.44-0.11,2.9-0.2,4.35-0.27h0.01c1.45-0.09,2.9-0.13,4.35-0.18
			c119.85-4.13,228.09,77.57,256.44,194.87c0.01,0.06,0.02,0.11,0.04,0.18c0.44,1.83,0.87,3.65,1.27,5.51
			c0.82,3.81,1.56,7.66,2.22,11.55c0.6,3.48,1.11,6.95,1.56,10.42c0.18,1.43,0.34,2.85,0.5,4.26c0.06,0.55,0.13,1.1,0.18,1.66
			c0.12,1.22,0.26,2.43,0.35,3.64c0.65,7.11,0.98,14.17,1.03,21.2c13.89-6.65,27.11-14.37,39.56-22.99
			c47.84,92.31,151.34,147.44,259.34,129.09c21.31-3.62,41.51-9.87,60.33-18.39c5.72-5.07,11.17-10.41,16.35-15.99
			c24.5-26.39,42.75-58.3,52.96-93.18c-34.43-118.19-152.74-194.37-277.06-173.25c-24.23,4.12-47.05,11.67-67.99,22.06
			c-45.42-131.64-180.65-214.92-322.46-190.83c-39.11,6.63-75.04,20.82-106.55,40.81c-29.27-148.33-160.41-252.07-307.84-250.47
			c-16.19,0.18-32.57,1.62-49.03,4.42c-9.91,1.69-19.61,3.8-29.11,6.37c-69.58-133.19-244.96-210.33-432.49-178.48
			c-77.69,13.18-147.22,43.34-203.57,84.7C156.13,2949.4,139.02,3002.13,138.81,3056.34z" style="fill:#ccdbf2"/>
      <path d="M138.81,3056.34c0.84,12.83,3.2,36.77,5.4,49.72c0.73,4.3,1.53,8.58,2.41,12.82
			c5.38,26.28,13.39,51.39,23.71,75.1c2.38-2.48,4.8-4.94,7.26-7.35c1-0.99,2-1.97,3.01-2.94c1.07-1.04,2.16-2.08,3.25-3.12
			c0.94-0.89,1.89-1.78,2.85-2.66c3.75-3.49,7.57-6.92,11.47-10.26c0.77-0.67,1.55-1.33,2.33-1.99c4.01-3.42,8.1-6.76,12.25-10.01
			c0.95-0.75,1.92-1.49,2.88-2.24c1.61-1.25,3.24-2.48,4.87-3.7c0.95-0.71,1.91-1.42,2.87-2.13c0.27-0.2,0.52-0.39,0.79-0.57
			c0.94-0.68,1.89-1.38,2.85-2.05c1.47-1.05,2.93-2.09,4.41-3.11c0.77-0.54,1.54-1.08,2.32-1.6c0.82-0.57,1.65-1.14,2.48-1.69
			c0.93-0.64,1.87-1.26,2.81-1.88c9.66-6.41,19.62-12.43,29.87-18.02c1.21-0.66,2.43-1.32,3.65-1.97
			c6.11-3.26,12.32-6.36,18.62-9.32c1.26-0.59,2.52-1.17,3.79-1.75c2.54-1.16,5.08-2.3,7.66-3.4c1.21-0.53,2.42-1.05,3.64-1.55
			c0.13-0.06,0.27-0.12,0.4-0.17c1.23-0.51,2.47-1.03,3.7-1.53c0.99-0.4,1.98-0.81,2.97-1.2c1.71-0.7,3.45-1.37,5.18-2.03
			c1-0.38,2.02-0.77,3.03-1.14c1.05-0.4,2.11-0.79,3.18-1.17c1.12-0.42,2.24-0.82,3.36-1.21c1.16-0.42,2.33-0.82,3.51-1.22
			c2.27-0.79,4.57-1.55,6.87-2.3c1.21-0.39,2.43-0.78,3.65-1.16c1.01-0.33,2.04-0.65,3.07-0.95c0.79-0.24,1.6-0.49,2.39-0.72
			c0.94-0.28,1.88-0.56,2.82-0.83c1.27-0.38,2.55-0.75,3.84-1.1c1.49-0.43,2.99-0.83,4.5-1.23c1.27-0.34,2.53-0.67,3.8-1
			c5.46-1.42,10.98-2.72,16.55-3.91c1.47-0.32,2.92-0.62,4.39-0.92c4.4-0.89,8.82-1.72,13.28-2.48
			c169.17-28.73,331.7,50.63,416.89,187.95c5.31-2.57,10.76-4.95,16.32-7.14c15.1-5.94,31.04-10.42,47.68-13.24
			c116.53-19.79,227.63,48.37,265.43,156.27c0.88-0.56,1.77-1.12,2.68-1.67c0.77-0.49,1.54-0.95,2.32-1.42
			c0.83-0.51,1.67-1.01,2.52-1.5c0.84-0.5,1.7-1,2.55-1.48c0.86-0.49,1.71-0.98,2.57-1.44c0.86-0.49,1.72-0.95,2.59-1.42
			c2.6-1.41,5.24-2.76,7.9-4.07c0.88-0.43,1.77-0.87,2.66-1.28c0.89-0.44,1.8-0.85,2.7-1.27c1.7-0.78,3.42-1.55,5.14-2.3
			c3.92-1.7,7.9-3.3,11.95-4.79c3.03-1.12,6.1-2.19,9.19-3.19c1.03-0.34,2.06-0.67,3.1-0.99c1.03-0.32,2.04-0.62,3.08-0.94
			c0.02,0,0.05-0.01,0.07-0.02c0.89-0.26,1.81-0.51,2.71-0.78c0.6-0.16,1.2-0.33,1.8-0.49c0.87-0.24,1.75-0.48,2.63-0.71
			c1.82-0.49,3.67-0.94,5.52-1.38c1.08-0.26,2.15-0.5,3.23-0.75c4.07-0.92,8.2-1.72,12.36-2.43c0.04,0,0.06-0.01,0.1-0.01
			c0.82-0.15,1.65-0.28,2.47-0.4c0.6-0.1,1.2-0.2,1.8-0.28c1-0.16,1.99-0.31,2.99-0.44c1.44-0.2,2.9-0.39,4.34-0.56
			c1.11-0.13,2.22-0.26,3.34-0.38c0.53-0.06,1.06-0.11,1.59-0.16c0.81-0.09,1.61-0.16,2.41-0.23c0.49-0.05,0.97-0.09,1.44-0.12
			c1.17-0.1,2.35-0.2,3.52-0.27c1.37-0.1,2.75-0.18,4.12-0.26h0.01c1.38-0.07,2.75-0.12,4.13-0.17
			c113.62-3.91,216.22,73.54,243.11,184.74c0.01,0.06,0.02,0.11,0.04,0.17c0.42,1.73,0.82,3.47,1.2,5.23
			c0.78,3.62,1.49,7.26,2.11,10.95c0.56,3.3,1.05,6.58,1.48,9.87c0.17,1.36,0.33,2.7,0.48,4.04c0.06,0.53,0.12,1.05,0.17,1.58
			c0.12,1.16,0.24,2.31,0.34,3.46c0.61,6.73,0.93,13.43,0.97,20.09c13.17-6.29,25.71-13.61,37.51-21.8
			c45.36,87.52,143.47,139.78,245.86,122.38c44.51-7.56,83.93-27.28,115.4-55.19c5.72-5.07,11.17-10.41,16.35-15.99
			c-0.53-7.72-1.44-15.48-2.77-23.29c-21.54-126.89-141.84-212.26-268.74-190.71c-22.97,3.9-44.61,11.06-64.46,20.92
			c-43.07-124.8-171.25-203.75-305.7-180.91c-37.08,6.29-71.14,19.73-101.01,38.68c-1.08-5.45-2.3-10.84-3.65-16.16
			c-0.82-3.19-1.69-6.35-2.6-9.51c-0.92-3.14-1.88-6.26-2.9-9.35c-1.03-3.09-2.09-6.17-3.19-9.21c-0.74-2.02-1.5-4.03-2.28-6.05
			c-1.19-3.01-2.39-5.97-3.67-8.93c-0.84-1.97-1.71-3.92-2.59-5.86c-1.77-3.89-3.62-7.72-5.55-11.51c-0.97-1.89-1.94-3.78-2.94-5.64
			c-1-1.87-2.03-3.73-3.07-5.56c-1.04-1.84-2.1-3.67-3.18-5.49c-1.08-1.81-2.17-3.6-3.29-5.4c-1.11-1.78-2.25-3.56-3.4-5.31
			c-1.15-1.76-2.32-3.51-3.51-5.23c-0.6-0.87-1.2-1.73-1.8-2.59c-2.41-3.43-4.89-6.81-7.43-10.13c-1.27-1.66-2.55-3.3-3.86-4.94
			c-1.31-1.62-2.63-3.24-3.97-4.84c-55.53-66.36-139.06-106.72-228.98-105.74c-2,0.02-4.02,0.06-6.04,0.13
			c-1.03,0.04-2.06,0.07-3.09,0.11c-1.04,0.04-2.09,0.1-3.14,0.15c-1.01,0.06-2.03,0.11-3.05,0.18c-1.03,0.06-2.06,0.13-3.09,0.21
			c-1.04,0.07-2.08,0.16-3.12,0.24c-1.03,0.09-2.06,0.18-3.1,0.28c-1.05,0.1-2.09,0.2-3.14,0.31c-0.87,0.1-1.75,0.2-2.63,0.29
			c-0.57,0.06-1.15,0.13-1.72,0.21c-0.89,0.1-1.78,0.21-2.66,0.33c-0.98,0.12-1.95,0.26-2.92,0.39c-2.92,0.4-5.85,0.85-8.77,1.36
			c-9.4,1.6-18.59,3.6-27.61,6.04c-65.96-126.27-232.21-199.4-410.01-169.21c-5.1,0.87-10.14,1.81-15.15,2.82
			c-1.21,0.24-2.39,0.49-3.59,0.75c-2.21,0.46-4.41,0.94-6.6,1.44c-1.45,0.32-2.91,0.66-4.36,1c-0.2,0.04-0.38,0.09-0.56,0.13
			c-1.45,0.33-2.9,0.68-4.34,1.04c-0.27,0.06-0.54,0.13-0.79,0.2c-1.22,0.31-2.44,0.61-3.67,0.93c-0.65,0.16-1.28,0.33-1.92,0.5
			c-1.2,0.31-2.39,0.62-3.58,0.95c-0.15,0.02-0.29,0.06-0.43,0.11c-1.54,0.42-3.08,0.83-4.62,1.27c-3.14,0.88-6.27,1.8-9.37,2.74
			c-2.2,0.66-4.37,1.33-6.54,2.04c-1.06,0.33-2.11,0.67-3.16,1.01c-3.82,1.25-7.6,2.54-11.35,3.89c-1.09,0.38-2.16,0.76-3.24,1.16
			c-9.26,3.37-18.33,7-27.18,10.9c-1,0.44-2,0.88-2.99,1.32c-7.61,3.41-15.08,7-22.38,10.78c-1.42,0.72-2.82,1.45-4.21,2.2
			c-6.17,3.26-12.23,6.66-18.17,10.18c-1.22,0.72-2.43,1.45-3.64,2.19c-1.36,0.82-2.71,1.64-4.06,2.48
			c-1.08,0.66-2.14,1.33-3.2,2.02c-1.04,0.65-2.08,1.31-3.1,1.98c-0.16,0.09-0.31,0.2-0.46,0.29c-1.19,0.77-2.36,1.54-3.53,2.32
			c-1.01,0.66-2.02,1.33-3.03,2.02c-0.9,0.6-1.8,1.21-2.69,1.83c-0.81,0.54-1.6,1.09-2.39,1.65c-1.15,0.79-2.3,1.59-3.42,2.39
			c-1.26,0.89-2.49,1.78-3.74,2.69c-1.23,0.89-2.46,1.8-3.68,2.71c-3.67,2.72-7.28,5.5-10.82,8.33c-1.16,0.92-2.31,1.84-3.45,2.77
			c-4.81,3.93-9.5,7.95-14.09,12.05c-1,0.9-2,1.81-2.99,2.72c-1.1,1-2.2,2.02-3.27,3.03c-1.04,0.98-2.08,1.95-3.1,2.93
			c-1.39,1.34-2.79,2.69-4.15,4.06c-0.77,0.74-1.54,1.51-2.3,2.28c-2.08,2.09-4.13,4.19-6.15,6.32c-1.01,1.06-2.02,2.14-3.01,3.2
			c-3.98,4.29-7.84,8.65-11.57,13.08c-0.39,0.46-0.77,0.92-1.14,1.34C144.29,3048.88,141.64,3051.07,138.81,3056.34z" style="fill:#bdceec"/>
      <path d="M170.33,3193.98c-2.38,2.47-4.73,4.96-7.04,7.49c25.64-9.21,52.45-16.29,80.24-21.01
			c193.3-32.83,379.01,57.86,476.35,214.77c22.61-10.92,47.12-18.88,73.13-23.3c133.16-22.61,260.11,55.27,303.3,178.57
			c30.15-19.22,64.56-32.85,102-39.21c130.84-22.22,255.77,51.51,302.83,170.09c8.86-25.46,13.54-52.66,13.34-80.62
			c-0.04-6.66-0.35-13.35-0.97-20.09c-0.1-1.15-0.22-2.31-0.34-3.46c-0.05-0.53-0.11-1.05-0.17-1.58c-0.15-1.34-0.31-2.7-0.48-4.04
			c-0.43-3.29-0.92-6.57-1.48-9.87c-0.62-3.69-1.33-7.33-2.11-10.95c-0.38-1.76-0.78-3.49-1.2-5.23c-0.01-0.06-0.02-0.11-0.04-0.17
			c-26.96-111.98-129.41-188.76-243.11-184.74c-1.38,0.05-2.75,0.1-4.13,0.17h-0.01c-1.37,0.07-2.75,0.16-4.12,0.26
			c-1.17,0.07-2.35,0.17-3.52,0.27c-0.48,0.04-0.95,0.07-1.44,0.12c-0.79,0.07-1.6,0.15-2.41,0.23c-0.53,0.05-1.06,0.1-1.59,0.16
			c-1.11,0.12-2.22,0.24-3.34,0.38c-1.44,0.17-2.9,0.37-4.34,0.56c-1,0.13-1.99,0.28-2.99,0.44c-0.6,0.09-1.2,0.18-1.8,0.28
			c-0.82,0.12-1.65,0.26-2.47,0.4c-0.04,0-0.06,0.01-0.1,0.01c-4.17,0.71-8.3,1.51-12.36,2.43c-1.08,0.24-2.15,0.49-3.23,0.75
			c-1.86,0.44-3.7,0.89-5.52,1.38c-0.88,0.22-1.75,0.46-2.63,0.71c-0.6,0.16-1.2,0.33-1.8,0.49c-0.9,0.27-1.82,0.53-2.71,0.78
			c-0.02,0.01-0.05,0.02-0.07,0.02c-1.04,0.32-2.05,0.62-3.08,0.94c-1.04,0.32-2.08,0.65-3.1,0.99c-3.09,0.99-6.16,2.06-9.19,3.19
			c-4.04,1.49-8.03,3.09-11.95,4.79c-1.72,0.75-3.45,1.52-5.14,2.3c-0.9,0.42-1.8,0.84-2.7,1.27c-0.89,0.42-1.78,0.86-2.66,1.28
			c-2.66,1.31-5.3,2.66-7.9,4.07c-0.86,0.46-1.72,0.94-2.59,1.42c-0.86,0.48-1.71,0.95-2.57,1.44c-0.86,0.49-1.7,0.98-2.55,1.48
			c-0.84,0.49-1.69,0.99-2.52,1.5c-0.78,0.46-1.55,0.93-2.32,1.42c-0.9,0.55-1.8,1.11-2.68,1.67
			c-37.8-107.9-148.9-176.06-265.43-156.27c-16.64,2.82-32.58,7.31-47.68,13.24c-5.56,2.19-11.01,4.57-16.32,7.14
			c-85.19-137.32-247.72-216.69-416.89-187.95c-4.46,0.76-8.88,1.59-13.28,2.48c-1.47,0.29-2.92,0.6-4.39,0.92
			c-5.57,1.18-11.09,2.49-16.55,3.91c-1.27,0.33-2.53,0.66-3.8,1c-1.5,0.4-3.01,0.81-4.5,1.23c-1.28,0.35-2.57,0.72-3.84,1.1
			c-0.94,0.27-1.88,0.55-2.82,0.83c-0.81,0.23-1.6,0.48-2.39,0.72c-1.03,0.31-2.05,0.62-3.07,0.95c-1.22,0.38-2.44,0.77-3.65,1.16
			c-2.3,0.75-4.59,1.5-6.87,2.3c-1.17,0.39-2.35,0.81-3.51,1.22c-1.12,0.39-2.25,0.79-3.36,1.21c-1.06,0.38-2.13,0.77-3.18,1.17
			c-1.01,0.37-2.03,0.76-3.03,1.14c-1.73,0.66-3.47,1.33-5.18,2.03c-0.99,0.39-1.98,0.79-2.97,1.2c-1.23,0.5-2.47,1.01-3.7,1.53
			c-0.13,0.05-0.27,0.11-0.4,0.17c-1.22,0.5-2.43,1.03-3.64,1.55c-2.58,1.1-5.12,2.24-7.66,3.4c-1.27,0.57-2.53,1.16-3.79,1.75
			c-6.3,2.96-12.51,6.06-18.62,9.32c-1.22,0.65-2.44,1.31-3.65,1.97c-10.25,5.6-20.21,11.61-29.87,18.02
			c-0.94,0.61-1.88,1.25-2.81,1.88c-0.83,0.55-1.66,1.11-2.48,1.69c-0.78,0.53-1.55,1.06-2.32,1.6c-1.48,1.03-2.94,2.06-4.41,3.11
			c-0.95,0.67-1.91,1.37-2.85,2.05c-0.27,0.18-0.53,0.38-0.79,0.57c-0.97,0.71-1.92,1.42-2.87,2.13c-1.64,1.22-3.26,2.46-4.87,3.7
			c-0.97,0.75-1.93,1.49-2.88,2.24c-4.15,3.25-8.25,6.59-12.25,10.01c-0.78,0.66-1.56,1.32-2.33,1.99
			c-3.9,3.35-7.72,6.77-11.47,10.26c-0.95,0.88-1.91,1.77-2.85,2.66c-1.09,1.04-2.17,2.08-3.25,3.12c-1.01,0.98-2.02,1.95-3.01,2.94
			C175.14,3189.04,172.72,3191.5,170.33,3193.98z" style="fill:#ecf3fb"/>
      <path d="M61.4,3546.93c6.98,41.09,19.87,79.69,37.59,115.11c57.2,114.15,165.04,195.12,289.64,218.89
			c46.68,8.89,95.71,9.77,145.31,1.34c121.12-20.56,220.73-92.3,280.42-189.3c43.03,20.68,92.66,28.71,143.3,20.11
			c31.67-5.38,60.83-16.77,86.47-32.8c37.51,110.33,150.57,180.24,269.14,160.11c15.53-2.64,30.47-6.71,44.69-12.06
			c32.61-12.23,61.48-31.15,85.26-54.86c-0.44-3.73-0.98-7.46-1.61-11.22c-22.35-131.59-147.12-220.13-278.71-197.79
			c-32.78,5.56-62.88,17.5-89.27,34.32c-37.79-107.92-148.89-176.08-265.43-156.28c-22.76,3.86-44.21,10.82-63.99,20.39
			c-3.68-5.93-7.49-11.73-11.46-17.43c-0.98-1.43-1.98-2.85-2.99-4.26c-1.26-1.77-2.53-3.52-3.81-5.27
			c-1.28-1.75-2.58-3.47-3.9-5.19c-2.99-3.93-6.06-7.82-9.21-11.64c-0.97-1.19-1.94-2.36-2.93-3.53c-1.27-1.53-2.55-3.03-3.86-4.52
			c-1.22-1.43-2.46-2.85-3.73-4.25c-1.41-1.59-2.82-3.15-4.25-4.7c-0.9-0.99-1.82-1.98-2.75-2.96c-0.77-0.85-1.58-1.7-2.38-2.54
			c-1.23-1.31-2.49-2.6-3.76-3.9c-1.42-1.45-2.83-2.88-4.26-4.3c-1.33-1.33-2.69-2.65-4.04-3.96c-0.24-0.24-0.5-0.49-0.76-0.73
			c-0.82-0.79-1.65-1.58-2.48-2.36c-0.6-0.59-1.21-1.16-1.83-1.72c-0.81-0.76-1.61-1.51-2.43-2.25c-3.13-2.9-6.29-5.72-9.52-8.49
			c-0.89-0.77-1.77-1.53-2.68-2.28c-0.81-0.68-1.61-1.37-2.42-2.04c-1.28-1.09-2.58-2.15-3.9-3.21c-1.4-1.16-2.83-2.3-4.26-3.43
			c-0.79-0.64-1.59-1.26-2.39-1.88c-0.57-0.45-1.15-0.9-1.75-1.36c-0.82-0.64-1.65-1.27-2.47-1.89c-2.93-2.24-5.89-4.42-8.89-6.57
			c-0.64-0.48-1.28-0.93-1.93-1.38c-0.94-0.67-1.89-1.34-2.85-2c-2.16-1.53-4.35-3.02-6.56-4.5c-1.66-1.11-3.35-2.21-5.03-3.31
			c-0.24-0.17-0.5-0.33-0.76-0.48c-1.31-0.86-2.61-1.69-3.92-2.5c-0.55-0.35-1.11-0.71-1.67-1.05c-1.59-0.99-3.19-1.97-4.79-2.94
			c-1.83-1.1-3.68-2.2-5.53-3.27c-1.71-1-3.43-1.99-5.16-2.96c-2.94-1.67-5.91-3.3-8.91-4.87c-0.94-0.51-1.89-1-2.85-1.5
			c-0.95-0.5-1.91-0.99-2.86-1.48c-0.95-0.49-1.92-0.98-2.87-1.45c-0.92-0.46-1.83-0.92-2.74-1.37c-1.01-0.5-2.03-0.99-3.05-1.48
			c-0.92-0.44-1.83-0.88-2.75-1.32c-0.09-0.05-0.17-0.09-0.26-0.12c-0.94-0.44-1.88-0.88-2.82-1.32c-2.11-0.98-4.23-1.94-6.37-2.88
			c-0.82-0.37-1.64-0.72-2.47-1.08c-5.16-2.25-10.37-4.4-15.63-6.43c-0.78-0.29-1.55-0.6-2.33-0.89c-1.53-0.59-3.07-1.15-4.61-1.71
			c-1.11-0.42-2.22-0.82-3.35-1.21c-1.94-0.7-3.9-1.38-5.85-2.04c-1.17-0.4-2.36-0.79-3.54-1.18c-1.36-0.44-2.71-0.88-4.07-1.31
			c-0.63-0.21-1.28-0.42-1.93-0.61c-1.03-0.32-2.05-0.64-3.09-0.95c-1.43-0.44-2.86-0.86-4.3-1.27c-0.84-0.26-1.69-0.5-2.54-0.73
			c-0.45-0.13-0.92-0.27-1.37-0.39c-0.78-0.22-1.56-0.44-2.35-0.65c-5.41-1.49-10.87-2.86-16.35-4.12c-0.88-0.21-1.76-0.4-2.64-0.6
			c-1.67-0.38-3.35-0.75-5.01-1.09c-1.37-0.29-2.74-0.57-4.12-0.84c-4.45-0.89-8.91-1.7-13.39-2.43c-0.79-0.13-1.6-0.27-2.39-0.39
			c-2.63-0.42-5.24-0.81-7.87-1.17c-0.72-0.1-1.44-0.2-2.16-0.28c-4.56-0.61-9.14-1.15-13.72-1.6c-1.58-0.15-3.15-0.29-4.74-0.43
			c-1.47-0.13-2.93-0.26-4.4-0.35c-2.03-0.16-4.06-0.31-6.07-0.42c-1.5-0.1-3.02-0.18-4.53-0.26c-1.51-0.07-3.03-0.15-4.56-0.2
			c-3.53-0.15-7.07-0.23-10.62-0.27c-1.66-0.02-3.34-0.04-5.01-0.04c-22.8,0-45.89,1.91-69.11,5.85c-1.8,0.31-3.58,0.62-5.36,0.95
			c-1.78,0.32-3.57,0.66-5.34,1.01c-1.39,0.27-2.79,0.55-4.18,0.84c-2.2,0.45-4.39,0.93-6.57,1.42c-1.42,0.32-2.85,0.65-4.26,0.99
			c-0.4,0.09-0.82,0.18-1.22,0.28c-1.48,0.35-2.94,0.71-4.41,1.09c-0.24,0.05-0.48,0.11-0.72,0.18c-1.14,0.28-2.27,0.56-3.41,0.87
			c-0.86,0.22-1.71,0.44-2.55,0.67c-1.04,0.28-2.06,0.56-3.09,0.84c-0.76,0.21-1.5,0.42-2.26,0.64c-0.82,0.23-1.62,0.46-2.44,0.7
			c-1.14,0.32-2.26,0.66-3.38,1c-0.76,0.22-1.53,0.45-2.28,0.7c-0.68,0.2-1.37,0.4-2.07,0.64c-1.09,0.33-2.17,0.67-3.25,1.01
			c-1.65,0.53-3.29,1.06-4.92,1.61c-0.85,0.28-1.71,0.56-2.55,0.87c-1.01,0.34-2.04,0.7-3.05,1.05c-8.36,2.92-16.58,6.11-24.65,9.54
			c-1.58,0.67-3.14,1.34-4.7,2.04c-1.59,0.7-3.18,1.41-4.75,2.13c-0.05,0.01-0.09,0.04-0.12,0.05c-1.48,0.68-2.96,1.36-4.42,2.05
			c-1.64,0.77-3.27,1.55-4.9,2.35c-1.15,0.55-2.28,1.12-3.43,1.69c-6,2.99-11.91,6.12-17.73,9.4c-1.1,0.61-2.2,1.23-3.29,1.87
			c-3.48,1.99-6.93,4.03-10.34,6.12c-0.81,0.5-1.61,1-2.41,1.5c-5.89,3.67-11.66,7.48-17.32,11.42c-1,0.7-2,1.39-2.99,2.1
			c-1.39,0.98-2.77,1.98-4.14,2.98c-1.22,0.88-2.42,1.77-3.63,2.68c-0.66,0.49-1.31,0.97-1.94,1.45c-2.35,1.77-4.67,3.57-6.96,5.38
			c-1.22,0.98-2.44,1.94-3.65,2.92c-0.94,0.77-1.88,1.54-2.82,2.31c-0.75,0.6-1.48,1.21-2.21,1.83c-2.24,1.87-4.46,3.76-6.66,5.68
			c-1,0.87-1.99,1.75-2.98,2.63c-1.87,1.66-3.71,3.32-5.53,5.02c-0.86,0.78-1.71,1.56-2.55,2.36c-0.84,0.79-1.67,1.59-2.5,2.37
			c-1.54,1.48-3.07,2.96-4.58,4.45c-0.44,0.44-0.88,0.87-1.32,1.31c-0.73,0.72-1.47,1.45-2.19,2.19c-2.32,2.35-4.63,4.72-6.89,7.12
			c-0.85,0.89-1.7,1.8-2.54,2.71c-2.53,2.71-5.02,5.47-7.46,8.26c-0.82,0.93-1.62,1.86-2.43,2.8c-2.46,2.85-4.88,5.72-7.26,8.63
			c-0.7,0.87-1.39,1.72-2.09,2.59c-2.37,2.96-4.7,5.94-6.99,8.96c-0.75,0.98-1.49,1.97-2.22,2.96c-1.48,1.98-2.93,3.98-4.37,5.99
			c-0.72,1-1.44,2.02-2.15,3.03c-1.43,2.02-2.83,4.06-4.21,6.1C54.32,3481.19,55.81,3513.95,61.4,3546.93z" style="fill:#bdceec"/>
      <path d="M56.59,3449.23c1.38-2.04,2.79-4.08,4.21-6.1c0.71-1.01,1.43-2.03,2.15-3.03c1.44-2,2.9-4.01,4.37-5.99
			c0.73-0.99,1.48-1.98,2.22-2.96c2.28-3.02,4.62-6,6.99-8.96c0.7-0.87,1.39-1.74,2.09-2.59c2.38-2.91,4.8-5.78,7.26-8.63
			c0.79-0.94,1.61-1.87,2.43-2.8c2.44-2.79,4.94-5.55,7.46-8.26c0.84-0.92,1.69-1.82,2.54-2.71c2.26-2.41,4.57-4.78,6.89-7.12
			c0.72-0.73,1.45-1.47,2.19-2.19c0.44-0.44,0.88-0.87,1.32-1.31c1.51-1.49,3.04-2.97,4.58-4.45c0.83-0.78,1.66-1.58,2.5-2.37
			c0.84-0.79,1.7-1.58,2.55-2.36c1.82-1.7,3.67-3.36,5.53-5.02c0.99-0.88,1.98-1.76,2.98-2.63c2.2-1.92,4.42-3.81,6.66-5.68
			c0.73-0.61,1.47-1.22,2.21-1.83c0.94-0.77,1.88-1.54,2.82-2.31c1.21-0.98,2.43-1.95,3.65-2.92c2.3-1.81,4.62-3.6,6.96-5.38
			c0.65-0.49,1.3-0.98,1.94-1.45c1.21-0.9,2.41-1.8,3.63-2.68c1.37-1,2.75-2,4.14-2.98c0.99-0.71,1.99-1.4,2.99-2.1
			c5.67-3.95,11.44-7.76,17.32-11.42c0.79-0.5,1.6-1,2.41-1.5c3.41-2.09,6.85-4.13,10.34-6.12c1.09-0.64,2.19-1.26,3.29-1.87
			c5.82-3.27,11.73-6.4,17.73-9.4c1.14-0.56,2.28-1.12,3.43-1.69c1.62-0.79,3.26-1.58,4.9-2.35c1.47-0.7,2.94-1.38,4.42-2.05
			c0.04-0.01,0.07-0.04,0.12-0.05c1.58-0.72,3.16-1.43,4.75-2.13c1.56-0.7,3.13-1.37,4.7-2.04c8.08-3.43,16.3-6.62,24.65-9.54
			c1.01-0.35,2.03-0.71,3.05-1.05c0.85-0.29,1.7-0.59,2.55-0.87c1.64-0.55,3.27-1.09,4.92-1.61c1.07-0.35,2.16-0.7,3.25-1.01
			c0.7-0.23,1.38-0.44,2.07-0.64c0.76-0.24,1.53-0.48,2.28-0.7c1.12-0.34,2.26-0.67,3.38-1c0.82-0.23,1.62-0.46,2.44-0.7
			c0.76-0.22,1.5-0.43,2.26-0.64c1.03-0.29,2.06-0.57,3.09-0.84c0.84-0.23,1.7-0.45,2.55-0.67c1.12-0.31,2.27-0.6,3.41-0.87
			c0.24-0.07,0.48-0.13,0.72-0.18c1.47-0.38,2.93-0.75,4.41-1.09c0.4-0.1,0.82-0.2,1.22-0.28c1.42-0.34,2.85-0.67,4.26-0.99
			c2.19-0.49,4.37-0.97,6.57-1.42c1.39-0.29,2.79-0.57,4.18-0.84c1.77-0.35,3.56-0.7,5.34-1.01c1.78-0.33,3.57-0.65,5.36-0.95
			c23.22-3.95,46.32-5.85,69.11-5.85c1.67,0,3.34,0.01,5.01,0.04c3.54,0.04,7.09,0.12,10.62,0.27c1.52,0.05,3.04,0.12,4.56,0.2
			c1.51,0.07,3.02,0.16,4.53,0.26c2.02,0.11,4.04,0.26,6.07,0.42c1.47,0.1,2.93,0.22,4.4,0.35c1.58,0.13,3.16,0.28,4.74,0.43
			c4.58,0.45,9.16,0.99,13.72,1.6c0.72,0.09,1.44,0.18,2.16,0.28c2.63,0.37,5.24,0.76,7.87,1.17c0.79,0.12,1.59,0.26,2.39,0.39
			c4.48,0.73,8.94,1.54,13.39,2.43c1.38,0.27,2.75,0.55,4.12,0.84c1.66,0.34,3.34,0.71,5.01,1.09c0.88,0.18,1.76,0.39,2.64,0.6
			c5.47,1.26,10.93,2.63,16.35,4.12c0.78,0.21,1.56,0.43,2.35,0.65c0.45,0.12,0.92,0.26,1.37,0.39c0.86,0.23,1.7,0.48,2.54,0.73
			c1.44,0.42,2.87,0.83,4.3,1.27c1.04,0.32,2.06,0.64,3.09,0.95c0.65,0.2,1.28,0.4,1.93,0.61c1.36,0.43,2.71,0.87,4.07,1.31
			c1.19,0.39,2.37,0.78,3.54,1.18c1.95,0.66,3.91,1.34,5.85,2.04c1.11,0.39,2.24,0.79,3.35,1.21c1.54,0.56,3.08,1.12,4.61,1.71
			c0.78,0.29,1.56,0.59,2.33,0.89c5.25,2.03,10.47,4.18,15.63,6.43c0.83,0.35,1.65,0.71,2.47,1.08c2.14,0.94,4.25,1.91,6.37,2.88
			c0.94,0.43,1.88,0.87,2.82,1.32c0.09,0.04,0.17,0.07,0.26,0.12c0.92,0.43,1.83,0.87,2.75,1.32c1.03,0.49,2.04,0.98,3.05,1.48
			c0.92,0.45,1.83,0.9,2.74,1.37c0.97,0.48,1.92,0.97,2.87,1.45c0.95,0.49,1.91,0.98,2.86,1.48c0.95,0.49,1.91,0.99,2.85,1.5
			c2.99,1.58,5.96,3.2,8.91,4.87c1.72,0.97,3.45,1.95,5.16,2.96c1.86,1.07,3.7,2.16,5.53,3.27c1.6,0.97,3.2,1.94,4.79,2.94
			c0.56,0.34,1.12,0.7,1.67,1.05c1.32,0.82,2.61,1.65,3.92,2.5c0.26,0.15,0.51,0.31,0.76,0.48c1.69,1.09,3.36,2.2,5.03,3.31
			c2.21,1.48,4.4,2.97,6.56,4.5c0.95,0.66,1.91,1.32,2.85,2c0.65,0.45,1.3,0.92,1.93,1.38c3.01,2.15,5.96,4.34,8.89,6.57
			c0.83,0.62,1.65,1.26,2.47,1.89c0.6,0.45,1.17,0.9,1.75,1.36c0.81,0.62,1.6,1.25,2.39,1.88c1.43,1.14,2.85,2.27,4.26,3.43
			c1.32,1.06,2.61,2.13,3.9,3.21c0.81,0.67,1.62,1.36,2.42,2.04c0.89,0.76,1.8,1.51,2.68,2.28c3.23,2.77,6.39,5.6,9.52,8.49
			c0.82,0.73,1.62,1.48,2.43,2.25c0.62,0.56,1.23,1.14,1.83,1.72c0.83,0.77,1.66,1.56,2.48,2.36c0.26,0.24,0.51,0.49,0.76,0.73
			c1.36,1.31,2.71,2.63,4.04,3.96c1.43,1.42,2.86,2.85,4.26,4.3c1.27,1.3,2.53,2.59,3.76,3.9c0.81,0.84,1.6,1.69,2.38,2.54
			c0.94,0.98,1.86,1.97,2.75,2.96c1.44,1.55,2.86,3.13,4.25,4.7c1.27,1.41,2.5,2.82,3.73,4.25c1.31,1.5,2.59,3.01,3.86,4.52
			c0.99,1.17,1.97,2.35,2.93,3.53c3.15,3.82,6.22,7.71,9.21,11.64c1.32,1.72,2.61,3.45,3.9,5.19c1.28,1.75,2.57,3.51,3.81,5.27
			c1.01,1.42,2.02,2.83,2.99,4.26c3.97,5.71,7.78,11.51,11.46,17.43c19.78-9.57,41.23-16.53,63.99-20.39
			c116.54-19.79,227.65,48.37,265.43,156.28c26.39-16.82,56.49-28.76,89.27-34.32c131.59-22.35,256.37,66.19,278.71,197.79
			c0.64,3.75,1.17,7.49,1.61,11.22c25.94-25.83,45.83-57.36,57.92-92.11c-47.06-118.58-172-192.31-302.83-170.09
			c-37.45,6.35-71.85,19.99-102,39.21c-43.19-123.3-170.14-201.18-303.3-178.57c-26.01,4.42-50.52,12.38-73.13,23.3
			c-97.35-156.91-283.05-247.6-476.35-214.77c-27.79,4.73-54.6,11.8-80.24,21.01c-1.91,2.09-3.8,4.2-5.67,6.33
			c-0.55,0.62-1.09,1.23-1.62,1.86c-1.23,1.43-2.47,2.86-3.68,4.3c-0.87,1.03-1.73,2.06-2.58,3.09
			c-6.11,7.38-11.95,14.97-17.52,22.75c-0.73,1.03-1.47,2.06-2.2,3.1c-0.7,0.99-1.38,1.98-2.06,2.97c-0.56,0.81-1.11,1.62-1.66,2.43
			c-0.56,0.82-1.12,1.65-1.67,2.48c-2.88,4.33-5.69,8.7-8.42,13.13c-0.57,0.93-1.14,1.86-1.7,2.79c-0.82,1.36-1.62,2.7-2.42,4.07
			c-0.57,0.96-1.15,1.94-1.71,2.93c-0.68,1.17-1.36,2.35-2.02,3.53c-0.67,1.17-1.33,2.36-1.98,3.54c-0.66,1.19-1.31,2.38-1.94,3.57
			c-0.51,0.95-1.01,1.89-1.51,2.85c-0.66,1.23-1.31,2.48-1.94,3.73c-3.21,6.22-6.25,12.51-9.14,18.9c-0.45,0.99-0.89,1.98-1.32,2.97
			c-2.41,5.41-4.69,10.89-6.85,16.41c-0.51,1.31-1.01,2.61-1.51,3.93c-0.5,1.31-0.99,2.63-1.48,3.95c-0.62,1.67-1.22,3.36-1.82,5.05
			c-0.33,0.94-0.66,1.89-0.99,2.85c-0.56,1.61-1.11,3.24-1.65,4.86c-0.32,0.98-0.65,1.95-0.97,2.94c-0.49,1.54-0.98,3.08-1.45,4.63
			c-0.37,1.15-0.72,2.31-1.06,3.47c-0.54,1.77-1.05,3.56-1.56,5.34c-0.29,1.01-0.57,2.03-0.86,3.04c-0.37,1.33-0.73,2.68-1.09,4.01
			c-0.01,0.07-0.04,0.15-0.06,0.22c-0.34,1.32-0.68,2.65-1.03,3.97c-0.35,1.38-0.7,2.75-1.03,4.13c-0.31,1.23-0.6,2.48-0.89,3.73
			c-0.05,0.22-0.1,0.44-0.15,0.65c-0.28,1.23-0.56,2.46-0.84,3.69c-0.02,0.12-0.05,0.26-0.09,0.38c-0.29,1.33-0.57,2.66-0.85,4.01
			c-0.29,1.38-0.57,2.77-0.86,4.17c-0.28,1.41-0.55,2.8-0.82,4.19c-0.26,1.41-0.51,2.8-0.77,4.2c-0.49,2.81-0.97,5.62-1.41,8.44
			c-0.66,4.23-1.26,8.48-1.78,12.74C57.79,3434.88,57.09,3442.04,56.59,3449.23z" style="fill:#ccdbf2"/>
    </g>
  </g>
</svg>
