<svg xmlns="http://www.w3.org/2000/svg" xml:space="preserve" id="Layer_1" x="0" y="0" style="enable-background:new 0 0 5000 5000" version="1.1" viewBox="0 0 5000 5000">
  <g>
    <g>
      <g>
        <path d="M4778.35,1324.35l-42.1,42.1c77.39-77.85,77.25-203.65-0.42-281.31c-38.88-38.97-89.87-58.36-140.82-58.36
				c-51.04,0-101.98,19.44-140.86,58.32l42.29-42.29c38.88-38.88,89.82-58.31,140.86-58.32c50.95,0,101.94,19.39,140.82,58.36
				C4855.83,1120.57,4855.92,1246.51,4778.35,1324.35z" style="fill:#feca70"/>
      </g>
      <g>
        <path d="M4830.49,2208.12l-42.29,42.29c77.75-77.75,77.75-203.87,0-281.63c-38.88-38.88-89.82-58.41-140.86-58.41
				c-50.81,0.05-101.62,19.35-140.4,57.95l42.1-42.1c38.83-38.74,89.69-58.08,140.58-58.13c51.04,0,101.98,19.53,140.86,58.41
				C4908.25,2004.24,4908.25,2130.36,4830.49,2208.12z" style="fill:#feca70"/>
      </g>
      <g>
        <path d="M3930.78,2547.53l-42.29,42.29c-51.45,51.45-134.92,51.45-186.37,0c-25.75-25.75-38.65-59.47-38.65-93.19
				c0-33.72,12.9-67.44,38.65-93.19l42.29-42.29c-25.75,25.75-38.65,59.47-38.65,93.19c0,33.72,12.9,67.43,38.65,93.19
				C3795.86,2598.99,3879.33,2598.98,3930.78,2547.53z" style="fill:#feca70"/>
      </g>
      <g>
        <path d="M3462.73,2079.49l-42.29,42.29c-51.45,51.45-134.92,51.45-186.37,0c-25.66-25.75-38.55-59.47-38.6-93.23
				c0.04-33.67,12.9-67.43,38.6-93.14l42.29-42.29c-25.7,25.7-38.56,59.47-38.6,93.14c0.05,33.76,12.94,67.48,38.6,93.23
				C3327.81,2130.94,3411.28,2130.94,3462.73,2079.49z" style="fill:#feca70"/>
      </g>
      <g>
        <path d="M3618.94,1547.57l-42.29,42.29c77.8-77.8,77.8-203.92,0.05-281.68c-38.88-38.88-89.87-58.36-140.86-58.32
				c-50.99-0.04-101.98,19.44-140.86,58.32l42.29-42.29c38.88-38.88,89.87-58.36,140.86-58.31c50.99-0.05,101.99,19.44,140.86,58.31
				C3696.74,1343.65,3696.74,1469.77,3618.94,1547.57z" style="fill:#feca70"/>
      </g>
      <g>
        <path d="M2994.69,1611.44l-42.29,42.29c-51.45,51.45-134.82,51.45-186.32-0.05c-25.7-25.7-38.56-59.47-38.56-93.09
				c-0.05-33.76,12.8-67.53,38.55-93.19l42.1-42.1c-25.61,25.61-38.42,59.33-38.37,93c0,33.63,12.85,67.39,38.56,93.09
				C2859.86,1662.89,2943.23,1662.89,2994.69,1611.44z" style="fill:#feca70"/>
      </g>
      <g>
        <path d="M3480.1,750.31l-42.28,42.28c77.8-77.8,77.8-203.92,0.04-281.68c-38.87-38.87-89.91-58.32-140.86-58.31
				c-50.95,0-101.94,19.39-140.86,58.31l42.28-42.28c38.92-38.92,89.92-58.32,140.86-58.32c50.94,0,101.98,19.44,140.86,58.31
				C3557.91,546.39,3557.91,672.51,3480.1,750.31z" style="fill:#feca70"/>
      </g>
      <g>
        <path d="M2790.4,504.01l-42.29,42.29c77.8-77.8,77.8-203.92,0-281.72c-38.88-38.88-89.91-58.32-140.86-58.31
				c-50.9-0.05-101.94,19.48-140.82,58.36l42.29-42.29c38.88-38.88,89.92-58.41,140.82-58.36c50.94,0,101.98,19.44,140.86,58.31
				C2868.2,300.09,2868.2,426.21,2790.4,504.01z" style="fill:#feca70"/>
      </g>
      <g>
        <path d="M2526.68,1143.35l-42.28,42.28c-51.5,51.5-134.92,51.45-186.37,0c-25.7-25.7-38.65-59.47-38.65-93.09
				c0-33.72,12.9-67.44,38.65-93.19l42.29-42.29c-25.75,25.75-38.65,59.47-38.65,93.19c0,33.63,12.94,67.39,38.65,93.1
				C2391.77,1194.8,2475.19,1194.84,2526.68,1143.35z" style="fill:#feca70"/>
      </g>
      <g>
        <path d="M3100.54,3946.56l-0.14-0.04l-402.68-176.88L825.57,1897.49l56.56-56.01L1965.5,768.53l500.94-503.91
				c38.88-38.88,89.92-58.41,140.82-58.36c50.95,0,101.98,19.44,140.86,58.31c77.8,77.8,77.8,203.92,0,281.72l-450.09,453.05
				c-25.75,25.75-38.65,59.47-38.65,93.19c0,33.63,12.95,67.39,38.65,93.09c51.45,51.45,134.87,51.5,186.37,0l671.74-674.71
				c38.92-38.92,89.91-58.32,140.86-58.31c50.95,0,101.98,19.44,140.86,58.31c77.76,77.76,77.76,203.88-0.04,281.68l-615.5,618.56
				l-56.24,56.24c-25.75,25.66-38.6,59.42-38.55,93.19c0,33.63,12.85,67.39,38.56,93.09c51.5,51.5,134.87,51.5,186.32,0.05
				l342.58-345.54c38.88-38.88,89.87-58.36,140.86-58.32c50.99-0.04,101.98,19.44,140.86,58.32
				c77.75,77.75,77.75,203.87-0.05,281.68l-342.58,345.54c-25.7,25.7-38.56,59.47-38.6,93.14c0.05,33.77,12.94,67.48,38.6,93.23
				c51.45,51.45,134.92,51.45,186.37,0L4454.16,1085.1c38.88-38.88,89.83-58.31,140.86-58.32c50.95,0,101.94,19.39,140.82,58.36
				c77.66,77.66,77.8,203.46,0.42,281.31l-0.18,0.18l-977.7,980.57c-0.04,0.04-0.04,0.04-0.09,0.09l-56.15,56.15
				c-25.75,25.75-38.65,59.47-38.65,93.19c0,33.72,12.9,67.43,38.65,93.19c51.45,51.45,134.92,51.45,186.37,0l56.24-56.24
				l562.02-565.08l0.18-0.18c38.78-38.6,89.59-57.9,140.4-57.95c51.04,0,101.98,19.53,140.86,58.41
				c77.75,77.75,77.75,203.87,0,281.63l-654.93,657.99l-13.96,13.96l-962.72,967.88L3100.54,3946.56z" style="fill:#fcb43d"/>
      </g>
      <g>
        <path d="M2846.69,447.72l-56.29,56.29c77.8-77.8,77.8-203.92,0-281.72c-38.88-38.88-89.92-58.31-140.86-58.31
				c-50.9-0.05-101.94,19.48-140.82,58.36l56.29-56.29c38.88-38.88,89.87-58.36,140.81-58.36c50.95,0,101.94,19.48,140.81,58.36
				C2924.44,243.85,2924.44,369.97,2846.69,447.72z" style="fill:#f4970f"/>
      </g>
      <g>
        <path d="M2582.93,1087.1l-56.24,56.24c-51.5,51.5-134.92,51.45-186.37,0c-25.7-25.7-38.65-59.47-38.65-93.1
				c0-33.72,12.9-67.43,38.65-93.19l56.24-56.24c-25.7,25.7-38.65,59.47-38.6,93.14c-0.04,33.67,12.9,67.44,38.6,93.14
				C2448.01,1138.56,2531.48,1138.56,2582.93,1087.1z" style="fill:#f4970f"/>
      </g>
      <g>
        <path d="M3536.39,694.02l-56.29,56.29c77.8-77.8,77.8-203.92,0.04-281.68c-38.87-38.87-89.92-58.31-140.86-58.31
				c-50.95,0-101.94,19.39-140.86,58.32l56.29-56.29c38.88-38.88,89.91-58.32,140.81-58.27c50.95,0,101.98,19.44,140.86,58.31
				C3614.15,490.15,3614.15,616.27,3536.39,694.02z" style="fill:#f4970f"/>
      </g>
      <g>
        <path d="M3675.18,1491.33l-56.24,56.24c77.8-77.8,77.8-203.92,0.05-281.68c-38.88-38.88-89.87-58.36-140.86-58.31
				c-50.99-0.05-101.98,19.44-140.86,58.31l56.24-56.24c38.92-38.92,89.87-58.36,140.91-58.36c50.95,0,101.94,19.48,140.82,58.36
				C3752.98,1287.41,3752.98,1413.53,3675.18,1491.33z" style="fill:#f4970f"/>
      </g>
      <g>
        <path d="M3050.93,1555.2l-56.24,56.24c-51.45,51.45-134.83,51.45-186.33-0.05c-25.7-25.7-38.56-59.47-38.56-93.09
				c-0.04-33.76,12.81-67.53,38.56-93.19l56.06-56.06c-25.61,25.61-38.37,59.28-38.32,92.96c-0.05,33.67,12.8,67.44,38.51,93.14
				C2916.1,1606.65,2999.48,1606.65,3050.93,1555.2z" style="fill:#f4970f"/>
      </g>
      <g>
        <path d="M3518.98,2023.24l-56.24,56.24c-51.45,51.45-134.92,51.45-186.37,0c-25.66-25.75-38.55-59.47-38.6-93.23
				c0.05-33.67,12.9-67.44,38.6-93.14l56.24-56.24c-25.7,25.7-38.56,59.47-38.56,93.09c0,33.81,12.9,67.53,38.56,93.28
				C3384.06,2074.69,3467.52,2074.69,3518.98,2023.24z" style="fill:#f4970f"/>
      </g>
      <g>
        <path d="M4834.41,1268.29l-56.06,56.06c77.57-77.84,77.48-203.78-0.23-281.49c-38.88-38.97-89.87-58.36-140.82-58.36
				c-51.04,0-101.98,19.44-140.86,58.32l56.29-56.29c38.88-38.88,89.83-58.31,140.81-58.27c50.95,0,101.94,19.39,140.82,58.36
				C4912.16,1064.42,4912.16,1190.54,4834.41,1268.29z" style="fill:#f4970f"/>
      </g>
      <g>
        <path d="M3986.79,2491.52l-56.01,56.01c-51.45,51.45-134.92,51.45-186.37,0c-25.75-25.75-38.65-59.47-38.65-93.19
				c0-33.72,12.89-67.44,38.65-93.19l56.15-56.15c-25.61,25.71-38.55,59.38-38.55,93.1c0.05,33.67,12.9,67.43,38.65,93.19
				C3852.01,2542.65,3935.3,2542.74,3986.79,2491.52z" style="fill:#f4970f"/>
      </g>
      <g>
        <path d="M4886.73,2151.88l-56.24,56.24c77.75-77.75,77.75-203.87,0-281.63c-38.88-38.88-89.82-58.41-140.86-58.41
				c-50.9,0.05-101.75,19.39-140.58,58.13l56.01-56.01c38.88-38.88,89.87-58.36,140.82-58.36c51.04,0,102.03,19.48,140.91,58.36
				C4964.54,1947.95,4964.53,2074.08,4886.73,2151.88z" style="fill:#f4970f"/>
      </g>
      <g>
        <path d="M3100.52,3946.55l-402.78-176.93l-186.37-186.31l-281.68-281.74l-186.37-186.31l-281.68-281.68
				l-186.37-186.38l-281.68-281.68l-186.31-186.37l-281.68-281.68l715.51,425.07c103.54,61.51,230.08,70.42,341.22,24.02
				l998.67-416.97l-0.19,0.72l-333,949.97c-40.69,116.07-22.81,244.65,48,345.21l467.59,664.07L3100.52,3946.55z" style="fill:#f79411"/>
      </g>
      <g>
        <g>
          <g>
            <polygon points="2707.16 2095.85 2706.97 2096.59 1636.55 3304.17 1704.74 2610.07" style="fill:#d22026"/>
          </g>
          <g>
            <polygon points="1704.74 2610.07 1636.55 3304.17 825.47 1897.55" style="fill:#f16065"/>
          </g>
          <g>
            <polygon points="1636.55 3304.17 55.65 3625.37 54.91 3625.17 1001.66 3015.47" style="fill:#e22728"/>
          </g>
          <g>
            <polygon points="825.47 1897.55 1636.55 3304.17 1001.66 3015.47" style="fill:#d22026"/>
          </g>
          <g>
            <polygon points="55.65 3625.37 1636.55 3304.17 1162.35 3795.23" style="fill:#ed4543"/>
          </g>
          <g>
            <polygon points="3098.29 3946.61 1964.28 3872.54 1636.55 3304.17" style="fill:#d22026"/>
          </g>
          <g>
            <polygon points="1636.55 3304.17 1964.28 3872.54 1460.36 4892.31 1447.34 4844.79 1447.07 4844.32" style="fill:#ed4543"/>
          </g>
          <g>
            <polygon points="2706.97 2096.59 2299.57 3139.5 1636.55 3304.17" style="fill:#ed4543"/>
          </g>
          <g>
            <polygon points="1636.55 3304.17 1447.07 4844.32 1162.35 3795.23" style="fill:#d22026"/>
          </g>
          <g>
            <polygon points="3099.77 3947.01 3098.29 3946.61 1636.55 3304.17 2299.57 3139.5" style="fill:#f16065"/>
          </g>
        </g>
      </g>
    </g>
    <g>
      <g>
        <path d="M1440.2,1570.4c-12.42,0-24.83-4.75-34.29-14.24c-18.88-18.94-18.83-49.6,0.11-68.48l547.48-545.74
				c18.94-18.88,49.6-18.83,68.48,0.11c18.88,18.94,18.83,49.6-0.11,68.48l-547.48,545.74
				C1464.93,1565.7,1452.56,1570.4,1440.2,1570.4z" style="fill:#ffd79c"/>
      </g>
      <g>
        <path d="M1204.76,1805.09c-12.42,0-24.83-4.75-34.29-14.24c-18.88-18.94-18.83-49.6,0.11-68.48l84-83.73
				c18.94-18.88,49.6-18.83,68.48,0.11c18.88,18.94,18.83,49.6-0.11,68.48l-84,83.73
				C1229.5,1800.38,1217.13,1805.09,1204.76,1805.09z" style="fill:#ffd79c"/>
      </g>
    </g>
  </g>
</svg>
