<svg xmlns="http://www.w3.org/2000/svg" xml:space="preserve" id="Layer_1" x="0" y="0" style="enable-background:new 0 0 5000 5000" version="1.1" viewBox="0 0 5000 5000">
  <g>
    <g>
      <path d="m806.91 3475.22 117.84 30.91c2.16.57 4.32.83 6.45.83 11.24 0 21.51-7.54 24.49-18.92 3.55-13.54-4.54-27.39-18.08-30.94l-69.55-18.24 75.58-44.93c12.03-7.15 15.98-22.7 8.83-34.73-7.15-12.03-22.7-15.98-34.73-8.83l-75.57 44.93 17.19-69.81c3.35-13.59-4.96-27.32-18.54-30.66-13.59-3.34-27.32 4.96-30.66 18.54l-29.13 118.29-102.69 61.06v-114.4l86.79-85.49c9.97-9.82 10.09-25.86.27-35.83-9.82-9.97-25.87-10.09-35.83-.27l-51.22 50.46v-87.92c0-14-11.35-25.34-25.34-25.34s-25.34 11.34-25.34 25.34v87.92l-51.22-50.46c-9.97-9.82-26.01-9.7-35.83.27-9.82 9.97-9.7 26.01.27 35.83l86.79 85.49v113.93l-101.9-60.59-29.13-118.29c-3.35-13.59-17.08-21.89-30.66-18.54-13.59 3.35-21.89 17.08-18.54 30.66l17.19 69.81-75.57-44.93c-12.03-7.15-27.58-3.2-34.73 8.83s-3.2 27.58 8.83 34.73l75.58 44.93-69.55 18.24c-13.54 3.55-21.63 17.4-18.08 30.94 2.99 11.38 13.25 18.92 24.49 18.92 2.13 0 4.29-.27 6.45-.83l117.84-30.91 106.65 63.41-102.8 69.47-119.43-24.04c-13.72-2.76-27.08 6.12-29.84 19.84s6.12 27.08 19.84 29.84l70.49 14.19-72.85 49.23c-11.6 7.84-14.64 23.59-6.81 35.18 4.9 7.25 12.88 11.15 21.02 11.15 4.88 0 9.82-1.41 14.17-4.35l72.85-49.23-13.13 70.69c-2.56 13.76 6.53 26.98 20.29 29.54 1.56.29 3.12.43 4.65.43 11.97 0 22.62-8.52 24.88-20.72l22.24-119.78 95.58-64.59v120.85l-86.79 85.49c-9.97 9.82-10.09 25.86-.27 35.83 4.96 5.03 11.5 7.56 18.05 7.56 6.42 0 12.85-2.43 17.78-7.29l51.22-50.46v87.92c0 14 11.35 25.34 25.34 25.34s25.34-11.34 25.34-25.34v-87.92l51.22 50.46c4.94 4.86 11.36 7.29 17.78 7.29 6.55 0 13.09-2.52 18.05-7.56 9.82-9.97 9.7-26.01-.27-35.83l-86.79-85.49v-121.39l96.37 65.12 22.24 119.78c2.26 12.2 12.91 20.72 24.88 20.72 1.53 0 3.09-.14 4.65-.43 13.76-2.56 22.84-15.78 20.29-29.54l-13.13-70.69 72.85 49.23c4.35 2.94 9.28 4.35 14.17 4.35 8.13 0 16.12-3.91 21.02-11.15 7.84-11.6 4.79-27.35-6.81-35.18l-72.85-49.23 70.49-14.19c13.72-2.76 22.6-16.12 19.84-29.84s-16.12-22.6-29.84-19.84l-119.43 24.04-102.8-69.47L806.91 3475.22zM3332.63 4290.03l117.84 30.91c2.16.57 4.32.83 6.45.83 11.24 0 21.51-7.54 24.49-18.92 3.55-13.54-4.54-27.39-18.08-30.94l-69.55-18.24 75.58-44.93c12.03-7.15 15.98-22.7 8.83-34.73-7.15-12.03-22.7-15.98-34.73-8.83l-75.58 44.93 17.19-69.81c3.35-13.59-4.96-27.32-18.54-30.66-13.59-3.34-27.32 4.96-30.66 18.54l-29.13 118.29-102.69 61.05v-114.4l86.79-85.49c9.97-9.82 10.09-25.86.27-35.83s-25.86-10.09-35.83-.27l-51.22 50.46v-87.92c0-14-11.34-25.34-25.34-25.34s-25.34 11.34-25.34 25.34v87.92l-51.22-50.46c-9.97-9.82-26.01-9.7-35.83.27-9.82 9.97-9.7 26.01.27 35.83l86.79 85.49v113.93l-101.9-60.58-29.13-118.29c-3.35-13.59-17.07-21.9-30.66-18.54-13.59 3.35-21.89 17.08-18.54 30.66l17.19 69.81-75.58-44.93c-12.03-7.15-27.58-3.2-34.73 8.83-7.15 12.03-3.2 27.58 8.83 34.73l75.58 44.93-69.55 18.24c-13.54 3.55-21.63 17.4-18.08 30.94 2.99 11.38 13.25 18.92 24.49 18.92 2.13 0 4.29-.27 6.45-.83l117.84-30.91 106.65 63.41-102.8 69.47-119.43-24.04c-13.72-2.75-27.08 6.12-29.84 19.84-2.76 13.72 6.12 27.08 19.84 29.84l70.49 14.19-72.85 49.23c-11.59 7.84-14.64 23.59-6.81 35.18 4.9 7.25 12.88 11.15 21.02 11.15 4.88 0 9.82-1.41 14.17-4.35l72.85-49.23-13.13 70.69c-2.55 13.76 6.53 26.98 20.29 29.54 1.56.29 3.12.43 4.65.43 11.97 0 22.62-8.52 24.89-20.72l22.24-119.78 95.58-64.59v120.85l-86.79 85.49c-9.97 9.82-10.09 25.86-.27 35.83 4.96 5.03 11.5 7.56 18.05 7.56 6.42 0 12.85-2.43 17.78-7.29l51.22-50.46v87.92c0 14 11.34 25.34 25.34 25.34s25.34-11.34 25.34-25.34v-87.92l51.22 50.46c4.94 4.86 11.36 7.29 17.78 7.29 6.55 0 13.09-2.52 18.05-7.56 9.82-9.97 9.7-26.01-.27-35.83l-86.79-85.49v-121.39l96.37 65.12 22.24 119.78c2.26 12.2 12.91 20.72 24.89 20.72 1.53 0 3.09-.14 4.65-.43 13.76-2.56 22.84-15.78 20.29-29.54l-13.13-70.69 72.85 49.23c4.35 2.94 9.28 4.35 14.17 4.35 8.13 0 16.12-3.91 21.02-11.15 7.84-11.6 4.79-27.35-6.81-35.18l-72.85-49.23 70.49-14.19c13.72-2.76 22.6-16.12 19.84-29.84-2.76-13.72-16.12-22.6-29.84-19.84l-119.43 24.04-102.8-69.47L3332.63 4290.03zM3896.21 3179.13l70.46 18.48c1.29.34 2.58.5 3.85.5 6.72 0 12.86-4.51 14.65-11.31 2.12-8.09-2.72-16.38-10.81-18.5l-41.59-10.91 45.19-26.87c7.19-4.28 9.56-13.57 5.28-20.77-4.28-7.19-13.57-9.56-20.77-5.28l-45.19 26.87 10.28-41.75c2-8.12-2.96-16.33-11.09-18.33-8.13-2-16.33 2.96-18.33 11.09l-17.42 70.73-61.41 36.51v-68.4l51.89-51.12c5.96-5.87 6.03-15.47.16-21.43-5.87-5.96-15.46-6.03-21.43-.16l-30.63 30.17v-52.57c0-8.37-6.78-15.15-15.15-15.15s-15.15 6.78-15.15 15.15v52.57l-30.63-30.17c-5.96-5.87-15.55-5.8-21.43.16-5.87 5.96-5.8 15.55.16 21.43l51.89 51.12v68.12l-60.93-36.23-17.42-70.73c-2-8.13-10.21-13.09-18.33-11.09-8.13 2-13.09 10.21-11.09 18.33l10.28 41.75-45.19-26.87c-7.19-4.28-16.49-1.91-20.77 5.28-4.28 7.19-1.91 16.49 5.28 20.77l45.19 26.87-41.59 10.91c-8.09 2.12-12.94 10.41-10.81 18.5 1.79 6.81 7.92 11.31 14.65 11.31 1.27 0 2.57-.16 3.85-.5l70.46-18.48 63.77 37.91-61.47 41.54-71.41-14.37c-8.2-1.65-16.19 3.66-17.84 11.86s3.66 16.19 11.86 17.84l42.15 8.48-43.56 29.44c-6.93 4.69-8.76 14.1-4.07 21.04 2.93 4.33 7.7 6.67 12.57 6.67 2.92 0 5.87-.84 8.47-2.6l43.56-29.44-7.85 42.27c-1.53 8.23 3.9 16.14 12.13 17.66.94.17 1.87.26 2.78.26 7.16 0 13.53-5.1 14.88-12.39l13.3-71.62 57.15-38.62v72.26l-51.89 51.12c-5.96 5.87-6.03 15.47-.16 21.43 2.96 3.01 6.88 4.52 10.79 4.52 3.84 0 7.68-1.45 10.63-4.36l30.63-30.17v52.57c0 8.37 6.78 15.15 15.15 15.15s15.15-6.78 15.15-15.15v-52.57l30.63 30.17c2.95 2.91 6.79 4.36 10.63 4.36 3.92 0 7.83-1.51 10.79-4.52 5.87-5.96 5.8-15.55-.16-21.43l-51.89-51.12v-72.58l57.62 38.94 13.3 71.62c1.35 7.29 7.72 12.39 14.88 12.39.92 0 1.85-.08 2.78-.26 8.23-1.53 13.66-9.44 12.13-17.66l-7.85-42.27 43.56 29.44c2.6 1.76 5.55 2.6 8.47 2.6 4.86 0 9.64-2.34 12.57-6.67 4.69-6.93 2.86-16.35-4.07-21.04l-43.56-29.44 42.15-8.48c8.2-1.65 13.52-9.64 11.86-17.84-1.65-8.2-9.63-13.52-17.84-11.86l-71.41 14.37-61.47-41.54L3896.21 3179.13z" style="fill:#4f91ff"/>
      <g>
        <g>
          <g>
            <path d="M3620.36,2702.3c0,50.9-5.43,100.46-15.69,148.28h-159.48c-9.33-381.38-321.4-687.66-704.94-687.66
						c-63.5,0-124.92,8.51-183.41,24.28c-91.62-557.89-558.55-989.28-1133.05-1025.91c-26.28-1.75-52.82-2.59-79.52-2.59
						c-284.07,0-545.64,96.43-753.76,258.3c225.3-259.79,557.83-424.16,928.71-424.16c26.7,0,53.24,0.83,79.52,2.58
						c574.49,36.64,1041.43,468.03,1133.05,1025.92c58.49-15.77,119.9-24.29,183.4-24.29
						C3304.61,1997.05,3620.36,2312.8,3620.36,2702.3z" style="fill:#6ea0db"/>
          </g>
          <g>
            <path d="M3445.19,2850.58H705.93c-354.5,0-648.68-281.37-656.12-635.79c-0.1-5.12-0.16-10.25-0.16-15.39
						c0-162,53.54-311.42,143.9-431.62c63.48-84.46,145.15-154.49,239.19-204.3c22.61-11.99,45.94-22.8,69.91-32.36
						c27.07-39.77,56.42-77.87,87.86-114.12c208.12-161.87,469.69-258.3,753.76-258.3c26.7,0,53.24,0.84,79.52,2.59
						c574.5,36.63,1041.43,468.02,1133.05,1025.91c58.49-15.77,119.91-24.28,183.41-24.28
						C3123.79,2162.92,3435.86,2469.2,3445.19,2850.58z" style="fill:#86aeea"/>
          </g>
        </g>
        <g>
          <g>
            <path d="M3797.23,2562.01c0,50.9-5.38,240.76-15.65,288.58h-176.9c10.27-47.82,15.7-97.4,15.7-148.3
						c0-389.49-315.76-705.25-705.2-705.25c-63.47,0-124.91,8.51-183.38,24.32c-91.64-557.89-558.55-989.33-1133.07-1025.95
						c16.91-49.19,37.45-96.74,61.33-142.31c11.97-0.38,23.99-0.55,36.07-0.55c26.68,0,53.2,0.88,79.5,2.58
						c574.47,36.68,1041.43,468.06,1133.07,1025.95c58.48-15.76,119.86-24.32,183.38-24.32
						C3481.53,1856.76,3797.23,2172.51,3797.23,2562.01z" style="fill:#dde6f5"/>
          </g>
        </g>
        <g>
          <g>
            <path d="M4937.06,2367.97h0.11c-82.96,466.25-540.15,482.61-540.15,482.61h-615.43
						c10.27-47.82,15.65-237.68,15.65-288.58c0-389.5-315.7-705.25-705.14-705.25c-63.53,0-124.91,8.57-183.38,24.32
						c-91.64-557.89-558.6-989.28-1133.07-1025.95c-26.3-1.7-52.82-2.58-79.5-2.58c-12.08,0-24.1,0.16-36.07,0.55
						c173.39-332.01,520.99-558.66,921.47-558.66c525.66,0,960.23,390.48,1029.25,897.26c15.16-1.26,30.53-1.92,46.07-1.92
						c299.94,0,544.27,238.78,553.06,536.69c58.47-21.03,121.45-32.45,187.12-32.45c305.6,0,553.33,247.73,553.33,553.28
						C4950.35,2288.75,4945.73,2329.16,4937.06,2367.97z" style="fill:#ecf3fb"/>
          </g>
        </g>
      </g>
    </g>
    <g>
      <g>
        <g>
          <g>
            <path d="M3030.42,3646.97c-38.86,23.98-81.9,29.93-117.45,11.88c-63.98-32.48-79.53-130.3-34.76-218.49
						c44.78-88.18,269.6-244.04,269.6-244.04s0.11,5.06,0.23,14.03c-68.33,50.73-191.39,147.79-223.27,210.56
						c-44.77,88.18-29.22,186.01,34.73,218.48C2981.23,3650.42,3005.75,3652.5,3030.42,3646.97z" style="fill:#51c9eb"/>
          </g>
          <g>
            <path d="M3109.85,3557.97c-19.88,39.15-48.32,69.84-79.43,89c-24.66,5.53-49.18,3.44-70.91-7.59
						c-63.95-32.47-79.51-130.29-34.73-218.48c31.87-62.77,154.94-159.83,223.27-210.56
						C3148.72,3267.27,3148.53,3481.78,3109.85,3557.97z" style="fill:#71d8f8"/>
          </g>
        </g>
        <g>
          <g>
            <path d="M2259.85,3646.97c-38.86,23.98-81.9,29.93-117.45,11.88c-63.98-32.48-79.53-130.3-34.76-218.49
						c44.78-88.18,269.6-244.04,269.6-244.04s0.11,5.06,0.23,14.03c-68.33,50.73-191.39,147.79-223.27,210.56
						c-44.77,88.18-29.22,186.01,34.73,218.48C2210.66,3650.42,2235.18,3652.5,2259.85,3646.97z" style="fill:#51c9eb"/>
          </g>
          <g>
            <path d="M2339.28,3557.97c-19.88,39.15-48.32,69.84-79.43,89c-24.66,5.53-49.18,3.44-70.91-7.59
						c-63.95-32.47-79.51-130.29-34.73-218.48c31.87-62.77,154.94-159.83,223.27-210.56
						C2378.15,3267.27,2377.96,3481.78,2339.28,3557.97z" style="fill:#71d8f8"/>
          </g>
        </g>
        <g>
          <g>
            <path d="M1505.83,3646.97c-38.86,23.98-81.9,29.93-117.45,11.88c-63.98-32.48-79.53-130.3-34.76-218.49
						c44.78-88.18,269.6-244.04,269.6-244.04s0.11,5.06,0.23,14.03c-68.33,50.73-191.39,147.79-223.27,210.56
						c-44.77,88.18-29.22,186.01,34.73,218.48C1456.65,3650.42,1481.17,3652.5,1505.83,3646.97z" style="fill:#51c9eb"/>
          </g>
          <g>
            <path d="M1585.26,3557.97c-19.88,39.15-48.32,69.84-79.43,89c-24.66,5.53-49.18,3.44-70.91-7.59
						c-63.95-32.47-79.51-130.29-34.73-218.48c31.87-62.77,154.94-159.83,223.27-210.56
						C1624.13,3267.27,1623.95,3481.78,1585.26,3557.97z" style="fill:#71d8f8"/>
          </g>
        </g>
      </g>
      <g>
        <g>
          <g>
            <path d="M2525.38,4120.02c-38.86,23.98-81.9,29.93-117.45,11.88c-63.98-32.48-79.53-130.3-34.76-218.49
						c44.78-88.18,269.6-244.04,269.6-244.04s0.11,5.06,0.23,14.03c-68.33,50.73-191.39,147.79-223.27,210.56
						c-44.77,88.18-29.22,186.01,34.73,218.48C2476.2,4123.47,2500.72,4125.55,2525.38,4120.02z" style="fill:#51c9eb"/>
          </g>
          <g>
            <path d="M2604.81,4031.02c-19.88,39.15-48.32,69.84-79.43,89c-24.66,5.53-49.18,3.44-70.91-7.59
						c-63.95-32.47-79.51-130.29-34.73-218.48c31.87-62.77,154.94-159.83,223.27-210.56
						C2643.68,3740.32,2643.5,3954.83,2604.81,4031.02z" style="fill:#71d8f8"/>
          </g>
        </g>
        <g>
          <g>
            <path d="M1754.81,4120.02c-38.86,23.98-81.9,29.93-117.45,11.88c-63.98-32.48-79.53-130.3-34.76-218.49
						c44.78-88.18,269.6-244.04,269.6-244.04s0.11,5.06,0.23,14.03c-68.33,50.73-191.39,147.79-223.27,210.56
						c-44.77,88.18-29.22,186.01,34.73,218.48C1705.63,4123.47,1730.15,4125.55,1754.81,4120.02z" style="fill:#51c9eb"/>
          </g>
          <g>
            <path d="M1834.24,4031.02c-19.88,39.15-48.32,69.84-79.43,89c-24.66,5.53-49.18,3.44-70.91-7.59
						c-63.95-32.47-79.51-130.29-34.73-218.48c31.87-62.77,154.94-159.83,223.27-210.56
						C1873.11,3740.32,1872.93,3954.83,1834.24,4031.02z" style="fill:#71d8f8"/>
          </g>
        </g>
      </g>
    </g>
  </g>
</svg>
