<svg xmlns="http://www.w3.org/2000/svg" xml:space="preserve" id="Layer_1" x="0" y="0" style="enable-background:new 0 0 5000 5000" version="1.1" viewBox="0 0 5000 5000">
  <g>
    <g>
      <g>
        <path d="M3620,3114.73c0,50.9-5.43,100.46-15.69,148.28h-159.48c-9.33-381.38-321.4-687.66-704.94-687.66
				c-63.5,0-124.92,8.51-183.41,24.28c-91.62-557.89-558.55-989.28-1133.05-1025.91c-26.28-1.75-52.82-2.59-79.52-2.59
				c-284.07,0-545.64,96.43-753.76,258.3c225.3-259.79,557.83-424.16,928.71-424.16c26.7,0,53.24,0.83,79.52,2.58
				c574.49,36.64,1041.43,468.03,1133.05,1025.92c58.49-15.77,119.9-24.29,183.4-24.29C3304.25,2409.48,3620,2725.23,3620,3114.73z" style="fill:#6ea0db"/>
        <path d="M3444.83,3263.01H705.57c-354.5,0-648.68-281.37-656.12-635.79c-0.1-5.12-0.16-10.25-0.16-15.39
				c0-162,53.54-311.42,143.9-431.62c63.48-84.46,145.15-154.49,239.19-204.3c22.61-11.99,45.94-22.8,69.91-32.36
				c27.07-39.77,56.42-77.87,87.86-114.12c208.12-161.87,469.69-258.3,753.76-258.3c26.7,0,53.24,0.84,79.52,2.59
				c574.5,36.63,1041.43,468.02,1133.05,1025.91c58.49-15.77,119.91-24.28,183.41-24.28
				C3123.43,2575.35,3435.5,2881.63,3444.83,3263.01z" style="fill:#86aeea"/>
      </g>
      <g>
        <path d="M3796.87,2974.44c0,50.9-5.38,240.76-15.65,288.58h-176.9c10.27-47.82,15.7-97.4,15.7-148.3
				c0-389.49-315.76-705.25-705.2-705.25c-63.47,0-124.91,8.51-183.38,24.32c-91.64-557.89-558.55-989.33-1133.07-1025.95
				c16.91-49.19,37.45-96.74,61.33-142.31c11.97-0.38,23.99-0.55,36.07-0.55c26.68,0,53.2,0.88,79.5,2.58
				c574.47,36.68,1041.43,468.06,1133.07,1025.95c58.48-15.76,119.86-24.32,183.38-24.32
				C3481.17,2269.19,3796.87,2584.95,3796.87,2974.44z" style="fill:#dde6f5"/>
      </g>
      <g>
        <path d="M4936.69,2780.41h0.11c-82.96,466.25-540.15,482.61-540.15,482.61h-615.43
				c10.27-47.82,15.65-237.68,15.65-288.58c0-389.5-315.7-705.25-705.14-705.25c-63.53,0-124.91,8.57-183.38,24.32
				c-91.64-557.89-558.6-989.28-1133.07-1025.95c-26.3-1.7-52.82-2.58-79.5-2.58c-12.08,0-24.1,0.16-36.07,0.55
				c173.39-332.01,520.99-558.66,921.47-558.66c525.66,0,960.23,390.48,1029.25,897.26c15.16-1.26,30.53-1.92,46.07-1.92
				c299.94,0,544.27,238.78,553.06,536.69c58.47-21.03,121.45-32.45,187.12-32.45c305.6,0,553.33,247.73,553.33,553.28
				C4949.98,2701.18,4945.37,2741.59,4936.69,2780.41z" style="fill:#ecf3fb"/>
      </g>
    </g>
    <g>
      <g>
        <path d="m943.11 3698.04-69.29-18.17 75.29-44.76c11.98-7.12 15.92-22.62 8.8-34.6-7.13-11.98-22.62-15.92-34.6-8.8l-75.29 44.76 17.13-69.55c3.33-13.54-4.94-27.21-18.48-30.55-13.54-3.34-27.22 4.94-30.55 18.47l-29.02 117.84-102.31 60.83v-113.97l86.46-85.17c9.93-9.78 10.05-25.77.27-35.7s-25.77-10.05-35.7-.27l-51.03 50.27v-87.59c0-13.94-11.3-25.24-25.24-25.24s-25.24 11.3-25.24 25.24v87.59l-51.03-50.27c-9.93-9.78-25.92-9.66-35.7.27-9.78 9.93-9.66 25.92.27 35.7l86.46 85.17v113.5l-101.52-60.36-29.02-117.84c-3.33-13.54-17.01-21.81-30.55-18.47-13.54 3.33-21.81 17.01-18.47 30.55l17.13 69.55-75.29-44.76c-11.98-7.12-27.48-3.19-34.6 8.8-7.12 11.98-3.19 27.48 8.8 34.6l75.29 44.76-69.29 18.17c-13.49 3.54-21.55 17.34-18.01 30.82 2.97 11.34 13.2 18.85 24.4 18.85 2.12 0 4.28-.27 6.42-.83l117.4-30.79 106.25 63.17-102.42 69.21-118.98-23.95c-13.66-2.75-26.98 6.1-29.73 19.77s6.1 26.98 19.77 29.73l70.22 14.13-72.58 49.05c-11.55 7.81-14.59 23.5-6.78 35.05 4.88 7.22 12.84 11.11 20.94 11.11 4.86 0 9.78-1.4 14.11-4.33l72.58-49.05-13.08 70.43c-2.54 13.71 6.5 26.88 20.21 29.43 1.56.29 3.11.43 4.64.43 11.93 0 22.54-8.49 24.79-20.64l22.16-119.33 95.22-64.35v120.4l-86.46 85.17c-9.93 9.78-10.05 25.77-.27 35.7 4.94 5.02 11.46 7.53 17.99 7.53 6.4 0 12.8-2.42 17.71-7.26l51.03-50.27v87.59c0 13.94 11.3 25.24 25.24 25.24s25.24-11.3 25.24-25.24v-87.59l51.03 50.27c4.92 4.84 11.32 7.26 17.71 7.26 6.52 0 13.05-2.51 17.99-7.53 9.78-9.93 9.66-25.92-.27-35.7l-86.46-85.17v-120.93l96.01 64.88 22.16 119.33c2.26 12.15 12.86 20.64 24.79 20.64 1.53 0 3.08-.14 4.64-.43 13.71-2.54 22.76-15.72 20.21-29.43l-13.08-70.43 72.58 49.05c4.33 2.93 9.25 4.33 14.11 4.33 8.1 0 16.06-3.89 20.94-11.11 7.81-11.55 4.77-27.24-6.78-35.05l-72.58-49.05 70.22-14.13c13.67-2.75 22.52-16.06 19.77-29.73-2.75-13.67-16.06-22.52-29.73-19.77l-118.98 23.95-102.42-69.21 106.25-63.17 117.4 30.79c2.15.56 4.3.83 6.42.83 11.2 0 21.43-7.51 24.4-18.85C964.66 3715.38 956.59 3701.58 943.11 3698.04zM4074.97 1198.12l117.4 30.79c2.15.56 4.3.83 6.42.83 11.2 0 21.43-7.51 24.4-18.85 3.54-13.49-4.53-27.29-18.01-30.82l-69.29-18.17 75.29-44.76c11.98-7.12 15.92-22.62 8.8-34.6-7.13-11.98-22.62-15.92-34.6-8.8l-75.29 44.76 17.13-69.55c3.33-13.54-4.94-27.21-18.47-30.55-13.54-3.33-27.21 4.94-30.55 18.48l-29.02 117.84-102.31 60.83v-113.97l86.46-85.17c9.93-9.78 10.05-25.77.27-35.7-9.78-9.93-25.77-10.05-35.7-.27l-51.03 50.27v-87.59c0-13.94-11.3-25.24-25.24-25.24s-25.24 11.3-25.24 25.24v87.59l-51.03-50.27c-9.93-9.78-25.92-9.66-35.7.27-9.78 9.93-9.66 25.92.27 35.7l86.46 85.17v113.5l-101.52-60.36-29.02-117.84c-3.33-13.54-17.01-21.81-30.55-18.48-13.54 3.33-21.81 17.01-18.47 30.55l17.13 69.55-75.29-44.76c-11.98-7.12-27.48-3.19-34.6 8.8-7.12 11.98-3.19 27.48 8.8 34.6l75.29 44.76-69.29 18.17c-13.49 3.54-21.55 17.34-18.01 30.82 2.97 11.34 13.2 18.85 24.4 18.85 2.12 0 4.28-.27 6.42-.83l117.39-30.79 106.25 63.17-102.42 69.21-118.98-23.95c-13.67-2.75-26.98 6.1-29.73 19.77-2.75 13.67 6.1 26.98 19.77 29.73l70.22 14.13-72.58 49.05c-11.55 7.81-14.59 23.5-6.78 35.05 4.88 7.22 12.84 11.11 20.94 11.11 4.86 0 9.78-1.4 14.11-4.33l72.58-49.05-13.08 70.43c-2.54 13.71 6.5 26.88 20.21 29.43 1.56.29 3.11.43 4.64.43 11.93 0 22.54-8.49 24.79-20.64l22.16-119.33 95.22-64.35v120.4l-86.46 85.17c-9.93 9.78-10.05 25.77-.27 35.7 4.94 5.02 11.46 7.53 17.99 7.53 6.4 0 12.8-2.42 17.71-7.26l51.03-50.27v87.59c0 13.94 11.3 25.24 25.24 25.24s25.24-11.3 25.24-25.24v-87.59l51.03 50.27c4.92 4.84 11.32 7.26 17.71 7.26 6.52 0 13.04-2.51 17.99-7.53 9.78-9.93 9.66-25.92-.27-35.7l-86.46-85.17v-120.93l96.01 64.88 22.16 119.33c2.26 12.15 12.86 20.64 24.79 20.64 1.53 0 3.08-.14 4.64-.43 13.71-2.55 22.76-15.72 20.21-29.43l-13.08-70.43 72.58 49.05c4.33 2.93 9.25 4.33 14.11 4.33 8.1 0 16.06-3.89 20.94-11.11 7.81-11.55 4.77-27.24-6.78-35.05l-72.58-49.05 70.22-14.13c13.67-2.75 22.52-16.06 19.77-29.73-2.75-13.67-16.06-22.52-29.73-19.77l-118.98 23.95-102.42-69.21L4074.97 1198.12zM3393.78 3596.66l-41.43-10.87 45.02-26.77c7.17-4.26 9.52-13.52 5.26-20.69-4.26-7.17-13.52-9.52-20.69-5.26l-45.02 26.77 10.24-41.59c1.99-8.09-2.95-16.27-11.05-18.27-8.09-2-16.27 2.95-18.27 11.05l-17.35 70.47-61.17 36.37v-68.14l51.7-50.93c5.94-5.85 6.01-15.41.16-21.35-5.85-5.94-15.41-6.01-21.35-.16l-30.51 30.06v-52.38c0-8.34-6.76-15.09-15.09-15.09s-15.09 6.76-15.09 15.09v52.38l-30.51-30.06c-5.94-5.85-15.5-5.78-21.35.16-5.85 5.94-5.78 15.5.16 21.35l51.7 50.93v67.87l-60.7-36.09-17.35-70.46c-1.99-8.09-10.17-13.04-18.27-11.05-8.09 1.99-13.04 10.17-11.05 18.27l10.24 41.59-45.02-26.77c-7.17-4.26-16.43-1.91-20.69 5.26-4.26 7.17-1.91 16.43 5.26 20.69l45.02 26.77-41.43 10.87c-8.06 2.12-12.89 10.37-10.77 18.43 1.78 6.78 7.89 11.27 14.59 11.27 1.27 0 2.56-.16 3.84-.5l70.2-18.41 63.53 37.77-61.24 41.39-71.14-14.32c-8.18-1.64-16.13 3.65-17.78 11.82-1.65 8.17 3.65 16.13 11.82 17.78l41.99 8.45-43.4 29.33c-6.91 4.67-8.72 14.05-4.05 20.96 2.92 4.32 7.68 6.64 12.52 6.64 2.91 0 5.85-.84 8.44-2.59l43.4-29.33-7.82 42.11c-1.52 8.2 3.89 16.08 12.08 17.6.93.17 1.86.26 2.77.26 7.13 0 13.47-5.08 14.82-12.34l13.25-71.35 56.94-38.48v71.99l-51.7 50.93c-5.94 5.85-6.01 15.41-.16 21.35 2.95 3 6.85 4.5 10.75 4.5 3.82 0 7.65-1.45 10.59-4.34l30.51-30.06v52.38c0 8.34 6.76 15.09 15.09 15.09s15.09-6.76 15.09-15.09v-52.38l30.51 30.06c2.94 2.9 6.77 4.34 10.59 4.34 3.9 0 7.8-1.5 10.75-4.5 5.85-5.94 5.78-15.5-.16-21.35l-51.7-50.93v-72.31l57.41 38.79 13.25 71.35c1.35 7.27 7.69 12.34 14.82 12.34.91 0 1.84-.08 2.77-.26 8.2-1.52 13.61-9.4 12.08-17.6l-7.82-42.11 43.4 29.33c2.59 1.75 5.53 2.59 8.44 2.59 4.84 0 9.6-2.33 12.52-6.64 4.67-6.91 2.85-16.29-4.05-20.96l-43.4-29.33 41.99-8.45c8.17-1.64 13.46-9.6 11.82-17.78-1.64-8.17-9.61-13.46-17.78-11.82l-71.14 14.32-61.24-41.39 63.53-37.77 70.2 18.41c1.28.34 2.57.5 3.84.5 6.7 0 12.81-4.49 14.59-11.27C3406.67 3607.03 3401.85 3598.78 3393.78 3596.66zM2038.06 3350.23c-93.65 0-169.83 76.19-169.83 169.83 0 77.75 63.25 141 141 141 65.03 0 117.93-52.9 117.93-117.93 0-54.85-44.63-99.48-99.48-99.48-14.17 0-25.67 11.49-25.67 25.67s11.49 25.67 25.67 25.67c26.55 0 48.15 21.6 48.15 48.15 0 36.72-29.88 66.6-66.6 66.6-49.44 0-89.67-40.22-89.67-89.67 0-65.34 53.16-118.5 118.5-118.5 85.22 0 154.54 69.33 154.54 154.54 0 110.06-89.54 199.6-199.6 199.6h-476.64c-14.17 0-25.67 11.49-25.67 25.67s11.49 25.67 25.67 25.67h476.64c67.03 0 130.04-26.1 177.43-73.5s73.5-110.41 73.5-177.43C2243.94 3442.58 2151.58 3350.23 2038.06 3350.23zM3055.28 4005.76h-476.64c-110.06 0-199.6-89.54-199.6-199.6 0-85.22 69.33-154.54 154.54-154.54 65.34 0 118.5 53.16 118.5 118.5 0 49.44-40.22 89.67-89.67 89.67-36.72 0-66.6-29.88-66.6-66.6 0-26.55 21.6-48.15 48.15-48.15 14.17 0 25.67-11.49 25.67-25.67s-11.49-25.67-25.67-25.67c-54.85 0-99.48 44.63-99.48 99.48 0 65.03 52.9 117.93 117.93 117.93 77.75 0 141-63.25 141-141 0-93.65-76.19-169.83-169.83-169.83-113.52 0-205.88 92.36-205.88 205.88 0 67.03 26.1 130.04 73.5 177.43 47.39 47.39 110.41 73.5 177.43 73.5h476.64c14.17 0 25.67-11.49 25.67-25.67S3069.45 4005.76 3055.28 4005.76z" style="fill:#4f91ff"/>
      </g>
      <g>
        <path d="M2079.74,4317.99c-93.65,0-169.83-76.19-169.83-169.83c0-77.75,63.25-141,141-141
				c65.03,0,117.93,52.91,117.93,117.93c0,54.85-44.63,99.48-99.48,99.48c-14.17,0-25.67-11.49-25.67-25.67s11.49-25.67,25.67-25.67
				c26.55,0,48.15-21.6,48.15-48.15c0-36.72-29.88-66.6-66.6-66.6c-49.44,0-89.67,40.22-89.67,89.67
				c0,65.34,53.16,118.5,118.5,118.5c85.22,0,154.54-69.33,154.54-154.54c0-110.06-89.54-199.6-199.6-199.6h-883.85
				c-14.17,0-25.67-11.49-25.67-25.67s11.49-25.67,25.67-25.67h883.85c67.03,0,130.04,26.1,177.43,73.5
				c47.39,47.39,73.49,110.41,73.49,177.43C2285.62,4225.63,2193.26,4317.99,2079.74,4317.99z" style="fill:#3e76ef"/>
      </g>
    </g>
  </g>
</svg>
