<svg xmlns="http://www.w3.org/2000/svg" xml:space="preserve" id="Layer_1" x="0" y="0" style="enable-background:new 0 0 5000 5000" version="1.1" viewBox="0 0 5000 5000">
  <g>
    <g>
      <g>
        <g>
          <path d="M4931.59,2589.46c0,266.01-174.86,491.16-415.94,566.89c17.73-56.2,27.24-116.09,27.24-178.2
					c0-328.21-266.1-594.22-594.22-594.22c-119.17,0-230.2,35.13-323.24,95.52c-81.13-231.57-301.57-397.52-560.73-397.52
					c-14.48,0-28.78,0.51-43.01,1.54c5.83-40.27,8.91-81.39,8.91-123.28c0-470.68-381.58-852.27-852.35-852.27
					c-135.1,0-262.84,31.44-376.36,87.39c138.96-282.03,429.3-476.16,765.05-476.16c470.77,0,852.35,381.67,852.35,852.35
					c0,41.89-3.08,83.02-8.91,123.28c14.22-1.03,28.53-1.54,43.01-1.54c259.16,0,479.59,165.95,560.73,397.52
					c93.04-60.4,204.07-95.52,323.24-95.52C4665.49,1995.24,4931.59,2261.25,4931.59,2589.46z" style="fill:#dde6f5"/>
        </g>
        <g>
          <path d="M4542.89,2978.15c0,62.12-9.51,122-27.24,178.2c-56.29,17.73-116.17,27.24-178.28,27.24H662.63
					c-327.52,0-593.1-264.9-594.22-592.08v-2.05c0-62.11,9.51-122,27.24-178.28c75.74-241.09,300.88-415.94,566.98-415.94
					c19.02,0,37.79,0.85,56.29,2.65c53.89,5.06,105.72,17.31,154.38,35.81c6.94-51.74,19.79-101.6,37.95-148.9
					c91.16-239.11,314.94-412.76,581.46-431.1c15.42-1.02,30.93-1.54,46.61-1.54c62.53,0,123.11,8.57,180.51,24.59h0.08
					c10.2-92.01,34.96-179.65,72.05-260.44c3.17-7.03,6.51-14.05,9.94-20.99c113.52-55.95,241.25-87.39,376.36-87.39
					c470.76,0,852.35,381.58,852.35,852.27c0,41.89-3.08,83.01-8.91,123.28c14.22-1.03,28.53-1.54,43.01-1.54
					c259.15,0,479.59,165.94,560.72,397.51c93.04-60.39,204.07-95.52,323.24-95.52C4276.79,2383.93,4542.89,2649.94,4542.89,2978.15
					z" style="fill:#ccdbf2"/>
        </g>
        <g>
          <path d="M2859.18,2495.22c0,0-270.15-653.57-835.56-398.29c-49.59-159.18-793.1-328.71-980.36,260.59
					c-267.12-264.81-826.12,121.13-583.8,517.7c0,0,66.09,198.27,454.87,308.37c2.8,0.79,5.14,2.74,7.8,4.11h-259.5
					c-328.21,0-594.22-266.01-594.22-594.14v-4.11c2.23-326.33,267.38-590.11,594.22-590.11c74.19,0,145.22,13.62,210.67,38.47
					c44.21-328.3,325.55-581.54,666.02-581.54c62.54,0,123.11,8.57,180.51,24.59c165.6,46,305.51,153.95,393.15,297.2
					c76.93-41.72,165.09-65.37,258.82-65.37c84.3,0,164.15,19.19,235.43,53.54C2885.52,1937.75,2951.61,2181.28,2859.18,2495.22z" style="fill:#dde6f5"/>
        </g>
        <g>
          <ellipse cx="1595.01" cy="1645.17" rx="80.78" ry="209.28" style="fill:#ecf3fb" transform="rotate(-81.773 1594.975 1645.177)"/>
        </g>
        <g>
          <ellipse cx="2389.55" cy="849.19" rx="165.94" ry="64.05" style="fill:#ecf3fb" transform="rotate(-13.233 2390.01 849.306)"/>
        </g>
        <g>
          <ellipse cx="2714.51" cy="855.22" rx="43.12" ry="83.15" style="fill:#ecf3fb" transform="rotate(-77.807 2714.699 855.225)"/>
        </g>
        <g>
          <ellipse cx="4550.04" cy="2120.88" rx="43.12" ry="83.15" style="fill:#ecf3fb" transform="rotate(-66.466 4550.064 2120.962)"/>
        </g>
        <g>
          <ellipse cx="2500" cy="1884.46" rx="56.8" ry="147.17" style="fill:#ecf3fb" transform="rotate(-73.508 2499.99 1884.378)"/>
        </g>
        <g>
          <path d="M1725.98,1455.89c167.43,48.16,314.68,162.53,403.02,312.36c0,0-24.97-6.71-24.97-6.71l9.89-5.01
					c2.52-1.29,7.39-3.71,9.95-4.86c43.16-20.58,89.29-35.62,136.3-44.41c61.33-11.55,124.57-12.77,186.27-3.66
					c207.93,29.38,387.04,182.3,448.1,383.07c0,0,1.59,5.19,1.59,5.19l0.79,2.6c0.13,0.44,0.26,0.83,0.4,1.36
					c1.93,7.5,3.57,15.02,5.09,22.53c13.76,70.41,17.85,143.08,8.89,214.34c-7.12,56.76-23.6,112.8-52.13,162.51
					c27.06-50.32,41.93-106.41,47.46-163.04c6.92-70.68,0.94-142.4-14.55-211.58c-1.84-7.72-3.61-15.39-5.92-22.91
					c0,0-0.84-2.5-0.84-2.5l-1.68-5c-65.57-195.78-245.74-340.28-451.31-359.83c-86.2-8.54-174.52,3.99-254.57,37.16
					c-15.78,6.59-31.68,14.01-46.74,22.14c-6.29,3.31-18.34,9.98-24.56,13.28c0,0-9.51-15.07-9.51-15.07
					c-65.42-103.8-160.14-188.1-270.65-240.71c-44.17-21.43-122.74-63.44-209.7-86.47
					C1616.61,1460.68,1725.98,1455.89,1725.98,1455.89L1725.98,1455.89z" style="fill:#bdceec"/>
        </g>
      </g>
      <g>
        <path d="M3337.39,3129.77l90.52,53.82h-434.65c8.21-7.31,18.22-12.84,29.56-15.81l66.64-17.49l-84.31-50.13
				c-16.57-9.85-28.32-25.56-33.07-44.24c-4.75-18.69-1.94-38.1,7.91-54.67c12.95-21.77,36.73-35.3,62.08-35.3
				c12.94,0,25.68,3.51,36.84,10.14l84.32,50.13l-16.48-66.9c-9.51-38.64,14.18-77.82,52.82-87.33c5.67-1.4,11.49-2.11,17.29-2.11
				c33.28,0,62.08,22.59,70.04,54.92L3337.39,3129.77z" style="fill:#bdceec"/>
        <path d="M3769.14,2912.11l-150.38,148.14v123.34h-144.34v-123.34l-150.38-148.14
				c-13.74-13.53-21.38-31.59-21.52-50.87c-0.15-19.28,7.22-37.46,20.75-51.19c13.67-13.88,31.93-21.52,51.42-21.52
				c19.07,0,37.06,7.37,50.64,20.75l49.09,48.35v-98.09c0-39.8,32.37-72.17,72.17-72.17c39.79,0,72.17,32.37,72.17,72.17v98.09
				l49.08-48.35c13.59-13.38,31.58-20.75,50.65-20.75c19.48,0,37.74,7.64,51.42,21.52
				C3797.83,2838.4,3797.49,2884.18,3769.14,2912.11z" style="fill:#b3d2ff"/>
        <path d="M4089.47,3100.16l-84.32,50.13l66.65,17.49c11.34,2.97,21.35,8.5,29.56,15.81H3666.7l90.53-53.82
				l50.48-204.97c7.96-32.33,36.77-54.92,70.04-54.92c5.81,0,11.63,0.71,17.3,2.11c38.64,9.51,62.33,48.69,52.82,87.33l-16.48,66.9
				l84.32-50.13c11.16-6.63,23.89-10.14,36.83-10.14c25.35,0,49.14,13.53,62.08,35.3
				C4134.96,3035.45,4123.68,3079.83,4089.47,3100.16z" style="fill:#bdceec"/>
        <path d="m3827.06 3225.93 214.71 56.32c3.93 1.03 7.87 1.52 11.74 1.52 20.48 0 39.19-13.73 44.63-34.47 6.47-24.67-8.28-49.91-32.95-56.38l-126.72-33.24 137.7-81.87c21.92-13.03 29.12-41.36 16.09-63.28s-41.36-29.12-63.28-16.09l-137.7 81.87 31.33-127.21c6.1-24.76-9.03-49.77-33.79-55.87-24.76-6.1-49.77 9.03-55.87 33.79l-53.08 215.53-187.11 111.25v-208.44l158.13-155.77c18.17-17.9 18.39-47.13.49-65.29-17.89-18.17-47.13-18.38-65.29-.49l-93.33 91.94v-160.2c0-25.5-20.67-46.17-46.17-46.17s-46.17 20.67-46.17 46.17v160.2l-93.33-91.94c-18.17-17.89-47.4-17.68-65.29.49-17.9 18.17-17.68 47.4.49 65.29l158.13 155.77v207.58l-185.67-110.39-53.08-215.53c-6.1-24.76-31.11-39.88-55.87-33.79-24.76 6.1-39.89 31.11-33.79 55.87l31.33 127.21-137.7-81.87c-21.92-13.03-50.25-5.83-63.28 16.09-13.03 21.92-5.83 50.25 16.09 63.28l137.7 81.87-126.72 33.24c-24.66 6.47-39.42 31.71-32.95 56.38 5.44 20.74 24.15 34.47 44.63 34.47 3.88 0 7.82-.49 11.75-1.52l214.71-56.32 194.32 115.53-187.31 126.58-217.61-43.8c-25-5.03-49.34 11.15-54.37 36.15s11.15 49.34 36.15 54.37l128.43 25.85-132.74 89.7c-21.13 14.28-26.68 42.98-12.4 64.11 8.92 13.2 23.48 20.32 38.3 20.32 8.89 0 17.89-2.57 25.81-7.92l132.74-89.7-23.92 128.81c-4.66 25.07 11.89 49.17 36.97 53.82 2.85.53 5.68.78 8.48.78 21.81 0 41.22-15.53 45.34-37.75l40.52-218.24 174.15-117.69v220.2l-158.13 155.77c-18.17 17.89-18.39 47.13-.49 65.29 9.04 9.17 20.96 13.77 32.89 13.77 11.7 0 23.41-4.42 32.4-13.28l93.33-91.94v160.2c0 25.5 20.67 46.17 46.17 46.17s46.17-20.67 46.17-46.17v-160.2l93.33 91.94c8.99 8.86 20.7 13.28 32.4 13.28 11.93 0 23.86-4.6 32.89-13.77 17.9-18.17 17.68-47.4-.49-65.29l-158.13-155.77v-221.18l175.59 118.66 40.52 218.24c4.13 22.22 23.53 37.75 45.34 37.75 2.8 0 5.63-.25 8.48-.78 25.07-4.66 41.62-28.75 36.97-53.82l-23.92-128.81 132.74 89.7c7.92 5.36 16.91 7.92 25.81 7.92 14.82 0 29.38-7.12 38.3-20.32 14.28-21.13 8.72-49.83-12.4-64.11l-132.74-89.7 128.43-25.85c25-5.03 41.18-29.38 36.15-54.37-5.03-25-29.38-41.19-54.37-36.15l-217.61 43.8-187.31-126.58L3827.06 3225.93zM2627.13 3465.44l-52.39-13.74 56.94-33.85c9.06-5.39 12.04-17.1 6.65-26.17-5.39-9.06-17.1-12.04-26.17-6.65l-56.94 33.85 12.95-52.6c2.52-10.24-3.73-20.58-13.97-23.1-10.24-2.52-20.58 3.73-23.1 13.97l-21.95 89.12-77.37 46v-86.18l65.38-64.41c7.51-7.4 7.6-19.49.2-27-7.4-7.51-19.49-7.6-27-.2l-38.59 38.01v-66.24c0-10.54-8.55-19.09-19.09-19.09s-19.09 8.55-19.09 19.09v66.24l-38.59-38.01c-7.51-7.4-19.6-7.31-27 .2-7.4 7.51-7.31 19.6.2 27l65.38 64.41v85.83l-76.77-45.64-21.95-89.12c-2.52-10.24-12.86-16.49-23.1-13.97-10.24 2.52-16.49 12.86-13.97 23.1l12.95 52.6-56.94-33.85c-9.06-5.39-20.78-2.41-26.17 6.65-5.39 9.06-2.41 20.78 6.65 26.17l56.94 33.85-52.4 13.74c-10.2 2.68-16.3 13.11-13.62 23.31 2.25 8.58 9.98 14.25 18.45 14.25 1.6 0 3.23-.2 4.86-.63l88.78-23.29 80.35 47.77-77.45 52.34-89.97-18.11c-10.33-2.08-20.4 4.61-22.48 14.95s4.61 20.4 14.95 22.48l53.1 10.69-54.88 37.09c-8.74 5.9-11.03 17.77-5.13 26.51 3.69 5.46 9.71 8.4 15.83 8.4 3.68 0 7.4-1.06 10.67-3.27l54.88-37.09-9.89 53.26c-1.92 10.37 4.92 20.33 15.28 22.25 1.18.22 2.35.32 3.51.32 9.02 0 17.04-6.42 18.75-15.61l16.76-90.24 72.01-48.66v91.05l-65.38 64.41c-7.51 7.4-7.6 19.49-.2 27 3.74 3.79 8.67 5.69 13.6 5.69 4.84 0 9.68-1.83 13.4-5.49l38.59-38.01v66.24c0 10.54 8.55 19.09 19.09 19.09s19.09-8.55 19.09-19.09v-66.24l38.59 38.01c3.72 3.66 8.56 5.49 13.4 5.49 4.93 0 9.87-1.9 13.6-5.69 7.4-7.51 7.31-19.6-.2-27l-65.38-64.41v-91.45l72.6 49.06 16.75 90.24c1.71 9.19 9.73 15.61 18.75 15.61 1.16 0 2.33-.11 3.51-.32 10.37-1.92 17.21-11.89 15.28-22.25l-9.89-53.26 54.88 37.09c3.28 2.21 6.99 3.27 10.67 3.27 6.13 0 12.15-2.94 15.83-8.4 5.9-8.74 3.61-20.6-5.13-26.51l-54.88-37.09 53.1-10.69c10.34-2.08 17.03-12.15 14.95-22.48-2.08-10.34-12.15-17.03-22.48-14.95l-89.97 18.11-77.45-52.34 80.35-47.77 88.77 23.29c1.62.43 3.25.63 4.86.63 8.47 0 16.2-5.68 18.45-14.25C2643.43 3478.55 2637.33 3468.11 2627.13 3465.44zM1536.03 3490.4l-72.95-19.13 79.27-47.13c12.62-7.5 16.76-23.81 9.26-36.43-7.5-12.62-23.81-16.76-36.43-9.26l-79.27 47.13 18.04-73.23c3.51-14.25-5.2-28.65-19.45-32.16-14.25-3.51-28.65 5.2-32.16 19.45l-30.56 124.07-107.71 64.04v-119.99l91.03-89.67c10.46-10.3 10.58-27.13.28-37.59-10.3-10.46-27.13-10.58-37.59-.28l-53.73 52.92v-92.22c0-14.68-11.9-26.58-26.58-26.58s-26.58 11.9-26.58 26.58v92.22l-53.73-52.93c-10.46-10.3-27.28-10.17-37.59.28-10.3 10.46-10.17 27.29.28 37.59l91.03 89.67v119.49l-106.89-63.55-30.56-124.07c-3.51-14.25-17.91-22.96-32.16-19.45-14.25 3.51-22.96 17.91-19.45 32.16l18.04 73.23-79.27-47.13c-12.62-7.5-28.93-3.35-36.43 9.26-7.5 12.62-3.35 28.93 9.26 36.43l79.27 47.13-72.95 19.13c-14.2 3.72-22.69 18.25-18.96 32.45 3.13 11.94 13.9 19.84 25.69 19.84 2.23 0 4.5-.28 6.76-.88l123.6-32.42 111.86 66.51-107.83 72.87-125.27-25.21c-14.39-2.9-28.4 6.42-31.3 20.81-2.9 14.39 6.42 28.4 20.81 31.3l73.93 14.88-76.41 51.64c-12.16 8.22-15.36 24.74-7.14 36.9 5.14 7.6 13.51 11.7 22.05 11.7 5.12 0 10.3-1.48 14.86-4.56l76.41-51.64-13.77 74.15c-2.68 14.43 6.85 28.3 21.28 30.98 1.64.3 3.27.45 4.88.45 12.56 0 23.73-8.94 26.1-21.73l23.33-125.63 100.25-67.75v126.76l-91.03 89.67c-10.46 10.3-10.58 27.13-.28 37.59 5.2 5.28 12.07 7.93 18.94 7.93 6.73 0 13.47-2.54 18.65-7.64l53.73-52.92v92.22c0 14.68 11.9 26.58 26.58 26.58s26.58-11.9 26.58-26.58v-92.22l53.73 52.92c5.18 5.1 11.92 7.64 18.65 7.64 6.87 0 13.74-2.65 18.94-7.93 10.3-10.46 10.17-27.29-.28-37.59l-91.03-89.67v-127.32l101.08 68.31 23.33 125.63c2.38 12.79 13.54 21.73 26.1 21.73 1.61 0 3.24-.15 4.88-.45 14.43-2.68 23.96-16.55 21.28-30.98l-13.77-74.15 76.41 51.64c4.56 3.08 9.74 4.56 14.86 4.56 8.53 0 16.91-4.1 22.05-11.7 8.22-12.16 5.02-28.68-7.14-36.9l-76.41-51.64 73.93-14.88c14.39-2.9 23.71-16.91 20.81-31.3-2.9-14.39-16.91-23.71-31.3-20.81l-125.27 25.21-107.83-72.87 111.86-66.51 123.6 32.42c2.26.59 4.53.88 6.76.88 11.79 0 22.56-7.9 25.69-19.84C1558.72 3508.66 1550.22 3494.13 1536.03 3490.4z" style="fill:#4f91ff"/>
      </g>
    </g>
    <g>
      <g>
        <path d="M505.01,3655.21c-3.37,0-6.79-0.74-10.03-2.29c-11.57-5.55-16.44-19.42-10.9-30.98l142.04-296.16
				c5.55-11.56,19.42-16.44,30.98-10.9c11.57,5.55,16.44,19.42,10.9,30.98l-142.04,296.16
				C521.98,3650.35,513.67,3655.21,505.01,3655.21z" style="fill:#4f91ff"/>
      </g>
      <g>
        <path d="M594.21,4304.08c-3.37,0-6.79-0.74-10.03-2.29c-11.57-5.55-16.44-19.42-10.9-30.98l142.04-296.16
				c5.55-11.56,19.42-16.44,30.98-10.9c11.57,5.55,16.44,19.42,10.9,30.98l-142.04,296.16
				C611.17,4299.22,602.86,4304.08,594.21,4304.08z" style="fill:#4f91ff"/>
      </g>
      <g>
        <path d="M1811.15,3655.21c-3.37,0-6.79-0.74-10.03-2.29c-11.57-5.55-16.44-19.42-10.9-30.98l142.04-296.16
				c5.55-11.56,19.42-16.44,30.98-10.9c11.57,5.55,16.44,19.42,10.9,30.98l-142.04,296.16
				C1828.11,3650.35,1819.8,3655.21,1811.15,3655.21z" style="fill:#4f91ff"/>
      </g>
      <g>
        <path d="M1811.15,4304.08c-3.37,0-6.79-0.74-10.03-2.29c-11.57-5.55-16.44-19.42-10.9-30.98l142.04-296.16
				c5.55-11.56,19.42-16.44,30.98-10.9c11.57,5.55,16.44,19.42,10.9,30.98l-142.04,296.16
				C1828.11,4299.22,1819.8,4304.08,1811.15,4304.08z" style="fill:#4f91ff"/>
      </g>
      <g>
        <path d="M4333.12,3655.21c-3.37,0-6.79-0.74-10.03-2.29c-11.56-5.55-16.44-19.42-10.9-30.98l142.04-296.16
				c5.55-11.56,19.42-16.44,30.98-10.9c11.56,5.55,16.44,19.42,10.9,30.98l-142.04,296.16
				C4350.08,3650.35,4341.78,3655.21,4333.12,3655.21z" style="fill:#4f91ff"/>
      </g>
      <g>
        <path d="M2718.29,4304.08c-3.37,0-6.79-0.74-10.03-2.29c-11.56-5.55-16.44-19.42-10.9-30.98l142.04-296.16
				c5.55-11.56,19.42-16.44,30.98-10.9c11.56,5.55,16.44,19.42,10.9,30.98l-142.04,296.16
				C2735.26,4299.22,2726.95,4304.08,2718.29,4304.08z" style="fill:#4f91ff"/>
      </g>
    </g>
  </g>
</svg>
