<svg xmlns="http://www.w3.org/2000/svg" xmlns:xlink="http://www.w3.org/1999/xlink" id="Layer_1" version="1.1" viewBox="0 0 5000 5000">
  <defs>
    <linearGradient id="linear-gradient" x1="2453.06" x2="2453.06" y1="72.81" y2="1024.59" gradientTransform="rotate(22.41 2569.06 2636.463)" gradientUnits="userSpaceOnUse">
      <stop offset=".12" stop-color="#fbb03b"/>
      <stop offset=".66" stop-color="#f7931e"/>
      <stop offset="1" stop-color="#f15a24"/>
    </linearGradient>
    <linearGradient xlink:href="#linear-gradient" id="linear-gradient1" x1="2557.58" x2="2557.58" y1="19.62" y2="971.36" gradientTransform="rotate(-22.59 2570.466 2636.457)"/>
    <linearGradient xlink:href="#linear-gradient" id="linear-gradient2" x1="2669.74" x2="2669.74" y1="56.39" y2="1008.17" gradientTransform="rotate(-67.59 2569.841 2637.004)"/>
    <linearGradient xlink:href="#linear-gradient" id="linear-gradient3" x1="2722.4" x2="2722.4" y1="161.22" y2="1112.96" gradientTransform="rotate(-112.59 2569.637 2636.762)"/>
    <linearGradient xlink:href="#linear-gradient" id="linear-gradient4" x1="2686.16" x2="2686.16" y1="273.07" y2="1224.85" gradientTransform="rotate(-157.59 2569.691 2636.896)"/>
    <linearGradient xlink:href="#linear-gradient" id="linear-gradient5" x1="2580.8" x2="2580.8" y1="326.04" y2="1277.79" gradientTransform="rotate(157.41 2569.471 2636.823)"/>
    <linearGradient xlink:href="#linear-gradient" id="linear-gradient6" x1="2469.48" x2="2469.48" y1="289.49" y2="1241.28" gradientTransform="rotate(112.41 2569.583 2636.825)"/>
    <linearGradient xlink:href="#linear-gradient" id="linear-gradient7" x1="2415.98" x2="2415.98" y1="184.44" y2="1136.18" gradientTransform="rotate(67.41 2569.228 2636.922)"/>
    <linearGradient xlink:href="#linear-gradient" id="linear-gradient8" x1="2500" x2="2500" y1="36.08" y2="987.87"/>
    <linearGradient xlink:href="#linear-gradient" id="linear-gradient9" x1="2617.33" x2="2617.33" y1="27.06" y2="978.86" gradientTransform="rotate(-45 2569.548 2637.088)"/>
    <linearGradient xlink:href="#linear-gradient" id="linear-gradient10" x1="2706.58" x2="2706.58" y1="103.5" y2="1055.29" gradientTransform="rotate(-90 2569.58 2637)"/>
    <linearGradient xlink:href="#linear-gradient" id="linear-gradient11" x1="2715.74" x2="2715.74" y1="220.81" y2="1172.61" gradientTransform="rotate(-135 2569.599 2637.04)"/>
    <linearGradient xlink:href="#linear-gradient" id="linear-gradient12" x1="2639.17" x2="2639.17" y1="310.08" y2="1261.87" gradientTransform="rotate(-180 2569.585 2637)"/>
    <linearGradient xlink:href="#linear-gradient" id="linear-gradient13" x1="2521.99" x2="2521.99" y1="319.22" y2="1271.02" gradientTransform="rotate(135 2569.622 2637.015)"/>
    <linearGradient xlink:href="#linear-gradient" id="linear-gradient14" x1="2432.58" x2="2432.58" y1="242.67" y2="1194.46" gradientTransform="rotate(90 2569.58 2637)"/>
    <linearGradient xlink:href="#linear-gradient" id="linear-gradient15" x1="2423.58" x2="2423.58" y1="125.47" y2="1077.27" gradientTransform="rotate(45 2569.677 2636.955)"/>
    <linearGradient id="linear-gradient16" x1="806.62" x2="3151.58" y1="1189.94" y2="2889.19" gradientUnits="userSpaceOnUse">
      <stop offset="0" stop-color="#ffce43"/>
      <stop offset=".7" stop-color="#ffa20e"/>
    </linearGradient>
  </defs>
  <g>
    <path d="M2861.96,947.83c-6.41-94.64,11.01-233.79,82.63-301.66,101.66-96.36,245.48-31.31,364.22-125.53,55.71-44.21,109.63-126.44,119.83-290.63,23.85,32.03,47.13,83.35,78.96,142.84,107.26,200.46,31.63,539.94-119.57,713.48-32.85,37.7-65.17,64.76-89.23,82.68l-456.06-142.09,19.22-79.09Z" style="fill:url(#linear-gradient)"/>
    <path d="M1658.39,1146.5c-71.45-62.39-157.52-173.1-154.88-271.73,3.75-140.02,151.44-195.72,168.78-346.31,8.13-70.65-11.88-166.93-120.77-290.24,39.51,5.79,92.27,25.61,156.83,45.17,217.59,65.9,404.17,359.43,419.96,589.05,3.43,49.88-.29,91.88-4.63,121.56l-422.96,222.01-42.33-69.52Z" style="fill:url(#linear-gradient1)"/>
    <path d="M947.83,2138.04c-94.64,6.41-233.79-11.01-301.66-82.63-96.36-101.66-31.31-245.48-125.53-364.22-44.21-55.71-126.44-109.63-290.63-119.83,32.03-23.85,83.35-47.13,142.84-78.96,200.46-107.26,539.94-31.63,713.48,119.57,37.7,32.85,64.76,65.17,82.68,89.23l-142.09,456.06-79.09-19.22Z" style="fill:url(#linear-gradient2)"/>
    <path d="M1146.5,3341.61c-62.39,71.45-173.1,157.52-271.73,154.88-140.02-3.75-195.72-151.44-346.31-168.78-70.65-8.13-166.93,11.88-290.24,120.77,5.79-39.51,25.61-92.27,45.17-156.83,65.9-217.59,359.43-404.17,589.05-419.96,49.88-3.43,91.88.29,121.56,4.63l222.01,422.96-69.52,42.33Z" style="fill:url(#linear-gradient3)"/>
    <path d="M2138.04,4052.17c6.41,94.64-11.01,233.79-82.63,301.66-101.66,96.36-245.48,31.31-364.22,125.53-55.71,44.21-109.63,126.44-119.83,290.63-23.85-32.03-47.13-83.35-78.96-142.84-107.26-200.46-31.63-539.94,119.57-713.48,32.85-37.7,65.17-64.76,89.23-82.68l456.06,142.09-19.22,79.09Z" style="fill:url(#linear-gradient4)"/>
    <path d="M3341.61,3853.5c71.45,62.39,157.52,173.1,154.88,271.73-3.75,140.02-151.44,195.72-168.78,346.31-8.13,70.65,11.88,166.93,120.77,290.24-39.51-5.79-92.27-25.61-156.83-45.17-217.59-65.9-404.17-359.43-419.96-589.05-3.43-49.88.29-91.88,4.63-121.56l422.96-222.01,42.33,69.52Z" style="fill:url(#linear-gradient5)"/>
    <path d="M4052.17,2861.96c94.64-6.41,233.79,11.01,301.66,82.63,96.36,101.66,31.31,245.48,125.53,364.22,44.21,55.71,126.44,109.63,290.63,119.83-32.03,23.85-83.35,47.13-142.84,78.96-200.46,107.26-539.94,31.63-713.48-119.57-37.7-32.85-64.76-65.17-82.68-89.23l142.09-456.06,79.09,19.22Z" style="fill:url(#linear-gradient6)"/>
    <path d="M3853.5,1658.39c62.39-71.45,173.1-157.52,271.73-154.88,140.02,3.75,195.72,151.44,346.31,168.78,70.65,8.13,166.93-11.88,290.24-120.77-5.79,39.51-25.61,92.27-45.17,156.83-65.9,217.59-359.43,404.17-589.05,419.96-49.88,3.43-91.88-.29-121.56-4.63l-222.01-422.96,69.52-42.33Z" style="fill:url(#linear-gradient7)"/>
  </g>
  <g>
    <path d="M2242.96,927.05c-42-85.05-78.93-220.33-38.6-310.38,57.25-127.83,215.02-122.52,288.87-254.89,34.65-62.11,53.16-158.68,0-314.36,34.26,20.52,75.34,59.09,127.44,101.96,175.57,144.44,235.06,487.12,161.43,705.19-16,47.37-35.57,84.72-50.98,110.45l-475.79,42.48-12.38-80.44Z" style="fill:url(#linear-gradient8)"/>
    <path d="M1206,1569.5c-89.84-30.44-211.61-99.98-246.77-192.18-49.91-130.88,65.4-238.67,24.03-384.5-19.41-68.42-74.62-149.79-222.29-222.29,38.73-9.71,95.06-11.49,162.21-18.02,226.28-22.01,510.66,178.23,612.79,384.5,22.19,44.81,34.75,85.05,42.05,114.15l-306.4,366.47-65.63-48.13Z" style="fill:url(#linear-gradient9)"/>
    <path d="M927.05,2757.04c-85.05,42-220.33,78.93-310.38,38.6-127.83-57.25-122.52-215.02-254.89-288.87-62.11-34.65-158.68-53.16-314.36,0,20.52-34.26,59.09-75.34,101.96-127.44,144.44-175.57,487.12-235.06,705.19-161.43,47.37,16,84.72,35.57,110.45,50.98l42.48,475.79-80.44,12.38Z" style="fill:url(#linear-gradient10)"/>
    <path d="M1569.5,3794c-30.44,89.84-99.98,211.61-192.18,246.77-130.88,49.91-238.67-65.4-384.5-24.03-68.42,19.41-149.79,74.62-222.29,222.29-9.71-38.73-11.49-95.06-18.02-162.21-22.01-226.28,178.23-510.66,384.5-612.79,44.81-22.19,85.05-34.75,114.15-42.05l366.47,306.4-48.13,65.63Z" style="fill:url(#linear-gradient11)"/>
    <path d="M2757.04,4072.95c42,85.05,78.93,220.33,38.6,310.38-57.25,127.83-215.02,122.52-288.87,254.89-34.65,62.11-53.16,158.68,0,314.36-34.26-20.52-75.34-59.09-127.44-101.96-175.57-144.44-235.06-487.12-161.43-705.19,16-47.37,35.57-84.72,50.98-110.45l475.79-42.48,12.38,80.44Z" style="fill:url(#linear-gradient12)"/>
    <path d="M3794,3430.5c89.84,30.44,211.61,99.98,246.77,192.18,49.91,130.88-65.4,238.67-24.03,384.5,19.41,68.42,74.62,149.79,222.29,222.29-38.73,9.71-95.06,11.49-162.21,18.02-226.28,22.01-510.66-178.23-612.79-384.5-22.19-44.81-34.75-85.05-42.05-114.15l306.4-366.47,65.63,48.13Z" style="fill:url(#linear-gradient13)"/>
    <path d="M4072.95,2242.96c85.05-42,220.33-78.93,310.38-38.6,127.83,57.25,122.52,215.02,254.89,288.87,62.11,34.65,158.68,53.16,314.36,0-20.52,34.26-59.09,75.34-101.96,127.44-144.44,175.57-487.12,235.06-705.19,161.43-47.37-16-84.72-35.57-110.45-50.98l-42.48-475.79,80.44-12.38Z" style="fill:url(#linear-gradient14)"/>
    <path d="M3430.5,1206c30.44-89.84,99.98-211.61,192.18-246.77,130.88-49.91,238.67,65.4,384.5,24.03,68.42-19.41,149.79-74.62,222.29-222.29,9.71,38.73,11.49,95.06,18.02,162.21,22.01,226.28-178.23,510.66-384.5,612.79-44.81,22.19-85.05,34.75-114.15,42.05l-366.47-306.4,48.13-65.63Z" style="fill:url(#linear-gradient15)"/>
  </g>
  <path d="M4117.12,2499.98c0,893.16-724,1617.16-1617.16,1617.16-601.08,0-1125.64-328.03-1404.24-814.79,236.44,135.34,510.42,212.78,802.37,212.78,893.03,0,1617.16-724,1617.16-1617.03,0-292.08-77.45-566.06-212.78-802.5,486.76,278.86,814.66,803.29,814.66,1404.38Z" style="fill:#ff9700"/>
  <path d="M3515.24,1898.11c0,893.03-724.13,1617.03-1617.16,1617.03-291.95,0-565.93-77.45-802.37-212.78-135.47-236.44-212.78-510.42-212.78-802.37,0-893.03,724-1617.16,1617.03-1617.16,292.08,0,566.06,77.45,802.5,212.79,135.34,236.44,212.78,510.42,212.78,802.5Z" style="fill:url(#linear-gradient16)"/>
</svg>
