<svg xmlns="http://www.w3.org/2000/svg" xml:space="preserve" id="Layer_1" x="0" y="0" style="enable-background:new 0 0 5000 5000" version="1.1" viewBox="0 0 5000 5000">
  <g>
    <g>
      <g>
        <linearGradient id="SVGID_1_" x1="2110.863" x2="2110.863" y1="972.681" y2="1563.435" gradientTransform="rotate(22.407 2569.198 2636.793)" gradientUnits="userSpaceOnUse">
          <stop offset=".122" style="stop-color:#fbb03b"/>
          <stop offset=".661" style="stop-color:#f7931e"/>
          <stop offset="1" style="stop-color:#f15a24"/>
        </linearGradient>
        <path d="M2421.53,1374.04c-3.98-58.74,6.84-145.11,51.29-187.24c63.1-59.81,152.37-19.43,226.07-77.91
				c34.58-27.44,68.05-78.48,74.38-180.39c14.8,19.88,29.25,51.74,49.01,88.66c66.57,124.42,19.63,335.13-74.21,442.84
				c-20.39,23.4-40.45,40.2-55.38,51.32l-283.07-88.19L2421.53,1374.04z" style="fill:url(#SVGID_1_)"/>
        <linearGradient id="SVGID_00000003095247814092287160000003968038809063021957_" x1="2340.175" x2="2340.175" y1="687.66" y2="1278.388" gradientTransform="rotate(-22.593 2569.939 2636.052)" gradientUnits="userSpaceOnUse">
          <stop offset=".122" style="stop-color:#fbb03b"/>
          <stop offset=".661" style="stop-color:#f7931e"/>
          <stop offset="1" style="stop-color:#f15a24"/>
        </linearGradient>
        <path d="M1674.5,1497.35
				c-44.35-38.72-97.77-107.44-96.13-168.66c2.33-86.91,94-121.48,104.76-214.95c5.05-43.85-7.38-103.61-74.96-180.14
				c24.52,3.59,57.27,15.9,97.34,28.04c135.05,40.9,250.86,223.09,260.66,365.61c2.13,30.96-0.18,57.03-2.88,75.45l-262.52,137.8
				L1674.5,1497.35z" style="fill:url(#SVGID_00000003095247814092287160000003968038809063021957_)"/>
        <linearGradient id="SVGID_00000058584715031407154880000004668432065943049383_" x1="2704.482" x2="2704.482" y1="648.788" y2="1239.542" gradientTransform="rotate(-67.592 2569.73 2636.956)" gradientUnits="userSpaceOnUse">
          <stop offset=".122" style="stop-color:#fbb03b"/>
          <stop offset=".661" style="stop-color:#f7931e"/>
          <stop offset="1" style="stop-color:#f15a24"/>
        </linearGradient>
        <path d="M1233.47,2112.78
				c-58.74,3.98-145.11-6.84-187.24-51.28c-59.81-63.1-19.43-152.37-77.91-226.07c-27.44-34.58-78.48-68.05-180.39-74.38
				c19.88-14.8,51.74-29.25,88.66-49.01c124.42-66.57,335.13-19.63,442.84,74.21c23.4,20.39,40.2,40.45,51.32,55.38l-88.19,283.07
				L1233.47,2112.78z" style="fill:url(#SVGID_00000058584715031407154880000004668432065943049383_)"/>
        <linearGradient id="SVGID_00000112613144366143421740000009637816358896380091_" x1="2988.925" x2="2988.925" y1="878.388" y2="1469.117" gradientTransform="scale(-1)rotate(67.407 3952.982 -3852.15)" gradientUnits="userSpaceOnUse">
          <stop offset=".122" style="stop-color:#fbb03b"/>
          <stop offset=".661" style="stop-color:#f7931e"/>
          <stop offset="1" style="stop-color:#f15a24"/>
        </linearGradient>
        <path d="M1356.79,2859.81
				c-38.72,44.35-107.44,97.77-168.66,96.13c-86.91-2.33-121.48-94-214.95-104.76c-43.85-5.05-103.61,7.38-180.14,74.96
				c3.59-24.52,15.9-57.27,28.04-97.34c40.9-135.05,223.09-250.86,365.61-260.66c30.96-2.13,57.03,0.18,75.45,2.88l137.8,262.52
				L1356.79,2859.81z" style="fill:url(#SVGID_00000112613144366143421740000009637816358896380091_)"/>
        <linearGradient id="SVGID_00000010311827631250242150000012863633762344713623_" x1="3028.374" x2="3028.374" y1="1242.408" y2="1833.162" gradientTransform="rotate(-157.593 2569.624 2636.924)" gradientUnits="userSpaceOnUse">
          <stop offset=".122" style="stop-color:#fbb03b"/>
          <stop offset=".661" style="stop-color:#f7931e"/>
          <stop offset="1" style="stop-color:#f15a24"/>
        </linearGradient>
        <path d="M1972.21,3300.84
				c3.98,58.74-6.84,145.11-51.28,187.24c-63.1,59.81-152.37,19.43-226.07,77.91c-34.58,27.44-68.05,78.48-74.38,180.39
				c-14.8-19.88-29.25-51.74-49.01-88.66c-66.57-124.42-19.63-335.13,74.21-442.84c20.39-23.4,40.45-40.2,55.38-51.32l283.07,88.19
				L1972.21,3300.84z" style="fill:url(#SVGID_00000010311827631250242150000012863633762344713623_)"/>
        <linearGradient id="SVGID_00000117658869667855504140000011110979008959063943_" x1="2798.197" x2="2798.197" y1="1527.138" y2="2117.867" gradientTransform="scale(-1)rotate(-22.593 -13200.018 12862.186)" gradientUnits="userSpaceOnUse">
          <stop offset=".122" style="stop-color:#fbb03b"/>
          <stop offset=".661" style="stop-color:#f7931e"/>
          <stop offset="1" style="stop-color:#f15a24"/>
        </linearGradient>
        <path d="M2719.24,3177.53
				c44.35,38.72,97.77,107.44,96.13,168.66c-2.33,86.91-94,121.48-104.76,214.95c-5.05,43.85,7.38,103.61,74.96,180.14
				c-24.52-3.59-57.27-15.9-97.34-28.04c-135.05-40.9-250.86-223.09-260.66-365.61c-2.13-30.96,0.18-57.03,2.88-75.45l262.52-137.8
				L2719.24,3177.53z" style="fill:url(#SVGID_00000117658869667855504140000011110979008959063943_)"/>
        <linearGradient id="SVGID_00000163062439823859361110000012480075381888502188_" x1="2434.755" x2="2434.755" y1="1566.3" y2="2157.054" gradientTransform="rotate(112.408 2569.554 2636.902)" gradientUnits="userSpaceOnUse">
          <stop offset=".122" style="stop-color:#fbb03b"/>
          <stop offset=".661" style="stop-color:#f7931e"/>
          <stop offset="1" style="stop-color:#f15a24"/>
        </linearGradient>
        <path d="M3160.28,2562.1
				c58.74-3.98,145.11,6.84,187.24,51.28c59.81,63.1,19.43,152.37,77.91,226.07c27.44,34.58,78.48,68.05,180.39,74.38
				c-19.88,14.8-51.74,29.25-88.66,49.01c-124.42,66.57-335.13,19.63-442.84-74.21c-23.4-20.39-40.2-40.45-51.32-55.38l88.19-283.07
				L3160.28,2562.1z" style="fill:url(#SVGID_00000163062439823859361110000012480075381888502188_)"/>
        <linearGradient id="SVGID_00000157993075013517568100000012155584677476804797_" x1="2149.447" x2="2149.447" y1="1336.41" y2="1927.139" gradientTransform="rotate(67.407 2569.14 2636.966)" gradientUnits="userSpaceOnUse">
          <stop offset=".122" style="stop-color:#fbb03b"/>
          <stop offset=".661" style="stop-color:#f7931e"/>
          <stop offset="1" style="stop-color:#f15a24"/>
        </linearGradient>
        <path d="M3036.96,1815.07
				c38.72-44.35,107.44-97.77,168.66-96.13c86.91,2.33,121.48,94,214.95,104.76c43.85,5.05,103.61-7.38,180.14-74.96
				c-3.59,24.52-15.9,57.27-28.04,97.34c-40.9,135.05-223.09,250.86-365.61,260.66c-30.96,2.13-57.03-0.18-75.45-2.88l-137.8-262.52
				L3036.96,1815.07z" style="fill:url(#SVGID_00000157993075013517568100000012155584677476804797_)"/>
      </g>
      <g>
        <linearGradient id="SVGID_00000043434241197312344990000009233999782934934426_" x1="2196.874" x2="2196.874" y1="808.137" y2="1398.893" gradientUnits="userSpaceOnUse">
          <stop offset=".122" style="stop-color:#fbb03b"/>
          <stop offset=".661" style="stop-color:#f7931e"/>
          <stop offset="1" style="stop-color:#f15a24"/>
        </linearGradient>
        <path d="M2037.34,1361.14
				c-26.07-52.79-48.99-136.76-23.96-192.65c35.54-79.34,133.46-76.05,179.3-158.2c21.51-38.55,32.99-98.49,0-195.12
				c21.26,12.74,46.77,36.68,79.1,63.28c108.97,89.65,145.9,302.35,100.2,437.7c-9.93,29.4-22.08,52.58-31.64,68.55l-295.31,26.37
				L2037.34,1361.14z" style="fill:url(#SVGID_00000043434241197312344990000009233999782934934426_)"/>
        <linearGradient id="SVGID_00000122699226604104137260000002211895607148167564_" x1="2517.936" x2="2517.936" y1="632.391" y2="1223.153" gradientTransform="rotate(-45.001 2569.526 2637.135)" gradientUnits="userSpaceOnUse">
          <stop offset=".122" style="stop-color:#fbb03b"/>
          <stop offset=".661" style="stop-color:#f7931e"/>
          <stop offset="1" style="stop-color:#f15a24"/>
        </linearGradient>
        <path d="M1393.71,1759.9
				c-55.76-18.9-131.34-62.06-153.17-119.28c-30.98-81.23,40.59-148.14,14.92-238.65c-12.05-42.47-46.31-92.97-137.97-137.97
				c24.04-6.03,59-7.13,100.68-11.19c140.45-13.66,316.96,110.62,380.35,238.65c13.77,27.81,21.57,52.79,26.1,70.85l-190.17,227.46
				L1393.71,1759.9z" style="fill:url(#SVGID_00000122699226604104137260000002211895607148167564_)"/>
        <linearGradient id="SVGID_00000152947825373372635420000002094973974829437830_" x1="2869.142" x2="2869.142" y1="734.986" y2="1325.742" gradientTransform="rotate(-90 2569.583 2637)" gradientUnits="userSpaceOnUse">
          <stop offset=".122" style="stop-color:#fbb03b"/>
          <stop offset=".661" style="stop-color:#f7931e"/>
          <stop offset="1" style="stop-color:#f15a24"/>
        </linearGradient>
        <path d="M1220.57,2496.98
				c-52.79,26.07-136.76,48.99-192.65,23.96c-79.34-35.54-76.05-133.46-158.2-179.3c-38.55-21.51-98.49-32.99-195.12,0
				c12.74-21.26,36.68-46.76,63.28-79.1c89.65-108.97,302.35-145.9,437.7-100.2c29.4,9.93,52.58,22.08,68.55,31.64l26.37,295.31
				L1220.57,2496.98z" style="fill:url(#SVGID_00000152947825373372635420000002094973974829437830_)"/>
        <linearGradient id="SVGID_00000065067259504124170560000005612266314196663185_" x1="3045.033" x2="3045.033" y1="1056.035" y2="1646.797" gradientTransform="rotate(-134.999 2569.606 2637.056)" gradientUnits="userSpaceOnUse">
          <stop offset=".122" style="stop-color:#fbb03b"/>
          <stop offset=".661" style="stop-color:#f7931e"/>
          <stop offset="1" style="stop-color:#f15a24"/>
        </linearGradient>
        <path d="M1619.33,3140.6
				c-18.9,55.76-62.06,131.34-119.28,153.17c-81.23,30.98-148.14-40.59-238.65-14.92c-42.47,12.05-92.97,46.31-137.97,137.97
				c-6.03-24.04-7.13-59-11.19-100.68c-13.66-140.45,110.62-316.96,238.65-380.35c27.81-13.77,52.79-21.57,70.85-26.1l227.46,190.17
				L1619.33,3140.6z" style="fill:url(#SVGID_00000065067259504124170560000005612266314196663185_)"/>
        <linearGradient id="SVGID_00000175297835151727346600000012959956974195350159_" x1="2942.293" x2="2942.293" y1="1407.255" y2="1998.011" gradientTransform="rotate(180 2569.583 2637)" gradientUnits="userSpaceOnUse">
          <stop offset=".122" style="stop-color:#fbb03b"/>
          <stop offset=".661" style="stop-color:#f7931e"/>
          <stop offset="1" style="stop-color:#f15a24"/>
        </linearGradient>
        <path d="M2356.41,3313.74
				c26.07,52.79,48.99,136.76,23.96,192.65c-35.54,79.34-133.46,76.05-179.3,158.2c-21.51,38.55-32.99,98.49,0,195.12
				c-21.26-12.74-46.77-36.68-79.1-63.28c-108.97-89.65-145.9-302.35-100.2-437.7c9.93-29.4,22.08-52.58,31.64-68.55l295.31-26.37
				L2356.41,3313.74z" style="fill:url(#SVGID_00000175297835151727346600000012959956974195350159_)"/>
        <linearGradient id="SVGID_00000039123052844506597870000008957660296196510603_" x1="2621.388" x2="2621.388" y1="1583.132" y2="2173.894" gradientTransform="rotate(134.999 2569.64 2637.024)" gradientUnits="userSpaceOnUse">
          <stop offset=".122" style="stop-color:#fbb03b"/>
          <stop offset=".661" style="stop-color:#f7931e"/>
          <stop offset="1" style="stop-color:#f15a24"/>
        </linearGradient>
        <path d="M3000.03,2914.98
				c55.76,18.9,131.34,62.06,153.17,119.28c30.98,81.23-40.59,148.14-14.92,238.65c12.05,42.47,46.31,92.97,137.97,137.97
				c-24.04,6.03-59,7.13-100.68,11.19c-140.45,13.66-316.96-110.62-380.35-238.65c-13.77-27.81-21.57-52.79-26.1-70.85
				l190.17-227.46L3000.03,2914.98z" style="fill:url(#SVGID_00000039123052844506597870000008957660296196510603_)"/>
        <linearGradient id="SVGID_00000130645258979238276050000010066284574870156985_" x1="2270.024" x2="2270.024" y1="1480.406" y2="2071.162" gradientTransform="rotate(90 2569.583 2637)" gradientUnits="userSpaceOnUse">
          <stop offset=".122" style="stop-color:#fbb03b"/>
          <stop offset=".661" style="stop-color:#f7931e"/>
          <stop offset="1" style="stop-color:#f15a24"/>
        </linearGradient>
        <path d="M3173.18,2177.9
				c52.79-26.07,136.76-48.99,192.65-23.96c79.34,35.54,76.05,133.46,158.2,179.3c38.55,21.51,98.49,32.99,195.12,0
				c-12.74,21.26-36.68,46.77-63.28,79.1c-89.65,108.97-302.35,145.9-437.7,100.2c-29.4-9.93-52.58-22.08-68.55-31.64l-26.37-295.31
				L3173.18,2177.9z" style="fill:url(#SVGID_00000130645258979238276050000010066284574870156985_)"/>
        <linearGradient id="SVGID_00000049185550964193648990000004980682406573783210_" x1="2094.292" x2="2094.292" y1="1159.487" y2="1750.249" gradientTransform="rotate(45.001 2569.72 2636.944)" gradientUnits="userSpaceOnUse">
          <stop offset=".122" style="stop-color:#fbb03b"/>
          <stop offset=".661" style="stop-color:#f7931e"/>
          <stop offset="1" style="stop-color:#f15a24"/>
        </linearGradient>
        <path d="M2774.41,1534.28
				c18.9-55.76,62.06-131.34,119.28-153.17c81.23-30.98,148.14,40.59,238.65,14.92c42.47-12.05,92.97-46.31,137.97-137.97
				c6.03,24.04,7.13,59,11.19,100.68c13.66,140.45-110.62,316.96-238.65,380.35c-27.81,13.77-52.79,21.57-70.85,26.1l-227.46-190.17
				L2774.41,1534.28z" style="fill:url(#SVGID_00000049185550964193648990000004980682406573783210_)"/>
      </g>
      <path d="M3200.59,2337.43c0,554.37-449.37,1003.74-1003.74,1003.74c-373.08,0-698.66-203.6-871.59-505.72
			c146.75,84,316.81,132.07,498.01,132.07c554.29,0,1003.74-449.37,1003.74-1003.66c0-181.29-48.07-351.34-132.07-498.1
			C2997.07,1638.85,3200.59,1964.35,3200.59,2337.43z" style="fill:#ff9700"/>
      <linearGradient id="SVGID_00000033369047786624171650000015585314402148324541_" x1="1145.825" x2="2601.295" y1="1524.315" y2="2579.003" gradientUnits="userSpaceOnUse">
        <stop offset="0" style="stop-color:#ffce43"/>
        <stop offset=".699" style="stop-color:#ffa20e"/>
      </linearGradient>
      <path d="M2827.01,1963.86
			c0,554.29-449.45,1003.66-1003.74,1003.66c-181.21,0-351.26-48.07-498.01-132.07c-84.08-146.75-132.07-316.81-132.07-498.01
			c0-554.29,449.37-1003.74,1003.66-1003.74c181.29,0,351.34,48.07,498.1,132.07C2778.94,1612.52,2827.01,1782.57,2827.01,1963.86z" style="fill:url(#SVGID_00000033369047786624171650000015585314402148324541_)"/>
    </g>
    <g>
      <g>
        <path d="M4954.18,3794.89c0,124.75-58.59,235.83-149.76,307.21c42.5-62.45,67.34-137.87,67.34-219.1
				c0-84.22-26.7-162.24-72.13-225.99c-45.42-63.75-109.53-113.24-184.36-140.46c0.52-7.77,0.92-15.58,0.92-23.43
				c0-56.51-14.22-109.66-39.32-156.14c-55.59-103.16-164.64-173.23-290.05-173.23c-57.82,0-112.1,14.92-159.32,41.06
				c5.41-34.29,8.2-69.43,8.2-105.21c0-372.26-301.79-674.05-674.01-674.05c-43.33,0-85.7,4.1-126.76,11.87
				c-122.39,23.31-233.05,79.72-322.32,159.55c98.6-126.27,241.2-216.51,404.75-247.66c41.06-7.77,83.43-11.87,126.76-11.87
				c372.22,0,674.01,301.79,674.01,674.05c0,35.78-2.79,70.91-8.2,105.21c47.21-26.14,101.5-41.06,159.32-41.06
				c125.41,0,234.46,70.07,290.05,173.23c25.09,46.48,39.32,99.62,39.32,156.14c0,7.85-0.4,15.66-0.92,23.43
				c74.84,27.23,138.94,76.71,184.36,140.46C4927.48,3632.66,4954.18,3710.67,4954.18,3794.89z" style="fill:#bdceec"/>
        <path d="M4871.76,3883c0,81.23-24.84,156.65-67.34,219.1c-66.2,51.83-149.58,82.73-240.17,82.73H2718.43
				c-0.79,0-1.53,0-2.32-0.05c-0.78,0.05-1.57,0.05-2.35,0.05c-79.76,0-155.88-15.54-225.51-43.74
				c-16.34-6.61-32.33-13.93-47.91-21.9c-194.53-99.53-327.67-301.94-327.67-535.46c0-137.03,45.85-263.34,123.04-364.45
				c109.82-143.84,283.09-236.64,478.06-236.64c28.19,0,55.93,1.96,83.09,5.72c24.97,3.46,49.46,8.46,73.34,14.87
				c1.83-153.12,54.71-293.95,142.41-406.27c89.27-79.83,199.93-136.24,322.32-159.55c41.06-7.77,83.44-11.87,126.76-11.87
				c372.22,0,674.01,301.79,674.01,674.05c0,35.78-2.79,70.91-8.2,105.21c47.21-26.14,101.5-41.06,159.32-41.06
				c104.82,0,198.21,48.95,258.51,125.26c3.53,4.47,6.94,9.03,10.24,13.68c7.77,10.96,14.89,22.4,21.3,34.29
				c25.09,46.48,39.32,99.62,39.32,156.14c0,7.85-0.4,15.66-0.92,23.43c74.84,27.23,138.94,76.71,184.36,140.46
				C4845.06,3720.77,4871.76,3798.78,4871.76,3883z" style="fill:#dde6f5"/>
      </g>
      <path d="M2716.76,2982.66c301.74-28.7,579.91,212.88,603.43,513.26c0.73,9.59,1.4,20.3,1.57,29.92
			c0.47,19.94-0.18,39.86-2.22,59.59c-2.36-22.2-5.23-44.08-9.32-65.83c-1.19-6.77-2.85-14.88-4.3-21.58
			C3244.72,3210.86,3007.9,3008.24,2716.76,2982.66L2716.76,2982.66z" style="fill:#bdceec"/>
    </g>
    <g>
      <g>
        <path d="M1540.25,1691.79c0,65.61-30.81,124.03-78.76,161.57c22.35-32.84,35.41-72.51,35.41-115.23
				c0-44.29-14.04-85.32-37.94-118.85c-23.89-33.53-57.6-59.55-96.96-73.87c0.27-4.09,0.48-8.2,0.48-12.32
				c0-29.72-7.48-57.67-20.68-82.12c-29.24-54.25-86.59-91.11-152.55-91.11c-30.41,0-58.96,7.85-83.79,21.59
				c2.85-18.04,4.31-36.51,4.31-55.33c0-195.78-158.72-354.5-354.48-354.5c-22.79,0-45.07,2.16-66.67,6.24
				c-64.37,12.26-122.57,41.93-169.52,83.91c51.85-66.41,126.85-113.87,212.87-130.25c21.6-4.09,43.88-6.24,66.67-6.24
				c195.76,0,354.48,158.72,354.48,354.5c0,18.82-1.47,37.29-4.31,55.33c24.83-13.75,53.38-21.59,83.79-21.59
				c65.96,0,123.31,36.85,152.55,91.11c13.2,24.44,20.68,52.39,20.68,82.12c0,4.13-0.21,8.24-0.48,12.32
				c39.36,14.32,73.07,40.34,96.96,73.87C1526.21,1606.46,1540.25,1647.49,1540.25,1691.79z" style="fill:#bdceec"/>
        <path d="M1496.9,1738.13c0,42.72-13.06,82.39-35.41,115.23c-34.82,27.26-78.67,43.51-126.31,43.51H364.41
				c-0.42,0-0.8,0-1.22-0.02c-0.41,0.02-0.82,0.02-1.24,0.02c-41.95,0-81.98-8.17-118.6-23c-8.59-3.48-17-7.33-25.2-11.52
				C115.84,1810,45.82,1703.55,45.82,1580.73c0-72.07,24.11-138.5,64.71-191.67c57.76-75.65,148.89-124.46,251.42-124.46
				c14.82,0,29.42,1.03,43.7,3.01c13.13,1.82,26.01,4.45,38.57,7.82c0.96-80.53,28.77-154.6,74.9-213.67
				c46.95-41.99,105.15-71.65,169.52-83.91c21.6-4.09,43.88-6.24,66.67-6.24c195.76,0,354.48,158.72,354.48,354.5
				c0,18.82-1.47,37.29-4.31,55.33c24.83-13.75,53.38-21.59,83.79-21.59c55.13,0,104.24,25.75,135.96,65.88
				c1.86,2.35,3.65,4.75,5.39,7.19c4.09,5.76,7.83,11.78,11.2,18.04c13.2,24.44,20.68,52.39,20.68,82.12
				c0,4.13-0.21,8.24-0.48,12.32c39.36,14.32,73.07,40.34,96.96,73.87C1482.86,1652.8,1496.9,1693.83,1496.9,1738.13z" style="fill:#dde6f5"/>
      </g>
      <path d="M363.53,1264.61c158.69-15.09,304.99,111.96,317.36,269.94c0.38,5.04,0.74,10.67,0.82,15.74
			c0.25,10.49-0.09,20.96-1.17,31.34c-1.24-11.68-2.75-23.18-4.9-34.62c-0.62-3.56-1.5-7.82-2.26-11.35
			C641.2,1384.63,516.65,1278.07,363.53,1264.61L363.53,1264.61z" style="fill:#bdceec"/>
    </g>
  </g>
</svg>
