<svg xmlns="http://www.w3.org/2000/svg" xml:space="preserve" id="Layer_1" x="0" y="0" style="enable-background:new 0 0 5000 5000" version="1.1" viewBox="0 0 5000 5000">
  <g>
    <g>
      <g>
        <linearGradient id="SVGID_1_" x1="1837.697" x2="1837.697" y1="893.072" y2="1592.818" gradientTransform="rotate(22.407 2569.198 2636.793)" gradientUnits="userSpaceOnUse">
          <stop offset=".122" style="stop-color:#fbb03b"/>
          <stop offset=".661" style="stop-color:#f7931e"/>
          <stop offset="1" style="stop-color:#f15a24"/>
        </linearGradient>
        <path d="M2133.24,1279.41c-4.71-69.58,8.1-171.88,60.75-221.78c74.74-70.84,180.48-23.02,267.77-92.29
				c40.96-32.5,80.6-92.96,88.1-213.67c17.53,23.55,34.65,61.28,58.05,105.01c78.85,147.37,23.26,396.96-87.9,524.55
				c-24.15,27.72-47.92,47.61-65.6,60.79l-335.29-104.46L2133.24,1279.41z" style="fill:url(#SVGID_1_)"/>
        <linearGradient id="SVGID_00000116923409752003323660000010022952728920728243_" x1="2003.816" x2="2003.816" y1="355.582" y2="1055.297" gradientTransform="rotate(-22.593 2569.939 2636.052)" gradientUnits="userSpaceOnUse">
          <stop offset=".122" style="stop-color:#fbb03b"/>
          <stop offset=".661" style="stop-color:#f7931e"/>
          <stop offset="1" style="stop-color:#f15a24"/>
        </linearGradient>
        <path d="M1248.38,1425.48
				c-52.53-45.87-115.81-127.26-113.87-199.78c2.76-102.94,111.34-143.89,124.09-254.6c5.98-51.94-8.74-122.72-88.79-213.38
				c29.05,4.25,67.83,18.83,115.3,33.21c159.97,48.45,297.14,264.25,308.75,433.07c2.52,36.67-0.21,67.55-3.41,89.37l-310.96,163.22
				L1248.38,1425.48z" style="fill:url(#SVGID_00000116923409752003323660000010022952728920728243_)"/>
        <linearGradient id="SVGID_00000066498458094112358950000003823306386312920976_" x1="2501.939" x2="2501.939" y1="93.477" y2="793.223" gradientTransform="rotate(-67.592 2569.73 2636.956)" gradientUnits="userSpaceOnUse">
          <stop offset=".122" style="stop-color:#fbb03b"/>
          <stop offset=".661" style="stop-color:#f7931e"/>
          <stop offset="1" style="stop-color:#f15a24"/>
        </linearGradient>
        <path d="M725.98,2154.45
				c-69.58,4.71-171.88-8.1-221.78-60.75c-70.84-74.74-23.02-180.48-92.29-267.77c-32.5-40.96-92.96-80.6-213.67-88.1
				c23.55-17.53,61.28-34.65,105.01-58.05c147.37-78.85,396.96-23.26,524.55,87.9c27.72,24.15,47.61,47.92,60.79,65.6
				l-104.46,335.29L725.98,2154.45z" style="fill:url(#SVGID_00000066498458094112358950000003823306386312920976_)"/>
        <linearGradient id="SVGID_00000119097867410994382380000007956377336014850488_" x1="3038.867" x2="3038.867" y1="259.892" y2="959.607" gradientTransform="scale(-1)rotate(67.407 3952.982 -3852.15)" gradientUnits="userSpaceOnUse">
          <stop offset=".122" style="stop-color:#fbb03b"/>
          <stop offset=".661" style="stop-color:#f7931e"/>
          <stop offset="1" style="stop-color:#f15a24"/>
        </linearGradient>
        <path d="M872.05,3039.3
				c-45.87,52.53-127.26,115.81-199.78,113.87c-102.94-2.76-143.89-111.34-254.6-124.09c-51.94-5.98-122.72,8.74-213.38,88.79
				c4.25-29.05,18.83-67.83,33.21-115.3c48.45-159.97,264.25-297.14,433.07-308.75c36.67-2.52,67.55,0.21,89.37,3.41l163.22,310.96
				L872.05,3039.3z" style="fill:url(#SVGID_00000119097867410994382380000007956377336014850488_)"/>
        <linearGradient id="SVGID_00000114757051357991387160000017935246299848269481_" x1="3301.535" x2="3301.535" y1="757.719" y2="1457.465" gradientTransform="rotate(-157.593 2569.624 2636.924)" gradientUnits="userSpaceOnUse">
          <stop offset=".122" style="stop-color:#fbb03b"/>
          <stop offset=".661" style="stop-color:#f7931e"/>
          <stop offset="1" style="stop-color:#f15a24"/>
        </linearGradient>
        <path d="M1601.02,3561.71
				c4.71,69.58-8.1,171.88-60.75,221.78c-74.74,70.84-180.48,23.02-267.77,92.29c-40.96,32.5-80.6,92.96-88.1,213.67
				c-17.53-23.55-34.65-61.28-58.05-105.01c-78.85-147.37-23.26-396.96,87.91-524.55c24.15-27.72,47.92-47.61,65.6-60.79
				l335.29,104.46L1601.02,3561.71z" style="fill:url(#SVGID_00000114757051357991387160000017935246299848269481_)"/>
        <linearGradient id="SVGID_00000132783533567110247750000008382724135761505667_" x1="3134.556" x2="3134.556" y1="1294.942" y2="1994.658" gradientTransform="scale(-1)rotate(-22.593 -13200.018 12862.186)" gradientUnits="userSpaceOnUse">
          <stop offset=".122" style="stop-color:#fbb03b"/>
          <stop offset=".661" style="stop-color:#f7931e"/>
          <stop offset="1" style="stop-color:#f15a24"/>
        </linearGradient>
        <path d="M2485.87,3415.64
				c52.53,45.87,115.81,127.26,113.87,199.78c-2.76,102.94-111.34,143.89-124.09,254.6c-5.98,51.94,8.74,122.72,88.79,213.38
				c-29.05-4.25-67.83-18.83-115.3-33.21c-159.97-48.45-297.14-264.25-308.75-433.07c-2.52-36.67,0.21-67.55,3.41-89.37
				l310.96-163.22L2485.87,3415.64z" style="fill:url(#SVGID_00000132783533567110247750000008382724135761505667_)"/>
        <linearGradient id="SVGID_00000116210765340342063180000007662747607736206771_" x1="2637.293" x2="2637.293" y1="1557.315" y2="2257.061" gradientTransform="rotate(112.408 2569.554 2636.902)" gradientUnits="userSpaceOnUse">
          <stop offset=".122" style="stop-color:#fbb03b"/>
          <stop offset=".661" style="stop-color:#f7931e"/>
          <stop offset="1" style="stop-color:#f15a24"/>
        </linearGradient>
        <path d="M3008.27,2686.67
				c69.58-4.71,171.88,8.1,221.78,60.75c70.84,74.74,23.02,180.48,92.29,267.77c32.5,40.96,92.96,80.6,213.67,88.1
				c-23.55,17.53-61.28,34.65-105.01,58.05c-147.37,78.85-396.96,23.26-524.55-87.91c-27.72-24.15-47.61-47.92-60.79-65.6
				l104.46-335.29L3008.27,2686.67z" style="fill:url(#SVGID_00000116210765340342063180000007662747607736206771_)"/>
        <linearGradient id="SVGID_00000154398946678986479950000002728194701116352667_" x1="2099.506" x2="2099.506" y1="1390.632" y2="2090.348" gradientTransform="rotate(67.407 2569.14 2636.966)" gradientUnits="userSpaceOnUse">
          <stop offset=".122" style="stop-color:#fbb03b"/>
          <stop offset=".661" style="stop-color:#f7931e"/>
          <stop offset="1" style="stop-color:#f15a24"/>
        </linearGradient>
        <path d="M2862.21,1801.82
				c45.87-52.53,127.26-115.81,199.78-113.87c102.94,2.76,143.89,111.34,254.6,124.09c51.94,5.98,122.72-8.74,213.38-88.79
				c-4.25,29.05-18.83,67.83-33.21,115.3c-48.45,159.97-264.25,297.14-433.07,308.75c-36.67,2.52-67.55-0.21-89.37-3.41
				l-163.22-310.96L2862.21,1801.82z" style="fill:url(#SVGID_00000154398946678986479950000002728194701116352667_)"/>
      </g>
      <g>
        <linearGradient id="SVGID_00000039842402298030461730000015190072193666912703_" x1="1867.126" x2="1867.126" y1="609.106" y2="1308.854" gradientUnits="userSpaceOnUse">
          <stop offset=".122" style="stop-color:#fbb03b"/>
          <stop offset=".661" style="stop-color:#f7931e"/>
          <stop offset="1" style="stop-color:#f15a24"/>
        </linearGradient>
        <path d="M1678.16,1264.13
				c-30.88-62.53-58.03-161.99-28.38-228.19c42.09-93.98,158.08-90.08,212.38-187.39c25.48-45.66,39.08-116.66,0-231.12
				c25.19,15.09,55.39,43.45,93.7,74.96c129.08,106.19,172.82,358.13,118.68,518.45c-11.76,34.83-26.15,62.28-37.48,81.2
				l-349.8,31.23L1678.16,1264.13z" style="fill:url(#SVGID_00000039842402298030461730000015190072193666912703_)"/>
        <linearGradient id="SVGID_00000167384252005187474530000004249210503823778225_" x1="2225.993" x2="2225.993" y1="175.843" y2="875.598" gradientTransform="rotate(-45.001 2569.526 2637.135)" gradientUnits="userSpaceOnUse">
          <stop offset=".122" style="stop-color:#fbb03b"/>
          <stop offset=".661" style="stop-color:#f7931e"/>
          <stop offset="1" style="stop-color:#f15a24"/>
        </linearGradient>
        <path d="M915.79,1736.47
				c-66.05-22.38-155.58-73.51-181.42-141.29c-36.69-96.22,48.08-175.47,17.67-282.68c-14.27-50.3-54.86-110.13-163.42-163.42
				c28.48-7.14,69.89-8.45,119.26-13.25c166.36-16.18,375.43,131.03,450.52,282.68c16.31,32.94,25.55,62.53,30.92,83.92
				l-225.26,269.43L915.79,1736.47z" style="fill:url(#SVGID_00000167384252005187474530000004249210503823778225_)"/>
        <linearGradient id="SVGID_00000031919589419838789060000013927502596508185730_" x1="2786.024" x2="2786.024" y1="123.089" y2="822.837" gradientTransform="rotate(-90 2569.583 2637)" gradientUnits="userSpaceOnUse">
          <stop offset=".122" style="stop-color:#fbb03b"/>
          <stop offset=".661" style="stop-color:#f7931e"/>
          <stop offset="1" style="stop-color:#f15a24"/>
        </linearGradient>
        <path d="M710.7,2609.53
				c-62.53,30.88-161.99,58.03-228.19,28.38c-93.98-42.09-90.08-158.08-187.39-212.38c-45.66-25.48-116.66-39.08-231.12,0
				c15.09-25.19,43.45-55.39,74.96-93.7c106.19-129.08,358.13-172.82,518.45-118.68c34.83,11.76,62.28,26.15,81.2,37.48l31.23,349.8
				L710.7,2609.53z" style="fill:url(#SVGID_00000031919589419838789060000013927502596508185730_)"/>
        <linearGradient id="SVGID_00000105395569061364930850000006759696022223924126_" x1="3219.427" x2="3219.427" y1="481.939" y2="1181.694" gradientTransform="rotate(-134.999 2569.606 2637.056)" gradientUnits="userSpaceOnUse">
          <stop offset=".122" style="stop-color:#fbb03b"/>
          <stop offset=".661" style="stop-color:#f7931e"/>
          <stop offset="1" style="stop-color:#f15a24"/>
        </linearGradient>
        <path d="M1183.03,3371.9
				c-22.38,66.05-73.51,155.58-141.29,181.42c-96.22,36.69-175.47-48.08-282.68-17.67c-50.3,14.27-110.13,54.86-163.42,163.42
				c-7.14-28.48-8.45-69.89-13.25-119.26c-16.18-166.36,131.03-375.43,282.68-450.52c32.94-16.31,62.53-25.55,83.92-30.92
				l269.43,225.26L1183.03,3371.9z" style="fill:url(#SVGID_00000105395569061364930850000006759696022223924126_)"/>
        <linearGradient id="SVGID_00000036236549054497742080000009276350550514845317_" x1="3272.041" x2="3272.041" y1="1041.986" y2="1741.735" gradientTransform="rotate(180 2569.583 2637)" gradientUnits="userSpaceOnUse">
          <stop offset=".122" style="stop-color:#fbb03b"/>
          <stop offset=".661" style="stop-color:#f7931e"/>
          <stop offset="1" style="stop-color:#f15a24"/>
        </linearGradient>
        <path d="M2056.1,3576.98
				c30.88,62.53,58.03,161.99,28.38,228.19c-42.09,93.98-158.08,90.08-212.38,187.39c-25.48,45.66-39.08,116.66,0,231.12
				c-25.19-15.09-55.39-43.45-93.7-74.96c-129.08-106.19-172.82-358.13-118.68-518.45c11.76-34.83,26.15-62.28,37.48-81.2
				l349.8-31.23L2056.1,3576.98z" style="fill:url(#SVGID_00000036236549054497742080000009276350550514845317_)"/>
        <linearGradient id="SVGID_00000164504808733979898830000009545728298764219826_" x1="2913.331" x2="2913.331" y1="1475.373" y2="2175.128" gradientTransform="rotate(134.999 2569.64 2637.024)" gradientUnits="userSpaceOnUse">
          <stop offset=".122" style="stop-color:#fbb03b"/>
          <stop offset=".661" style="stop-color:#f7931e"/>
          <stop offset="1" style="stop-color:#f15a24"/>
        </linearGradient>
        <path d="M2818.46,3104.65
				c66.05,22.38,155.58,73.51,181.42,141.29c36.69,96.22-48.08,175.47-17.67,282.68c14.27,50.3,54.86,110.13,163.42,163.42
				c-28.48,7.14-69.89,8.45-119.26,13.25c-166.36,16.18-375.43-131.03-450.52-282.68c-16.31-32.94-25.55-62.53-30.92-83.92
				l225.26-269.43L2818.46,3104.65z" style="fill:url(#SVGID_00000164504808733979898830000009545728298764219826_)"/>
        <linearGradient id="SVGID_00000178886685015890035250000016400172477636024705_" x1="2353.143" x2="2353.143" y1="1528.003" y2="2227.751" gradientTransform="rotate(90 2569.583 2637)" gradientUnits="userSpaceOnUse">
          <stop offset=".122" style="stop-color:#fbb03b"/>
          <stop offset=".661" style="stop-color:#f7931e"/>
          <stop offset="1" style="stop-color:#f15a24"/>
        </linearGradient>
        <path d="M3023.55,2231.59
				c62.53-30.88,161.99-58.03,228.19-28.38c93.98,42.09,90.08,158.08,187.39,212.38c45.66,25.48,116.66,39.08,231.12,0
				c-15.09,25.19-43.45,55.39-74.96,93.7c-106.19,129.08-358.13,172.82-518.45,118.68c-34.83-11.76-62.28-26.15-81.2-37.48
				l-31.23-349.8L3023.55,2231.59z" style="fill:url(#SVGID_00000178886685015890035250000016400172477636024705_)"/>
        <linearGradient id="SVGID_00000128472939396221274940000000577624936451970959_" x1="1919.897" x2="1919.897" y1="1169.278" y2="1869.033" gradientTransform="rotate(45.001 2569.72 2636.944)" gradientUnits="userSpaceOnUse">
          <stop offset=".122" style="stop-color:#fbb03b"/>
          <stop offset=".661" style="stop-color:#f7931e"/>
          <stop offset="1" style="stop-color:#f15a24"/>
        </linearGradient>
        <path d="M2551.22,1469.22
				c22.38-66.05,73.51-155.58,141.29-181.42c96.22-36.69,175.47,48.08,282.68,17.67c50.3-14.27,110.13-54.86,163.42-163.42
				c7.14,28.48,8.45,69.89,13.25,119.26c16.18,166.36-131.03,375.43-282.68,450.52c-32.94,16.31-62.53,25.55-83.92,30.92
				l-269.43-225.26L2551.22,1469.22z" style="fill:url(#SVGID_00000128472939396221274940000000577624936451970959_)"/>
      </g>
      <path d="M3056.02,2420.55c0,656.65-532.28,1188.92-1188.92,1188.92c-441.91,0-827.56-241.17-1032.39-599.03
			c173.83,99.5,375.26,156.44,589.9,156.44c656.55,0,1188.93-532.28,1188.93-1188.83c0-214.74-56.94-416.16-156.44-589.99
			C2814.95,1593.08,3056.02,1978.63,3056.02,2420.55z" style="fill:#ff9700"/>
      <linearGradient id="SVGID_00000022525462840590821060000017278754468148963510_" x1="622.164" x2="2346.162" y1="1457.415" y2="2706.689" gradientUnits="userSpaceOnUse">
        <stop offset="0" style="stop-color:#ffce43"/>
        <stop offset=".699" style="stop-color:#ffa20e"/>
      </linearGradient>
      <path d="M2613.53,1978.05
			c0,656.55-532.37,1188.83-1188.93,1188.83c-214.64,0-416.07-56.94-589.9-156.44c-99.6-173.83-156.44-375.26-156.44-589.9
			c0-656.55,532.28-1188.93,1188.83-1188.93c214.74,0,416.16,56.94,589.99,156.44C2556.59,1561.89,2613.53,1763.31,2613.53,1978.05z
			" style="fill:url(#SVGID_00000022525462840590821060000017278754468148963510_)"/>
    </g>
    <g>
      <path d="M4936,3891.04c0,218.56-143.67,403.54-341.74,465.76c14.57-46.18,22.38-95.38,22.38-146.41
			c0-269.66-218.63-488.22-488.22-488.22c-97.91,0-189.14,28.86-265.58,78.48c-66.66-190.26-247.77-326.6-460.7-326.6
			c-11.9,0-23.65,0.42-35.34,1.27c4.79-33.08,7.32-66.87,7.32-101.29c0-386.72-313.51-700.23-700.3-700.23
			c-111,0-215.95,25.83-309.22,71.8c114.17-231.72,352.72-391.22,628.58-391.22c386.78,0,700.3,313.58,700.3,700.3
			c0,34.42-2.53,68.21-7.32,101.29c11.69-0.85,23.44-1.27,35.34-1.27c212.93,0,394.04,136.34,460.7,326.6
			c76.44-49.62,167.67-78.48,265.58-78.48C4717.37,3402.82,4936,3621.38,4936,3891.04z" style="fill:#dde6f5"/>
      <path d="M4616.64,4210.4c0,51.03-7.81,100.23-22.38,146.4c-46.24,14.57-95.44,22.39-146.48,22.39H1428.59
			c-269.1,0-487.3-217.65-488.22-486.46v-1.69c0-51.03,7.82-100.23,22.38-146.48c62.23-198.07,247.21-341.74,465.84-341.74
			c15.62,0,31.04,0.71,46.24,2.18c44.28,4.16,86.87,14.22,126.85,29.43c5.7-42.52,16.26-83.48,31.18-122.34
			c74.89-196.45,258.75-339.13,477.73-354.2c12.67-0.84,25.41-1.26,38.29-1.26c44.11,0,87.04,5.19,128.14,14.99
			c6.78,1.61,13.5,3.35,20.17,5.21h0.07c0.67-6,1.41-11.98,2.23-17.94c9.44-69.06,28.91-134.94,56.97-196.04
			c2.6-5.77,5.35-11.55,8.16-17.25c93.27-45.96,198.22-71.8,309.22-71.8c386.79,0,700.3,313.52,700.3,700.23
			c0,34.42-2.53,68.21-7.32,101.29c11.68-0.84,23.44-1.26,35.33-1.26c212.93,0,394.04,136.34,460.7,326.6
			c76.44-49.62,167.67-78.48,265.58-78.48C4398.02,3722.18,4616.64,3940.73,4616.64,4210.4z" style="fill:#ccdbf2"/>
      <path d="M3233.29,3813.61c0,0-221.96-536.98-686.5-327.24c-40.74-130.78-651.62-270.07-805.47,214.1
			c-162.9-173.98-678.75,99.52-479.65,425.35c0,0,54.3,162.9,373.72,253.36c2.3,0.65,4.22,2.25,6.41,3.38h-213.21
			c-269.66,0-488.22-218.56-488.22-488.15v-3.38c1.83-268.11,219.68-484.84,488.22-484.84c60.96,0,119.31,11.19,173.09,31.6
			c36.32-269.73,267.48-477.8,547.21-477.8c51.38,0,101.15,7.04,148.31,20.2c136.06,37.8,251.01,126.49,323.02,244.18
			c63.21-34.28,135.64-53.71,212.64-53.71c69.26,0,134.87,15.77,193.43,43.99C3254.93,3355.59,3309.23,3555.68,3233.29,3813.61z" style="fill:#dde6f5"/>
      <ellipse cx="2194.64" cy="3115.2" rx="66.37" ry="171.95" style="fill:#ecf3fb" transform="rotate(-81.773 2194.576 3115.21)"/>
      <ellipse cx="2847.44" cy="2461.22" rx="136.34" ry="52.62" style="fill:#ecf3fb" transform="rotate(-13.233 2848.009 2461.63)"/>
      <ellipse cx="3114.43" cy="2466.17" rx="35.43" ry="68.32" style="fill:#ecf3fb" transform="rotate(-77.807 3114.67 2466.275)"/>
      <ellipse cx="4622.52" cy="3506.05" rx="35.43" ry="68.32" style="fill:#ecf3fb" transform="rotate(-66.466 4622.518 3506.15)"/>
      <ellipse cx="2938.19" cy="3311.81" rx="46.67" ry="120.92" style="fill:#ecf3fb" transform="rotate(-73.508 2938.196 3311.69)"/>
      <path d="M3259.44,3748.51c23.28-84.51,18.31-175.27-3.37-259.53c-0.19-0.9-0.99-3.07-1.3-4.04
			c-0.74-2.11-2.03-6.13-2.76-8.22c-21.58-62.27-57.32-118.1-102.88-163.91c-70.61-71.01-164.84-117.98-266.54-127.62
			c-70.82-7.02-143.39,3.28-209.16,30.53c-12.96,5.41-26.03,11.51-38.4,18.19c-5.16,2.72-15.07,8.2-20.18,10.91l-7.81-12.38
			c-53.75-85.28-131.57-154.54-222.36-197.77c-36.29-17.61-133.82-61.67-213.96-74.24c23.84-2.5,63.97,3.38,106.3,11.19
			c6.78,1.61,13.5,3.35,20.17,5.21h0.07c0.67-6,1.41-11.98,2.23-17.94l2.75,0.8c133.01,38.26,250.53,127.38,323.76,244.52
			c1.19-0.58,2.32-1.11,3.15-1.49c35.46-16.91,73.36-29.26,111.98-36.49c50.39-9.49,102.35-10.49,153.05-3.01
			c172.54,24.44,320.37,151.91,369.47,319c2.19,7.11,3.65,14.54,5.17,21.77c6.91,34.76,10.58,70.11,11.15,105.53
			c0.95,70.33-11.33,142.55-46.68,204.09C3244.41,3792.94,3253.03,3771.01,3259.44,3748.51z" style="fill:#bdceec"/>
    </g>
  </g>
</svg>
