<svg xmlns="http://www.w3.org/2000/svg" xml:space="preserve" id="Layer_1" x="0" y="0" style="enable-background:new 0 0 5000 5000" version="1.1" viewBox="0 0 5000 5000">
  <g>
    <g>
      <path d="M4757.77,3558.97c43.46-300.85,36.53-608.58-23.37-906.49c-3.9-18.16-9.92-46.77-13.94-64.83
			c-4.95-19.62-11.41-49.24-16.73-68.67c-1.95-8.17-11.29-41.83-13.63-51.19c-4.58-16.43-12.75-43.29-17.27-59.31
			c-4.73-15.47-13.95-43.52-18.68-58.85c-6.76-19.02-16.11-47.77-23.13-66.61c-2.85-8.18-15.1-40.29-18.39-49.55
			c-7.51-18.38-15.24-38.8-22.77-57.27c-32.42-78.28-68.82-155.77-108.44-230.66c-8.45-14.95-21.1-39.47-29.48-53.93
			c-17.77-31.25-39.13-67.57-58.02-98.19c-12.08-19.09-25.43-40.18-37.81-59.07c-6.74-9.63-22.82-34.18-29.35-43.62
			c-10.27-14.81-27.41-38.84-37.89-53.65c-7.22-9.87-26.29-35.21-33.96-45.66c-9.61-12.58-22.43-28.82-32.25-41.43
			c-13.25-17.13-33.26-40.84-46.9-57.67c-16.71-19.22-37.36-43.97-54.54-62.6c0,0-23.41-25.94-23.41-25.94s-2.92-3.24-2.92-3.24
			c-12.15-12.75-26.85-28.44-39.01-41.24c0,0-3-3.17-3-3.17s-3.07-3.1-3.07-3.1s-24.6-24.78-24.6-24.78
			c-4.55-4.61-14.03-14.22-18.5-18.51c-84.86-83.09-176.14-161.05-271.53-231.73c-15.47-11.43-40.5-29.23-56.47-40.68
			c-9.88-6.66-33.59-22.9-43.13-29.36c-16.21-10.96-41.84-27.21-58.28-37.92c-259.31-162.97-547.87-278.87-848.01-339.63
			c-25.86-5.64-58.84-11.27-84.95-15.98c-15.81-2.88-43.36-6.75-59.32-9.27c-15.64-1.96-35.34-4.55-50.97-6.48
			c-22.95-2.35-53.76-5.69-76.69-7.17c-226.9-17.54-456.78,4.11-676.24,64.07c-642.69,174.2-1164.59,664.72-1371.34,1298.3
			c-20.72,62.92-39.4,130.83-53.36,195.57c-5.29,23.47-12.16,59.22-16.51,82.9c-2.3,14.95-5.85,34.36-7.78,49.38
			C220.1,3052.48,702.3,3793.77,1452.57,4003.22c268.01,78.46,558.75,71.15,818.19-34.99c368.51-146.77,650.02-473.34,738.21-860.41
			c16.1-68.06,26.12-138.09,27.73-208.06c8.16-272.89-106.62-543.58-305.93-729.93c-134.43-126.86-304.73-212.95-486.35-247.12
			c-423.38-80.29-829.77,205.45-903.72,629.01c-60.55,348.38,191.09,680.02,542.11,719.19c237.83,24.16,462-128.71,529.87-357.82
			c12.83-42.18,20.09-86.34,19.59-130.52c-0.45-69.29-19.6-138.34-54.07-198.45c-62.39-110.53-178.6-189.36-305.91-205.24
			c-74.23-9.01-150.45,7.76-214.63,46.86c-64.93,39.06-116.84,101.07-143.83,172.35c0,0-5.91,16.79-5.91,16.79
			s-5.09,17.09-5.09,17.09s-4.23,17.36-4.23,17.36c26.42-189.49,205.7-323.97,395.22-301.47c56.95,6.56,113.21,24.61,163.68,51.88
			c2.64,1.32,9.53,5.4,12.23,6.97c2.95,1.75,9.38,5.36,12.09,7.22c4.4,2.86,11.37,7.39,15.76,10.25c6.39,4.54,12.73,9.15,19.05,13.8
			c44.78,34.5,83.9,77.35,113.43,125.63c38.34,62.21,62.03,134.04,67.65,206.97c5.76,70.09-5.49,141.01-27.83,207.51
			c-7.02,20.86-15.61,42.18-25.03,62.08c-112.66,238.7-372.8,373.54-633.48,329.95c-397.42-63.41-672.9-442.91-616.12-840.64
			c43.59-312.23,246.07-582.07,531.97-714.34c169.94-79.43,364.16-105.52,549.17-74.59c442.57,70.92,809.35,401.83,930.21,832.94
			c39.34,138.46,52.5,284.69,38.93,428.12c-22.12,218.57-97.22,431.41-214.78,616.9c-193.23,306.67-506.11,534.42-857,625.1
			c-259.55,69.3-536.46,58.58-793.6-15.97C551.59,3994.4,4.67,3189.75,94.06,2333.36c7.91-77.66,21.91-157.73,39.41-233.83
			c44.55-195.59,116.31-386.04,212.72-561.96c149.9-275.02,360.76-516.9,612.09-703.73c469.05-351.72,1075.51-500.31,1653.42-402.08
			c317.9,54.54,626.44,165.99,904.13,330.17c27.46,15.68,59.36,36.04,86.19,52.8c13.83,9.18,39.93,26.22,53.68,35.38
			c11.17,7.63,34.14,23.78,45.26,31.41c9.19,6.18,20.87,15.08,29.77,21.48c24.37,17.6,56.84,42.43,80.51,60.84
			c260.63,205.94,482.51,460.66,649.2,747.93c91.56,156.74,166.5,323.95,223.88,496.1c5.64,18.55,16.43,50.33,21.75,69.18
			c0,0,10.13,34.8,10.13,34.8l5.05,17.4c4.51,16.41,11.79,44.94,16.23,61.28c4.95,20.07,10.04,42.38,14.72,61.62
			c3.38,14.77,9.83,46.94,13.16,61.93C4834.26,2857.57,4831.96,3217.24,4757.77,3558.97L4757.77,3558.97z" style="fill:#4f91ff"/>
      <path d="M1678.52,4479.42c109.08,4.54,219.15,2.57,327.41-10.14c117.68-13.51,234.81-38.67,347.38-75.2
			c541.11-174.74,966.99-609.16,1110.7-1161.47c2.29-9.22,6-23.8,8.34-33.01c3.18-13.83,6.32-27.68,9.4-41.54
			c33.35-152.88,39.66-311.83,16.16-466.74c-45.14-303.58-200.25-584.01-428.51-788.6c-138.71-125.1-305.59-221.37-482.67-283.89
			c-15.16-5.42-36.55-12.74-52.28-17.97c17.55,0.93,37.74,2.07,55.41,3.92c5.26,0.55,13.26,1.17,18.47,1.9
			c219.76,25.11,431.16,114.18,606.67,248.68c398.49,304.59,590.97,813.46,505.01,1306.62c-1.87,10.52-7.79,42.73-9.99,52.94
			c-2.35,10.92-5.82,27.45-8.23,38.32c-3.04,12.69-7.26,30.24-10.35,42.88c-3.12,11.67-8.35,30.92-11.5,42.61
			c-7.95,27.98-17.13,56.63-26.3,84.28c-43.38,126.7-101.96,248.75-174.07,361.6c-167.55,262.81-411,477.44-693.13,609.55
			C2444.16,4555.53,2040.37,4594.88,1678.52,4479.42L1678.52,4479.42z" style="fill:#4f91ff"/>
    </g>
    <g>
      <path d="M1854.67,882.47C1118.14,1138.71,465,2187.86,623.41,2875.68c3.04,13.22-15.68-22.27-22.16-34.22
			c-32.23-61.04-47.68-129.63-57.39-197.56c-1.89-13.69-3.49-27.43-4.73-41.2c0,0-0.24-2.59-0.24-2.59c-0.1-0.86-0.23-1.7-0.35-2.56
			c0,0-0.71-5.11-0.71-5.11c-28.19-202.76-4.8-414.02,58.88-609.08C761.96,1479.6,1186.63,1068,1694.68,917.49
			C1747.2,902.37,1800.51,889.87,1854.67,882.47L1854.67,882.47z" style="fill:#4f91ff"/>
    </g>
  </g>
</svg>
