<svg xmlns="http://www.w3.org/2000/svg" id="Layer_1" version="1.1" viewBox="0 0 5000 5000">
  <g>
    <polygon points="3781.3 68.28 2826.31 1598.07 2558.43 1620.86 3527.74 68.28 3781.3 68.28" style="fill:#fc4335"/>
    <path d="M3612.37,1531.02c-586.86,960.19-2546.95,3400.7-2546.95,3400.7-10.41-52.73,204.4-457.96,468.05-927.96,0-.33.33-.33.33-.65,592.39-757.09,1418.15-1835.11,1810.69-2449.3l267.88-22.79Z" style="fill:#fc4335"/>
    <path d="M2826.31,1598.07l518.18-44.26c-392.54,614.19-1218.3,1692.21-1810.69,2449.3,401.65-716.41,915.92-1582.85,915.92-1582.85l-249.97-2.61-574.48-6.51,26.68-70.63L2505.38,68.28h1022.36l-969.31,1552.58,267.88-22.78h0Z" style="fill:#ffa20e"/>
  </g>
  <g>
    <polygon points="3934.94 2784.52 3513.32 3459.92 3395.05 3469.98 3823 2784.52 3934.94 2784.52" style="fill:#fc4335"/>
    <path d="M3860.36,3430.32c-259.1,423.92-1124.47,1501.4-1124.47,1501.4-4.6-23.28,90.24-202.19,206.64-409.69,0-.15.14-.15.14-.29,261.54-334.26,626.11-810.2,799.41-1081.36l118.27-10.06Z" style="fill:#fc4335"/>
    <path d="M3513.32,3459.92l228.77-19.54c-173.3,271.16-537.88,747.1-799.41,1081.36,177.33-316.29,404.38-698.83,404.38-698.83l-110.36-1.15-253.63-2.87,11.78-31.18,376.79-1003.19h451.37l-427.95,685.46,118.27-10.06h0Z" style="fill:#ffa20e"/>
  </g>
</svg>
