<svg xmlns="http://www.w3.org/2000/svg" xml:space="preserve" id="Layer_1" x="0" y="0" style="enable-background:new 0 0 5000 5000" version="1.1" viewBox="0 0 5000 5000">
  <g>
    <g>
      <g>
        <path d="M2925.09,4822.82l-297.18,24.04c-12.36,9.49-19.32,20.11-19.32,31.36c0,39.65,86.54,71.78,193.32,71.78
				s193.31-32.13,193.31-71.78C2995.22,4855.93,2967.93,4835.96,2925.09,4822.82z M2930.26,4906.5
				c-33.9,12.59-79.49,19.52-128.35,19.52c-48.87,0-94.45-6.93-128.35-19.52c-30.97-11.5-40.99-24.02-40.99-28.28
				c0-1.27,0.9-3.36,3.12-5.99c30.38,4.16,62.21,6.27,94.81,6.27c73.79,0,142.68-10.71,195.27-30.25
				c34.15,11.78,45.48,25.05,45.48,29.97C2971.25,4882.48,2961.23,4895,2930.26,4906.5z" style="fill:#4f91ff"/>
        <path d="M2893.3,4678.62h-0.05l-368.84,15.82c-36.65,16.87-58.63,38.38-58.63,61.73
				c0,40.77,66.91,75.79,162.13,90.69c31.54,4.92,66.2,7.66,102.59,7.66c76.98,0,146.24-12.23,194.59-31.7
				c43.55-17.51,70.13-40.92,70.13-66.65C2995.22,4724.67,2955.35,4696.62,2893.3,4678.62z M2916.14,4800.57
				c-47.3,19.05-114.96,29.97-185.64,29.97c-34.25,0-67.53-2.48-98.88-7.37c-97.85-15.32-141.86-48.4-141.86-67
				c0-8.75,10.23-22.76,38.37-36.92c45.17,6.68,93.6,10.06,144.1,10.06c81.7,0,159.76-9.12,220.82-25.73
				c53.66,16.67,78.2,38.69,78.2,52.59C2971.25,4766.43,2956.82,4784.22,2916.14,4800.57z" style="fill:#4f91ff"/>
        <path d="M2845.2,4523.94l-402.12,13.71h-0.05c-57.96,17.79-93.84,42.33-93.84,69.32
				c0,38.11,71.15,71.16,175.22,87.47c44.31,6.96,94.56,10.89,147.82,10.89c85.52,0,163.31-10.12,221.07-26.71
				c62.72-17.86,101.92-43.38,101.92-71.65C2995.22,4572.03,2935.37,4541.38,2845.2,4523.94z M2954.18,4626.95
				c-15.11,10.4-38.18,20.21-66.79,28.41c-0.49,0.13-0.97,0.26-1.45,0.42c-57.79,16.49-133.64,25.58-213.71,25.58
				c-50.02,0-99.78-3.66-143.92-10.58c-0.05-0.01-0.11-0.02-0.16-0.03h-0.03c-115.94-18.17-154.95-51.41-154.95-63.78
				c0-8.85,19.14-27.76,71.36-44.64c52.31,9.7,111.3,14.84,171.12,14.84c83.87,0,165.45-10.13,230.6-28.57
				c94.28,19.08,125,47.42,125,58.37C2971.25,4610.95,2966.76,4618.29,2954.18,4626.95z" style="fill:#4f91ff"/>
        <path d="M2860.6,4343.84c-10.17-3.39-20.92-6.56-32.21-9.51h-0.06l-36.79,1.89c-0.01,0-0.02,0-0.03,0.01
				c-64.71,13.92-140.45,21.53-218.72,21.53c-36.26,0-72.04-1.62-106.52-4.79h-0.02c-0.01,0-0.01,0-0.02,0s-0.01,0-0.02,0h-0.03
				l-123.53,6.36c-0.01,0.01-0.01,0.01-0.02,0l-12.71,0.66h-0.05c-42.22,20.11-67.12,44.85-67.12,71.5
				c0,45.56,72.69,85.35,180.28,106.16c51.02,9.92,109.9,15.54,172.62,15.54c87.66,0,167.86-11.04,229.55-29.25
				c75.5-22.35,123.34-55.47,123.34-92.45C2968.54,4397.03,2927.15,4365.96,2860.6,4343.84z M2921,4463.87
				c-18.88,13.84-47.44,26.67-82.59,37.08c-61.75,18.22-140.87,28.26-222.76,28.26c-59,0-116.99-5.2-167.77-15.04
				c-0.03-0.01-0.07-0.02-0.1-0.02c-0.07-0.02-0.13-0.03-0.19-0.04c-105.61-20.43-160.86-57.02-160.86-82.62
				c0-14.68,18.44-32.45,49.55-47.96c1.31,0.3,2.62,0.59,3.94,0.88c69.56,15.29,149.98,23.36,232.57,23.36
				c106.71,0,209.65-13.74,289.09-38.15c56.79,20.32,82.68,44.54,82.68,61.87C2944.56,4444.62,2929.8,4457.41,2921,4463.87z" style="fill:#4f91ff"/>
        <path d="M2858.8,4127.7c0,0,0,0-0.01,0l-116.82,2.14c-63.12,10.34-132.63,15.71-204.78,15.71
				c-54.47,0-107.53-3.09-157.54-9.07c-0.01,0-0.01,0-0.02,0c-0.01,0-0.01,0-0.02,0h-0.05l-115.25,2.11h-0.05
				c-1.21,0.44-2.4,0.89-3.59,1.34h-0.01c-68.57,25.73-110.31,60.06-110.31,97.73c0,50.96,76.52,95.84,192.28,121.67
				c0.01,0.01,0.01,0.01,0.02,0c0.98,0.23,1.96,0.44,2.94,0.66c65.6,14.41,143.53,22.78,227.2,22.78
				c111.2,0,212.39-14.77,287.81-38.93c9.45-3.02,18.5-6.2,27.11-9.51c66.88-25.59,107.51-59.55,107.51-96.67
				C2995.22,4199.13,2930.24,4153.64,2858.8,4127.7z M2950.01,4271.56c-15.94,14.05-40.57,27.68-71.28,39.43
				c-6.38,2.45-13.02,4.81-19.86,7.09c-7.82-2.42-15.97-4.75-24.43-6.96l-2.98-0.77h-3.13c-12.91,0-23.4,10.2-23.92,22.99
				c-4.24,0.99-8.53,1.95-12.87,2.88c-0.01,0-0.02,0-0.03,0.01c-64.71,13.92-140.45,21.53-218.72,21.53
				c-36.26,0-72.04-1.62-106.52-4.79h-0.02c-0.01,0-0.01,0-0.02,0s-0.01,0-0.02,0h-0.03c-40.64-3.71-79.49-9.56-115.24-17.41
				c-55.96-12.26-102.27-29.01-133.92-48.43c-26.87-16.48-41.66-34.05-41.66-49.47c0-23.41,33.8-50.74,88.82-72.29
				c80.93,18.43,174.92,28.14,273.01,28.14c105.3,0,205.52-11.12,289.84-32.14c10.12-2.52,19.89-5.16,29.32-7.9
				c73.39,27.95,113.87,67.12,113.87,84.19C2970.22,4248.33,2963.42,4259.73,2950.01,4271.56z" style="fill:#4f91ff"/>
        <path d="M2899.8,3907.89h-0.01c-1.05-0.42-2.1-0.83-3.17-1.24l-93.79,1.7c-0.01,0.01-0.02,0.01-0.03,0.01
				s-0.01,0-0.02,0s-0.01,0-0.02,0s-0.01,0-0.02,0c-83.65,16.87-180.81,25.9-282.54,25.9c-79.46,0-157.9-5.77-228.92-16.61h-0.03
				c-0.01,0-0.01,0-0.02,0s-0.01,0-0.02,0s-0.01,0-0.02,0s-0.01,0-0.02,0s-0.01,0-0.02,0l-109.27,1.99l-35.77,0.65
				c-53.26,25.66-84.49,56.74-84.49,90.42c0,52.44,76.16,98.99,193.52,127.88c1.83,0.45,3.67,0.9,5.52,1.34h0.01
				c77.92,18.6,173.36,29.6,276.52,29.6c106.52,0,204.81-11.67,284.04-31.43c13.05-3.25,25.59-6.72,37.56-10.4c0.01,0,0.01,0,0.01,0
				c94.63-29.03,153.96-70.69,153.96-116.99C3012.76,3971.43,2970.28,3935.63,2899.8,3907.89z M2947.5,4063.01
				c-22.45,14.61-52.79,28.09-89.11,39.69c-4.76,0.08-9.37,1.52-13.28,4.08c-9.54,2.81-19.44,5.5-29.68,8.05
				c-23.27,5.8-47.83,10.82-73.46,15.01c-63.12,10.34-132.63,15.71-204.78,15.71c-54.47,0-107.53-3.09-157.54-9.07
				c-0.01,0-0.01,0-0.02,0c-0.01,0-0.01,0-0.02,0h-0.05c-34.51-4.14-67.54-9.65-98.59-16.5c-4.44-3.97-10.29-6.39-16.71-6.39h-4.43
				l-2.38,0.87c-54.59-13.71-99.51-31.35-130.06-51.11c-19.07-12.33-41.79-31.48-41.79-52.64c0-22.02,25.85-47.1,70.92-68.82
				c1.89-0.91,3.61-2.04,5.14-3.34c5.62,1.54,11.32,3.05,17.15,4.52c98.29,24.95,216.34,38.13,341.39,38.13
				c141.39,0,274.82-17.08,377.74-48.19c57.09,23.63,90.84,52.33,90.84,77.7C2988.78,4031.73,2966.33,4050.75,2947.5,4063.01z" style="fill:#4f91ff"/>
        <path d="M2969.8,3686.49h-0.05l-4.17-0.01c-0.01,0-0.01,0-0.02,0l-101.66-0.16c-0.01,0-0.01,0-0.02,0
				c-0.01,0-0.01,0-0.02,0c-0.01,0-0.01,0-0.02,0s-0.01,0-0.02,0s-0.01,0-0.02,0s-0.01,0-0.02,0s-0.01,0-0.02,0s-0.01,0-0.02,0
				s-0.01,0-0.02,0s-0.01,0-0.02,0s-0.01,0-0.02,0s-0.01,0-0.02,0s-0.01,0-0.02,0c-100.2,19.57-217.98,30.08-341.53,30.08
				c-125.18,0-245.76-11.04-346.89-31.16l-101.17-0.16h-0.18c-60.32,27.98-95.64,61.94-95.64,98.64c0,55,79.51,104.05,203.65,135.92
				c0.9,0.23,1.8,0.46,2.7,0.69c92.26,23.41,208.91,37.4,335.62,37.4c147.86,0,281.81-18.99,379.59-49.84h0.01
				c1.26-0.4,2.51-0.8,3.76-1.2c97.99-31.5,158.61-74.88,158.61-122.97C3062.17,3747.65,3028.12,3714.26,2969.8,3686.49z
				 M3005.42,3832.73c-24.03,18.23-60.23,35.57-104.89,50.26c-7.55-1.25-15.17,1.22-20.54,6.39c-24.07,7.13-49.91,13.47-77.16,18.97
				c-0.01,0.01-0.02,0.01-0.03,0.01s-0.01,0-0.02,0s-0.01,0-0.02,0s-0.01,0-0.02,0c-83.65,16.87-180.81,25.9-282.54,25.9
				c-79.46,0-157.9-5.77-228.92-16.61h-0.03c-0.01,0-0.01,0-0.02,0s-0.01,0-0.02,0s-0.01,0-0.02,0s-0.01,0-0.02,0s-0.01,0-0.02,0
				c-35.74-5.44-69.61-12.16-100.8-20.08c-114.6-29.03-188.65-73.72-188.65-113.85c0-23.58,26.69-50.03,73.57-73.28
				c119.03,34.43,279.28,53.92,446.84,53.92c167.24,0,324.81-18.89,444.62-53.24c46.47,23.35,71.97,48.98,71.97,72.6
				C3038.7,3803.36,3020.6,3821.21,3005.42,3832.73z" style="fill:#4f91ff"/>
        <path d="M3043.83,3455h-0.05l-86.09-0.32c-0.01,0-0.01,0-0.02,0s-0.01,0-0.02,0c-0.01,0-0.01,0-0.02,0
				c-0.01,0-0.01,0-0.02,0c-0.01,0-0.01,0-0.02,0s-0.01,0-0.02,0s-0.01,0-0.02,0s-0.01,0-0.02,0s-0.01,0-0.02,0s-0.01,0-0.02,0
				s-0.01,0-0.02,0s-0.01,0-0.02,0s-0.01,0-0.02,0h-0.02c-118.16,28.5-268.14,44.4-425.28,44.4c-163.93,0-318.82-17.04-438.66-47.56
				h-0.15l-83.99-0.31h-0.05c-71.72,29.81-113.78,66.23-113.78,105.53c0,46.12,57.91,88.23,153.65,120.43
				c8.04,2.71,16.34,5.35,24.9,7.91c113.74,34.13,272.45,55.3,448.06,55.3c173.22,0,330.04-20.59,443.45-53.9c0.01,0,0.01,0,0.02,0
				c0.03-0.01,0.07-0.02,0.1-0.03c113.06-33.25,182.99-79.02,182.99-129.71C3148.67,3519.05,3110.08,3484.11,3043.83,3455z
				 M3085.9,3608.43c-28.91,20.06-72.82,39.09-126.98,55.02c-29.35,8.62-61.17,16.26-95.02,22.87c-0.01,0-0.01,0-0.02,0
				c-0.01,0-0.01,0-0.02,0c-0.01,0-0.01,0-0.02,0s-0.01,0-0.02,0s-0.01,0-0.02,0s-0.01,0-0.02,0s-0.01,0-0.02,0s-0.01,0-0.02,0
				s-0.01,0-0.02,0s-0.01,0-0.02,0s-0.01,0-0.02,0s-0.01,0-0.02,0s-0.01,0-0.02,0c-100.2,19.57-217.98,30.08-341.53,30.08
				c-125.18,0-245.76-11.04-346.89-31.16c-43.47-8.64-83.34-18.95-118.43-30.79c-85.98-28.92-137.32-65.45-137.32-97.71
				c0-25.64,32.94-54.51,90.72-79.84c130.64,44.62,320.06,70.14,521.94,70.14c195.08,0,380.28-24.13,510.33-66.33
				c52.39,24.37,82.23,51.85,82.23,76.03C3124.69,3577.22,3103.6,3596.16,3085.9,3608.43z" style="fill:#4f91ff"/>
        <path d="M3112.89,3232.55l-81.7-0.29h-0.15c-0.01,0-0.01,0-0.02,0s-0.01,0-0.02,0
				c-132.15,34.35-305.25,53.58-488.8,53.58c-190.85,0-368.87-20.52-502.34-57.14h-0.17l-79.69-0.29
				c-63.23,29.53-99.72,64.19-99.72,101.38c0,45.98,55.81,88.16,149.05,121.42c123.13,43.8,311.59,71.85,522.8,71.85
				c204.97,0,388.47-26.43,511.7-68.06c99.93-33.74,160.2-77.4,160.2-125.21C3204.03,3294.35,3170.85,3261.1,3112.89,3232.55z
				 M3036.91,3432.03c-0.53,0.16-1.06,0.34-1.57,0.53c-23.91,8.04-49.9,15.43-77.65,22.12c-0.01,0-0.01,0-0.02,0s-0.01,0-0.02,0
				c-0.01,0-0.01,0-0.02,0c-0.01,0-0.01,0-0.02,0c-0.01,0-0.01,0-0.02,0s-0.01,0-0.02,0s-0.01,0-0.02,0s-0.01,0-0.02,0
				s-0.01,0-0.02,0s-0.01,0-0.02,0s-0.01,0-0.02,0s-0.01,0-0.02,0s-0.01,0-0.02,0h-0.02c-118.16,28.5-268.14,44.4-425.28,44.4
				c-163.93,0-318.82-17.04-438.66-47.56h-0.15c-27.28-6.95-52.6-14.6-75.94-22.9c-83.36-29.73-133.12-66.68-133.12-98.83
				c0-23.74,27.96-50.97,77.08-75.41c67.12,23.77,152.4,43.44,247.53,57.03c103.97,14.86,216.12,22.39,333.33,22.39
				c220.26,0,426.7-27.38,568.86-75.27c44.58,23.44,68.99,48.57,68.99,71.26C3180.05,3363.45,3126.55,3401.64,3036.91,3432.03z" style="fill:#4f91ff"/>
        <path d="M3199.07,3011.23l-79.95-0.68h-0.16c-0.01,0-0.01,0-0.02,0s-0.01,0-0.02,0s-0.01,0-0.02,0
				c-146.65,38.89-342.47,60.72-551.5,60.72c-224.98,0-437.1-25.89-585.77-70.43c-0.01-0.01-0.01-0.01-0.02-0.01s-0.01,0-0.02,0
				c-0.01,0-0.01,0-0.02,0s-0.01,0-0.02,0l-75.47-0.64c-61.19,30.23-96.1,65.25-96.1,102.58c0,47.25,55.92,90.76,150.02,125.64
				c133.82,49.49,344.82,81.41,582.2,81.41c230.68,0,436.46-30.16,570.69-77.27c101.05-35.5,161.57-80.71,161.57-129.78
				C3274.46,3069.87,3247.32,3038.79,3199.07,3011.23z M3104.95,3209.93c-22.84,8.02-47.42,15.48-73.76,22.33h-0.15
				c-0.01,0-0.01,0-0.02,0s-0.01,0-0.02,0c-132.15,34.35-305.25,53.58-488.8,53.58c-190.85,0-368.87-20.52-502.34-57.14h-0.17
				c-25.55-7.02-49.3-14.62-71.36-22.78c-45.21-16.75-80-35-103.41-54.22c-20.54-16.88-30.96-33.34-30.96-48.93
				c0-24.38,26-51.3,73.47-76.35c72.88,27.63,168.4,50.58,277.23,66.56c116.92,17.17,249.27,26.24,382.74,26.24
				c245.12,0,473.35-29.72,628.91-81.72c35.02,21.74,54.17,44.71,54.17,65.27C3250.48,3137.85,3196.08,3177.91,3104.95,3209.93z" style="fill:#4f91ff"/>
        <path d="M3290.21,2780.34h-70.7c-14.24,4.55-29.12,8.95-44.59,13.18c-161.97,44.27-377.73,68.65-607.54,68.65
				c-229.81,0-445.58-24.38-607.54-68.65c-15.47-4.23-30.36-8.63-44.6-13.18h-70.65v0.01h-0.01
				c-51.21,28.89-79.89,61.23-79.89,95.47c0,46.19,52.19,89.08,141.39,124.37c144.75,57.44,386.98,95.06,661.32,95.06
				c256.39,0,484.77-32.84,631.67-84.02c107.13-37.33,171.03-84.3,171.03-135.41C3370.1,2841.58,3341.42,2809.24,3290.21,2780.34z
				 M3310.05,2929.75c-27,20.96-66.99,40.76-118.87,58.84c-22.43,7.82-46.42,15.15-72.06,21.96h-0.16c-0.01,0-0.01,0-0.02,0
				s-0.01,0-0.02,0s-0.01,0-0.02,0c-146.65,38.89-342.47,60.72-551.5,60.72c-224.98,0-437.1-25.89-585.77-70.43
				c-0.01-0.01-0.01-0.01-0.02-0.01s-0.01,0-0.02,0c-0.01,0-0.01,0-0.02,0s-0.01,0-0.02,0c-23.93-7.17-46.22-14.82-66.65-22.93
				c-80.22-31.75-126.23-68.95-126.23-102.08c0-26.94,29.53-51.47,57.88-68.82c29.81,11.65,63.38,22.6,100.64,32.78
				c165.97,45.37,386.23,70.35,620.19,70.35c233.96,0,454.21-24.98,620.18-70.35c37.28-10.18,70.85-21.14,100.67-32.79
				c28.35,17.35,57.89,41.88,57.89,68.83C3346.12,2893.03,3333.99,2911.17,3310.05,2929.75z" style="fill:#4f91ff"/>
        <g>
          <path d="M2567.38,2411.58c-479.46,0-868.14,106.24-868.14,237.29c0,48.63,53.52,93.84,145.34,131.48h0.01
					c155.62,63.78,421.25,105.8,722.79,105.8c301.55,0,567.18-42.02,722.8-105.81c91.81-37.63,145.33-82.84,145.33-131.47
					C3435.51,2517.82,3046.84,2411.58,2567.38,2411.58z M3354.28,2721.09c-32.74,21.16-78.8,41.37-134.77,59.25
					c-14.24,4.55-29.12,8.95-44.59,13.18c-161.97,44.27-377.73,68.65-607.54,68.65c-229.81,0-445.58-24.38-607.54-68.65
					c-15.47-4.23-30.36-8.63-44.6-13.18c-55.97-17.88-102.02-38.09-134.76-59.25c-26.12-16.88-57.26-43.11-57.26-72.22
					c0-29.11,31.14-55.35,57.26-72.23c41.07-26.54,103.09-51.58,179.36-72.43c161.96-44.27,377.73-68.65,607.54-68.65
					c229.81,0,445.57,24.38,607.54,68.65c76.26,20.85,138.29,45.89,179.36,72.43c26.12,16.88,57.25,43.12,57.25,72.23
					C3411.53,2677.98,3380.4,2704.21,3354.28,2721.09z" style="fill:#4f91ff"/>
          <path d="M3459.49,2648.87c0-76.28-94.03-142.29-271.93-190.92c-165.97-45.36-386.22-70.35-620.18-70.35
					c-233.96,0-454.22,24.99-620.19,70.35c-177.89,48.63-271.92,114.64-271.92,190.92c0,50.29,40.89,96.12,119.74,135.45
					c-36.05,28.07-54.3,58.73-54.3,91.5c0,29.9,15.33,58.3,45.55,84.42c17.33,14.97,39.74,29.28,66.89,42.75
					c-13.99,9.44-25.85,19.23-35.43,29.29c-21.05,22.11-31.72,45.82-31.72,70.49c0,30.63,16.31,59.56,48.48,85.99
					c18.28,15.01,41.81,29.27,70.25,42.6c-13.84,8.98-25.64,18.3-35.25,27.9c-22.02,21.99-33.18,45.72-33.18,70.53
					c0,30.14,16.34,58.48,48.58,84.22c17.32,13.83,39.32,26.95,65.73,39.21c-16.22,9.39-30.03,19.24-41.26,29.47
					c-25.11,22.86-37.83,47.77-37.83,74.05c0,30.4,16.92,58.81,50.29,84.45c23.42,17.99,54.99,34.6,94.04,49.52
					c-11.23,7.69-20.97,15.68-29.12,23.93c-21.21,21.48-31.97,44.72-31.97,69.08c0,52.9,50.88,99.68,145.14,135.02
					c-13.19,8.66-24.36,17.75-33.37,27.22c-19.17,20.12-28.89,41.91-28.89,64.75c0,23.58,11.05,58.85,63.7,92.91
					c23.69,15.32,54.28,29.36,90.13,41.48c-53.13,32.29-66.12,66.68-66.12,92.56c0,23.67,11.36,58.88,65.51,92.1
					c22.38,13.73,50.55,26.16,83.2,36.83c-28.18,23.58-35.29,47.14-35.29,64.9c0,46.27,46.52,85.76,129.99,112.28
					c-2.96,1.85-5.78,3.74-8.44,5.66c-29.02,21-35.11,42.88-35.11,57.54c0,15.7,6.51,30.5,19.36,43.99
					c10.16,10.67,24.51,20.58,42.67,29.46c20.69,10.12,46.53,19.02,76.28,26.35c-17.07,17.89-21.72,35.52-21.72,49.4
					c0,20.23,10.03,49.85,57.8,76.07c23.26,12.76,52.96,23.34,87.21,31.16c-1.63,5.46-2.19,10.49-2.19,14.82
					c0,11.61,4.05,29.02,23.34,45.96c11.94,10.49,28.4,19.66,48.9,27.28c39.11,14.52,90.63,22.52,145.05,22.52
					c54.42,0,105.93-8,145.05-22.52c20.5-7.62,36.95-16.79,48.9-27.28c19.29-16.94,23.34-34.35,23.34-45.96
					c0-22.09-13.64-41.77-39.22-57.54c31.39-22.54,39.22-46.37,39.22-64.51c0-29.78-20.72-56.2-59.5-77.03
					c47.78-24.14,59.5-51.33,59.5-72.17c0-14.52-5.6-28.32-16.66-41.01c-8.81-10.12-21.29-19.59-37.09-28.15
					c-12.3-6.66-26.82-12.87-43.21-18.52c10.06-5.3,19.13-10.89,27.13-16.75c35.66-26.17,43.15-53.08,43.15-71.05
					c0-32.82-23.23-62.21-66.93-86.09c77.36-36.45,94.64-77.97,94.64-107.74c0-42.29-44.5-80.68-96.09-108.22
					c73.3-31.82,112.59-72.65,112.59-118.73c0-27.57-14.52-64.95-75.59-100.22c29.14-12.31,53.47-25.81,72.65-40.37
					c34.4-26.1,51.85-55.17,51.85-86.4c0-23.96-10.4-46.85-30.92-68.05c-8.01-8.28-17.62-16.3-28.74-24.04
					c96.22-36.35,146.67-82.49,146.67-134.89c0-25.27-11.78-49.31-35.01-71.45c-9.76-9.29-21.62-18.28-35.47-26.92
					c29.77-12.92,54.49-26.86,73.82-41.66c34.51-26.45,52.01-55.69,52.01-86.92c0-23.74-10.24-46.53-30.44-67.74
					c-8.25-8.66-18.25-17.08-29.88-25.23c31.98-14.04,58.36-29.18,78.73-45.24c34.53-27.2,52.03-57.08,52.03-88.81
					c0-30.63-16.12-59.28-48-85.54c36.5-15.38,66.34-31.99,89.02-49.6c36.24-28.13,54.62-59.02,54.62-91.81
					c0-32.78-18.25-63.44-54.31-91.51C3418.61,2744.99,3459.49,2699.16,3459.49,2648.87z M2930.26,4906.5
					c-33.9,12.59-79.49,19.52-128.35,19.52c-48.87,0-94.45-6.93-128.35-19.52c-30.97-11.5-40.99-24.02-40.99-28.28
					c0-1.27,0.9-3.36,3.12-5.99c30.38,4.16,62.21,6.27,94.81,6.27c73.79,0,142.68-10.71,195.27-30.25
					c34.15,11.78,45.48,25.05,45.48,29.97C2971.25,4882.48,2961.23,4895,2930.26,4906.5z M2528.13,4719.25
					c45.17,6.68,93.6,10.06,144.1,10.06c81.7,0,159.76-9.12,220.82-25.73c53.66,16.67,78.2,38.69,78.2,52.59
					c0,10.26-14.43,28.05-55.11,44.4c-47.3,19.05-114.96,29.97-185.64,29.97c-34.25,0-67.53-2.48-98.88-7.37
					c-97.85-15.32-141.86-48.4-141.86-67C2489.76,4747.42,2499.99,4733.41,2528.13,4719.25z M2954.18,4626.95
					c-15.11,10.4-38.18,20.21-66.79,28.41c-0.49,0.13-0.97,0.26-1.45,0.42c-57.79,16.49-133.64,25.58-213.71,25.58
					c-50.02,0-99.78-3.66-143.92-10.58c-0.05-0.01-0.11-0.02-0.16-0.03h-0.03c-115.94-18.17-154.95-51.41-154.95-63.78
					c0-8.85,19.14-27.76,71.36-44.64c52.31,9.7,111.3,14.84,171.12,14.84c83.87,0,165.45-10.13,230.6-28.57
					c94.28,19.08,125,47.42,125,58.37C2971.25,4610.95,2966.76,4618.29,2954.18,4626.95z M2921,4463.87
					c-18.88,13.84-47.44,26.67-82.59,37.08c-61.75,18.22-140.87,28.26-222.76,28.26c-59,0-116.99-5.2-167.77-15.04
					c-0.03-0.01-0.07-0.02-0.1-0.02c-0.07-0.02-0.13-0.03-0.19-0.04c-105.61-20.43-160.86-57.02-160.86-82.62
					c0-14.68,18.44-32.45,49.55-47.96c1.31,0.3,2.62,0.59,3.94,0.88c69.56,15.29,149.98,23.36,232.57,23.36
					c106.71,0,209.65-13.74,289.09-38.15c56.79,20.32,82.68,44.54,82.68,61.87C2944.56,4444.62,2929.8,4457.41,2921,4463.87z
					 M2950.01,4271.56c-15.94,14.05-40.57,27.68-71.28,39.43c-6.38,2.45-13.02,4.81-19.86,7.09c-7.82-2.42-15.97-4.75-24.43-6.96
					l-2.98-0.77h-3.13c-12.91,0-23.4,10.2-23.92,22.99c-4.24,0.99-8.53,1.95-12.87,2.88c-0.01,0-0.02,0-0.03,0.01
					c-64.71,13.92-140.45,21.53-218.72,21.53c-36.26,0-72.04-1.62-106.52-4.79h-0.02c-0.01,0-0.01,0-0.02,0s-0.01,0-0.02,0h-0.03
					c-40.64-3.71-79.49-9.56-115.24-17.41c-55.96-12.26-102.27-29.01-133.92-48.43c-26.87-16.48-41.66-34.05-41.66-49.47
					c0-23.41,33.8-50.74,88.82-72.29c80.93,18.43,174.92,28.14,273.01,28.14c105.3,0,205.52-11.12,289.84-32.14
					c10.12-2.52,19.89-5.16,29.32-7.9c73.39,27.95,113.87,67.12,113.87,84.19C2970.22,4248.33,2963.42,4259.73,2950.01,4271.56z
					 M2947.5,4063.01c-22.45,14.61-52.79,28.09-89.11,39.69c-4.76,0.08-9.37,1.52-13.28,4.08c-9.54,2.81-19.44,5.5-29.68,8.05
					c-23.27,5.8-47.83,10.82-73.46,15.01c-63.12,10.34-132.63,15.71-204.78,15.71c-54.47,0-107.53-3.09-157.54-9.07
					c-0.01,0-0.01,0-0.02,0c-0.01,0-0.01,0-0.02,0h-0.05c-34.51-4.14-67.54-9.65-98.59-16.5c-4.44-3.97-10.29-6.39-16.71-6.39h-4.43
					l-2.38,0.87c-54.59-13.71-99.51-31.35-130.06-51.11c-19.07-12.33-41.79-31.48-41.79-52.64c0-22.02,25.85-47.1,70.92-68.82
					c1.89-0.91,3.61-2.04,5.14-3.34c5.62,1.54,11.32,3.05,17.15,4.52c98.29,24.95,216.34,38.13,341.39,38.13
					c141.39,0,274.82-17.08,377.74-48.19c57.09,23.63,90.84,52.33,90.84,77.7C2988.78,4031.73,2966.33,4050.75,2947.5,4063.01z
					 M3005.42,3832.73c-24.03,18.23-60.23,35.57-104.89,50.26c-7.55-1.25-15.17,1.22-20.54,6.39
					c-24.07,7.13-49.91,13.47-77.16,18.97c-0.01,0.01-0.02,0.01-0.03,0.01s-0.01,0-0.02,0s-0.01,0-0.02,0s-0.01,0-0.02,0
					c-83.65,16.87-180.81,25.9-282.54,25.9c-79.46,0-157.9-5.77-228.92-16.61h-0.03c-0.01,0-0.01,0-0.02,0s-0.01,0-0.02,0
					s-0.01,0-0.02,0s-0.01,0-0.02,0s-0.01,0-0.02,0c-35.74-5.44-69.61-12.16-100.8-20.08c-114.6-29.03-188.65-73.72-188.65-113.85
					c0-23.58,26.69-50.03,73.57-73.28c119.03,34.43,279.28,53.92,446.84,53.92c167.24,0,324.81-18.89,444.62-53.24
					c46.47,23.35,71.97,48.98,71.97,72.6C3038.7,3803.36,3020.6,3821.21,3005.42,3832.73z M3085.9,3608.43
					c-28.91,20.06-72.82,39.09-126.98,55.02c-29.35,8.62-61.17,16.26-95.02,22.87c-0.01,0-0.01,0-0.02,0c-0.01,0-0.01,0-0.02,0
					c-0.01,0-0.01,0-0.02,0s-0.01,0-0.02,0s-0.01,0-0.02,0s-0.01,0-0.02,0s-0.01,0-0.02,0s-0.01,0-0.02,0s-0.01,0-0.02,0
					s-0.01,0-0.02,0s-0.01,0-0.02,0s-0.01,0-0.02,0s-0.01,0-0.02,0c-100.2,19.57-217.98,30.08-341.53,30.08
					c-125.18,0-245.76-11.04-346.89-31.16c-43.47-8.64-83.34-18.95-118.43-30.79c-85.98-28.92-137.32-65.45-137.32-97.71
					c0-25.64,32.94-54.51,90.72-79.84c130.64,44.62,320.06,70.14,521.94,70.14c195.08,0,380.28-24.13,510.33-66.33
					c52.39,24.37,82.23,51.85,82.23,76.03C3124.69,3577.22,3103.6,3596.16,3085.9,3608.43z M3036.91,3432.03
					c-0.53,0.16-1.06,0.34-1.57,0.53c-23.91,8.04-49.9,15.43-77.65,22.12c-0.01,0-0.01,0-0.02,0s-0.01,0-0.02,0
					c-0.01,0-0.01,0-0.02,0c-0.01,0-0.01,0-0.02,0c-0.01,0-0.01,0-0.02,0s-0.01,0-0.02,0s-0.01,0-0.02,0s-0.01,0-0.02,0
					s-0.01,0-0.02,0s-0.01,0-0.02,0s-0.01,0-0.02,0s-0.01,0-0.02,0s-0.01,0-0.02,0h-0.02c-118.16,28.5-268.14,44.4-425.28,44.4
					c-163.93,0-318.82-17.04-438.66-47.56h-0.15c-27.28-6.95-52.6-14.6-75.94-22.9c-83.36-29.73-133.12-66.68-133.12-98.83
					c0-23.74,27.96-50.97,77.08-75.41c67.12,23.77,152.4,43.44,247.53,57.03c103.97,14.86,216.12,22.39,333.33,22.39
					c220.26,0,426.7-27.38,568.86-75.27c44.58,23.44,68.99,48.57,68.99,71.26C3180.05,3363.45,3126.55,3401.64,3036.91,3432.03z
					 M3104.95,3209.93c-22.84,8.02-47.42,15.48-73.76,22.33h-0.15c-0.01,0-0.01,0-0.02,0s-0.01,0-0.02,0
					c-132.15,34.35-305.25,53.58-488.8,53.58c-190.85,0-368.87-20.52-502.34-57.14h-0.17c-25.55-7.02-49.3-14.62-71.36-22.78
					c-45.21-16.75-80-35-103.41-54.22c-20.54-16.88-30.96-33.34-30.96-48.93c0-24.38,26-51.3,73.47-76.35
					c72.88,27.63,168.4,50.58,277.23,66.56c116.92,17.17,249.27,26.24,382.74,26.24c245.12,0,473.35-29.72,628.91-81.72
					c35.02,21.74,54.17,44.71,54.17,65.27C3250.48,3137.85,3196.08,3177.91,3104.95,3209.93z M3310.05,2929.75
					c-27,20.96-66.99,40.76-118.87,58.84c-22.43,7.82-46.42,15.15-72.06,21.96h-0.16c-0.01,0-0.01,0-0.02,0s-0.01,0-0.02,0
					s-0.01,0-0.02,0c-146.65,38.89-342.47,60.72-551.5,60.72c-224.98,0-437.1-25.89-585.77-70.43c-0.01-0.01-0.01-0.01-0.02-0.01
					s-0.01,0-0.02,0c-0.01,0-0.01,0-0.02,0s-0.01,0-0.02,0c-23.93-7.17-46.22-14.82-66.65-22.93
					c-80.22-31.75-126.23-68.95-126.23-102.08c0-26.94,29.53-51.47,57.88-68.82c29.81,11.65,63.38,22.6,100.64,32.78
					c165.97,45.37,386.23,70.35,620.19,70.35c233.96,0,454.21-24.98,620.18-70.35c37.28-10.18,70.85-21.14,100.67-32.79
					c28.35,17.35,57.89,41.88,57.89,68.83C3346.12,2893.03,3333.99,2911.17,3310.05,2929.75z M3354.28,2721.09
					c-32.74,21.16-78.8,41.37-134.77,59.25c-14.24,4.55-29.12,8.95-44.59,13.18c-161.97,44.27-377.73,68.65-607.54,68.65
					c-229.81,0-445.58-24.38-607.54-68.65c-15.47-4.23-30.36-8.63-44.6-13.18c-55.97-17.88-102.02-38.09-134.76-59.25
					c-26.12-16.88-57.26-43.11-57.26-72.22c0-29.11,31.14-55.35,57.26-72.23c41.07-26.54,103.09-51.58,179.36-72.43
					c161.96-44.27,377.73-68.65,607.54-68.65c229.81,0,445.57,24.38,607.54,68.65c76.26,20.85,138.29,45.89,179.36,72.43
					c26.12,16.88,57.25,43.12,57.25,72.23C3411.53,2677.98,3380.4,2704.21,3354.28,2721.09z" style="fill:#3e76ef"/>
          <path d="M3411.53,2648.87c0,29.11-31.13,55.34-57.25,72.22c-32.74,21.16-78.8,41.37-134.77,59.25
					c-14.24,4.55-29.12,8.95-44.59,13.18c-161.97,44.27-377.73,68.65-607.54,68.65c-229.81,0-445.58-24.38-607.54-68.65
					c-15.47-4.23-30.36-8.63-44.6-13.18c-55.97-17.88-102.02-38.09-134.76-59.25c-26.12-16.88-57.26-43.11-57.26-72.22
					c0-29.11,31.14-55.35,57.26-72.23c41.07-26.54,103.09-51.58,179.36-72.43c161.96-44.27,377.73-68.65,607.54-68.65
					c229.81,0,445.57,24.38,607.54,68.65c76.26,20.85,138.29,45.89,179.36,72.43C3380.4,2593.52,3411.53,2619.76,3411.53,2648.87z" style="fill:#4f91ff"/>
          <path d="M3346.12,2875.82c0,17.21-12.13,35.35-36.07,53.93c-27,20.96-66.99,40.76-118.87,58.84
					c-22.43,7.82-46.42,15.15-72.06,21.96h-0.16c-0.01,0-0.01,0-0.02,0s-0.01,0-0.02,0s-0.01,0-0.02,0
					c-146.65,38.89-342.47,60.72-551.5,60.72c-224.98,0-437.1-25.89-585.77-70.43c-0.01-0.01-0.01-0.01-0.02-0.01s-0.01,0-0.02,0
					c-0.01,0-0.01,0-0.02,0s-0.01,0-0.02,0c-23.93-7.17-46.22-14.82-66.65-22.93c-80.22-31.75-126.23-68.95-126.23-102.08
					c0-26.94,29.53-51.47,57.88-68.82c29.81,11.65,63.38,22.6,100.64,32.78c165.97,45.37,386.23,70.35,620.19,70.35
					c233.96,0,454.21-24.98,620.18-70.35c37.28-10.18,70.85-21.14,100.67-32.79C3316.58,2824.34,3346.12,2848.87,3346.12,2875.82z" style="fill:#4f91ff"/>
          <path d="M3250.48,3102.77c0,35.08-54.4,75.14-145.53,107.16c-22.84,8.02-47.42,15.48-73.76,22.33h-0.15
					c-0.01,0-0.01,0-0.02,0s-0.01,0-0.02,0c-132.15,34.35-305.25,53.58-488.8,53.58c-190.85,0-368.87-20.52-502.34-57.14h-0.17
					c-25.55-7.02-49.3-14.62-71.36-22.78c-45.21-16.75-80-35-103.41-54.22c-20.54-16.88-30.96-33.34-30.96-48.93
					c0-24.38,26-51.3,73.47-76.35c72.88,27.63,168.4,50.58,277.23,66.56c116.92,17.17,249.27,26.24,382.74,26.24
					c245.12,0,473.35-29.72,628.91-81.72C3231.33,3059.24,3250.48,3082.21,3250.48,3102.77z" style="fill:#4f91ff"/>
          <path d="M3180.05,3329.79c0,33.66-53.5,71.85-143.14,102.24c-0.53,0.16-1.06,0.34-1.57,0.53
					c-23.91,8.04-49.9,15.43-77.65,22.12c-0.01,0-0.01,0-0.02,0s-0.01,0-0.02,0c-0.01,0-0.01,0-0.02,0c-0.01,0-0.01,0-0.02,0
					c-0.01,0-0.01,0-0.02,0s-0.01,0-0.02,0s-0.01,0-0.02,0s-0.01,0-0.02,0s-0.01,0-0.02,0s-0.01,0-0.02,0s-0.01,0-0.02,0
					s-0.01,0-0.02,0s-0.01,0-0.02,0h-0.02c-118.16,28.5-268.14,44.4-425.28,44.4c-163.93,0-318.82-17.04-438.66-47.56h-0.15
					c-27.28-6.95-52.6-14.6-75.94-22.9c-83.36-29.73-133.12-66.68-133.12-98.83c0-23.74,27.96-50.97,77.08-75.41
					c67.12,23.77,152.4,43.44,247.53,57.03c103.97,14.86,216.12,22.39,333.33,22.39c220.26,0,426.7-27.38,568.86-75.27
					C3155.64,3281.97,3180.05,3307.1,3180.05,3329.79z" style="fill:#4f91ff"/>
          <path d="M3124.69,3556.74c0,20.48-21.09,39.42-38.79,51.69c-28.91,20.06-72.82,39.09-126.98,55.02
					c-29.35,8.62-61.17,16.26-95.02,22.87c-0.01,0-0.01,0-0.02,0c-0.01,0-0.01,0-0.02,0c-0.01,0-0.01,0-0.02,0s-0.01,0-0.02,0
					s-0.01,0-0.02,0s-0.01,0-0.02,0s-0.01,0-0.02,0s-0.01,0-0.02,0s-0.01,0-0.02,0s-0.01,0-0.02,0s-0.01,0-0.02,0s-0.01,0-0.02,0
					s-0.01,0-0.02,0c-100.2,19.57-217.98,30.08-341.53,30.08c-125.18,0-245.76-11.04-346.89-31.16
					c-43.47-8.64-83.34-18.95-118.43-30.79c-85.98-28.92-137.32-65.45-137.32-97.71c0-25.64,32.94-54.51,90.72-79.84
					c130.64,44.62,320.06,70.14,521.94,70.14c195.08,0,380.28-24.13,510.33-66.33C3094.85,3505.08,3124.69,3532.56,3124.69,3556.74z
					" style="fill:#4f91ff"/>
          <path d="M3038.7 3783.72c0 19.64-18.1 37.49-33.28 49.01-24.03 18.23-60.23 35.57-104.89 50.26-7.55-1.25-15.17 1.22-20.54 6.39-24.07 7.13-49.91 13.47-77.16 18.97-.01.01-.02.01-.03.01s-.01 0-.02 0-.01 0-.02 0-.01 0-.02 0c-83.65 16.87-180.81 25.9-282.54 25.9-79.46 0-157.9-5.77-228.92-16.61h-.03c-.01 0-.01 0-.02 0s-.01 0-.02 0-.01 0-.02 0-.01 0-.02 0-.01 0-.02 0c-35.74-5.44-69.61-12.16-100.8-20.08-114.6-29.03-188.65-73.72-188.65-113.85 0-23.58 26.69-50.03 73.57-73.28 119.03 34.43 279.28 53.92 446.84 53.92 167.24 0 324.81-18.89 444.62-53.24C3013.2 3734.47 3038.7 3760.1 3038.7 3783.72zM2988.78 4010.71c0 21.02-22.45 40.04-41.28 52.3-22.45 14.61-52.79 28.09-89.11 39.69-4.76.08-9.37 1.52-13.28 4.08-9.54 2.81-19.44 5.5-29.68 8.05-23.27 5.8-47.83 10.82-73.46 15.01-63.12 10.34-132.63 15.71-204.78 15.71-54.47 0-107.53-3.09-157.54-9.07-.01 0-.01 0-.02 0-.01 0-.01 0-.02 0h-.05c-34.51-4.14-67.54-9.65-98.59-16.5-4.44-3.97-10.29-6.39-16.71-6.39h-4.43l-2.38.87c-54.59-13.71-99.51-31.35-130.06-51.11-19.07-12.33-41.79-31.48-41.79-52.64 0-22.02 25.85-47.1 70.92-68.82 1.89-.91 3.61-2.04 5.14-3.34 5.62 1.54 11.32 3.05 17.15 4.52 98.29 24.95 216.34 38.13 341.39 38.13 141.39 0 274.82-17.08 377.74-48.19C2955.03 3956.64 2988.78 3985.34 2988.78 4010.71zM2970.22 4237.66c0 10.67-6.8 22.07-20.21 33.9-15.94 14.05-40.57 27.68-71.28 39.43-6.38 2.45-13.02 4.81-19.86 7.09-7.82-2.42-15.97-4.75-24.43-6.96l-2.98-.77h-3.13c-12.91 0-23.4 10.2-23.92 22.99-4.24.99-8.53 1.95-12.87 2.88-.01 0-.02 0-.03.01-64.71 13.92-140.45 21.53-218.72 21.53-36.26 0-72.04-1.62-106.52-4.79h-.02c-.01 0-.01 0-.02 0s-.01 0-.02 0h-.03c-40.64-3.71-79.49-9.56-115.24-17.41-55.96-12.26-102.27-29.01-133.92-48.43-26.87-16.48-41.66-34.05-41.66-49.47 0-23.41 33.8-50.74 88.82-72.29 80.93 18.43 174.92 28.14 273.01 28.14 105.3 0 205.52-11.12 289.84-32.14 10.12-2.52 19.89-5.16 29.32-7.9C2929.74 4181.42 2970.22 4220.59 2970.22 4237.66zM2944.56 4431.49c0 13.13-14.76 25.92-23.56 32.38-18.88 13.84-47.44 26.67-82.59 37.08-61.75 18.22-140.87 28.26-222.76 28.26-59 0-116.99-5.2-167.77-15.04-.03-.01-.07-.02-.1-.02-.07-.02-.13-.03-.19-.04-105.61-20.43-160.86-57.02-160.86-82.62 0-14.68 18.44-32.45 49.55-47.96 1.31.3 2.62.59 3.94.88 69.56 15.29 149.98 23.36 232.57 23.36 106.71 0 209.65-13.74 289.09-38.15C2918.67 4389.94 2944.56 4414.16 2944.56 4431.49zM2971.25 4606.97c0 3.98-4.49 11.32-17.07 19.98-15.11 10.4-38.18 20.21-66.79 28.41-.49.13-.97.26-1.45.42-57.79 16.49-133.64 25.58-213.71 25.58-50.02 0-99.78-3.66-143.92-10.58-.05-.01-.11-.02-.16-.03h-.03c-115.94-18.17-154.95-51.41-154.95-63.78 0-8.85 19.14-27.76 71.36-44.64 52.31 9.7 111.3 14.84 171.12 14.84 83.87 0 165.45-10.13 230.6-28.57C2940.53 4567.68 2971.25 4596.02 2971.25 4606.97zM2971.25 4756.17c0 10.26-14.43 28.05-55.11 44.4-47.3 19.05-114.96 29.97-185.64 29.97-34.25 0-67.53-2.48-98.88-7.37-97.85-15.32-141.86-48.4-141.86-67 0-8.75 10.23-22.76 38.37-36.92 45.17 6.68 93.6 10.06 144.1 10.06 81.7 0 159.76-9.12 220.82-25.73C2946.71 4720.25 2971.25 4742.27 2971.25 4756.17zM2971.25 4878.22c0 4.26-10.02 16.78-40.99 28.28-33.9 12.59-79.49 19.52-128.35 19.52-48.87 0-94.45-6.93-128.35-19.52-30.97-11.5-40.99-24.02-40.99-28.28 0-1.27.9-3.36 3.12-5.99 30.38 4.16 62.21 6.27 94.81 6.27 73.79 0 142.68-10.71 195.27-30.25C2959.92 4860.03 2971.25 4873.3 2971.25 4878.22z" style="fill:#4f91ff"/>
        </g>
      </g>
      <g>
        <g>
          <g>
            <path d="M4555.53,2158.62c0,180.49-84.77,341.2-216.67,444.46c61.49-90.35,97.42-199.47,97.42-316.99
						c0-121.85-38.63-234.72-104.36-326.96c-65.72-92.24-158.46-163.83-266.73-203.22c0.76-11.24,1.33-22.55,1.33-33.9
						c0-81.76-20.58-158.65-56.88-225.89c-80.43-149.25-238.2-250.63-419.64-250.63c-83.65,0-162.19,21.59-230.5,59.4
						c7.83-49.62,11.87-100.44,11.87-152.21c0-538.58-436.63-975.21-975.15-975.21c-62.69,0-123.99,5.93-183.4,17.17
						c-177.07,33.73-337.18,115.34-466.33,230.84c142.65-182.68,348.96-313.24,585.58-358.31C2391.48,55.93,2452.78,50,2515.47,50
						c538.52,0,975.15,436.63,975.15,975.21c0,51.77-4.04,102.59-11.87,152.21c68.31-37.82,146.84-59.4,230.5-59.4
						c181.44,0,339.21,101.38,419.64,250.63c36.3,67.24,56.88,144.13,56.88,225.89c0,11.36-0.57,22.66-1.33,33.9
						c108.27,39.39,201.01,110.98,266.73,203.22C4516.9,1923.9,4555.53,2036.78,4555.53,2158.62z" style="fill:#bdceec"/>
          </g>
          <g>
            <path d="M4436.29,2286.11c0,117.52-35.96,226.63-97.41,316.96c-39.55,30.98-83.41,56.84-130.45,76.43
						c-66.84,27.9-140.14,43.29-217.03,43.29H1320.86c-1.13,0-2.21,0-3.33-0.1c-1.13,0.1-2.26,0.1-3.39,0.1
						c-115.42,0-225.55-22.52-326.3-63.3c-23.65-9.54-46.78-20.16-69.3-31.7c-281.46-143.99-474.08-436.84-474.08-774.68
						c0-198.26,66.33-380.98,178-527.27c158.92-208.11,409.6-342.35,691.68-342.35c40.78,0,80.89,2.82,120.19,8.26
						c36.16,5.03,71.56,12.26,106.13,21.49c2.62-221.5,79.15-425.25,206.01-587.75c129.16-115.52,289.26-197.13,466.34-230.83
						c59.45-11.23,120.75-17.18,183.44-17.18c538.51,0,975.14,436.63,975.14,975.19c0,51.76-4.05,102.59-11.9,152.25
						c68.33-37.86,146.86-59.4,230.53-59.4c151.63,0,286.75,70.79,374,181.18c5.08,6.46,10.05,13.08,14.82,19.8
						c11.23,15.85,21.54,32.42,30.83,49.6c36.27,67.25,56.84,144.14,56.84,225.91c0,11.39-0.56,22.67-1.28,33.91
						c108.24,39.4,200.98,111.01,266.69,203.24C4397.67,2051.38,4436.29,2164.23,4436.29,2286.11z" style="fill:#dde6f5"/>
          </g>
        </g>
        <g>
          <path d="M1318.46,983.49c436.55-41.52,839,307.99,873.03,742.58c1.05,13.87,2.03,29.37,2.27,43.29
					c0.68,28.85-0.26,57.67-3.22,86.21c-3.41-32.12-7.56-63.77-13.48-95.24c-1.72-9.79-4.12-21.52-6.22-31.23
					C2082.31,1313.65,1739.68,1020.51,1318.46,983.49L1318.46,983.49z" style="fill:#bdceec"/>
        </g>
      </g>
      <g>
        <g>
          <path d="M1247.85,3299.33c-3.35,0-6.75-0.73-9.97-2.28c-11.49-5.51-16.34-19.3-10.83-30.8l141.18-294.36
					c5.51-11.5,19.3-16.34,30.8-10.83c11.49,5.51,16.34,19.3,10.83,30.8l-141.18,294.36
					C1264.71,3294.5,1256.45,3299.33,1247.85,3299.33z" style="fill:#4f91ff"/>
        </g>
        <g>
          <path d="M1130.67,3546.15c-3.35,0-6.75-0.73-9.97-2.28c-11.49-5.51-16.34-19.3-10.83-30.8l70.59-147.18
					c5.51-11.49,19.3-16.34,30.8-10.83c11.49,5.51,16.34,19.3,10.83,30.8l-70.59,147.18
					C1147.53,3541.32,1139.28,3546.15,1130.67,3546.15z" style="fill:#4f91ff"/>
        </g>
        <g>
          <path d="M1060.08,3225.74c-3.35,0-6.75-0.73-9.97-2.28c-11.49-5.51-16.34-19.3-10.83-30.8l70.59-147.18
					c5.51-11.49,19.3-16.34,30.8-10.83c11.49,5.51,16.34,19.3,10.83,30.8l-70.59,147.18
					C1076.94,3220.91,1068.69,3225.74,1060.08,3225.74z" style="fill:#4f91ff"/>
        </g>
      </g>
      <g>
        <g>
          <path d="M3778.14,3299.33c-3.35,0-6.75-0.73-9.97-2.28c-11.5-5.51-16.34-19.3-10.83-30.8l141.18-294.36
					c5.51-11.5,19.3-16.34,30.8-10.83c11.5,5.51,16.34,19.3,10.83,30.8l-141.18,294.36C3795,3294.5,3786.75,3299.33,3778.14,3299.33
					z" style="fill:#4f91ff"/>
        </g>
        <g>
          <path d="M3660.96,3546.15c-3.35,0-6.75-0.73-9.97-2.28c-11.5-5.51-16.34-19.3-10.83-30.8l70.59-147.18
					c5.51-11.5,19.3-16.34,30.8-10.83c11.5,5.51,16.34,19.3,10.83,30.8l-70.59,147.18
					C3677.83,3541.32,3669.57,3546.15,3660.96,3546.15z" style="fill:#4f91ff"/>
        </g>
        <g>
          <path d="M3590.38,3225.74c-3.35,0-6.75-0.73-9.97-2.28c-11.5-5.51-16.34-19.3-10.83-30.8l70.59-147.18
					c5.51-11.49,19.3-16.34,30.8-10.83c11.5,5.51,16.34,19.3,10.83,30.8l-70.59,147.18
					C3607.24,3220.91,3598.98,3225.74,3590.38,3225.74z" style="fill:#4f91ff"/>
        </g>
      </g>
    </g>
  </g>
</svg>
