<svg xmlns="http://www.w3.org/2000/svg" xml:space="preserve" id="Layer_1" x="0" y="0" style="enable-background:new 0 0 5000 5000" version="1.1" viewBox="0 0 5000 5000">
  <g>
    <g>
      <g>
        <polygon points="2435.53 2952.44 2408.83 3092.68 2101.13 3087.55 2130.88 2947.31 2146.97 2947.6" style="fill:#ef8e00"/>
        <path d="M3012.35,3486.6l-842.31,1330.16l-31.25,49.3l51.15-380.13l31.2-49.3l479.31-756.91
				c11.71-18.51,13.15-39.39,6.86-57.49c-8.71-25.66-32.7-45.84-63.72-45.84h-232.74c-41.4,0-72.95-36.96-66.49-77.85l64.47-405.85
				l26.7-140.24l278.35,4.67l-64.47,405.85c-6.46,40.89,25.08,77.91,66.49,77.91h232.68
				C2979.71,3440.87,3003.65,3460.94,3012.35,3486.6z" style="fill:#fc4335"/>
        <path d="M2700.44,3679.72l-510.52,806.2l93.43-695.55c5.41-40.35-26.01-76.28-66.71-76.28h-165.35
				c-42.81,0-74.73-39.44-65.8-81.34l115.64-545.18l307.7,5.13l-64.47,405.84c-6.47,40.84,25.1,77.82,66.5,77.82h232.69
				C2696.57,3576.38,2728.84,3634.94,2700.44,3679.72z" style="fill:#ffa20e"/>
        <path d="M3005.47,3544.18l-874.61,1381.05l7.94-59.19l31.21-49.28l842.34-1330.15
				C3018.61,3504.74,3017.21,3525.62,3005.47,3544.18z" style="fill:#ef2622"/>
      </g>
      <g>
        <polygon points="3744.05 2950.97 3725 3051.05 3505.43 3047.38 3526.66 2947.31 3538.14 2947.52" style="fill:#ef8e00"/>
        <path d="M4155.65,3332.13l-601.05,949.16l-22.3,35.18l36.5-271.25l22.26-35.18l342.02-540.11
				c8.35-13.21,9.38-28.1,4.9-41.02c-6.21-18.31-23.33-32.71-45.47-32.71h-166.07c-29.54,0-52.05-26.38-47.44-55.55l46-289.6
				l19.05-100.07l198.62,3.33l-46,289.6c-4.61,29.17,17.9,55.59,47.44,55.59h166.03C4132.36,3299.5,4149.44,3313.82,4155.65,3332.13
				z" style="fill:#fc4335"/>
        <path d="M3933.08,3469.94l-364.29,575.28l66.67-496.32c3.86-28.79-18.56-54.43-47.61-54.43h-117.99
				c-30.55,0-53.32-28.14-46.95-58.04l82.52-389.02l219.57,3.66l-46,289.6c-4.61,29.15,17.91,55.53,47.46,55.53h166.04
				C3930.32,3396.19,3953.34,3437.98,3933.08,3469.94z" style="fill:#ffa20e"/>
        <path d="M4150.74,3373.22l-624.09,985.47l5.67-42.24l22.27-35.17l601.07-949.15
				C4160.12,3345.08,4159.11,3359.98,4150.74,3373.22z" style="fill:#ef2622"/>
      </g>
      <g>
        <polygon points="1163.94 2950.97 1144.89 3051.05 925.33 3047.38 946.56 2947.31 958.04 2947.52" style="fill:#ef8e00"/>
        <path d="M1575.55,3332.13L974.5,4281.29l-22.3,35.18l36.5-271.25l22.26-35.18l342.02-540.11
				c8.35-13.21,9.38-28.1,4.9-41.02c-6.21-18.31-23.33-32.71-45.47-32.71h-166.07c-29.54,0-52.05-26.38-47.44-55.55l46-289.6
				l19.05-100.07l198.62,3.33l-46,289.6c-4.61,29.17,17.9,55.59,47.44,55.59h166.03C1552.26,3299.5,1569.33,3313.82,1575.55,3332.13
				z" style="fill:#fc4335"/>
        <path d="M1352.97,3469.94l-364.29,575.28l66.67-496.32c3.86-28.79-18.56-54.43-47.61-54.43H889.76
				c-30.55,0-53.32-28.14-46.95-58.04l82.52-389.02l219.57,3.66l-46,289.6c-4.61,29.15,17.91,55.53,47.46,55.53h166.04
				C1350.21,3396.19,1373.24,3437.98,1352.97,3469.94z" style="fill:#ffa20e"/>
        <path d="M1570.63,3373.22l-624.09,985.47l5.67-42.24l22.27-35.17l601.07-949.15
				C1580.02,3345.08,1579.01,3359.98,1570.63,3373.22z" style="fill:#ef2622"/>
      </g>
    </g>
    <g>
      <g>
        <path d="M4754.18,2387.17c0,197.94-92.96,374.18-237.61,487.42c67.43-99.08,106.84-218.75,106.84-347.62
				c0-133.62-42.36-257.4-114.44-358.56c-72.07-101.15-173.77-179.66-292.51-222.86c0.83-12.33,1.46-24.72,1.46-37.18
				c0-89.67-22.57-173.99-62.38-247.73c-88.2-163.67-261.22-274.85-460.2-274.85c-91.74,0-177.86,23.67-252.77,65.14
				c8.59-54.41,13.02-110.15,13.02-166.92c0-590.63-478.82-1069.45-1069.39-1069.45c-68.74,0-135.97,6.5-201.12,18.83
				c-194.19,36.99-369.77,126.48-511.4,253.14C1830.1,286.2,2056.35,143.03,2315.84,93.6c65.15-12.33,132.38-18.83,201.12-18.83
				c590.57,0,1069.39,478.82,1069.39,1069.45c0,56.77-4.43,112.51-13.02,166.92c74.91-41.47,161.03-65.14,252.77-65.14
				c198.98,0,372,111.18,460.2,274.85c39.81,73.74,62.38,158.06,62.38,247.73c0,12.45-0.63,24.85-1.46,37.18
				c118.74,43.2,220.44,121.71,292.51,222.86C4711.82,2129.77,4754.18,2253.55,4754.18,2387.17z" style="fill:#bdceec"/>
        <path d="M4623.41,2526.97c0,128.87-39.41,248.54-106.84,347.62c-105.03,82.24-237.32,131.26-381.06,131.26H1206.93
				c-1.25,0-2.42,0-3.68-0.07c-1.24,0.07-2.49,0.07-3.73,0.07c-126.55,0-247.32-24.65-357.8-69.39
				c-25.93-10.49-51.29-22.1-76.01-34.74c-308.64-157.91-519.89-479.06-519.89-849.56c0-217.41,72.74-417.82,195.22-578.23
				c174.24-228.22,449.16-375.46,758.49-375.46c44.72,0,88.74,3.1,131.84,9.07c39.62,5.49,78.47,13.42,116.37,23.6
				c2.9-242.94,86.8-466.39,225.94-644.6c141.63-126.66,317.21-216.16,511.4-253.14c65.15-12.33,132.38-18.83,201.12-18.83
				c590.57,0,1069.39,478.82,1069.39,1069.45c0,56.77-4.43,112.51-13.02,166.92c74.91-41.47,161.03-65.14,252.77-65.14
				c166.3,0,314.48,77.67,410.15,198.74c5.6,7.09,11.02,14.32,16.25,21.7c12.34,17.38,23.63,35.54,33.8,54.41
				c39.81,73.74,62.38,158.06,62.38,247.73c0,12.45-0.63,24.85-1.46,37.18c118.74,43.2,220.44,121.71,292.51,222.86
				C4581.04,2269.56,4623.41,2393.35,4623.41,2526.97z" style="fill:#dde6f5"/>
      </g>
      <path d="M1204.27,1098.48c478.73-45.53,920.08,337.75,957.4,814.35c1.15,15.21,2.22,32.2,2.49,47.47
			c0.75,31.64-0.28,63.24-3.53,94.54c-3.74-35.22-8.29-69.93-14.78-104.44c-1.89-10.74-4.52-23.6-6.82-34.24
			C2041.95,1460.54,1666.2,1139.07,1204.27,1098.48L1204.27,1098.48z" style="fill:#bdceec"/>
    </g>
  </g>
</svg>
